M48
;DRILL file {PCBnew (20090216-final)} date Sun 27 Mar 2011 05:59:00 PM PDT
;FORMAT={2:4/ absolute / inch / suppress trailing zeros}
R,T
VER,1
FMAT,2
INCH,LZ
TCST,OFF
ICI,OFF
ATC,ON
T1C0.025
T2C0.032
T3C0.039
T4C0.040
T5C0.051
T6C0.102
T7C0.110
T8C0.118
T9C0.120
%
M47
G05
M72
T1
X0591Y-0427
T2
X0445Y-04775
X0455Y-04775
X048Y-04675
X048Y-04975
X0505Y-04675
X0505Y-04975
X053Y-04675
X053Y-04975
X06Y-04675
X06Y-04975
X061Y-0405
X061Y-0415
X07025Y-03875
X07025Y-04275
T3
X0435Y-03825
X0435Y-04425
X0445Y-03825
X0445Y-04425
X0455Y-03825
X0455Y-04425
X0465Y-03825
X0465Y-04425
X0475Y-03825
X0475Y-04425
X0485Y-03825
X0485Y-04425
X0495Y-03825
X0495Y-04425
X0505Y-03825
X0505Y-04425
X0515Y-03825
X0515Y-04425
X0525Y-03825
X0525Y-04425
X0535Y-03825
X0535Y-04425
X0545Y-03825
X0545Y-04425
X0555Y-03825
X0555Y-04425
X0565Y-03825
X0565Y-04425
X0575Y-03825
X0575Y-04425
T4
X0565Y-04675
X0565Y-04775
X0565Y-04875
X0565Y-04975
X06525Y-0405
X06525Y-0415
X06625Y-0405
X06625Y-0415
X07575Y-03225
X07575Y-03325
X07575Y-03425
X07575Y-03525
X07575Y-0395
X07575Y-0405
X07575Y-0415
X07575Y-0425
T5
X06325Y-04602
X06325Y-0475
X06325Y-04898
T6
X0725Y-048112
T7
X04572Y-016065
X04572Y-03575
X06719Y-04533
X06719Y-04967
X07328Y-016065
X07328Y-03575
T8
X0725Y-04575
T9
X043Y-0135
X043Y-05025
X076Y-0135
X076Y-05025
T0
M30
