G04 (created by PCBnew (20090216-final)) date Sun 27 Mar 2011 05:59:06 PM PDT*
G01*
G70*
G90*
%MOIN*%
G04 Gerber Fmt 3.4, Leading zero omitted, Abs format*
%FSLAX34Y34*%
G04 APERTURE LIST*
%ADD10C,0.015000*%
%ADD11R,0.060000X0.069000*%
%ADD12C,0.069000*%
%ADD13C,0.055000*%
%ADD14C,0.066000*%
%ADD15R,0.060000X0.060000*%
%ADD16C,0.060000*%
%ADD17C,0.200000*%
%ADD18C,0.181100*%
%ADD19C,0.085000*%
%ADD20C,0.160000*%
%ADD21C,0.130000*%
%ADD22C,0.045000*%
%ADD23C,0.017000*%
%ADD24C,0.025000*%
%ADD25C,0.010000*%
G04 APERTURE END LIST*
G54D10*
X42000Y-12500D02*
X42000Y-51250D01*
X77000Y-12500D02*
X77000Y-51250D01*
X42000Y-12500D02*
X77000Y-12500D01*
X42000Y-51250D02*
X77000Y-51250D01*
G54D11*
X57500Y-38250D03*
G54D12*
X56500Y-38250D03*
X55500Y-38250D03*
X54500Y-38250D03*
X53500Y-38250D03*
X52500Y-38250D03*
X51500Y-38250D03*
X50500Y-38250D03*
X49500Y-38250D03*
X48500Y-38250D03*
X47500Y-38250D03*
X46500Y-38250D03*
X45500Y-38250D03*
X44500Y-38250D03*
X43500Y-38250D03*
X43500Y-44250D03*
X44500Y-44250D03*
X45500Y-44250D03*
X46500Y-44250D03*
X47500Y-44250D03*
X48500Y-44250D03*
X49500Y-44250D03*
X50500Y-44250D03*
X51500Y-44250D03*
X52500Y-44250D03*
X53500Y-44250D03*
X54500Y-44250D03*
X55500Y-44250D03*
X56500Y-44250D03*
X57500Y-44250D03*
G54D13*
X61000Y-40500D03*
X61000Y-41500D03*
G54D14*
X44500Y-47750D03*
X45500Y-47750D03*
G54D15*
X65250Y-41500D03*
G54D16*
X65250Y-40500D03*
X66250Y-41500D03*
X66250Y-40500D03*
G54D15*
X56500Y-49750D03*
G54D16*
X56500Y-48750D03*
X56500Y-47750D03*
X56500Y-46750D03*
G54D13*
X50500Y-49750D03*
X50500Y-46750D03*
X53000Y-49750D03*
X53000Y-46750D03*
X48000Y-49750D03*
X48000Y-46750D03*
G54D16*
X70250Y-38750D03*
X70250Y-42750D03*
G54D17*
X72500Y-45750D03*
G54D18*
X72500Y-48112D03*
G54D15*
X75750Y-32250D03*
G54D16*
X75750Y-33250D03*
X75750Y-34250D03*
X75750Y-35250D03*
G54D15*
X75750Y-39500D03*
G54D16*
X75750Y-40500D03*
X75750Y-41500D03*
X75750Y-42500D03*
G54D19*
X63250Y-46020D03*
X63250Y-47500D03*
X63250Y-48980D03*
G54D20*
X67190Y-45330D03*
X67190Y-49670D03*
G54D13*
X60000Y-49750D03*
X60000Y-46750D03*
G54D21*
X76000Y-50250D03*
X43000Y-50250D03*
X43000Y-13500D03*
X76000Y-13500D03*
G54D20*
X45720Y-16065D03*
X73280Y-35750D03*
X73280Y-16065D03*
X45720Y-35750D03*
G54D22*
X59100Y-42700D03*
G54D23*
X57500Y-38250D02*
X57500Y-37500D01*
X75200Y-42500D02*
X75750Y-42500D01*
X69600Y-36900D02*
X75200Y-42500D01*
X58100Y-36900D02*
X69600Y-36900D01*
X57500Y-37500D02*
X58100Y-36900D01*
X75750Y-41500D02*
X75300Y-41500D01*
X56500Y-37200D02*
X56500Y-38250D01*
X57400Y-36300D02*
X56500Y-37200D01*
X70100Y-36300D02*
X57400Y-36300D01*
X75300Y-41500D02*
X70100Y-36300D01*
X46500Y-44250D02*
X46500Y-43650D01*
X53500Y-39850D02*
X53500Y-38250D01*
X52100Y-41250D02*
X53500Y-39850D01*
X48900Y-41250D02*
X52100Y-41250D01*
X46500Y-43650D02*
X48900Y-41250D01*
X53000Y-49750D02*
X53000Y-49050D01*
X46500Y-45000D02*
X46500Y-44250D01*
X47200Y-45700D02*
X46500Y-45000D01*
X50550Y-45700D02*
X47200Y-45700D01*
X51350Y-46500D02*
X50550Y-45700D01*
X51350Y-47400D02*
X51350Y-46500D01*
X53000Y-49050D02*
X51350Y-47400D01*
X53000Y-49750D02*
X54150Y-49750D01*
X55150Y-48750D02*
X56500Y-48750D01*
X54150Y-49750D02*
X55150Y-48750D01*
X75750Y-35250D02*
X75400Y-35250D01*
X49500Y-37300D02*
X49500Y-38250D01*
X52400Y-34400D02*
X49500Y-37300D01*
X74550Y-34400D02*
X52400Y-34400D01*
X75400Y-35250D02*
X74550Y-34400D01*
X48500Y-38250D02*
X48500Y-37250D01*
X75300Y-34250D02*
X75750Y-34250D01*
X74700Y-33650D02*
X75300Y-34250D01*
X52100Y-33650D02*
X74700Y-33650D01*
X48500Y-37250D02*
X52100Y-33650D01*
X44500Y-47750D02*
X44500Y-46700D01*
X45500Y-40500D02*
X45500Y-38250D01*
X42800Y-43200D02*
X45500Y-40500D01*
X42800Y-45000D02*
X42800Y-43200D01*
X44500Y-46700D02*
X42800Y-45000D01*
X50500Y-44250D02*
X50500Y-43800D01*
X51600Y-42700D02*
X59100Y-42700D01*
X50500Y-43800D02*
X51600Y-42700D01*
X54500Y-44250D02*
X54500Y-44200D01*
X69800Y-43200D02*
X70250Y-42750D01*
X55500Y-43200D02*
X69800Y-43200D01*
X54500Y-44200D02*
X55500Y-43200D01*
X60000Y-49750D02*
X56500Y-49750D01*
X56500Y-46750D02*
X57200Y-46750D01*
X57300Y-49750D02*
X56500Y-49750D01*
X57600Y-49450D02*
X57300Y-49750D01*
X57600Y-47150D02*
X57600Y-49450D01*
X57200Y-46750D02*
X57600Y-47150D01*
X54500Y-44250D02*
X54500Y-45500D01*
X55750Y-46750D02*
X56500Y-46750D01*
X54500Y-45500D02*
X55750Y-46750D01*
G54D24*
X72500Y-45750D02*
X69750Y-45750D01*
X63750Y-44250D02*
X57500Y-44250D01*
X66500Y-47000D02*
X63750Y-44250D01*
X68500Y-47000D02*
X66500Y-47000D01*
X69750Y-45750D02*
X68500Y-47000D01*
X75750Y-39500D02*
X75750Y-36850D01*
X75750Y-36850D02*
X76600Y-36000D01*
X76600Y-36000D02*
X76600Y-32600D01*
X76600Y-32600D02*
X76250Y-32250D01*
X76250Y-32250D02*
X75750Y-32250D01*
G54D23*
X70250Y-38750D02*
X67000Y-38750D01*
X67000Y-38750D02*
X65250Y-40500D01*
X61000Y-40500D02*
X65250Y-40500D01*
X48000Y-49750D02*
X47500Y-49750D01*
X47500Y-49750D02*
X45500Y-47750D01*
X60000Y-46750D02*
X60000Y-46500D01*
X60480Y-46020D02*
X63250Y-46020D01*
X60000Y-46500D02*
X60480Y-46020D01*
G54D25*
X53382Y-49389D02*
X54037Y-49389D01*
X53335Y-49309D02*
X54117Y-49309D01*
X53335Y-49229D02*
X54197Y-49229D01*
X53335Y-49149D02*
X54277Y-49149D01*
X53335Y-49069D02*
X54357Y-49069D01*
X53323Y-48989D02*
X54437Y-48989D01*
X53301Y-48909D02*
X54517Y-48909D01*
X53248Y-48829D02*
X54597Y-48829D01*
X53173Y-48749D02*
X54677Y-48749D01*
X53093Y-48669D02*
X54757Y-48669D01*
X53013Y-48589D02*
X54837Y-48589D01*
X52933Y-48509D02*
X54920Y-48509D01*
X52853Y-48429D02*
X55082Y-48429D01*
X52773Y-48349D02*
X56125Y-48349D01*
X52693Y-48269D02*
X56228Y-48269D01*
X52613Y-48189D02*
X56163Y-48189D01*
X52533Y-48109D02*
X56083Y-48109D01*
X52453Y-48029D02*
X56021Y-48029D01*
X52373Y-47949D02*
X55988Y-47949D01*
X52293Y-47869D02*
X55955Y-47869D01*
X52213Y-47789D02*
X55951Y-47789D01*
X52133Y-47709D02*
X55951Y-47709D01*
X52053Y-47629D02*
X55956Y-47629D01*
X51973Y-47549D02*
X55990Y-47549D01*
X51893Y-47469D02*
X56023Y-47469D01*
X51813Y-47389D02*
X56085Y-47389D01*
X51733Y-47309D02*
X56165Y-47309D01*
X51685Y-47229D02*
X56222Y-47229D01*
X53120Y-47149D02*
X56123Y-47149D01*
X51685Y-47149D02*
X52872Y-47149D01*
X53254Y-47069D02*
X55670Y-47069D01*
X51685Y-47069D02*
X52745Y-47069D01*
X53348Y-46989D02*
X55516Y-46989D01*
X53232Y-46989D02*
X53246Y-46989D01*
X52754Y-46989D02*
X52768Y-46989D01*
X51685Y-46989D02*
X52649Y-46989D01*
X53384Y-46909D02*
X55435Y-46909D01*
X53152Y-46909D02*
X53166Y-46909D01*
X52834Y-46909D02*
X52848Y-46909D01*
X51685Y-46909D02*
X52615Y-46909D01*
X53414Y-46829D02*
X55355Y-46829D01*
X53072Y-46829D02*
X53086Y-46829D01*
X52914Y-46829D02*
X52928Y-46829D01*
X51685Y-46829D02*
X52585Y-46829D01*
X53416Y-46749D02*
X55275Y-46749D01*
X52992Y-46749D02*
X53008Y-46749D01*
X51685Y-46749D02*
X52584Y-46749D01*
X53415Y-46669D02*
X55195Y-46669D01*
X53074Y-46669D02*
X53088Y-46669D01*
X52912Y-46669D02*
X52926Y-46669D01*
X51685Y-46669D02*
X52586Y-46669D01*
X53384Y-46589D02*
X55115Y-46589D01*
X53154Y-46589D02*
X53168Y-46589D01*
X52832Y-46589D02*
X52846Y-46589D01*
X51685Y-46589D02*
X52617Y-46589D01*
X53349Y-46509D02*
X55035Y-46509D01*
X53234Y-46509D02*
X53248Y-46509D01*
X52752Y-46509D02*
X52766Y-46509D01*
X51685Y-46509D02*
X52653Y-46509D01*
X53255Y-46429D02*
X54955Y-46429D01*
X51671Y-46429D02*
X52746Y-46429D01*
X53123Y-46349D02*
X54875Y-46349D01*
X51644Y-46349D02*
X52885Y-46349D01*
X51591Y-46269D02*
X54795Y-46269D01*
X51513Y-46189D02*
X54715Y-46189D01*
X51433Y-46109D02*
X54635Y-46109D01*
X51353Y-46029D02*
X54555Y-46029D01*
X51273Y-45949D02*
X54475Y-45949D01*
X51193Y-45869D02*
X54395Y-45869D01*
X51113Y-45789D02*
X54315Y-45789D01*
X51033Y-45709D02*
X54244Y-45709D01*
X50953Y-45629D02*
X54191Y-45629D01*
X50873Y-45549D02*
X54174Y-45549D01*
X50793Y-45469D02*
X54165Y-45469D01*
X50669Y-45389D02*
X54165Y-45389D01*
X47283Y-45309D02*
X54165Y-45309D01*
X47203Y-45229D02*
X54165Y-45229D01*
X47123Y-45149D02*
X54165Y-45149D01*
X47043Y-45069D02*
X54165Y-45069D01*
X46963Y-44989D02*
X54165Y-44989D01*
X46883Y-44909D02*
X54165Y-44909D01*
X53654Y-44829D02*
X54165Y-44829D01*
X52654Y-44829D02*
X53345Y-44829D01*
X51654Y-44829D02*
X52345Y-44829D01*
X50654Y-44829D02*
X51345Y-44829D01*
X49654Y-44829D02*
X50345Y-44829D01*
X48654Y-44829D02*
X49345Y-44829D01*
X47654Y-44829D02*
X48345Y-44829D01*
X46835Y-44829D02*
X47345Y-44829D01*
X53840Y-44749D02*
X54159Y-44749D01*
X52841Y-44749D02*
X53159Y-44749D01*
X51840Y-44749D02*
X52159Y-44749D01*
X50840Y-44749D02*
X51159Y-44749D01*
X49840Y-44749D02*
X50159Y-44749D01*
X48840Y-44749D02*
X49159Y-44749D01*
X47841Y-44749D02*
X48159Y-44749D01*
X46839Y-44749D02*
X47159Y-44749D01*
X53920Y-44669D02*
X54079Y-44669D01*
X52921Y-44669D02*
X53079Y-44669D01*
X51919Y-44669D02*
X52079Y-44669D01*
X50919Y-44669D02*
X51079Y-44669D01*
X49919Y-44669D02*
X50079Y-44669D01*
X48919Y-44669D02*
X49079Y-44669D01*
X47921Y-44669D02*
X48079Y-44669D01*
X46919Y-44669D02*
X47079Y-44669D01*
X54000Y-44589D02*
X54000Y-44589D01*
X51999Y-44589D02*
X51999Y-44589D01*
X50999Y-44589D02*
X50999Y-44589D01*
X49999Y-44589D02*
X49999Y-44589D01*
X48999Y-44589D02*
X48999Y-44589D01*
X46999Y-44589D02*
X46999Y-44589D01*
X43587Y-50935D02*
X75412Y-50935D01*
X43667Y-50855D02*
X75332Y-50855D01*
X43747Y-50775D02*
X75252Y-50775D01*
X67458Y-50695D02*
X75210Y-50695D01*
X43789Y-50695D02*
X66919Y-50695D01*
X67651Y-50615D02*
X75177Y-50615D01*
X43822Y-50615D02*
X66727Y-50615D01*
X67809Y-50535D02*
X75144Y-50535D01*
X43856Y-50535D02*
X66570Y-50535D01*
X67889Y-50455D02*
X75111Y-50455D01*
X43889Y-50455D02*
X66490Y-50455D01*
X67969Y-50375D02*
X75100Y-50375D01*
X43900Y-50375D02*
X66410Y-50375D01*
X68049Y-50295D02*
X75100Y-50295D01*
X56858Y-50295D02*
X66330Y-50295D01*
X43900Y-50295D02*
X56140Y-50295D01*
X68100Y-50215D02*
X75100Y-50215D01*
X60248Y-50215D02*
X66279Y-50215D01*
X56987Y-50215D02*
X59750Y-50215D01*
X53248Y-50215D02*
X56013Y-50215D01*
X50748Y-50215D02*
X52750Y-50215D01*
X48248Y-50215D02*
X50250Y-50215D01*
X43900Y-50215D02*
X47750Y-50215D01*
X68134Y-50135D02*
X75100Y-50135D01*
X60357Y-50135D02*
X66246Y-50135D01*
X57034Y-50135D02*
X59642Y-50135D01*
X53357Y-50135D02*
X55965Y-50135D01*
X50857Y-50135D02*
X52642Y-50135D01*
X48357Y-50135D02*
X50142Y-50135D01*
X43900Y-50135D02*
X47642Y-50135D01*
X68167Y-50055D02*
X75107Y-50055D01*
X60437Y-50055D02*
X66213Y-50055D01*
X54284Y-50055D02*
X55951Y-50055D01*
X50937Y-50055D02*
X52562Y-50055D01*
X48437Y-50055D02*
X50062Y-50055D01*
X43893Y-50055D02*
X47365Y-50055D01*
X68200Y-49975D02*
X75140Y-49975D01*
X60475Y-49975D02*
X66180Y-49975D01*
X54399Y-49975D02*
X55951Y-49975D01*
X50975Y-49975D02*
X52525Y-49975D01*
X48475Y-49975D02*
X50025Y-49975D01*
X43860Y-49975D02*
X47251Y-49975D01*
X68233Y-49895D02*
X75173Y-49895D01*
X60508Y-49895D02*
X66147Y-49895D01*
X54479Y-49895D02*
X55951Y-49895D01*
X51008Y-49895D02*
X52491Y-49895D01*
X48508Y-49895D02*
X49991Y-49895D01*
X43827Y-49895D02*
X47171Y-49895D01*
X68240Y-49815D02*
X75207Y-49815D01*
X60525Y-49815D02*
X66140Y-49815D01*
X54559Y-49815D02*
X55951Y-49815D01*
X51025Y-49815D02*
X52475Y-49815D01*
X48525Y-49815D02*
X49975Y-49815D01*
X43794Y-49815D02*
X47091Y-49815D01*
X68240Y-49735D02*
X75243Y-49735D01*
X60525Y-49735D02*
X66140Y-49735D01*
X54639Y-49735D02*
X55951Y-49735D01*
X51025Y-49735D02*
X52475Y-49735D01*
X48525Y-49735D02*
X49975Y-49735D01*
X43758Y-49735D02*
X47011Y-49735D01*
X76678Y-49655D02*
X76725Y-49655D01*
X68240Y-49655D02*
X75323Y-49655D01*
X60525Y-49655D02*
X66140Y-49655D01*
X54719Y-49655D02*
X55951Y-49655D01*
X51025Y-49655D02*
X52475Y-49655D01*
X48525Y-49655D02*
X49975Y-49655D01*
X43678Y-49655D02*
X46931Y-49655D01*
X42275Y-49655D02*
X42323Y-49655D01*
X76598Y-49575D02*
X76725Y-49575D01*
X68240Y-49575D02*
X75403Y-49575D01*
X60496Y-49575D02*
X66140Y-49575D01*
X54799Y-49575D02*
X55951Y-49575D01*
X50996Y-49575D02*
X52505Y-49575D01*
X48496Y-49575D02*
X50005Y-49575D01*
X43598Y-49575D02*
X46851Y-49575D01*
X42275Y-49575D02*
X42403Y-49575D01*
X76518Y-49495D02*
X76725Y-49495D01*
X68240Y-49495D02*
X75483Y-49495D01*
X63478Y-49495D02*
X66140Y-49495D01*
X60463Y-49495D02*
X63023Y-49495D01*
X54879Y-49495D02*
X55951Y-49495D01*
X50963Y-49495D02*
X52538Y-49495D01*
X48463Y-49495D02*
X50038Y-49495D01*
X43518Y-49495D02*
X46771Y-49495D01*
X42275Y-49495D02*
X42483Y-49495D01*
X76336Y-49415D02*
X76725Y-49415D01*
X68221Y-49415D02*
X75664Y-49415D01*
X63599Y-49415D02*
X66159Y-49415D01*
X60408Y-49415D02*
X62900Y-49415D01*
X54959Y-49415D02*
X55951Y-49415D01*
X50908Y-49415D02*
X52592Y-49415D01*
X48408Y-49415D02*
X50093Y-49415D01*
X43336Y-49415D02*
X46691Y-49415D01*
X42275Y-49415D02*
X42665Y-49415D01*
X68188Y-49335D02*
X76725Y-49335D01*
X63674Y-49335D02*
X66192Y-49335D01*
X63598Y-49335D02*
X63612Y-49335D01*
X62888Y-49335D02*
X62902Y-49335D01*
X60328Y-49335D02*
X62825Y-49335D01*
X57935Y-49335D02*
X59673Y-49335D01*
X55039Y-49335D02*
X55979Y-49335D01*
X50828Y-49335D02*
X52665Y-49335D01*
X48328Y-49335D02*
X50173Y-49335D01*
X47559Y-49335D02*
X47673Y-49335D01*
X42275Y-49335D02*
X46611Y-49335D01*
X68155Y-49255D02*
X76725Y-49255D01*
X63743Y-49255D02*
X66226Y-49255D01*
X63518Y-49255D02*
X63532Y-49255D01*
X62968Y-49255D02*
X62982Y-49255D01*
X60178Y-49255D02*
X62752Y-49255D01*
X57935Y-49255D02*
X59823Y-49255D01*
X55119Y-49255D02*
X56043Y-49255D01*
X50678Y-49255D02*
X52665Y-49255D01*
X48178Y-49255D02*
X50323Y-49255D01*
X47479Y-49255D02*
X47823Y-49255D01*
X42275Y-49255D02*
X46531Y-49255D01*
X68122Y-49175D02*
X76725Y-49175D01*
X63779Y-49175D02*
X66259Y-49175D01*
X63438Y-49175D02*
X63452Y-49175D01*
X63048Y-49175D02*
X63062Y-49175D01*
X59896Y-49175D02*
X62722Y-49175D01*
X57935Y-49175D02*
X59895Y-49175D01*
X55199Y-49175D02*
X56149Y-49175D01*
X47399Y-49175D02*
X52651Y-49175D01*
X42275Y-49175D02*
X46451Y-49175D01*
X72822Y-49095D02*
X76725Y-49095D01*
X68088Y-49095D02*
X72164Y-49095D01*
X63809Y-49095D02*
X66292Y-49095D01*
X63358Y-49095D02*
X63372Y-49095D01*
X63128Y-49095D02*
X63142Y-49095D01*
X59896Y-49095D02*
X62691Y-49095D01*
X57935Y-49095D02*
X59895Y-49095D01*
X55279Y-49095D02*
X56069Y-49095D01*
X47319Y-49095D02*
X52571Y-49095D01*
X42275Y-49095D02*
X46371Y-49095D01*
X73036Y-49015D02*
X76725Y-49015D01*
X68020Y-49015D02*
X71988Y-49015D01*
X63811Y-49015D02*
X66360Y-49015D01*
X63278Y-49015D02*
X63292Y-49015D01*
X63208Y-49015D02*
X63222Y-49015D01*
X59896Y-49015D02*
X62686Y-49015D01*
X57935Y-49015D02*
X59895Y-49015D01*
X47239Y-49015D02*
X52491Y-49015D01*
X42275Y-49015D02*
X46291Y-49015D01*
X73140Y-48935D02*
X76725Y-48935D01*
X67940Y-48935D02*
X71859Y-48935D01*
X63814Y-48935D02*
X66440Y-48935D01*
X63288Y-48935D02*
X63302Y-48935D01*
X63198Y-48935D02*
X63212Y-48935D01*
X59896Y-48935D02*
X62689Y-48935D01*
X57935Y-48935D02*
X59895Y-48935D01*
X47159Y-48935D02*
X52411Y-48935D01*
X42275Y-48935D02*
X46211Y-48935D01*
X73200Y-48855D02*
X76725Y-48855D01*
X67860Y-48855D02*
X71799Y-48855D01*
X63805Y-48855D02*
X66521Y-48855D01*
X63368Y-48855D02*
X63382Y-48855D01*
X63118Y-48855D02*
X63132Y-48855D01*
X59896Y-48855D02*
X62691Y-48855D01*
X57935Y-48855D02*
X59895Y-48855D01*
X47079Y-48855D02*
X52331Y-48855D01*
X42275Y-48855D02*
X46131Y-48855D01*
X73292Y-48775D02*
X76725Y-48775D01*
X73156Y-48775D02*
X73170Y-48775D01*
X71830Y-48775D02*
X71844Y-48775D01*
X67773Y-48775D02*
X71707Y-48775D01*
X63775Y-48775D02*
X66609Y-48775D01*
X63448Y-48775D02*
X63462Y-48775D01*
X63038Y-48775D02*
X63052Y-48775D01*
X59896Y-48775D02*
X62726Y-48775D01*
X57935Y-48775D02*
X59895Y-48775D01*
X46999Y-48775D02*
X52251Y-48775D01*
X42275Y-48775D02*
X46051Y-48775D01*
X73370Y-48695D02*
X76725Y-48695D01*
X73076Y-48695D02*
X73090Y-48695D01*
X71910Y-48695D02*
X71924Y-48695D01*
X67581Y-48695D02*
X71622Y-48695D01*
X63744Y-48695D02*
X66802Y-48695D01*
X63528Y-48695D02*
X63542Y-48695D01*
X62958Y-48695D02*
X62972Y-48695D01*
X59896Y-48695D02*
X62762Y-48695D01*
X57935Y-48695D02*
X59895Y-48695D01*
X46919Y-48695D02*
X52171Y-48695D01*
X42275Y-48695D02*
X45971Y-48695D01*
X73406Y-48615D02*
X76725Y-48615D01*
X72996Y-48615D02*
X73010Y-48615D01*
X71990Y-48615D02*
X72004Y-48615D01*
X63655Y-48615D02*
X71584Y-48615D01*
X63608Y-48615D02*
X63622Y-48615D01*
X62878Y-48615D02*
X62892Y-48615D01*
X59896Y-48615D02*
X62846Y-48615D01*
X57935Y-48615D02*
X59895Y-48615D01*
X46839Y-48615D02*
X52091Y-48615D01*
X42275Y-48615D02*
X45891Y-48615D01*
X73443Y-48535D02*
X76725Y-48535D01*
X72916Y-48535D02*
X72930Y-48535D01*
X72070Y-48535D02*
X72084Y-48535D01*
X63595Y-48535D02*
X71554Y-48535D01*
X59896Y-48535D02*
X62906Y-48535D01*
X57935Y-48535D02*
X59895Y-48535D01*
X46759Y-48535D02*
X52011Y-48535D01*
X42275Y-48535D02*
X45811Y-48535D01*
X73479Y-48455D02*
X76725Y-48455D01*
X72836Y-48455D02*
X72850Y-48455D01*
X72150Y-48455D02*
X72164Y-48455D01*
X63455Y-48455D02*
X71524Y-48455D01*
X59896Y-48455D02*
X63047Y-48455D01*
X57935Y-48455D02*
X59895Y-48455D01*
X46679Y-48455D02*
X51931Y-48455D01*
X42275Y-48455D02*
X45731Y-48455D01*
X73516Y-48375D02*
X76725Y-48375D01*
X72756Y-48375D02*
X72770Y-48375D01*
X72230Y-48375D02*
X72244Y-48375D01*
X59896Y-48375D02*
X71494Y-48375D01*
X57935Y-48375D02*
X59895Y-48375D01*
X46599Y-48375D02*
X51851Y-48375D01*
X42275Y-48375D02*
X45651Y-48375D01*
X73527Y-48295D02*
X76725Y-48295D01*
X72676Y-48295D02*
X72690Y-48295D01*
X72310Y-48295D02*
X72324Y-48295D01*
X59896Y-48295D02*
X71464Y-48295D01*
X57935Y-48295D02*
X59895Y-48295D01*
X46519Y-48295D02*
X51771Y-48295D01*
X44699Y-48295D02*
X45300Y-48295D01*
X42275Y-48295D02*
X44300Y-48295D01*
X73530Y-48215D02*
X76725Y-48215D01*
X72596Y-48215D02*
X72610Y-48215D01*
X72390Y-48215D02*
X72404Y-48215D01*
X59896Y-48215D02*
X71463Y-48215D01*
X57935Y-48215D02*
X59895Y-48215D01*
X46439Y-48215D02*
X51691Y-48215D01*
X44855Y-48215D02*
X45145Y-48215D01*
X42275Y-48215D02*
X44145Y-48215D01*
X73533Y-48135D02*
X76725Y-48135D01*
X72516Y-48135D02*
X72530Y-48135D01*
X72470Y-48135D02*
X72484Y-48135D01*
X63480Y-48135D02*
X71466Y-48135D01*
X59896Y-48135D02*
X63018Y-48135D01*
X57935Y-48135D02*
X59895Y-48135D01*
X46359Y-48135D02*
X51611Y-48135D01*
X44935Y-48135D02*
X45065Y-48135D01*
X42275Y-48135D02*
X44065Y-48135D01*
X73536Y-48055D02*
X76725Y-48055D01*
X72550Y-48055D02*
X72564Y-48055D01*
X72436Y-48055D02*
X72450Y-48055D01*
X63649Y-48055D02*
X71468Y-48055D01*
X59896Y-48055D02*
X62850Y-48055D01*
X57935Y-48055D02*
X59895Y-48055D01*
X46279Y-48055D02*
X51531Y-48055D01*
X42275Y-48055D02*
X43998Y-48055D01*
X73538Y-47975D02*
X76725Y-47975D01*
X72630Y-47975D02*
X72644Y-47975D01*
X72356Y-47975D02*
X72370Y-47975D01*
X63729Y-47975D02*
X71471Y-47975D01*
X59896Y-47975D02*
X62770Y-47975D01*
X57935Y-47975D02*
X59895Y-47975D01*
X46199Y-47975D02*
X51451Y-47975D01*
X42275Y-47975D02*
X43965Y-47975D01*
X73523Y-47895D02*
X76725Y-47895D01*
X72710Y-47895D02*
X72724Y-47895D01*
X72276Y-47895D02*
X72290Y-47895D01*
X63809Y-47895D02*
X71474Y-47895D01*
X59896Y-47895D02*
X62690Y-47895D01*
X57935Y-47895D02*
X59895Y-47895D01*
X46119Y-47895D02*
X51371Y-47895D01*
X42275Y-47895D02*
X43932Y-47895D01*
X73493Y-47815D02*
X76725Y-47815D01*
X72790Y-47815D02*
X72804Y-47815D01*
X72196Y-47815D02*
X72210Y-47815D01*
X63850Y-47815D02*
X71500Y-47815D01*
X59896Y-47815D02*
X62650Y-47815D01*
X57935Y-47815D02*
X59895Y-47815D01*
X46080Y-47815D02*
X51291Y-47815D01*
X42275Y-47815D02*
X43920Y-47815D01*
X73463Y-47735D02*
X76725Y-47735D01*
X72870Y-47735D02*
X72884Y-47735D01*
X72116Y-47735D02*
X72130Y-47735D01*
X63883Y-47735D02*
X71536Y-47735D01*
X59896Y-47735D02*
X62616Y-47735D01*
X57935Y-47735D02*
X59895Y-47735D01*
X46080Y-47735D02*
X51211Y-47735D01*
X42275Y-47735D02*
X43920Y-47735D01*
X73433Y-47655D02*
X76725Y-47655D01*
X72950Y-47655D02*
X72964Y-47655D01*
X72036Y-47655D02*
X72050Y-47655D01*
X63916Y-47655D02*
X71573Y-47655D01*
X59896Y-47655D02*
X62583Y-47655D01*
X57935Y-47655D02*
X59895Y-47655D01*
X46080Y-47655D02*
X51131Y-47655D01*
X42275Y-47655D02*
X43920Y-47655D01*
X73403Y-47575D02*
X76725Y-47575D01*
X73030Y-47575D02*
X73044Y-47575D01*
X71956Y-47575D02*
X71970Y-47575D01*
X63925Y-47575D02*
X71609Y-47575D01*
X59896Y-47575D02*
X62575Y-47575D01*
X57935Y-47575D02*
X59895Y-47575D01*
X46056Y-47575D02*
X51072Y-47575D01*
X42275Y-47575D02*
X43945Y-47575D01*
X73354Y-47495D02*
X76725Y-47495D01*
X73110Y-47495D02*
X73124Y-47495D01*
X71876Y-47495D02*
X71890Y-47495D01*
X63925Y-47495D02*
X71647Y-47495D01*
X59896Y-47495D02*
X62575Y-47495D01*
X57935Y-47495D02*
X59895Y-47495D01*
X46023Y-47495D02*
X51034Y-47495D01*
X42275Y-47495D02*
X43979Y-47495D01*
X73249Y-47415D02*
X76725Y-47415D01*
X73190Y-47415D02*
X73204Y-47415D01*
X71796Y-47415D02*
X71810Y-47415D01*
X63925Y-47415D02*
X71752Y-47415D01*
X59896Y-47415D02*
X62575Y-47415D01*
X57935Y-47415D02*
X59895Y-47415D01*
X45985Y-47415D02*
X51018Y-47415D01*
X44985Y-47415D02*
X45015Y-47415D01*
X42275Y-47415D02*
X44015Y-47415D01*
X73175Y-47335D02*
X76725Y-47335D01*
X68660Y-47335D02*
X71826Y-47335D01*
X63913Y-47335D02*
X66339Y-47335D01*
X59896Y-47335D02*
X62588Y-47335D01*
X57935Y-47335D02*
X59895Y-47335D01*
X45905Y-47335D02*
X51015Y-47335D01*
X44905Y-47335D02*
X45095Y-47335D01*
X42275Y-47335D02*
X44095Y-47335D01*
X73113Y-47255D02*
X76725Y-47255D01*
X68775Y-47255D02*
X71887Y-47255D01*
X63879Y-47255D02*
X66225Y-47255D01*
X60152Y-47255D02*
X62621Y-47255D01*
X57935Y-47255D02*
X59846Y-47255D01*
X45820Y-47255D02*
X51015Y-47255D01*
X44835Y-47255D02*
X45180Y-47255D01*
X42275Y-47255D02*
X44165Y-47255D01*
X72937Y-47175D02*
X76725Y-47175D01*
X68855Y-47175D02*
X72055Y-47175D01*
X63846Y-47175D02*
X66145Y-47175D01*
X60317Y-47175D02*
X62654Y-47175D01*
X57935Y-47175D02*
X59682Y-47175D01*
X45628Y-47175D02*
X51015Y-47175D01*
X44835Y-47175D02*
X45373Y-47175D01*
X42275Y-47175D02*
X44165Y-47175D01*
X72761Y-47095D02*
X76725Y-47095D01*
X68935Y-47095D02*
X72269Y-47095D01*
X63800Y-47095D02*
X66065Y-47095D01*
X60397Y-47095D02*
X62701Y-47095D01*
X57924Y-47095D02*
X59602Y-47095D01*
X50745Y-47095D02*
X51015Y-47095D01*
X48245Y-47095D02*
X50254Y-47095D01*
X44835Y-47095D02*
X47754Y-47095D01*
X42275Y-47095D02*
X44165Y-47095D01*
X69015Y-47015D02*
X76725Y-47015D01*
X63720Y-47015D02*
X65985Y-47015D01*
X60458Y-47015D02*
X62781Y-47015D01*
X57905Y-47015D02*
X59541Y-47015D01*
X50790Y-47015D02*
X51015Y-47015D01*
X50758Y-47015D02*
X50772Y-47015D01*
X50228Y-47015D02*
X50242Y-47015D01*
X48290Y-47015D02*
X50209Y-47015D01*
X48258Y-47015D02*
X48272Y-47015D01*
X47728Y-47015D02*
X47742Y-47015D01*
X44835Y-47015D02*
X47709Y-47015D01*
X42275Y-47015D02*
X44165Y-47015D01*
X72904Y-46935D02*
X76725Y-46935D01*
X69095Y-46935D02*
X72095Y-46935D01*
X63640Y-46935D02*
X65905Y-46935D01*
X60491Y-46935D02*
X62861Y-46935D01*
X57852Y-46935D02*
X59508Y-46935D01*
X50873Y-46935D02*
X51015Y-46935D01*
X50678Y-46935D02*
X50692Y-46935D01*
X50308Y-46935D02*
X50322Y-46935D01*
X48373Y-46935D02*
X50125Y-46935D01*
X48178Y-46935D02*
X48192Y-46935D01*
X47808Y-46935D02*
X47822Y-46935D01*
X44835Y-46935D02*
X47625Y-46935D01*
X42275Y-46935D02*
X44165Y-46935D01*
X73098Y-46855D02*
X76725Y-46855D01*
X69175Y-46855D02*
X71902Y-46855D01*
X63458Y-46855D02*
X65825Y-46855D01*
X60525Y-46855D02*
X63044Y-46855D01*
X57779Y-46855D02*
X59475Y-46855D01*
X50909Y-46855D02*
X51015Y-46855D01*
X50598Y-46855D02*
X50612Y-46855D01*
X50388Y-46855D02*
X50402Y-46855D01*
X48409Y-46855D02*
X50094Y-46855D01*
X48098Y-46855D02*
X48112Y-46855D01*
X47888Y-46855D02*
X47902Y-46855D01*
X44835Y-46855D02*
X47594Y-46855D01*
X42275Y-46855D02*
X44165Y-46855D01*
X73242Y-46775D02*
X76725Y-46775D01*
X69255Y-46775D02*
X71757Y-46775D01*
X60525Y-46775D02*
X65745Y-46775D01*
X57699Y-46775D02*
X59475Y-46775D01*
X50915Y-46775D02*
X51015Y-46775D01*
X50518Y-46775D02*
X50532Y-46775D01*
X50468Y-46775D02*
X50482Y-46775D01*
X48415Y-46775D02*
X50084Y-46775D01*
X48018Y-46775D02*
X48032Y-46775D01*
X47968Y-46775D02*
X47982Y-46775D01*
X44835Y-46775D02*
X47584Y-46775D01*
X42275Y-46775D02*
X44101Y-46775D01*
X73322Y-46695D02*
X76725Y-46695D01*
X69335Y-46695D02*
X71677Y-46695D01*
X60525Y-46695D02*
X65665Y-46695D01*
X57619Y-46695D02*
X59475Y-46695D01*
X50917Y-46695D02*
X51015Y-46695D01*
X50548Y-46695D02*
X50562Y-46695D01*
X50438Y-46695D02*
X50452Y-46695D01*
X48417Y-46695D02*
X50086Y-46695D01*
X48048Y-46695D02*
X48062Y-46695D01*
X47938Y-46695D02*
X47952Y-46695D01*
X44834Y-46695D02*
X47586Y-46695D01*
X42275Y-46695D02*
X44021Y-46695D01*
X73402Y-46615D02*
X76725Y-46615D01*
X69415Y-46615D02*
X71597Y-46615D01*
X66645Y-46615D02*
X68354Y-46615D01*
X63576Y-46615D02*
X65585Y-46615D01*
X60513Y-46615D02*
X62922Y-46615D01*
X57539Y-46615D02*
X59488Y-46615D01*
X50894Y-46615D02*
X50991Y-46615D01*
X50628Y-46615D02*
X50642Y-46615D01*
X50358Y-46615D02*
X50372Y-46615D01*
X48394Y-46615D02*
X50105Y-46615D01*
X48128Y-46615D02*
X48142Y-46615D01*
X47858Y-46615D02*
X47872Y-46615D01*
X44818Y-46615D02*
X47605Y-46615D01*
X42275Y-46615D02*
X43941Y-46615D01*
X73482Y-46535D02*
X76725Y-46535D01*
X69495Y-46535D02*
X71517Y-46535D01*
X66565Y-46535D02*
X68434Y-46535D01*
X63689Y-46535D02*
X65505Y-46535D01*
X60480Y-46535D02*
X62810Y-46535D01*
X57459Y-46535D02*
X59521Y-46535D01*
X50864Y-46535D02*
X50911Y-46535D01*
X50708Y-46535D02*
X50722Y-46535D01*
X50278Y-46535D02*
X50292Y-46535D01*
X48364Y-46535D02*
X50141Y-46535D01*
X48208Y-46535D02*
X48222Y-46535D01*
X47778Y-46535D02*
X47792Y-46535D01*
X44785Y-46535D02*
X47641Y-46535D01*
X42275Y-46535D02*
X43861Y-46535D01*
X73560Y-46455D02*
X76725Y-46455D01*
X69575Y-46455D02*
X71439Y-46455D01*
X66485Y-46455D02*
X68514Y-46455D01*
X63769Y-46455D02*
X65425Y-46455D01*
X60518Y-46455D02*
X62730Y-46455D01*
X57350Y-46455D02*
X59554Y-46455D01*
X50764Y-46455D02*
X50831Y-46455D01*
X48264Y-46455D02*
X50237Y-46455D01*
X44729Y-46455D02*
X47737Y-46455D01*
X42275Y-46455D02*
X43781Y-46455D01*
X73593Y-46375D02*
X76725Y-46375D01*
X69655Y-46375D02*
X71405Y-46375D01*
X67410Y-46375D02*
X68594Y-46375D01*
X66405Y-46375D02*
X66967Y-46375D01*
X63833Y-46375D02*
X65345Y-46375D01*
X60598Y-46375D02*
X62666Y-46375D01*
X56901Y-46375D02*
X59633Y-46375D01*
X55849Y-46375D02*
X56099Y-46375D01*
X50681Y-46375D02*
X50751Y-46375D01*
X48181Y-46375D02*
X50317Y-46375D01*
X44649Y-46375D02*
X47817Y-46375D01*
X42275Y-46375D02*
X43701Y-46375D01*
X73626Y-46295D02*
X76725Y-46295D01*
X69735Y-46295D02*
X71372Y-46295D01*
X67603Y-46295D02*
X68674Y-46295D01*
X66325Y-46295D02*
X66775Y-46295D01*
X63866Y-46295D02*
X65265Y-46295D01*
X56821Y-46295D02*
X59727Y-46295D01*
X55769Y-46295D02*
X56179Y-46295D01*
X44569Y-46295D02*
X50671Y-46295D01*
X42275Y-46295D02*
X43621Y-46295D01*
X73660Y-46215D02*
X76725Y-46215D01*
X69815Y-46215D02*
X71339Y-46215D01*
X67789Y-46215D02*
X68754Y-46215D01*
X66245Y-46215D02*
X66590Y-46215D01*
X63900Y-46215D02*
X65185Y-46215D01*
X56643Y-46215D02*
X59811Y-46215D01*
X55689Y-46215D02*
X56358Y-46215D01*
X44489Y-46215D02*
X50591Y-46215D01*
X42275Y-46215D02*
X43541Y-46215D01*
X73693Y-46135D02*
X76725Y-46135D01*
X69895Y-46135D02*
X71306Y-46135D01*
X67869Y-46135D02*
X68834Y-46135D01*
X66165Y-46135D02*
X66510Y-46135D01*
X63925Y-46135D02*
X65105Y-46135D01*
X55609Y-46135D02*
X59891Y-46135D01*
X44409Y-46135D02*
X50511Y-46135D01*
X42275Y-46135D02*
X43461Y-46135D01*
X73726Y-46055D02*
X76725Y-46055D01*
X67949Y-46055D02*
X68914Y-46055D01*
X66085Y-46055D02*
X66430Y-46055D01*
X63925Y-46055D02*
X65025Y-46055D01*
X55529Y-46055D02*
X59971Y-46055D01*
X44329Y-46055D02*
X50431Y-46055D01*
X42275Y-46055D02*
X43381Y-46055D01*
X73749Y-45975D02*
X76725Y-45975D01*
X68029Y-45975D02*
X68994Y-45975D01*
X66005Y-45975D02*
X66350Y-45975D01*
X63925Y-45975D02*
X64945Y-45975D01*
X55449Y-45975D02*
X60051Y-45975D01*
X44249Y-45975D02*
X47020Y-45975D01*
X42275Y-45975D02*
X43301Y-45975D01*
X73749Y-45895D02*
X76725Y-45895D01*
X68092Y-45895D02*
X69074Y-45895D01*
X65925Y-45895D02*
X66287Y-45895D01*
X63925Y-45895D02*
X64865Y-45895D01*
X55369Y-45895D02*
X60131Y-45895D01*
X44169Y-45895D02*
X46921Y-45895D01*
X42275Y-45895D02*
X43221Y-45895D01*
X73749Y-45815D02*
X76725Y-45815D01*
X68125Y-45815D02*
X69154Y-45815D01*
X65845Y-45815D02*
X66254Y-45815D01*
X63896Y-45815D02*
X64785Y-45815D01*
X55289Y-45815D02*
X60211Y-45815D01*
X44089Y-45815D02*
X46841Y-45815D01*
X42275Y-45815D02*
X43141Y-45815D01*
X73749Y-45735D02*
X76725Y-45735D01*
X68158Y-45735D02*
X69234Y-45735D01*
X65765Y-45735D02*
X66221Y-45735D01*
X63863Y-45735D02*
X64705Y-45735D01*
X55209Y-45735D02*
X60316Y-45735D01*
X44009Y-45735D02*
X46761Y-45735D01*
X42275Y-45735D02*
X43061Y-45735D01*
X73749Y-45655D02*
X76725Y-45655D01*
X68192Y-45655D02*
X69314Y-45655D01*
X65685Y-45655D02*
X66188Y-45655D01*
X63830Y-45655D02*
X64625Y-45655D01*
X55129Y-45655D02*
X62671Y-45655D01*
X43929Y-45655D02*
X46681Y-45655D01*
X42275Y-45655D02*
X42981Y-45655D01*
X73749Y-45575D02*
X76725Y-45575D01*
X68225Y-45575D02*
X69394Y-45575D01*
X65605Y-45575D02*
X66155Y-45575D01*
X63760Y-45575D02*
X64545Y-45575D01*
X55049Y-45575D02*
X62741Y-45575D01*
X43849Y-45575D02*
X46601Y-45575D01*
X42275Y-45575D02*
X42901Y-45575D01*
X73747Y-45495D02*
X76725Y-45495D01*
X68240Y-45495D02*
X69474Y-45495D01*
X65525Y-45495D02*
X66140Y-45495D01*
X63680Y-45495D02*
X64465Y-45495D01*
X54969Y-45495D02*
X62821Y-45495D01*
X43769Y-45495D02*
X46521Y-45495D01*
X42275Y-45495D02*
X42821Y-45495D01*
X73714Y-45415D02*
X76725Y-45415D01*
X68240Y-45415D02*
X69590Y-45415D01*
X65445Y-45415D02*
X66140Y-45415D01*
X63554Y-45415D02*
X64385Y-45415D01*
X54889Y-45415D02*
X62948Y-45415D01*
X43689Y-45415D02*
X46441Y-45415D01*
X42275Y-45415D02*
X42741Y-45415D01*
X73681Y-45335D02*
X76725Y-45335D01*
X68240Y-45335D02*
X71319Y-45335D01*
X65365Y-45335D02*
X66140Y-45335D01*
X54835Y-45335D02*
X64305Y-45335D01*
X43609Y-45335D02*
X46361Y-45335D01*
X42275Y-45335D02*
X42661Y-45335D01*
X73648Y-45255D02*
X76725Y-45255D01*
X68240Y-45255D02*
X71352Y-45255D01*
X65285Y-45255D02*
X66140Y-45255D01*
X54835Y-45255D02*
X64225Y-45255D01*
X43529Y-45255D02*
X46281Y-45255D01*
X42275Y-45255D02*
X42581Y-45255D01*
X73615Y-45175D02*
X76725Y-45175D01*
X68240Y-45175D02*
X71386Y-45175D01*
X65205Y-45175D02*
X66140Y-45175D01*
X54835Y-45175D02*
X64145Y-45175D01*
X43449Y-45175D02*
X46222Y-45175D01*
X42275Y-45175D02*
X42522Y-45175D01*
X73582Y-45095D02*
X76725Y-45095D01*
X68229Y-45095D02*
X71419Y-45095D01*
X65125Y-45095D02*
X66151Y-45095D01*
X54835Y-45095D02*
X64065Y-45095D01*
X43369Y-45095D02*
X46184Y-45095D01*
X42275Y-45095D02*
X42484Y-45095D01*
X73533Y-45015D02*
X76725Y-45015D01*
X68196Y-45015D02*
X71468Y-45015D01*
X65045Y-45015D02*
X66184Y-45015D01*
X54835Y-45015D02*
X63985Y-45015D01*
X43289Y-45015D02*
X46168Y-45015D01*
X42275Y-45015D02*
X42468Y-45015D01*
X73453Y-44935D02*
X76725Y-44935D01*
X68163Y-44935D02*
X71548Y-44935D01*
X64965Y-44935D02*
X66217Y-44935D01*
X54835Y-44935D02*
X63905Y-44935D01*
X43209Y-44935D02*
X46165Y-44935D01*
X42275Y-44935D02*
X42465Y-44935D01*
X73373Y-44855D02*
X76725Y-44855D01*
X68130Y-44855D02*
X71628Y-44855D01*
X64885Y-44855D02*
X66251Y-44855D01*
X54835Y-44855D02*
X63825Y-44855D01*
X43135Y-44855D02*
X46165Y-44855D01*
X42275Y-44855D02*
X42465Y-44855D01*
X73293Y-44775D02*
X76725Y-44775D01*
X68097Y-44775D02*
X71708Y-44775D01*
X64805Y-44775D02*
X66284Y-44775D01*
X57785Y-44775D02*
X63745Y-44775D01*
X55785Y-44775D02*
X57215Y-44775D01*
X54835Y-44775D02*
X55215Y-44775D01*
X45785Y-44775D02*
X46165Y-44775D01*
X44785Y-44775D02*
X45215Y-44775D01*
X43785Y-44775D02*
X44215Y-44775D01*
X43135Y-44775D02*
X43215Y-44775D01*
X42275Y-44775D02*
X42465Y-44775D01*
X73213Y-44695D02*
X76725Y-44695D01*
X68040Y-44695D02*
X71788Y-44695D01*
X64725Y-44695D02*
X66341Y-44695D01*
X57895Y-44695D02*
X63665Y-44695D01*
X56692Y-44695D02*
X57105Y-44695D01*
X55895Y-44695D02*
X56308Y-44695D01*
X54893Y-44695D02*
X55105Y-44695D01*
X45894Y-44695D02*
X46105Y-44695D01*
X44894Y-44695D02*
X45105Y-44695D01*
X43894Y-44695D02*
X44105Y-44695D01*
X42275Y-44695D02*
X42465Y-44695D01*
X73026Y-44615D02*
X76725Y-44615D01*
X67960Y-44615D02*
X71975Y-44615D01*
X64645Y-44615D02*
X66421Y-44615D01*
X56802Y-44615D02*
X57025Y-44615D01*
X55975Y-44615D02*
X56197Y-44615D01*
X54973Y-44615D02*
X55025Y-44615D01*
X45973Y-44615D02*
X46025Y-44615D01*
X44973Y-44615D02*
X45025Y-44615D01*
X43973Y-44615D02*
X44025Y-44615D01*
X42275Y-44615D02*
X42465Y-44615D01*
X72833Y-44535D02*
X76725Y-44535D01*
X67880Y-44535D02*
X72169Y-44535D01*
X64565Y-44535D02*
X66501Y-44535D01*
X56902Y-44535D02*
X56974Y-44535D01*
X56778Y-44535D02*
X56792Y-44535D01*
X56208Y-44535D02*
X56222Y-44535D01*
X56024Y-44535D02*
X56097Y-44535D01*
X42275Y-44535D02*
X42465Y-44535D01*
X67800Y-44455D02*
X76725Y-44455D01*
X64485Y-44455D02*
X66581Y-44455D01*
X56938Y-44455D02*
X56941Y-44455D01*
X56698Y-44455D02*
X56712Y-44455D01*
X56288Y-44455D02*
X56302Y-44455D01*
X56056Y-44455D02*
X56059Y-44455D01*
X42275Y-44455D02*
X42465Y-44455D01*
X67629Y-44375D02*
X76725Y-44375D01*
X64405Y-44375D02*
X66753Y-44375D01*
X56618Y-44375D02*
X56632Y-44375D01*
X56368Y-44375D02*
X56382Y-44375D01*
X42275Y-44375D02*
X42465Y-44375D01*
X67437Y-44295D02*
X76725Y-44295D01*
X64325Y-44295D02*
X66946Y-44295D01*
X56538Y-44295D02*
X56552Y-44295D01*
X56448Y-44295D02*
X56462Y-44295D01*
X42275Y-44295D02*
X42465Y-44295D01*
X64245Y-44215D02*
X76725Y-44215D01*
X56528Y-44215D02*
X56542Y-44215D01*
X56458Y-44215D02*
X56472Y-44215D01*
X42275Y-44215D02*
X42465Y-44215D01*
X64165Y-44135D02*
X76725Y-44135D01*
X56608Y-44135D02*
X56622Y-44135D01*
X56378Y-44135D02*
X56392Y-44135D01*
X42275Y-44135D02*
X42465Y-44135D01*
X64085Y-44055D02*
X76725Y-44055D01*
X56688Y-44055D02*
X56702Y-44055D01*
X56298Y-44055D02*
X56312Y-44055D01*
X42275Y-44055D02*
X42465Y-44055D01*
X64001Y-43975D02*
X76725Y-43975D01*
X56910Y-43975D02*
X56972Y-43975D01*
X56768Y-43975D02*
X56782Y-43975D01*
X56218Y-43975D02*
X56232Y-43975D01*
X56030Y-43975D02*
X56093Y-43975D01*
X42275Y-43975D02*
X42465Y-43975D01*
X63850Y-43895D02*
X76725Y-43895D01*
X56808Y-43895D02*
X57015Y-43895D01*
X55985Y-43895D02*
X56193Y-43895D01*
X49985Y-43895D02*
X50014Y-43895D01*
X48985Y-43895D02*
X49014Y-43895D01*
X47985Y-43895D02*
X48014Y-43895D01*
X46985Y-43895D02*
X47015Y-43895D01*
X42275Y-43895D02*
X42465Y-43895D01*
X57905Y-43815D02*
X76725Y-43815D01*
X56714Y-43815D02*
X57095Y-43815D01*
X55905Y-43815D02*
X56281Y-43815D01*
X49905Y-43815D02*
X50095Y-43815D01*
X48905Y-43815D02*
X49095Y-43815D01*
X47905Y-43815D02*
X48095Y-43815D01*
X46905Y-43815D02*
X47095Y-43815D01*
X42275Y-43815D02*
X42465Y-43815D01*
X57809Y-43735D02*
X76725Y-43735D01*
X55809Y-43735D02*
X57191Y-43735D01*
X49809Y-43735D02*
X50179Y-43735D01*
X48809Y-43735D02*
X49191Y-43735D01*
X47809Y-43735D02*
X48191Y-43735D01*
X46889Y-43735D02*
X47191Y-43735D01*
X42275Y-43735D02*
X42465Y-43735D01*
X55518Y-43655D02*
X76725Y-43655D01*
X46969Y-43655D02*
X50203Y-43655D01*
X42275Y-43655D02*
X42465Y-43655D01*
X55598Y-43575D02*
X76725Y-43575D01*
X47049Y-43575D02*
X50256Y-43575D01*
X42275Y-43575D02*
X42465Y-43575D01*
X69949Y-43495D02*
X76725Y-43495D01*
X47129Y-43495D02*
X50331Y-43495D01*
X42275Y-43495D02*
X42465Y-43495D01*
X70059Y-43415D02*
X76725Y-43415D01*
X47209Y-43415D02*
X50411Y-43415D01*
X42275Y-43415D02*
X42465Y-43415D01*
X70139Y-43335D02*
X76725Y-43335D01*
X47289Y-43335D02*
X50491Y-43335D01*
X42275Y-43335D02*
X42465Y-43335D01*
X70464Y-43255D02*
X76725Y-43255D01*
X47369Y-43255D02*
X50571Y-43255D01*
X42275Y-43255D02*
X42465Y-43255D01*
X70601Y-43175D02*
X76725Y-43175D01*
X47449Y-43175D02*
X50651Y-43175D01*
X42275Y-43175D02*
X42471Y-43175D01*
X70681Y-43095D02*
X76725Y-43095D01*
X47529Y-43095D02*
X50731Y-43095D01*
X42275Y-43095D02*
X42487Y-43095D01*
X75940Y-43015D02*
X76725Y-43015D01*
X70734Y-43015D02*
X75559Y-43015D01*
X47609Y-43015D02*
X50811Y-43015D01*
X42275Y-43015D02*
X42529Y-43015D01*
X76091Y-42935D02*
X76725Y-42935D01*
X70767Y-42935D02*
X75409Y-42935D01*
X47689Y-42935D02*
X50891Y-42935D01*
X42275Y-42935D02*
X42591Y-42935D01*
X76171Y-42855D02*
X76725Y-42855D01*
X70799Y-42855D02*
X75329Y-42855D01*
X59549Y-42855D02*
X69671Y-42855D01*
X47769Y-42855D02*
X50971Y-42855D01*
X42275Y-42855D02*
X42671Y-42855D01*
X76229Y-42775D02*
X76725Y-42775D01*
X70799Y-42775D02*
X75020Y-42775D01*
X59575Y-42775D02*
X69701Y-42775D01*
X47849Y-42775D02*
X51051Y-42775D01*
X42275Y-42775D02*
X42751Y-42775D01*
X76263Y-42695D02*
X76725Y-42695D01*
X70799Y-42695D02*
X74921Y-42695D01*
X59575Y-42695D02*
X69701Y-42695D01*
X47929Y-42695D02*
X51131Y-42695D01*
X42275Y-42695D02*
X42831Y-42695D01*
X76296Y-42615D02*
X76725Y-42615D01*
X70789Y-42615D02*
X74841Y-42615D01*
X59575Y-42615D02*
X69712Y-42615D01*
X48009Y-42615D02*
X51211Y-42615D01*
X42275Y-42615D02*
X42911Y-42615D01*
X76299Y-42535D02*
X76725Y-42535D01*
X70755Y-42535D02*
X74761Y-42535D01*
X59546Y-42535D02*
X69746Y-42535D01*
X48089Y-42535D02*
X51291Y-42535D01*
X42275Y-42535D02*
X42991Y-42535D01*
X76299Y-42455D02*
X76725Y-42455D01*
X70722Y-42455D02*
X74681Y-42455D01*
X59513Y-42455D02*
X69779Y-42455D01*
X48169Y-42455D02*
X51376Y-42455D01*
X42275Y-42455D02*
X43071Y-42455D01*
X76293Y-42375D02*
X76725Y-42375D01*
X70651Y-42375D02*
X74601Y-42375D01*
X59447Y-42375D02*
X69849Y-42375D01*
X48249Y-42375D02*
X51551Y-42375D01*
X42275Y-42375D02*
X43151Y-42375D01*
X76260Y-42295D02*
X76725Y-42295D01*
X70571Y-42295D02*
X74521Y-42295D01*
X59362Y-42295D02*
X69929Y-42295D01*
X48329Y-42295D02*
X58836Y-42295D01*
X42275Y-42295D02*
X43231Y-42295D01*
X76226Y-42215D02*
X76725Y-42215D01*
X70393Y-42215D02*
X74441Y-42215D01*
X48409Y-42215D02*
X70108Y-42215D01*
X42275Y-42215D02*
X43311Y-42215D01*
X76161Y-42135D02*
X76725Y-42135D01*
X48489Y-42135D02*
X74361Y-42135D01*
X42275Y-42135D02*
X43391Y-42135D01*
X76081Y-42055D02*
X76725Y-42055D01*
X48569Y-42055D02*
X74281Y-42055D01*
X42275Y-42055D02*
X43471Y-42055D01*
X76036Y-41975D02*
X76725Y-41975D01*
X66536Y-41975D02*
X74201Y-41975D01*
X65727Y-41975D02*
X65963Y-41975D01*
X48649Y-41975D02*
X64773Y-41975D01*
X42275Y-41975D02*
X43551Y-41975D01*
X76131Y-41895D02*
X76725Y-41895D01*
X66631Y-41895D02*
X74121Y-41895D01*
X65780Y-41895D02*
X65869Y-41895D01*
X61131Y-41895D02*
X64720Y-41895D01*
X48729Y-41895D02*
X60863Y-41895D01*
X42275Y-41895D02*
X43631Y-41895D01*
X76211Y-41815D02*
X76725Y-41815D01*
X66711Y-41815D02*
X74041Y-41815D01*
X61256Y-41815D02*
X64701Y-41815D01*
X48809Y-41815D02*
X60743Y-41815D01*
X42275Y-41815D02*
X43711Y-41815D01*
X76246Y-41735D02*
X76725Y-41735D01*
X66746Y-41735D02*
X73961Y-41735D01*
X61350Y-41735D02*
X64701Y-41735D01*
X61228Y-41735D02*
X61242Y-41735D01*
X60758Y-41735D02*
X60772Y-41735D01*
X48889Y-41735D02*
X60647Y-41735D01*
X42275Y-41735D02*
X43791Y-41735D01*
X76279Y-41655D02*
X76725Y-41655D01*
X66779Y-41655D02*
X73881Y-41655D01*
X61386Y-41655D02*
X64701Y-41655D01*
X61148Y-41655D02*
X61162Y-41655D01*
X60838Y-41655D02*
X60852Y-41655D01*
X48969Y-41655D02*
X60613Y-41655D01*
X42275Y-41655D02*
X43871Y-41655D01*
X76299Y-41575D02*
X76725Y-41575D01*
X66799Y-41575D02*
X73801Y-41575D01*
X61414Y-41575D02*
X64701Y-41575D01*
X61068Y-41575D02*
X61082Y-41575D01*
X60918Y-41575D02*
X60932Y-41575D01*
X52149Y-41575D02*
X60583Y-41575D01*
X42275Y-41575D02*
X43951Y-41575D01*
X76299Y-41495D02*
X76725Y-41495D01*
X66799Y-41495D02*
X73721Y-41495D01*
X61416Y-41495D02*
X64701Y-41495D01*
X60988Y-41495D02*
X61012Y-41495D01*
X52324Y-41495D02*
X60584Y-41495D01*
X42275Y-41495D02*
X44031Y-41495D01*
X76299Y-41415D02*
X76725Y-41415D01*
X66799Y-41415D02*
X73641Y-41415D01*
X61413Y-41415D02*
X64701Y-41415D01*
X61078Y-41415D02*
X61092Y-41415D01*
X60908Y-41415D02*
X60922Y-41415D01*
X52409Y-41415D02*
X60586Y-41415D01*
X42275Y-41415D02*
X44111Y-41415D01*
X76276Y-41335D02*
X76725Y-41335D01*
X66776Y-41335D02*
X73561Y-41335D01*
X61383Y-41335D02*
X64701Y-41335D01*
X61158Y-41335D02*
X61172Y-41335D01*
X60828Y-41335D02*
X60842Y-41335D01*
X52489Y-41335D02*
X60618Y-41335D01*
X42275Y-41335D02*
X44191Y-41335D01*
X76243Y-41255D02*
X76725Y-41255D01*
X66743Y-41255D02*
X73481Y-41255D01*
X61346Y-41255D02*
X64701Y-41255D01*
X61238Y-41255D02*
X61252Y-41255D01*
X60748Y-41255D02*
X60762Y-41255D01*
X52569Y-41255D02*
X60654Y-41255D01*
X42275Y-41255D02*
X44271Y-41255D01*
X76201Y-41175D02*
X76725Y-41175D01*
X66701Y-41175D02*
X73401Y-41175D01*
X61253Y-41175D02*
X64701Y-41175D01*
X52649Y-41175D02*
X60748Y-41175D01*
X42275Y-41175D02*
X44351Y-41175D01*
X76121Y-41095D02*
X76725Y-41095D01*
X75369Y-41095D02*
X75379Y-41095D01*
X66621Y-41095D02*
X73321Y-41095D01*
X61114Y-41095D02*
X64724Y-41095D01*
X52729Y-41095D02*
X60895Y-41095D01*
X42275Y-41095D02*
X44431Y-41095D01*
X76014Y-41015D02*
X76725Y-41015D01*
X75289Y-41015D02*
X75487Y-41015D01*
X66513Y-41015D02*
X73241Y-41015D01*
X61128Y-41015D02*
X64783Y-41015D01*
X52809Y-41015D02*
X60870Y-41015D01*
X42275Y-41015D02*
X44511Y-41015D01*
X75848Y-40935D02*
X76725Y-40935D01*
X75209Y-40935D02*
X75643Y-40935D01*
X66591Y-40935D02*
X73161Y-40935D01*
X61307Y-40935D02*
X64909Y-40935D01*
X52889Y-40935D02*
X60692Y-40935D01*
X42275Y-40935D02*
X44591Y-40935D01*
X76014Y-40855D02*
X76725Y-40855D01*
X75129Y-40855D02*
X75485Y-40855D01*
X66671Y-40855D02*
X73081Y-40855D01*
X61387Y-40855D02*
X64829Y-40855D01*
X52969Y-40855D02*
X60612Y-40855D01*
X42275Y-40855D02*
X44671Y-40855D01*
X76077Y-40775D02*
X76725Y-40775D01*
X76018Y-40775D02*
X76032Y-40775D01*
X75468Y-40775D02*
X75482Y-40775D01*
X75049Y-40775D02*
X75422Y-40775D01*
X66729Y-40775D02*
X73001Y-40775D01*
X53049Y-40775D02*
X60545Y-40775D01*
X42275Y-40775D02*
X44751Y-40775D01*
X76145Y-40695D02*
X76725Y-40695D01*
X75938Y-40695D02*
X75952Y-40695D01*
X75548Y-40695D02*
X75562Y-40695D01*
X74969Y-40695D02*
X75351Y-40695D01*
X66763Y-40695D02*
X72921Y-40695D01*
X53129Y-40695D02*
X60512Y-40695D01*
X42275Y-40695D02*
X44831Y-40695D01*
X76181Y-40615D02*
X76725Y-40615D01*
X75858Y-40615D02*
X75872Y-40615D01*
X75628Y-40615D02*
X75642Y-40615D01*
X74889Y-40615D02*
X75321Y-40615D01*
X66796Y-40615D02*
X72841Y-40615D01*
X53209Y-40615D02*
X60479Y-40615D01*
X42275Y-40615D02*
X44911Y-40615D01*
X76190Y-40535D02*
X76725Y-40535D01*
X75778Y-40535D02*
X75792Y-40535D01*
X75708Y-40535D02*
X75722Y-40535D01*
X74809Y-40535D02*
X75308Y-40535D01*
X66799Y-40535D02*
X72761Y-40535D01*
X53289Y-40535D02*
X60475Y-40535D01*
X42275Y-40535D02*
X44991Y-40535D01*
X76192Y-40455D02*
X76725Y-40455D01*
X75788Y-40455D02*
X75802Y-40455D01*
X75698Y-40455D02*
X75712Y-40455D01*
X74729Y-40455D02*
X75311Y-40455D01*
X66799Y-40455D02*
X72681Y-40455D01*
X53369Y-40455D02*
X60475Y-40455D01*
X42275Y-40455D02*
X45071Y-40455D01*
X76176Y-40375D02*
X76725Y-40375D01*
X75868Y-40375D02*
X75882Y-40375D01*
X75618Y-40375D02*
X75632Y-40375D01*
X74649Y-40375D02*
X75324Y-40375D01*
X66793Y-40375D02*
X72601Y-40375D01*
X53449Y-40375D02*
X60484Y-40375D01*
X42275Y-40375D02*
X45151Y-40375D01*
X76145Y-40295D02*
X76725Y-40295D01*
X75948Y-40295D02*
X75962Y-40295D01*
X75538Y-40295D02*
X75552Y-40295D01*
X74569Y-40295D02*
X75360Y-40295D01*
X66760Y-40295D02*
X72521Y-40295D01*
X53529Y-40295D02*
X60517Y-40295D01*
X42275Y-40295D02*
X45165Y-40295D01*
X76053Y-40215D02*
X76725Y-40215D01*
X76028Y-40215D02*
X76042Y-40215D01*
X75458Y-40215D02*
X75472Y-40215D01*
X74489Y-40215D02*
X75448Y-40215D01*
X66726Y-40215D02*
X72441Y-40215D01*
X53609Y-40215D02*
X60550Y-40215D01*
X42275Y-40215D02*
X45165Y-40215D01*
X76011Y-40135D02*
X76725Y-40135D01*
X74409Y-40135D02*
X75490Y-40135D01*
X66661Y-40135D02*
X72361Y-40135D01*
X61378Y-40135D02*
X64839Y-40135D01*
X53689Y-40135D02*
X60623Y-40135D01*
X42275Y-40135D02*
X45165Y-40135D01*
X74329Y-40055D02*
X76725Y-40055D01*
X66581Y-40055D02*
X72281Y-40055D01*
X61298Y-40055D02*
X64919Y-40055D01*
X53757Y-40055D02*
X60703Y-40055D01*
X42275Y-40055D02*
X45165Y-40055D01*
X76227Y-39975D02*
X76725Y-39975D01*
X74249Y-39975D02*
X75273Y-39975D01*
X66417Y-39975D02*
X72201Y-39975D01*
X61105Y-39975D02*
X65084Y-39975D01*
X53809Y-39975D02*
X60896Y-39975D01*
X42275Y-39975D02*
X45165Y-39975D01*
X76280Y-39895D02*
X76725Y-39895D01*
X74169Y-39895D02*
X75220Y-39895D01*
X66328Y-39895D02*
X72121Y-39895D01*
X53825Y-39895D02*
X65381Y-39895D01*
X42275Y-39895D02*
X45165Y-39895D01*
X76299Y-39815D02*
X76725Y-39815D01*
X74089Y-39815D02*
X75201Y-39815D01*
X66408Y-39815D02*
X72041Y-39815D01*
X53834Y-39815D02*
X65461Y-39815D01*
X42275Y-39815D02*
X45165Y-39815D01*
X76299Y-39735D02*
X76725Y-39735D01*
X74009Y-39735D02*
X75201Y-39735D01*
X66488Y-39735D02*
X71961Y-39735D01*
X53834Y-39735D02*
X65541Y-39735D01*
X42275Y-39735D02*
X45165Y-39735D01*
X76299Y-39655D02*
X76725Y-39655D01*
X73929Y-39655D02*
X75201Y-39655D01*
X66568Y-39655D02*
X71881Y-39655D01*
X53834Y-39655D02*
X65621Y-39655D01*
X42275Y-39655D02*
X45165Y-39655D01*
X76299Y-39575D02*
X76725Y-39575D01*
X73849Y-39575D02*
X75201Y-39575D01*
X66648Y-39575D02*
X71801Y-39575D01*
X53834Y-39575D02*
X65701Y-39575D01*
X42275Y-39575D02*
X45165Y-39575D01*
X76299Y-39495D02*
X76725Y-39495D01*
X73769Y-39495D02*
X75201Y-39495D01*
X66728Y-39495D02*
X71721Y-39495D01*
X53834Y-39495D02*
X65781Y-39495D01*
X42275Y-39495D02*
X45165Y-39495D01*
X76299Y-39415D02*
X76725Y-39415D01*
X73689Y-39415D02*
X75201Y-39415D01*
X66808Y-39415D02*
X71641Y-39415D01*
X53834Y-39415D02*
X65861Y-39415D01*
X42275Y-39415D02*
X45165Y-39415D01*
X76299Y-39335D02*
X76725Y-39335D01*
X73609Y-39335D02*
X75201Y-39335D01*
X66888Y-39335D02*
X71561Y-39335D01*
X53834Y-39335D02*
X65941Y-39335D01*
X42275Y-39335D02*
X45165Y-39335D01*
X76299Y-39255D02*
X76725Y-39255D01*
X73529Y-39255D02*
X75201Y-39255D01*
X70464Y-39255D02*
X71481Y-39255D01*
X66968Y-39255D02*
X70035Y-39255D01*
X53834Y-39255D02*
X66021Y-39255D01*
X42275Y-39255D02*
X45165Y-39255D01*
X76299Y-39175D02*
X76725Y-39175D01*
X73449Y-39175D02*
X75201Y-39175D01*
X70601Y-39175D02*
X71401Y-39175D01*
X67048Y-39175D02*
X69899Y-39175D01*
X53834Y-39175D02*
X66101Y-39175D01*
X42275Y-39175D02*
X45165Y-39175D01*
X76276Y-39095D02*
X76725Y-39095D01*
X73369Y-39095D02*
X75224Y-39095D01*
X70681Y-39095D02*
X71321Y-39095D01*
X67128Y-39095D02*
X69819Y-39095D01*
X53834Y-39095D02*
X66181Y-39095D01*
X42275Y-39095D02*
X45165Y-39095D01*
X76217Y-39015D02*
X76725Y-39015D01*
X73289Y-39015D02*
X75283Y-39015D01*
X70734Y-39015D02*
X71241Y-39015D01*
X53834Y-39015D02*
X66261Y-39015D01*
X42275Y-39015D02*
X45165Y-39015D01*
X76125Y-38935D02*
X76725Y-38935D01*
X73209Y-38935D02*
X75375Y-38935D01*
X70767Y-38935D02*
X71161Y-38935D01*
X53834Y-38935D02*
X66341Y-38935D01*
X42275Y-38935D02*
X45165Y-38935D01*
X76125Y-38855D02*
X76725Y-38855D01*
X73129Y-38855D02*
X75375Y-38855D01*
X70799Y-38855D02*
X71081Y-38855D01*
X53834Y-38855D02*
X66421Y-38855D01*
X42275Y-38855D02*
X45165Y-38855D01*
X76125Y-38775D02*
X76725Y-38775D01*
X73049Y-38775D02*
X75375Y-38775D01*
X70799Y-38775D02*
X71001Y-38775D01*
X57972Y-38775D02*
X66501Y-38775D01*
X56785Y-38775D02*
X57028Y-38775D01*
X55785Y-38775D02*
X56215Y-38775D01*
X53834Y-38775D02*
X55215Y-38775D01*
X44785Y-38775D02*
X45165Y-38775D01*
X43785Y-38775D02*
X44215Y-38775D01*
X42275Y-38775D02*
X43215Y-38775D01*
X76125Y-38695D02*
X76725Y-38695D01*
X72969Y-38695D02*
X75375Y-38695D01*
X70799Y-38695D02*
X70921Y-38695D01*
X58028Y-38695D02*
X66581Y-38695D01*
X56895Y-38695D02*
X56972Y-38695D01*
X55894Y-38695D02*
X56105Y-38695D01*
X54692Y-38695D02*
X55105Y-38695D01*
X53894Y-38695D02*
X54308Y-38695D01*
X44894Y-38695D02*
X45105Y-38695D01*
X43894Y-38695D02*
X44105Y-38695D01*
X42275Y-38695D02*
X43105Y-38695D01*
X76125Y-38615D02*
X76725Y-38615D01*
X72889Y-38615D02*
X75375Y-38615D01*
X70789Y-38615D02*
X70841Y-38615D01*
X58049Y-38615D02*
X66661Y-38615D01*
X55974Y-38615D02*
X56025Y-38615D01*
X54802Y-38615D02*
X55025Y-38615D01*
X53974Y-38615D02*
X54197Y-38615D01*
X44973Y-38615D02*
X45025Y-38615D01*
X43974Y-38615D02*
X44025Y-38615D01*
X42275Y-38615D02*
X43025Y-38615D01*
X76125Y-38535D02*
X76725Y-38535D01*
X72809Y-38535D02*
X75375Y-38535D01*
X70755Y-38535D02*
X70761Y-38535D01*
X58049Y-38535D02*
X66741Y-38535D01*
X54902Y-38535D02*
X54974Y-38535D01*
X54778Y-38535D02*
X54792Y-38535D01*
X54208Y-38535D02*
X54222Y-38535D01*
X54024Y-38535D02*
X54097Y-38535D01*
X42275Y-38535D02*
X42974Y-38535D01*
X76125Y-38455D02*
X76725Y-38455D01*
X72729Y-38455D02*
X75375Y-38455D01*
X58049Y-38455D02*
X66851Y-38455D01*
X54938Y-38455D02*
X54941Y-38455D01*
X54698Y-38455D02*
X54712Y-38455D01*
X54288Y-38455D02*
X54302Y-38455D01*
X54056Y-38455D02*
X54059Y-38455D01*
X42275Y-38455D02*
X42941Y-38455D01*
X76125Y-38375D02*
X76725Y-38375D01*
X72649Y-38375D02*
X75375Y-38375D01*
X58049Y-38375D02*
X69849Y-38375D01*
X54618Y-38375D02*
X54632Y-38375D01*
X54368Y-38375D02*
X54382Y-38375D01*
X42275Y-38375D02*
X42908Y-38375D01*
X76125Y-38295D02*
X76725Y-38295D01*
X72569Y-38295D02*
X75375Y-38295D01*
X58049Y-38295D02*
X69929Y-38295D01*
X54538Y-38295D02*
X54552Y-38295D01*
X54448Y-38295D02*
X54462Y-38295D01*
X42275Y-38295D02*
X42906Y-38295D01*
X76125Y-38215D02*
X76725Y-38215D01*
X72489Y-38215D02*
X75375Y-38215D01*
X70393Y-38215D02*
X70441Y-38215D01*
X58049Y-38215D02*
X70108Y-38215D01*
X54528Y-38215D02*
X54542Y-38215D01*
X54458Y-38215D02*
X54472Y-38215D01*
X42275Y-38215D02*
X42906Y-38215D01*
X76125Y-38135D02*
X76725Y-38135D01*
X72409Y-38135D02*
X75375Y-38135D01*
X58049Y-38135D02*
X70361Y-38135D01*
X54608Y-38135D02*
X54622Y-38135D01*
X54378Y-38135D02*
X54392Y-38135D01*
X42275Y-38135D02*
X42906Y-38135D01*
X76125Y-38055D02*
X76725Y-38055D01*
X72329Y-38055D02*
X75375Y-38055D01*
X58049Y-38055D02*
X70281Y-38055D01*
X54688Y-38055D02*
X54702Y-38055D01*
X54298Y-38055D02*
X54312Y-38055D01*
X42275Y-38055D02*
X42938Y-38055D01*
X76125Y-37975D02*
X76725Y-37975D01*
X72249Y-37975D02*
X75375Y-37975D01*
X58049Y-37975D02*
X70201Y-37975D01*
X54910Y-37975D02*
X54972Y-37975D01*
X54768Y-37975D02*
X54782Y-37975D01*
X54218Y-37975D02*
X54232Y-37975D01*
X54030Y-37975D02*
X54093Y-37975D01*
X42275Y-37975D02*
X42972Y-37975D01*
X76125Y-37895D02*
X76725Y-37895D01*
X72169Y-37895D02*
X75375Y-37895D01*
X58049Y-37895D02*
X70121Y-37895D01*
X55985Y-37895D02*
X56015Y-37895D01*
X54808Y-37895D02*
X55015Y-37895D01*
X53985Y-37895D02*
X54193Y-37895D01*
X52985Y-37895D02*
X53015Y-37895D01*
X51986Y-37895D02*
X52015Y-37895D01*
X50985Y-37895D02*
X51014Y-37895D01*
X49985Y-37895D02*
X50015Y-37895D01*
X47985Y-37895D02*
X48015Y-37895D01*
X46985Y-37895D02*
X47015Y-37895D01*
X45985Y-37895D02*
X46014Y-37895D01*
X44985Y-37895D02*
X45015Y-37895D01*
X43985Y-37895D02*
X44015Y-37895D01*
X42275Y-37895D02*
X43015Y-37895D01*
X76125Y-37815D02*
X76725Y-37815D01*
X72089Y-37815D02*
X75375Y-37815D01*
X58033Y-37815D02*
X70041Y-37815D01*
X55905Y-37815D02*
X56095Y-37815D01*
X54714Y-37815D02*
X55095Y-37815D01*
X53905Y-37815D02*
X54281Y-37815D01*
X52905Y-37815D02*
X53095Y-37815D01*
X51906Y-37815D02*
X52095Y-37815D01*
X50905Y-37815D02*
X51095Y-37815D01*
X49905Y-37815D02*
X50095Y-37815D01*
X47905Y-37815D02*
X48095Y-37815D01*
X46905Y-37815D02*
X47095Y-37815D01*
X45905Y-37815D02*
X46095Y-37815D01*
X44905Y-37815D02*
X45095Y-37815D01*
X43905Y-37815D02*
X44095Y-37815D01*
X42275Y-37815D02*
X43095Y-37815D01*
X76125Y-37735D02*
X76725Y-37735D01*
X72009Y-37735D02*
X75375Y-37735D01*
X57982Y-37735D02*
X69961Y-37735D01*
X55809Y-37735D02*
X56165Y-37735D01*
X53809Y-37735D02*
X55191Y-37735D01*
X52809Y-37735D02*
X53191Y-37735D01*
X51809Y-37735D02*
X52191Y-37735D01*
X50809Y-37735D02*
X51191Y-37735D01*
X49835Y-37735D02*
X50191Y-37735D01*
X47809Y-37735D02*
X48165Y-37735D01*
X46809Y-37735D02*
X47191Y-37735D01*
X45809Y-37735D02*
X46191Y-37735D01*
X44809Y-37735D02*
X45191Y-37735D01*
X43809Y-37735D02*
X44191Y-37735D01*
X42275Y-37735D02*
X43191Y-37735D01*
X76125Y-37655D02*
X76725Y-37655D01*
X71929Y-37655D02*
X75375Y-37655D01*
X57835Y-37655D02*
X69881Y-37655D01*
X49835Y-37655D02*
X56165Y-37655D01*
X42275Y-37655D02*
X48165Y-37655D01*
X76125Y-37575D02*
X76725Y-37575D01*
X71849Y-37575D02*
X75375Y-37575D01*
X57899Y-37575D02*
X69801Y-37575D01*
X49835Y-37575D02*
X56165Y-37575D01*
X42275Y-37575D02*
X48165Y-37575D01*
X76125Y-37495D02*
X76725Y-37495D01*
X71769Y-37495D02*
X75375Y-37495D01*
X57979Y-37495D02*
X69721Y-37495D01*
X49835Y-37495D02*
X56165Y-37495D01*
X42275Y-37495D02*
X48165Y-37495D01*
X76125Y-37415D02*
X76725Y-37415D01*
X71689Y-37415D02*
X75375Y-37415D01*
X58059Y-37415D02*
X69641Y-37415D01*
X49859Y-37415D02*
X56165Y-37415D01*
X42275Y-37415D02*
X48165Y-37415D01*
X76125Y-37335D02*
X76725Y-37335D01*
X71609Y-37335D02*
X75375Y-37335D01*
X58139Y-37335D02*
X69561Y-37335D01*
X49939Y-37335D02*
X56165Y-37335D01*
X42275Y-37335D02*
X48165Y-37335D01*
X76125Y-37255D02*
X76725Y-37255D01*
X71529Y-37255D02*
X75375Y-37255D01*
X58219Y-37255D02*
X69481Y-37255D01*
X50019Y-37255D02*
X56165Y-37255D01*
X42275Y-37255D02*
X48165Y-37255D01*
X76125Y-37175D02*
X76725Y-37175D01*
X71449Y-37175D02*
X75375Y-37175D01*
X50099Y-37175D02*
X56171Y-37175D01*
X42275Y-37175D02*
X48181Y-37175D01*
X76125Y-37095D02*
X76725Y-37095D01*
X71369Y-37095D02*
X75375Y-37095D01*
X50179Y-37095D02*
X56187Y-37095D01*
X42275Y-37095D02*
X48209Y-37095D01*
X76125Y-37015D02*
X76725Y-37015D01*
X71289Y-37015D02*
X75375Y-37015D01*
X50259Y-37015D02*
X56229Y-37015D01*
X42275Y-37015D02*
X48262Y-37015D01*
X76195Y-36935D02*
X76725Y-36935D01*
X71209Y-36935D02*
X75375Y-36935D01*
X50339Y-36935D02*
X56291Y-36935D01*
X42275Y-36935D02*
X48341Y-36935D01*
X76275Y-36855D02*
X76725Y-36855D01*
X71129Y-36855D02*
X75375Y-36855D01*
X50419Y-36855D02*
X56371Y-36855D01*
X42275Y-36855D02*
X48421Y-36855D01*
X76355Y-36775D02*
X76725Y-36775D01*
X73548Y-36775D02*
X75391Y-36775D01*
X71049Y-36775D02*
X73009Y-36775D01*
X50499Y-36775D02*
X56451Y-36775D01*
X45988Y-36775D02*
X48501Y-36775D01*
X42275Y-36775D02*
X45449Y-36775D01*
X76435Y-36695D02*
X76725Y-36695D01*
X73741Y-36695D02*
X75412Y-36695D01*
X70969Y-36695D02*
X72817Y-36695D01*
X50579Y-36695D02*
X56531Y-36695D01*
X46181Y-36695D02*
X48581Y-36695D01*
X42275Y-36695D02*
X45257Y-36695D01*
X76515Y-36615D02*
X76725Y-36615D01*
X73899Y-36615D02*
X75465Y-36615D01*
X70889Y-36615D02*
X72660Y-36615D01*
X50659Y-36615D02*
X56611Y-36615D01*
X46339Y-36615D02*
X48661Y-36615D01*
X42275Y-36615D02*
X45100Y-36615D01*
X76595Y-36535D02*
X76725Y-36535D01*
X73979Y-36535D02*
X75535Y-36535D01*
X70809Y-36535D02*
X72580Y-36535D01*
X50739Y-36535D02*
X56691Y-36535D01*
X46419Y-36535D02*
X48741Y-36535D01*
X42275Y-36535D02*
X45020Y-36535D01*
X76675Y-36455D02*
X76725Y-36455D01*
X74059Y-36455D02*
X75615Y-36455D01*
X70729Y-36455D02*
X72500Y-36455D01*
X50819Y-36455D02*
X56771Y-36455D01*
X46499Y-36455D02*
X48821Y-36455D01*
X42275Y-36455D02*
X44940Y-36455D01*
X74139Y-36375D02*
X75695Y-36375D01*
X70649Y-36375D02*
X72420Y-36375D01*
X50899Y-36375D02*
X56851Y-36375D01*
X46579Y-36375D02*
X48901Y-36375D01*
X42275Y-36375D02*
X44860Y-36375D01*
X74190Y-36295D02*
X75775Y-36295D01*
X70569Y-36295D02*
X72369Y-36295D01*
X50979Y-36295D02*
X56931Y-36295D01*
X46630Y-36295D02*
X48981Y-36295D01*
X42275Y-36295D02*
X44809Y-36295D01*
X74224Y-36215D02*
X75855Y-36215D01*
X70489Y-36215D02*
X72336Y-36215D01*
X51059Y-36215D02*
X57011Y-36215D01*
X46664Y-36215D02*
X49061Y-36215D01*
X42275Y-36215D02*
X44776Y-36215D01*
X74257Y-36135D02*
X75935Y-36135D01*
X70409Y-36135D02*
X72303Y-36135D01*
X51139Y-36135D02*
X57091Y-36135D01*
X46697Y-36135D02*
X49141Y-36135D01*
X42275Y-36135D02*
X44743Y-36135D01*
X74290Y-36055D02*
X76015Y-36055D01*
X70325Y-36055D02*
X72270Y-36055D01*
X51219Y-36055D02*
X57176Y-36055D01*
X46730Y-36055D02*
X49221Y-36055D01*
X42275Y-36055D02*
X44710Y-36055D01*
X74323Y-35975D02*
X76095Y-35975D01*
X70150Y-35975D02*
X72237Y-35975D01*
X51299Y-35975D02*
X57351Y-35975D01*
X46763Y-35975D02*
X49301Y-35975D01*
X42275Y-35975D02*
X44677Y-35975D01*
X74330Y-35895D02*
X76175Y-35895D01*
X51379Y-35895D02*
X72230Y-35895D01*
X46770Y-35895D02*
X49381Y-35895D01*
X42275Y-35895D02*
X44670Y-35895D01*
X74330Y-35815D02*
X76225Y-35815D01*
X51459Y-35815D02*
X72230Y-35815D01*
X46770Y-35815D02*
X49461Y-35815D01*
X42275Y-35815D02*
X44670Y-35815D01*
X76012Y-35735D02*
X76225Y-35735D01*
X74330Y-35735D02*
X75487Y-35735D01*
X51539Y-35735D02*
X72230Y-35735D01*
X46770Y-35735D02*
X49541Y-35735D01*
X42275Y-35735D02*
X44670Y-35735D01*
X76121Y-35655D02*
X76225Y-35655D01*
X74330Y-35655D02*
X75379Y-35655D01*
X51619Y-35655D02*
X72230Y-35655D01*
X46770Y-35655D02*
X49621Y-35655D01*
X42275Y-35655D02*
X44670Y-35655D01*
X76201Y-35575D02*
X76225Y-35575D01*
X74330Y-35575D02*
X75299Y-35575D01*
X51699Y-35575D02*
X72230Y-35575D01*
X46770Y-35575D02*
X49701Y-35575D01*
X42275Y-35575D02*
X44670Y-35575D01*
X74311Y-35495D02*
X75175Y-35495D01*
X51779Y-35495D02*
X72249Y-35495D01*
X46751Y-35495D02*
X49781Y-35495D01*
X42275Y-35495D02*
X44689Y-35495D01*
X74278Y-35415D02*
X75090Y-35415D01*
X51859Y-35415D02*
X72282Y-35415D01*
X46718Y-35415D02*
X49861Y-35415D01*
X42275Y-35415D02*
X44722Y-35415D01*
X74245Y-35335D02*
X75010Y-35335D01*
X51939Y-35335D02*
X72316Y-35335D01*
X46685Y-35335D02*
X49941Y-35335D01*
X42275Y-35335D02*
X44756Y-35335D01*
X74212Y-35255D02*
X74930Y-35255D01*
X52019Y-35255D02*
X72349Y-35255D01*
X46652Y-35255D02*
X50021Y-35255D01*
X42275Y-35255D02*
X44789Y-35255D01*
X74178Y-35175D02*
X74850Y-35175D01*
X52099Y-35175D02*
X72382Y-35175D01*
X46618Y-35175D02*
X50101Y-35175D01*
X42275Y-35175D02*
X44822Y-35175D01*
X74110Y-35095D02*
X74770Y-35095D01*
X52179Y-35095D02*
X72451Y-35095D01*
X46550Y-35095D02*
X50181Y-35095D01*
X42275Y-35095D02*
X44891Y-35095D01*
X74030Y-35015D02*
X74690Y-35015D01*
X52259Y-35015D02*
X72531Y-35015D01*
X46470Y-35015D02*
X50261Y-35015D01*
X42275Y-35015D02*
X44971Y-35015D01*
X73950Y-34935D02*
X74610Y-34935D01*
X52339Y-34935D02*
X72611Y-34935D01*
X46390Y-34935D02*
X50341Y-34935D01*
X42275Y-34935D02*
X45051Y-34935D01*
X73863Y-34855D02*
X74530Y-34855D01*
X52419Y-34855D02*
X72699Y-34855D01*
X46303Y-34855D02*
X50421Y-34855D01*
X42275Y-34855D02*
X45138Y-34855D01*
X73671Y-34775D02*
X74450Y-34775D01*
X52499Y-34775D02*
X72891Y-34775D01*
X46111Y-34775D02*
X50501Y-34775D01*
X42275Y-34775D02*
X45330Y-34775D01*
X42275Y-34695D02*
X50581Y-34695D01*
X42275Y-34615D02*
X50661Y-34615D01*
X42275Y-34535D02*
X50741Y-34535D01*
X42275Y-34455D02*
X50821Y-34455D01*
X42275Y-34375D02*
X50901Y-34375D01*
X42275Y-34295D02*
X50981Y-34295D01*
X42275Y-34215D02*
X51061Y-34215D01*
X42275Y-34135D02*
X51141Y-34135D01*
X42275Y-34055D02*
X51221Y-34055D01*
X42275Y-33975D02*
X51301Y-33975D01*
X76171Y-33895D02*
X76225Y-33895D01*
X42275Y-33895D02*
X51381Y-33895D01*
X76091Y-33815D02*
X76225Y-33815D01*
X75339Y-33815D02*
X75409Y-33815D01*
X42275Y-33815D02*
X51461Y-33815D01*
X75942Y-33735D02*
X76225Y-33735D01*
X75259Y-33735D02*
X75559Y-33735D01*
X42275Y-33735D02*
X51541Y-33735D01*
X75928Y-33655D02*
X76225Y-33655D01*
X75179Y-33655D02*
X75576Y-33655D01*
X42275Y-33655D02*
X51621Y-33655D01*
X76026Y-33575D02*
X76225Y-33575D01*
X75099Y-33575D02*
X75473Y-33575D01*
X42275Y-33575D02*
X51701Y-33575D01*
X76122Y-33495D02*
X76225Y-33495D01*
X75988Y-33495D02*
X76002Y-33495D01*
X75498Y-33495D02*
X75512Y-33495D01*
X75019Y-33495D02*
X75372Y-33495D01*
X42275Y-33495D02*
X51781Y-33495D01*
X76158Y-33415D02*
X76225Y-33415D01*
X75908Y-33415D02*
X75922Y-33415D01*
X75578Y-33415D02*
X75592Y-33415D01*
X74939Y-33415D02*
X75340Y-33415D01*
X42275Y-33415D02*
X51861Y-33415D01*
X76188Y-33335D02*
X76225Y-33335D01*
X75828Y-33335D02*
X75842Y-33335D01*
X75658Y-33335D02*
X75672Y-33335D01*
X74799Y-33335D02*
X75309Y-33335D01*
X42275Y-33335D02*
X52002Y-33335D01*
X76191Y-33255D02*
X76225Y-33255D01*
X75738Y-33255D02*
X75762Y-33255D01*
X42275Y-33255D02*
X75309Y-33255D01*
X76194Y-33175D02*
X76225Y-33175D01*
X75818Y-33175D02*
X75832Y-33175D01*
X75668Y-33175D02*
X75682Y-33175D01*
X42275Y-33175D02*
X75312Y-33175D01*
X76164Y-33095D02*
X76225Y-33095D01*
X75898Y-33095D02*
X75912Y-33095D01*
X75588Y-33095D02*
X75602Y-33095D01*
X42275Y-33095D02*
X75337Y-33095D01*
X76134Y-33015D02*
X76225Y-33015D01*
X75978Y-33015D02*
X75992Y-33015D01*
X75508Y-33015D02*
X75522Y-33015D01*
X42275Y-33015D02*
X75373Y-33015D01*
X76031Y-32935D02*
X76225Y-32935D01*
X42275Y-32935D02*
X75470Y-32935D01*
X75946Y-32855D02*
X76225Y-32855D01*
X42275Y-32855D02*
X75546Y-32855D01*
X76157Y-32775D02*
X76225Y-32775D01*
X42275Y-32775D02*
X75342Y-32775D01*
X42275Y-32695D02*
X75243Y-32695D01*
X42275Y-32615D02*
X75207Y-32615D01*
X42275Y-32535D02*
X75201Y-32535D01*
X42275Y-32455D02*
X75201Y-32455D01*
X42275Y-32375D02*
X75201Y-32375D01*
X42275Y-32295D02*
X75201Y-32295D01*
X42275Y-32215D02*
X75201Y-32215D01*
X76665Y-32135D02*
X76725Y-32135D01*
X42275Y-32135D02*
X75201Y-32135D01*
X76585Y-32055D02*
X76725Y-32055D01*
X42275Y-32055D02*
X75201Y-32055D01*
X76501Y-31975D02*
X76725Y-31975D01*
X42275Y-31975D02*
X75201Y-31975D01*
X76350Y-31895D02*
X76725Y-31895D01*
X42275Y-31895D02*
X75204Y-31895D01*
X76264Y-31815D02*
X76725Y-31815D01*
X42275Y-31815D02*
X75237Y-31815D01*
X76182Y-31735D02*
X76725Y-31735D01*
X42275Y-31735D02*
X75319Y-31735D01*
X42275Y-31655D02*
X76725Y-31655D01*
X42275Y-31575D02*
X76725Y-31575D01*
X42275Y-31495D02*
X76725Y-31495D01*
X42275Y-31415D02*
X76725Y-31415D01*
X42275Y-31335D02*
X76725Y-31335D01*
X42275Y-31255D02*
X76725Y-31255D01*
X42275Y-31175D02*
X76725Y-31175D01*
X42275Y-31095D02*
X76725Y-31095D01*
X42275Y-31015D02*
X76725Y-31015D01*
X42275Y-30935D02*
X76725Y-30935D01*
X42275Y-30855D02*
X76725Y-30855D01*
X42275Y-30775D02*
X76725Y-30775D01*
X42275Y-30695D02*
X76725Y-30695D01*
X42275Y-30615D02*
X76725Y-30615D01*
X42275Y-30535D02*
X76725Y-30535D01*
X42275Y-30455D02*
X76725Y-30455D01*
X42275Y-30375D02*
X76725Y-30375D01*
X42275Y-30295D02*
X76725Y-30295D01*
X42275Y-30215D02*
X76725Y-30215D01*
X42275Y-30135D02*
X76725Y-30135D01*
X42275Y-30055D02*
X76725Y-30055D01*
X42275Y-29975D02*
X76725Y-29975D01*
X42275Y-29895D02*
X76725Y-29895D01*
X42275Y-29815D02*
X76725Y-29815D01*
X42275Y-29735D02*
X76725Y-29735D01*
X42275Y-29655D02*
X76725Y-29655D01*
X42275Y-29575D02*
X76725Y-29575D01*
X42275Y-29495D02*
X76725Y-29495D01*
X42275Y-29415D02*
X76725Y-29415D01*
X42275Y-29335D02*
X76725Y-29335D01*
X42275Y-29255D02*
X76725Y-29255D01*
X42275Y-29175D02*
X76725Y-29175D01*
X42275Y-29095D02*
X76725Y-29095D01*
X42275Y-29015D02*
X76725Y-29015D01*
X42275Y-28935D02*
X76725Y-28935D01*
X42275Y-28855D02*
X76725Y-28855D01*
X42275Y-28775D02*
X76725Y-28775D01*
X42275Y-28695D02*
X76725Y-28695D01*
X42275Y-28615D02*
X76725Y-28615D01*
X42275Y-28535D02*
X76725Y-28535D01*
X42275Y-28455D02*
X76725Y-28455D01*
X42275Y-28375D02*
X76725Y-28375D01*
X42275Y-28295D02*
X76725Y-28295D01*
X42275Y-28215D02*
X76725Y-28215D01*
X42275Y-28135D02*
X76725Y-28135D01*
X42275Y-28055D02*
X76725Y-28055D01*
X42275Y-27975D02*
X76725Y-27975D01*
X42275Y-27895D02*
X76725Y-27895D01*
X42275Y-27815D02*
X76725Y-27815D01*
X42275Y-27735D02*
X76725Y-27735D01*
X42275Y-27655D02*
X76725Y-27655D01*
X42275Y-27575D02*
X76725Y-27575D01*
X42275Y-27495D02*
X76725Y-27495D01*
X42275Y-27415D02*
X76725Y-27415D01*
X42275Y-27335D02*
X76725Y-27335D01*
X42275Y-27255D02*
X76725Y-27255D01*
X42275Y-27175D02*
X76725Y-27175D01*
X42275Y-27095D02*
X76725Y-27095D01*
X42275Y-27015D02*
X76725Y-27015D01*
X42275Y-26935D02*
X76725Y-26935D01*
X42275Y-26855D02*
X76725Y-26855D01*
X42275Y-26775D02*
X76725Y-26775D01*
X42275Y-26695D02*
X76725Y-26695D01*
X42275Y-26615D02*
X76725Y-26615D01*
X42275Y-26535D02*
X76725Y-26535D01*
X42275Y-26455D02*
X76725Y-26455D01*
X42275Y-26375D02*
X76725Y-26375D01*
X42275Y-26295D02*
X76725Y-26295D01*
X42275Y-26215D02*
X76725Y-26215D01*
X42275Y-26135D02*
X76725Y-26135D01*
X42275Y-26055D02*
X76725Y-26055D01*
X42275Y-25975D02*
X76725Y-25975D01*
X42275Y-25895D02*
X76725Y-25895D01*
X42275Y-25815D02*
X76725Y-25815D01*
X42275Y-25735D02*
X76725Y-25735D01*
X42275Y-25655D02*
X76725Y-25655D01*
X42275Y-25575D02*
X76725Y-25575D01*
X42275Y-25495D02*
X76725Y-25495D01*
X42275Y-25415D02*
X76725Y-25415D01*
X42275Y-25335D02*
X76725Y-25335D01*
X42275Y-25255D02*
X76725Y-25255D01*
X42275Y-25175D02*
X76725Y-25175D01*
X42275Y-25095D02*
X76725Y-25095D01*
X42275Y-25015D02*
X76725Y-25015D01*
X42275Y-24935D02*
X76725Y-24935D01*
X42275Y-24855D02*
X76725Y-24855D01*
X42275Y-24775D02*
X76725Y-24775D01*
X42275Y-24695D02*
X76725Y-24695D01*
X42275Y-24615D02*
X76725Y-24615D01*
X42275Y-24535D02*
X76725Y-24535D01*
X42275Y-24455D02*
X76725Y-24455D01*
X42275Y-24375D02*
X76725Y-24375D01*
X42275Y-24295D02*
X76725Y-24295D01*
X42275Y-24215D02*
X76725Y-24215D01*
X42275Y-24135D02*
X76725Y-24135D01*
X42275Y-24055D02*
X76725Y-24055D01*
X42275Y-23975D02*
X76725Y-23975D01*
X42275Y-23895D02*
X76725Y-23895D01*
X42275Y-23815D02*
X76725Y-23815D01*
X42275Y-23735D02*
X76725Y-23735D01*
X42275Y-23655D02*
X76725Y-23655D01*
X42275Y-23575D02*
X76725Y-23575D01*
X42275Y-23495D02*
X76725Y-23495D01*
X42275Y-23415D02*
X76725Y-23415D01*
X42275Y-23335D02*
X76725Y-23335D01*
X42275Y-23255D02*
X76725Y-23255D01*
X42275Y-23175D02*
X76725Y-23175D01*
X42275Y-23095D02*
X76725Y-23095D01*
X42275Y-23015D02*
X76725Y-23015D01*
X42275Y-22935D02*
X76725Y-22935D01*
X42275Y-22855D02*
X76725Y-22855D01*
X42275Y-22775D02*
X76725Y-22775D01*
X42275Y-22695D02*
X76725Y-22695D01*
X42275Y-22615D02*
X76725Y-22615D01*
X42275Y-22535D02*
X76725Y-22535D01*
X42275Y-22455D02*
X76725Y-22455D01*
X42275Y-22375D02*
X76725Y-22375D01*
X42275Y-22295D02*
X76725Y-22295D01*
X42275Y-22215D02*
X76725Y-22215D01*
X42275Y-22135D02*
X76725Y-22135D01*
X42275Y-22055D02*
X76725Y-22055D01*
X42275Y-21975D02*
X76725Y-21975D01*
X42275Y-21895D02*
X76725Y-21895D01*
X42275Y-21815D02*
X76725Y-21815D01*
X42275Y-21735D02*
X76725Y-21735D01*
X42275Y-21655D02*
X76725Y-21655D01*
X42275Y-21575D02*
X76725Y-21575D01*
X42275Y-21495D02*
X76725Y-21495D01*
X42275Y-21415D02*
X76725Y-21415D01*
X42275Y-21335D02*
X76725Y-21335D01*
X42275Y-21255D02*
X76725Y-21255D01*
X42275Y-21175D02*
X76725Y-21175D01*
X42275Y-21095D02*
X76725Y-21095D01*
X42275Y-21015D02*
X76725Y-21015D01*
X42275Y-20935D02*
X76725Y-20935D01*
X42275Y-20855D02*
X76725Y-20855D01*
X42275Y-20775D02*
X76725Y-20775D01*
X42275Y-20695D02*
X76725Y-20695D01*
X42275Y-20615D02*
X76725Y-20615D01*
X42275Y-20535D02*
X76725Y-20535D01*
X42275Y-20455D02*
X76725Y-20455D01*
X42275Y-20375D02*
X76725Y-20375D01*
X42275Y-20295D02*
X76725Y-20295D01*
X42275Y-20215D02*
X76725Y-20215D01*
X42275Y-20135D02*
X76725Y-20135D01*
X42275Y-20055D02*
X76725Y-20055D01*
X42275Y-19975D02*
X76725Y-19975D01*
X42275Y-19895D02*
X76725Y-19895D01*
X42275Y-19815D02*
X76725Y-19815D01*
X42275Y-19735D02*
X76725Y-19735D01*
X42275Y-19655D02*
X76725Y-19655D01*
X42275Y-19575D02*
X76725Y-19575D01*
X42275Y-19495D02*
X76725Y-19495D01*
X42275Y-19415D02*
X76725Y-19415D01*
X42275Y-19335D02*
X76725Y-19335D01*
X42275Y-19255D02*
X76725Y-19255D01*
X42275Y-19175D02*
X76725Y-19175D01*
X42275Y-19095D02*
X76725Y-19095D01*
X42275Y-19015D02*
X76725Y-19015D01*
X42275Y-18935D02*
X76725Y-18935D01*
X42275Y-18855D02*
X76725Y-18855D01*
X42275Y-18775D02*
X76725Y-18775D01*
X42275Y-18695D02*
X76725Y-18695D01*
X42275Y-18615D02*
X76725Y-18615D01*
X42275Y-18535D02*
X76725Y-18535D01*
X42275Y-18455D02*
X76725Y-18455D01*
X42275Y-18375D02*
X76725Y-18375D01*
X42275Y-18295D02*
X76725Y-18295D01*
X42275Y-18215D02*
X76725Y-18215D01*
X42275Y-18135D02*
X76725Y-18135D01*
X42275Y-18055D02*
X76725Y-18055D01*
X42275Y-17975D02*
X76725Y-17975D01*
X42275Y-17895D02*
X76725Y-17895D01*
X42275Y-17815D02*
X76725Y-17815D01*
X42275Y-17735D02*
X76725Y-17735D01*
X42275Y-17655D02*
X76725Y-17655D01*
X42275Y-17575D02*
X76725Y-17575D01*
X42275Y-17495D02*
X76725Y-17495D01*
X42275Y-17415D02*
X76725Y-17415D01*
X42275Y-17335D02*
X76725Y-17335D01*
X42275Y-17255D02*
X76725Y-17255D01*
X42275Y-17175D02*
X76725Y-17175D01*
X73536Y-17095D02*
X76725Y-17095D01*
X45976Y-17095D02*
X73021Y-17095D01*
X42275Y-17095D02*
X45461Y-17095D01*
X73729Y-17015D02*
X76725Y-17015D01*
X46169Y-17015D02*
X72829Y-17015D01*
X42275Y-17015D02*
X45269Y-17015D01*
X73894Y-16935D02*
X76725Y-16935D01*
X46334Y-16935D02*
X72665Y-16935D01*
X42275Y-16935D02*
X45105Y-16935D01*
X73974Y-16855D02*
X76725Y-16855D01*
X46414Y-16855D02*
X72585Y-16855D01*
X42275Y-16855D02*
X45025Y-16855D01*
X74054Y-16775D02*
X76725Y-16775D01*
X46494Y-16775D02*
X72505Y-16775D01*
X42275Y-16775D02*
X44945Y-16775D01*
X74134Y-16695D02*
X76725Y-16695D01*
X46574Y-16695D02*
X72425Y-16695D01*
X42275Y-16695D02*
X44865Y-16695D01*
X74188Y-16615D02*
X76725Y-16615D01*
X46628Y-16615D02*
X72371Y-16615D01*
X42275Y-16615D02*
X44811Y-16615D01*
X74221Y-16535D02*
X76725Y-16535D01*
X46661Y-16535D02*
X72338Y-16535D01*
X42275Y-16535D02*
X44778Y-16535D01*
X74255Y-16455D02*
X76725Y-16455D01*
X46695Y-16455D02*
X72305Y-16455D01*
X42275Y-16455D02*
X44745Y-16455D01*
X74288Y-16375D02*
X76725Y-16375D01*
X46728Y-16375D02*
X72272Y-16375D01*
X42275Y-16375D02*
X44712Y-16375D01*
X74321Y-16295D02*
X76725Y-16295D01*
X46761Y-16295D02*
X72239Y-16295D01*
X42275Y-16295D02*
X44679Y-16295D01*
X74330Y-16215D02*
X76725Y-16215D01*
X46770Y-16215D02*
X72230Y-16215D01*
X42275Y-16215D02*
X44670Y-16215D01*
X74330Y-16135D02*
X76725Y-16135D01*
X46770Y-16135D02*
X72230Y-16135D01*
X42275Y-16135D02*
X44670Y-16135D01*
X74330Y-16055D02*
X76725Y-16055D01*
X46770Y-16055D02*
X72230Y-16055D01*
X42275Y-16055D02*
X44670Y-16055D01*
X74330Y-15975D02*
X76725Y-15975D01*
X46770Y-15975D02*
X72230Y-15975D01*
X42275Y-15975D02*
X44670Y-15975D01*
X74330Y-15895D02*
X76725Y-15895D01*
X46770Y-15895D02*
X72230Y-15895D01*
X42275Y-15895D02*
X44670Y-15895D01*
X74313Y-15815D02*
X76725Y-15815D01*
X46753Y-15815D02*
X72247Y-15815D01*
X42275Y-15815D02*
X44687Y-15815D01*
X74280Y-15735D02*
X76725Y-15735D01*
X46720Y-15735D02*
X72280Y-15735D01*
X42275Y-15735D02*
X44720Y-15735D01*
X74247Y-15655D02*
X76725Y-15655D01*
X46687Y-15655D02*
X72314Y-15655D01*
X42275Y-15655D02*
X44754Y-15655D01*
X74214Y-15575D02*
X76725Y-15575D01*
X46654Y-15575D02*
X72347Y-15575D01*
X42275Y-15575D02*
X44787Y-15575D01*
X74180Y-15495D02*
X76725Y-15495D01*
X46620Y-15495D02*
X72380Y-15495D01*
X42275Y-15495D02*
X44820Y-15495D01*
X74115Y-15415D02*
X76725Y-15415D01*
X46555Y-15415D02*
X72446Y-15415D01*
X42275Y-15415D02*
X44886Y-15415D01*
X74035Y-15335D02*
X76725Y-15335D01*
X46475Y-15335D02*
X72526Y-15335D01*
X42275Y-15335D02*
X44966Y-15335D01*
X73955Y-15255D02*
X76725Y-15255D01*
X46395Y-15255D02*
X72606Y-15255D01*
X42275Y-15255D02*
X45046Y-15255D01*
X73875Y-15175D02*
X76725Y-15175D01*
X46315Y-15175D02*
X72686Y-15175D01*
X42275Y-15175D02*
X45126Y-15175D01*
X73683Y-15095D02*
X76725Y-15095D01*
X46123Y-15095D02*
X72879Y-15095D01*
X42275Y-15095D02*
X45319Y-15095D01*
X73490Y-15015D02*
X76725Y-15015D01*
X45930Y-15015D02*
X73072Y-15015D01*
X42275Y-15015D02*
X45512Y-15015D01*
X42275Y-14935D02*
X76725Y-14935D01*
X42275Y-14855D02*
X76725Y-14855D01*
X42275Y-14775D02*
X76725Y-14775D01*
X42275Y-14695D02*
X76725Y-14695D01*
X42275Y-14615D02*
X76725Y-14615D01*
X42275Y-14535D02*
X76725Y-14535D01*
X42275Y-14455D02*
X76725Y-14455D01*
X76238Y-14375D02*
X76725Y-14375D01*
X43238Y-14375D02*
X75760Y-14375D01*
X42275Y-14375D02*
X42760Y-14375D01*
X76431Y-14295D02*
X76725Y-14295D01*
X43431Y-14295D02*
X75568Y-14295D01*
X42275Y-14295D02*
X42568Y-14295D01*
X76557Y-14215D02*
X76725Y-14215D01*
X43557Y-14215D02*
X75442Y-14215D01*
X42275Y-14215D02*
X42442Y-14215D01*
X76637Y-14135D02*
X76725Y-14135D01*
X43637Y-14135D02*
X75362Y-14135D01*
X42275Y-14135D02*
X42362Y-14135D01*
X76717Y-14055D02*
X76725Y-14055D01*
X43717Y-14055D02*
X75282Y-14055D01*
X42275Y-14055D02*
X42282Y-14055D01*
X43777Y-13975D02*
X75222Y-13975D01*
X43810Y-13895D02*
X75189Y-13895D01*
X43843Y-13815D02*
X75156Y-13815D01*
X43877Y-13735D02*
X75123Y-13735D01*
X43900Y-13655D02*
X75100Y-13655D01*
X43900Y-13575D02*
X75100Y-13575D01*
X43900Y-13495D02*
X75100Y-13495D01*
X43900Y-13415D02*
X75100Y-13415D01*
X43900Y-13335D02*
X75100Y-13335D01*
X43873Y-13255D02*
X75128Y-13255D01*
X43840Y-13175D02*
X75161Y-13175D01*
X43807Y-13095D02*
X75194Y-13095D01*
X43773Y-13015D02*
X75228Y-13015D01*
X43707Y-12935D02*
X75292Y-12935D01*
X43627Y-12855D02*
X75372Y-12855D01*
X43547Y-12775D02*
X75452Y-12775D01*
X75452Y-50975D02*
X75237Y-50759D01*
X75237Y-50759D02*
X75100Y-50428D01*
X75100Y-50428D02*
X75100Y-50070D01*
X75100Y-50070D02*
X75238Y-49739D01*
X75238Y-49739D02*
X75491Y-49487D01*
X75491Y-49487D02*
X75641Y-49424D01*
X75641Y-49424D02*
X75641Y-43049D01*
X75641Y-43049D02*
X75439Y-42965D01*
X75439Y-42965D02*
X75309Y-42835D01*
X75309Y-42835D02*
X75200Y-42835D01*
X75200Y-42835D02*
X75072Y-42809D01*
X75072Y-42809D02*
X74963Y-42737D01*
X74963Y-42737D02*
X70750Y-38524D01*
X70750Y-38524D02*
X70799Y-38641D01*
X70799Y-38641D02*
X70799Y-38859D01*
X70799Y-38859D02*
X70715Y-39061D01*
X70715Y-39061D02*
X70561Y-39215D01*
X70561Y-39215D02*
X70359Y-39299D01*
X70359Y-39299D02*
X70141Y-39299D01*
X70141Y-39299D02*
X69939Y-39215D01*
X69939Y-39215D02*
X69809Y-39085D01*
X69809Y-39085D02*
X67138Y-39085D01*
X67138Y-39085D02*
X66272Y-39951D01*
X66272Y-39951D02*
X66359Y-39951D01*
X66359Y-39951D02*
X66561Y-40035D01*
X66561Y-40035D02*
X66715Y-40189D01*
X66715Y-40189D02*
X66799Y-40391D01*
X66799Y-40391D02*
X66799Y-40609D01*
X66799Y-40609D02*
X66715Y-40811D01*
X66715Y-40811D02*
X66561Y-40965D01*
X66561Y-40965D02*
X66476Y-41000D01*
X66476Y-41000D02*
X66561Y-41035D01*
X66561Y-41035D02*
X66715Y-41189D01*
X66715Y-41189D02*
X66799Y-41391D01*
X66799Y-41391D02*
X66799Y-41609D01*
X66799Y-41609D02*
X66715Y-41811D01*
X66715Y-41811D02*
X66561Y-41965D01*
X66561Y-41965D02*
X66359Y-42049D01*
X66359Y-42049D02*
X66141Y-42049D01*
X66141Y-42049D02*
X65939Y-41965D01*
X65939Y-41965D02*
X65799Y-41825D01*
X65799Y-41825D02*
X65799Y-41850D01*
X65799Y-41850D02*
X65761Y-41941D01*
X65761Y-41941D02*
X65691Y-42011D01*
X65691Y-42011D02*
X65599Y-42049D01*
X65599Y-42049D02*
X64900Y-42049D01*
X64900Y-42049D02*
X64809Y-42011D01*
X64809Y-42011D02*
X64739Y-41941D01*
X64739Y-41941D02*
X64701Y-41849D01*
X64701Y-41849D02*
X64701Y-41150D01*
X64701Y-41150D02*
X64739Y-41059D01*
X64739Y-41059D02*
X64809Y-40989D01*
X64809Y-40989D02*
X64901Y-40951D01*
X64901Y-40951D02*
X64925Y-40951D01*
X64925Y-40951D02*
X64809Y-40835D01*
X64809Y-40835D02*
X61407Y-40835D01*
X61407Y-40835D02*
X61297Y-40945D01*
X61297Y-40945D02*
X61104Y-41025D01*
X61104Y-41025D02*
X60895Y-41025D01*
X60895Y-41025D02*
X60702Y-40945D01*
X60702Y-40945D02*
X60555Y-40797D01*
X60555Y-40797D02*
X60475Y-40604D01*
X60475Y-40604D02*
X60475Y-40395D01*
X60475Y-40395D02*
X60555Y-40202D01*
X60555Y-40202D02*
X60703Y-40055D01*
X60703Y-40055D02*
X60896Y-39975D01*
X60896Y-39975D02*
X61105Y-39975D01*
X61105Y-39975D02*
X61298Y-40055D01*
X61298Y-40055D02*
X61407Y-40165D01*
X61407Y-40165D02*
X64809Y-40165D01*
X64809Y-40165D02*
X64939Y-40035D01*
X64939Y-40035D02*
X65141Y-39951D01*
X65141Y-39951D02*
X65325Y-39951D01*
X65325Y-39951D02*
X66763Y-38513D01*
X66763Y-38513D02*
X66872Y-38441D01*
X66872Y-38441D02*
X67000Y-38415D01*
X67000Y-38415D02*
X69808Y-38415D01*
X69808Y-38415D02*
X69939Y-38285D01*
X69939Y-38285D02*
X70141Y-38201D01*
X70141Y-38201D02*
X70359Y-38201D01*
X70359Y-38201D02*
X70475Y-38249D01*
X70475Y-38249D02*
X69461Y-37235D01*
X69461Y-37235D02*
X58239Y-37235D01*
X58239Y-37235D02*
X57835Y-37639D01*
X57835Y-37639D02*
X57835Y-37656D01*
X57835Y-37656D02*
X57850Y-37656D01*
X57850Y-37656D02*
X57941Y-37694D01*
X57941Y-37694D02*
X58011Y-37764D01*
X58011Y-37764D02*
X58049Y-37856D01*
X58049Y-37856D02*
X58049Y-38645D01*
X58049Y-38645D02*
X58011Y-38736D01*
X58011Y-38736D02*
X57941Y-38806D01*
X57941Y-38806D02*
X57849Y-38844D01*
X57849Y-38844D02*
X57150Y-38844D01*
X57150Y-38844D02*
X57059Y-38806D01*
X57059Y-38806D02*
X56989Y-38736D01*
X56989Y-38736D02*
X56951Y-38644D01*
X56951Y-38644D02*
X56951Y-38639D01*
X56951Y-38639D02*
X56836Y-38754D01*
X56836Y-38754D02*
X56618Y-38844D01*
X56618Y-38844D02*
X56382Y-38844D01*
X56382Y-38844D02*
X56163Y-38753D01*
X56163Y-38753D02*
X56000Y-38589D01*
X56000Y-38589D02*
X55836Y-38754D01*
X55836Y-38754D02*
X55618Y-38844D01*
X55618Y-38844D02*
X55382Y-38844D01*
X55382Y-38844D02*
X55163Y-38753D01*
X55163Y-38753D02*
X54996Y-38586D01*
X54996Y-38586D02*
X54940Y-38451D01*
X54940Y-38451D02*
X54902Y-38536D01*
X54902Y-38536D02*
X54827Y-38570D01*
X54827Y-38570D02*
X54507Y-38250D01*
X54507Y-38250D02*
X54827Y-37930D01*
X54827Y-37930D02*
X54902Y-37964D01*
X54902Y-37964D02*
X54919Y-37988D01*
X54919Y-37988D02*
X54941Y-38047D01*
X54941Y-38047D02*
X54997Y-37913D01*
X54997Y-37913D02*
X55164Y-37746D01*
X55164Y-37746D02*
X55382Y-37656D01*
X55382Y-37656D02*
X55618Y-37656D01*
X55618Y-37656D02*
X55837Y-37747D01*
X55837Y-37747D02*
X55999Y-37910D01*
X55999Y-37910D02*
X56165Y-37745D01*
X56165Y-37745D02*
X56165Y-37200D01*
X56165Y-37200D02*
X56191Y-37072D01*
X56191Y-37072D02*
X56263Y-36963D01*
X56263Y-36963D02*
X57163Y-36063D01*
X57163Y-36063D02*
X57272Y-35991D01*
X57272Y-35991D02*
X57400Y-35965D01*
X57400Y-35965D02*
X70100Y-35965D01*
X70100Y-35965D02*
X70228Y-35991D01*
X70228Y-35991D02*
X70337Y-36063D01*
X70337Y-36063D02*
X75374Y-41100D01*
X75374Y-41100D02*
X75439Y-41035D01*
X75439Y-41035D02*
X75455Y-41028D01*
X75455Y-41028D02*
X75455Y-40788D01*
X75455Y-40788D02*
X75384Y-40760D01*
X75384Y-40760D02*
X75368Y-40739D01*
X75368Y-40739D02*
X75306Y-40575D01*
X75306Y-40575D02*
X75312Y-40400D01*
X75312Y-40400D02*
X75384Y-40240D01*
X75384Y-40240D02*
X75455Y-40212D01*
X75455Y-40212D02*
X75743Y-40500D01*
X75743Y-40500D02*
X75455Y-40788D01*
X75455Y-40788D02*
X75455Y-41028D01*
X75455Y-41028D02*
X75641Y-40951D01*
X75641Y-40951D02*
X75825Y-40951D01*
X75825Y-40951D02*
X75825Y-40944D01*
X75825Y-40944D02*
X75650Y-40938D01*
X75650Y-40938D02*
X75490Y-40866D01*
X75490Y-40866D02*
X75462Y-40795D01*
X75462Y-40795D02*
X75750Y-40507D01*
X75750Y-40507D02*
X75750Y-40493D01*
X75750Y-40493D02*
X75462Y-40205D01*
X75462Y-40205D02*
X75490Y-40134D01*
X75490Y-40134D02*
X75511Y-40118D01*
X75511Y-40118D02*
X75675Y-40056D01*
X75675Y-40056D02*
X75850Y-40062D01*
X75850Y-40062D02*
X76010Y-40134D01*
X76010Y-40134D02*
X76038Y-40205D01*
X76038Y-40205D02*
X75750Y-40493D01*
X75750Y-40493D02*
X75750Y-40507D01*
X75750Y-40507D02*
X76038Y-40795D01*
X76038Y-40795D02*
X76010Y-40866D01*
X76010Y-40866D02*
X75989Y-40882D01*
X75989Y-40882D02*
X75825Y-40944D01*
X75825Y-40944D02*
X75825Y-40951D01*
X75825Y-40951D02*
X75859Y-40951D01*
X75859Y-40951D02*
X76045Y-41028D01*
X76045Y-41028D02*
X76045Y-40788D01*
X76045Y-40788D02*
X75757Y-40500D01*
X75757Y-40500D02*
X76045Y-40212D01*
X76045Y-40212D02*
X76116Y-40240D01*
X76116Y-40240D02*
X76132Y-40261D01*
X76132Y-40261D02*
X76194Y-40425D01*
X76194Y-40425D02*
X76188Y-40600D01*
X76188Y-40600D02*
X76116Y-40760D01*
X76116Y-40760D02*
X76045Y-40788D01*
X76045Y-40788D02*
X76045Y-41028D01*
X76045Y-41028D02*
X76061Y-41035D01*
X76061Y-41035D02*
X76215Y-41189D01*
X76215Y-41189D02*
X76299Y-41391D01*
X76299Y-41391D02*
X76299Y-41609D01*
X76299Y-41609D02*
X76215Y-41811D01*
X76215Y-41811D02*
X76061Y-41965D01*
X76061Y-41965D02*
X75976Y-42000D01*
X75976Y-42000D02*
X76061Y-42035D01*
X76061Y-42035D02*
X76215Y-42189D01*
X76215Y-42189D02*
X76299Y-42391D01*
X76299Y-42391D02*
X76299Y-42609D01*
X76299Y-42609D02*
X76215Y-42811D01*
X76215Y-42811D02*
X76061Y-42965D01*
X76061Y-42965D02*
X75859Y-43049D01*
X75859Y-43049D02*
X75641Y-43049D01*
X75641Y-43049D02*
X75641Y-49424D01*
X75641Y-49424D02*
X75822Y-49350D01*
X75822Y-49350D02*
X76180Y-49350D01*
X76180Y-49350D02*
X76511Y-49488D01*
X76511Y-49488D02*
X76725Y-49702D01*
X76725Y-49702D02*
X76725Y-36405D01*
X76725Y-36405D02*
X76125Y-37005D01*
X76125Y-37005D02*
X76125Y-38961D01*
X76125Y-38961D02*
X76191Y-38989D01*
X76191Y-38989D02*
X76261Y-39059D01*
X76261Y-39059D02*
X76299Y-39151D01*
X76299Y-39151D02*
X76299Y-39850D01*
X76299Y-39850D02*
X76261Y-39941D01*
X76261Y-39941D02*
X76191Y-40011D01*
X76191Y-40011D02*
X76099Y-40049D01*
X76099Y-40049D02*
X75400Y-40049D01*
X75400Y-40049D02*
X75309Y-40011D01*
X75309Y-40011D02*
X75239Y-39941D01*
X75239Y-39941D02*
X75201Y-39849D01*
X75201Y-39849D02*
X75201Y-39150D01*
X75201Y-39150D02*
X75239Y-39059D01*
X75239Y-39059D02*
X75309Y-38989D01*
X75309Y-38989D02*
X75375Y-38961D01*
X75375Y-38961D02*
X75375Y-36850D01*
X75375Y-36850D02*
X75404Y-36706D01*
X75404Y-36706D02*
X75485Y-36585D01*
X75485Y-36585D02*
X76225Y-35845D01*
X76225Y-35845D02*
X76225Y-35536D01*
X76225Y-35536D02*
X76215Y-35561D01*
X76215Y-35561D02*
X76061Y-35715D01*
X76061Y-35715D02*
X75859Y-35799D01*
X75859Y-35799D02*
X75641Y-35799D01*
X75641Y-35799D02*
X75439Y-35715D01*
X75439Y-35715D02*
X75285Y-35561D01*
X75285Y-35561D02*
X75272Y-35559D01*
X75272Y-35559D02*
X75163Y-35487D01*
X75163Y-35487D02*
X74410Y-34735D01*
X74410Y-34735D02*
X73574Y-34735D01*
X73574Y-34735D02*
X73875Y-34860D01*
X73875Y-34860D02*
X74170Y-35156D01*
X74170Y-35156D02*
X74330Y-35542D01*
X74330Y-35542D02*
X74330Y-35960D01*
X74330Y-35960D02*
X74170Y-36345D01*
X74170Y-36345D02*
X73874Y-36640D01*
X73874Y-36640D02*
X73488Y-36800D01*
X73488Y-36800D02*
X73070Y-36800D01*
X73070Y-36800D02*
X72685Y-36640D01*
X72685Y-36640D02*
X72390Y-36344D01*
X72390Y-36344D02*
X72230Y-35958D01*
X72230Y-35958D02*
X72230Y-35540D01*
X72230Y-35540D02*
X72390Y-35155D01*
X72390Y-35155D02*
X72686Y-34860D01*
X72686Y-34860D02*
X72987Y-34735D01*
X72987Y-34735D02*
X52539Y-34735D01*
X52539Y-34735D02*
X49835Y-37439D01*
X49835Y-37439D02*
X49835Y-37746D01*
X49835Y-37746D02*
X50000Y-37910D01*
X50000Y-37910D02*
X50164Y-37746D01*
X50164Y-37746D02*
X50382Y-37656D01*
X50382Y-37656D02*
X50618Y-37656D01*
X50618Y-37656D02*
X50837Y-37747D01*
X50837Y-37747D02*
X50999Y-37909D01*
X50999Y-37909D02*
X51164Y-37746D01*
X51164Y-37746D02*
X51382Y-37656D01*
X51382Y-37656D02*
X51618Y-37656D01*
X51618Y-37656D02*
X51837Y-37747D01*
X51837Y-37747D02*
X52000Y-37909D01*
X52000Y-37909D02*
X52164Y-37746D01*
X52164Y-37746D02*
X52382Y-37656D01*
X52382Y-37656D02*
X52618Y-37656D01*
X52618Y-37656D02*
X52837Y-37747D01*
X52837Y-37747D02*
X52999Y-37910D01*
X52999Y-37910D02*
X53164Y-37746D01*
X53164Y-37746D02*
X53382Y-37656D01*
X53382Y-37656D02*
X53618Y-37656D01*
X53618Y-37656D02*
X53837Y-37747D01*
X53837Y-37747D02*
X54004Y-37914D01*
X54004Y-37914D02*
X54059Y-38048D01*
X54059Y-38048D02*
X54098Y-37964D01*
X54098Y-37964D02*
X54173Y-37930D01*
X54173Y-37930D02*
X54493Y-38250D01*
X54493Y-38250D02*
X54173Y-38570D01*
X54173Y-38570D02*
X54098Y-38536D01*
X54098Y-38536D02*
X54081Y-38512D01*
X54081Y-38512D02*
X54058Y-38452D01*
X54058Y-38452D02*
X54003Y-38587D01*
X54003Y-38587D02*
X53835Y-38754D01*
X53835Y-38754D02*
X53834Y-39850D01*
X53834Y-39850D02*
X53809Y-39978D01*
X53809Y-39978D02*
X53736Y-40088D01*
X53736Y-40088D02*
X52337Y-41487D01*
X52337Y-41487D02*
X52228Y-41559D01*
X52228Y-41559D02*
X52100Y-41585D01*
X52100Y-41585D02*
X49039Y-41585D01*
X49039Y-41585D02*
X46857Y-43767D01*
X46857Y-43767D02*
X47000Y-43910D01*
X47000Y-43910D02*
X47164Y-43746D01*
X47164Y-43746D02*
X47382Y-43656D01*
X47382Y-43656D02*
X47618Y-43656D01*
X47618Y-43656D02*
X47837Y-43747D01*
X47837Y-43747D02*
X47999Y-43909D01*
X47999Y-43909D02*
X48164Y-43746D01*
X48164Y-43746D02*
X48382Y-43656D01*
X48382Y-43656D02*
X48618Y-43656D01*
X48618Y-43656D02*
X48837Y-43747D01*
X48837Y-43747D02*
X48999Y-43909D01*
X48999Y-43909D02*
X49164Y-43746D01*
X49164Y-43746D02*
X49382Y-43656D01*
X49382Y-43656D02*
X49618Y-43656D01*
X49618Y-43656D02*
X49837Y-43747D01*
X49837Y-43747D02*
X49999Y-43909D01*
X49999Y-43909D02*
X50164Y-43746D01*
X50164Y-43746D02*
X50177Y-43740D01*
X50177Y-43740D02*
X50191Y-43672D01*
X50191Y-43672D02*
X50263Y-43563D01*
X50263Y-43563D02*
X51363Y-42463D01*
X51363Y-42463D02*
X51472Y-42391D01*
X51472Y-42391D02*
X51600Y-42365D01*
X51600Y-42365D02*
X54581Y-42364D01*
X54581Y-42364D02*
X54581Y-38737D01*
X54581Y-38737D02*
X54389Y-38732D01*
X54389Y-38732D02*
X54214Y-38652D01*
X54214Y-38652D02*
X54180Y-38577D01*
X54180Y-38577D02*
X54500Y-38257D01*
X54500Y-38257D02*
X54500Y-38243D01*
X54500Y-38243D02*
X54180Y-37923D01*
X54180Y-37923D02*
X54214Y-37848D01*
X54214Y-37848D02*
X54238Y-37831D01*
X54238Y-37831D02*
X54419Y-37763D01*
X54419Y-37763D02*
X54611Y-37768D01*
X54611Y-37768D02*
X54786Y-37848D01*
X54786Y-37848D02*
X54820Y-37923D01*
X54820Y-37923D02*
X54500Y-38243D01*
X54500Y-38243D02*
X54500Y-38257D01*
X54500Y-38257D02*
X54820Y-38577D01*
X54820Y-38577D02*
X54786Y-38652D01*
X54786Y-38652D02*
X54762Y-38669D01*
X54762Y-38669D02*
X54581Y-38737D01*
X54581Y-38737D02*
X54581Y-42364D01*
X54581Y-42364D02*
X58763Y-42364D01*
X58763Y-42364D02*
X58831Y-42297D01*
X58831Y-42297D02*
X59006Y-42225D01*
X59006Y-42225D02*
X59195Y-42225D01*
X59195Y-42225D02*
X59369Y-42298D01*
X59369Y-42298D02*
X59503Y-42431D01*
X59503Y-42431D02*
X59575Y-42606D01*
X59575Y-42606D02*
X59575Y-42795D01*
X59575Y-42795D02*
X59545Y-42865D01*
X59545Y-42865D02*
X60723Y-42865D01*
X60723Y-42865D02*
X60723Y-41770D01*
X60723Y-41770D02*
X60654Y-41745D01*
X60654Y-41745D02*
X60641Y-41726D01*
X60641Y-41726D02*
X60582Y-41571D01*
X60582Y-41571D02*
X60586Y-41406D01*
X60586Y-41406D02*
X60654Y-41255D01*
X60654Y-41255D02*
X60723Y-41230D01*
X60723Y-41230D02*
X60993Y-41500D01*
X60993Y-41500D02*
X60723Y-41770D01*
X60723Y-41770D02*
X60723Y-42865D01*
X60723Y-42865D02*
X61071Y-42865D01*
X61071Y-42865D02*
X61071Y-41918D01*
X61071Y-41918D02*
X60906Y-41914D01*
X60906Y-41914D02*
X60755Y-41846D01*
X60755Y-41846D02*
X60730Y-41777D01*
X60730Y-41777D02*
X61000Y-41507D01*
X61000Y-41507D02*
X61000Y-41493D01*
X61000Y-41493D02*
X60730Y-41223D01*
X60730Y-41223D02*
X60755Y-41154D01*
X60755Y-41154D02*
X60774Y-41141D01*
X60774Y-41141D02*
X60929Y-41082D01*
X60929Y-41082D02*
X61094Y-41086D01*
X61094Y-41086D02*
X61245Y-41154D01*
X61245Y-41154D02*
X61270Y-41223D01*
X61270Y-41223D02*
X61000Y-41493D01*
X61000Y-41493D02*
X61000Y-41507D01*
X61000Y-41507D02*
X61270Y-41777D01*
X61270Y-41777D02*
X61245Y-41846D01*
X61245Y-41846D02*
X61226Y-41859D01*
X61226Y-41859D02*
X61071Y-41918D01*
X61071Y-41918D02*
X61071Y-42865D01*
X61071Y-42865D02*
X61277Y-42865D01*
X61277Y-42865D02*
X61277Y-41770D01*
X61277Y-41770D02*
X61007Y-41500D01*
X61007Y-41500D02*
X61277Y-41230D01*
X61277Y-41230D02*
X61346Y-41255D01*
X61346Y-41255D02*
X61359Y-41274D01*
X61359Y-41274D02*
X61418Y-41429D01*
X61418Y-41429D02*
X61414Y-41594D01*
X61414Y-41594D02*
X61346Y-41745D01*
X61346Y-41745D02*
X61277Y-41770D01*
X61277Y-41770D02*
X61277Y-42865D01*
X61277Y-42865D02*
X69660Y-42865D01*
X69660Y-42865D02*
X69701Y-42825D01*
X69701Y-42825D02*
X69701Y-42641D01*
X69701Y-42641D02*
X69785Y-42439D01*
X69785Y-42439D02*
X69939Y-42285D01*
X69939Y-42285D02*
X70141Y-42201D01*
X70141Y-42201D02*
X70359Y-42201D01*
X70359Y-42201D02*
X70561Y-42285D01*
X70561Y-42285D02*
X70715Y-42439D01*
X70715Y-42439D02*
X70799Y-42641D01*
X70799Y-42641D02*
X70799Y-42859D01*
X70799Y-42859D02*
X70715Y-43061D01*
X70715Y-43061D02*
X70561Y-43215D01*
X70561Y-43215D02*
X70359Y-43299D01*
X70359Y-43299D02*
X70175Y-43299D01*
X70175Y-43299D02*
X70037Y-43437D01*
X70037Y-43437D02*
X69928Y-43509D01*
X69928Y-43509D02*
X69800Y-43535D01*
X69800Y-43535D02*
X55638Y-43535D01*
X55638Y-43535D02*
X55517Y-43656D01*
X55517Y-43656D02*
X55618Y-43656D01*
X55618Y-43656D02*
X55837Y-43747D01*
X55837Y-43747D02*
X56004Y-43914D01*
X56004Y-43914D02*
X56059Y-44048D01*
X56059Y-44048D02*
X56098Y-43964D01*
X56098Y-43964D02*
X56173Y-43930D01*
X56173Y-43930D02*
X56493Y-44250D01*
X56493Y-44250D02*
X56173Y-44570D01*
X56173Y-44570D02*
X56098Y-44536D01*
X56098Y-44536D02*
X56081Y-44512D01*
X56081Y-44512D02*
X56058Y-44452D01*
X56058Y-44452D02*
X56003Y-44587D01*
X56003Y-44587D02*
X55836Y-44754D01*
X55836Y-44754D02*
X55618Y-44844D01*
X55618Y-44844D02*
X55382Y-44844D01*
X55382Y-44844D02*
X55163Y-44753D01*
X55163Y-44753D02*
X54999Y-44589D01*
X54999Y-44589D02*
X54835Y-44754D01*
X54835Y-44754D02*
X54835Y-45361D01*
X54835Y-45361D02*
X55888Y-46414D01*
X55888Y-46414D02*
X56059Y-46415D01*
X56059Y-46415D02*
X56189Y-46285D01*
X56189Y-46285D02*
X56391Y-46201D01*
X56391Y-46201D02*
X56581Y-46201D01*
X56581Y-46201D02*
X56581Y-44737D01*
X56581Y-44737D02*
X56389Y-44732D01*
X56389Y-44732D02*
X56214Y-44652D01*
X56214Y-44652D02*
X56180Y-44577D01*
X56180Y-44577D02*
X56500Y-44257D01*
X56500Y-44257D02*
X56500Y-44243D01*
X56500Y-44243D02*
X56180Y-43923D01*
X56180Y-43923D02*
X56214Y-43848D01*
X56214Y-43848D02*
X56238Y-43831D01*
X56238Y-43831D02*
X56419Y-43763D01*
X56419Y-43763D02*
X56611Y-43768D01*
X56611Y-43768D02*
X56786Y-43848D01*
X56786Y-43848D02*
X56820Y-43923D01*
X56820Y-43923D02*
X56500Y-44243D01*
X56500Y-44243D02*
X56500Y-44257D01*
X56500Y-44257D02*
X56820Y-44577D01*
X56820Y-44577D02*
X56786Y-44652D01*
X56786Y-44652D02*
X56762Y-44669D01*
X56762Y-44669D02*
X56581Y-44737D01*
X56581Y-44737D02*
X56581Y-46201D01*
X56581Y-46201D02*
X56609Y-46201D01*
X56609Y-46201D02*
X56811Y-46285D01*
X56811Y-46285D02*
X56941Y-46415D01*
X56941Y-46415D02*
X57200Y-46415D01*
X57200Y-46415D02*
X57328Y-46441D01*
X57328Y-46441D02*
X57437Y-46513D01*
X57437Y-46513D02*
X57837Y-46913D01*
X57837Y-46913D02*
X57909Y-47022D01*
X57909Y-47022D02*
X57935Y-47150D01*
X57935Y-47150D02*
X57935Y-49415D01*
X57935Y-49415D02*
X59592Y-49415D01*
X59592Y-49415D02*
X59703Y-49305D01*
X59703Y-49305D02*
X59895Y-49225D01*
X59895Y-49225D02*
X59895Y-47275D01*
X59895Y-47275D02*
X59702Y-47195D01*
X59702Y-47195D02*
X59555Y-47047D01*
X59555Y-47047D02*
X59475Y-46854D01*
X59475Y-46854D02*
X59475Y-46645D01*
X59475Y-46645D02*
X59555Y-46452D01*
X59555Y-46452D02*
X59703Y-46305D01*
X59703Y-46305D02*
X59747Y-46286D01*
X59747Y-46286D02*
X59763Y-46263D01*
X59763Y-46263D02*
X60243Y-45783D01*
X60243Y-45783D02*
X60352Y-45711D01*
X60352Y-45711D02*
X60480Y-45685D01*
X60480Y-45685D02*
X62658Y-45685D01*
X62658Y-45685D02*
X62678Y-45637D01*
X62678Y-45637D02*
X62868Y-45448D01*
X62868Y-45448D02*
X63116Y-45345D01*
X63116Y-45345D02*
X63385Y-45345D01*
X63385Y-45345D02*
X63633Y-45448D01*
X63633Y-45448D02*
X63822Y-45638D01*
X63822Y-45638D02*
X63925Y-45886D01*
X63925Y-45886D02*
X63925Y-46155D01*
X63925Y-46155D02*
X63822Y-46403D01*
X63822Y-46403D02*
X63632Y-46592D01*
X63632Y-46592D02*
X63384Y-46695D01*
X63384Y-46695D02*
X63115Y-46695D01*
X63115Y-46695D02*
X62867Y-46592D01*
X62867Y-46592D02*
X62678Y-46402D01*
X62678Y-46402D02*
X62658Y-46355D01*
X62658Y-46355D02*
X60618Y-46355D01*
X60618Y-46355D02*
X60467Y-46506D01*
X60467Y-46506D02*
X60525Y-46646D01*
X60525Y-46646D02*
X60525Y-46855D01*
X60525Y-46855D02*
X60445Y-47048D01*
X60445Y-47048D02*
X60297Y-47195D01*
X60297Y-47195D02*
X60104Y-47275D01*
X60104Y-47275D02*
X59895Y-47275D01*
X59895Y-47275D02*
X59896Y-49225D01*
X59896Y-49225D02*
X60105Y-49225D01*
X60105Y-49225D02*
X60298Y-49305D01*
X60298Y-49305D02*
X60445Y-49453D01*
X60445Y-49453D02*
X60525Y-49646D01*
X60525Y-49646D02*
X60525Y-49855D01*
X60525Y-49855D02*
X60445Y-50048D01*
X60445Y-50048D02*
X60297Y-50195D01*
X60297Y-50195D02*
X60104Y-50275D01*
X60104Y-50275D02*
X59895Y-50275D01*
X59895Y-50275D02*
X59702Y-50195D01*
X59702Y-50195D02*
X59592Y-50085D01*
X59592Y-50085D02*
X57049Y-50085D01*
X57049Y-50085D02*
X57049Y-50100D01*
X57049Y-50100D02*
X57011Y-50191D01*
X57011Y-50191D02*
X56941Y-50261D01*
X56941Y-50261D02*
X56849Y-50299D01*
X56849Y-50299D02*
X56150Y-50299D01*
X56150Y-50299D02*
X56059Y-50261D01*
X56059Y-50261D02*
X55989Y-50191D01*
X55989Y-50191D02*
X55951Y-50099D01*
X55951Y-50099D02*
X55951Y-49400D01*
X55951Y-49400D02*
X55989Y-49309D01*
X55989Y-49309D02*
X56059Y-49239D01*
X56059Y-49239D02*
X56151Y-49201D01*
X56151Y-49201D02*
X56175Y-49201D01*
X56175Y-49201D02*
X56059Y-49085D01*
X56059Y-49085D02*
X55289Y-49085D01*
X55289Y-49085D02*
X54387Y-49987D01*
X54387Y-49987D02*
X54278Y-50059D01*
X54278Y-50059D02*
X54150Y-50085D01*
X54150Y-50085D02*
X53407Y-50085D01*
X53407Y-50085D02*
X53297Y-50195D01*
X53297Y-50195D02*
X53104Y-50275D01*
X53104Y-50275D02*
X52895Y-50275D01*
X52895Y-50275D02*
X52702Y-50195D01*
X52702Y-50195D02*
X52555Y-50047D01*
X52555Y-50047D02*
X52475Y-49854D01*
X52475Y-49854D02*
X52475Y-49645D01*
X52475Y-49645D02*
X52555Y-49452D01*
X52555Y-49452D02*
X52665Y-49342D01*
X52665Y-49342D02*
X52665Y-49189D01*
X52665Y-49189D02*
X51113Y-47637D01*
X51113Y-47637D02*
X51041Y-47528D01*
X51041Y-47528D02*
X51015Y-47400D01*
X51015Y-47400D02*
X51015Y-46639D01*
X51015Y-46639D02*
X50411Y-46035D01*
X50411Y-46035D02*
X47200Y-46035D01*
X47200Y-46035D02*
X47072Y-46009D01*
X47072Y-46009D02*
X46962Y-45936D01*
X46962Y-45936D02*
X46263Y-45237D01*
X46263Y-45237D02*
X46191Y-45128D01*
X46191Y-45128D02*
X46165Y-45000D01*
X46165Y-45000D02*
X46165Y-44753D01*
X46165Y-44753D02*
X46163Y-44753D01*
X46163Y-44753D02*
X45999Y-44589D01*
X45999Y-44589D02*
X45836Y-44754D01*
X45836Y-44754D02*
X45618Y-44844D01*
X45618Y-44844D02*
X45382Y-44844D01*
X45382Y-44844D02*
X45163Y-44753D01*
X45163Y-44753D02*
X44999Y-44589D01*
X44999Y-44589D02*
X44836Y-44754D01*
X44836Y-44754D02*
X44618Y-44844D01*
X44618Y-44844D02*
X44382Y-44844D01*
X44382Y-44844D02*
X44163Y-44753D01*
X44163Y-44753D02*
X43999Y-44589D01*
X43999Y-44589D02*
X43836Y-44754D01*
X43836Y-44754D02*
X43618Y-44844D01*
X43618Y-44844D02*
X43382Y-44844D01*
X43382Y-44844D02*
X43163Y-44753D01*
X43163Y-44753D02*
X43135Y-44725D01*
X43135Y-44725D02*
X43135Y-44861D01*
X43135Y-44861D02*
X44737Y-46463D01*
X44737Y-46463D02*
X44809Y-46572D01*
X44809Y-46572D02*
X44835Y-46700D01*
X44835Y-46700D02*
X44835Y-47265D01*
X44835Y-47265D02*
X44992Y-47422D01*
X44992Y-47422D02*
X45000Y-47441D01*
X45000Y-47441D02*
X45009Y-47421D01*
X45009Y-47421D02*
X45172Y-47258D01*
X45172Y-47258D02*
X45385Y-47170D01*
X45385Y-47170D02*
X45616Y-47170D01*
X45616Y-47170D02*
X45829Y-47259D01*
X45829Y-47259D02*
X45992Y-47422D01*
X45992Y-47422D02*
X46080Y-47635D01*
X46080Y-47635D02*
X46080Y-47856D01*
X46080Y-47856D02*
X47615Y-49391D01*
X47615Y-49391D02*
X47703Y-49305D01*
X47703Y-49305D02*
X47723Y-49296D01*
X47723Y-49296D02*
X47723Y-47020D01*
X47723Y-47020D02*
X47654Y-46995D01*
X47654Y-46995D02*
X47641Y-46976D01*
X47641Y-46976D02*
X47582Y-46821D01*
X47582Y-46821D02*
X47586Y-46656D01*
X47586Y-46656D02*
X47654Y-46505D01*
X47654Y-46505D02*
X47723Y-46480D01*
X47723Y-46480D02*
X47993Y-46750D01*
X47993Y-46750D02*
X47723Y-47020D01*
X47723Y-47020D02*
X47723Y-49296D01*
X47723Y-49296D02*
X47896Y-49225D01*
X47896Y-49225D02*
X48071Y-49225D01*
X48071Y-49225D02*
X48071Y-47168D01*
X48071Y-47168D02*
X47906Y-47164D01*
X47906Y-47164D02*
X47755Y-47096D01*
X47755Y-47096D02*
X47730Y-47027D01*
X47730Y-47027D02*
X48000Y-46757D01*
X48000Y-46757D02*
X48000Y-46743D01*
X48000Y-46743D02*
X47730Y-46473D01*
X47730Y-46473D02*
X47755Y-46404D01*
X47755Y-46404D02*
X47774Y-46391D01*
X47774Y-46391D02*
X47929Y-46332D01*
X47929Y-46332D02*
X48094Y-46336D01*
X48094Y-46336D02*
X48245Y-46404D01*
X48245Y-46404D02*
X48270Y-46473D01*
X48270Y-46473D02*
X48000Y-46743D01*
X48000Y-46743D02*
X48000Y-46757D01*
X48000Y-46757D02*
X48270Y-47027D01*
X48270Y-47027D02*
X48245Y-47096D01*
X48245Y-47096D02*
X48226Y-47109D01*
X48226Y-47109D02*
X48071Y-47168D01*
X48071Y-47168D02*
X48071Y-49225D01*
X48071Y-49225D02*
X48105Y-49225D01*
X48105Y-49225D02*
X48277Y-49296D01*
X48277Y-49296D02*
X48277Y-47020D01*
X48277Y-47020D02*
X48007Y-46750D01*
X48007Y-46750D02*
X48277Y-46480D01*
X48277Y-46480D02*
X48346Y-46505D01*
X48346Y-46505D02*
X48359Y-46524D01*
X48359Y-46524D02*
X48418Y-46679D01*
X48418Y-46679D02*
X48414Y-46844D01*
X48414Y-46844D02*
X48346Y-46995D01*
X48346Y-46995D02*
X48277Y-47020D01*
X48277Y-47020D02*
X48277Y-49296D01*
X48277Y-49296D02*
X48298Y-49305D01*
X48298Y-49305D02*
X48445Y-49453D01*
X48445Y-49453D02*
X48525Y-49646D01*
X48525Y-49646D02*
X48525Y-49855D01*
X48525Y-49855D02*
X48445Y-50048D01*
X48445Y-50048D02*
X48297Y-50195D01*
X48297Y-50195D02*
X48104Y-50275D01*
X48104Y-50275D02*
X47895Y-50275D01*
X47895Y-50275D02*
X47702Y-50195D01*
X47702Y-50195D02*
X47592Y-50085D01*
X47592Y-50085D02*
X47500Y-50085D01*
X47500Y-50085D02*
X47372Y-50059D01*
X47372Y-50059D02*
X47262Y-49986D01*
X47262Y-49986D02*
X45606Y-48330D01*
X45606Y-48330D02*
X45384Y-48330D01*
X45384Y-48330D02*
X45171Y-48241D01*
X45171Y-48241D02*
X45008Y-48078D01*
X45008Y-48078D02*
X44999Y-48058D01*
X44999Y-48058D02*
X44991Y-48079D01*
X44991Y-48079D02*
X44828Y-48242D01*
X44828Y-48242D02*
X44615Y-48330D01*
X44615Y-48330D02*
X44384Y-48330D01*
X44384Y-48330D02*
X44171Y-48241D01*
X44171Y-48241D02*
X44008Y-48078D01*
X44008Y-48078D02*
X43920Y-47865D01*
X43920Y-47865D02*
X43920Y-47634D01*
X43920Y-47634D02*
X44009Y-47421D01*
X44009Y-47421D02*
X44165Y-47265D01*
X44165Y-47265D02*
X44165Y-46839D01*
X44165Y-46839D02*
X42563Y-45237D01*
X42563Y-45237D02*
X42491Y-45128D01*
X42491Y-45128D02*
X42465Y-45000D01*
X42465Y-45000D02*
X42465Y-43200D01*
X42465Y-43200D02*
X42491Y-43072D01*
X42491Y-43072D02*
X42563Y-42963D01*
X42563Y-42963D02*
X45165Y-40361D01*
X45165Y-40361D02*
X45165Y-38753D01*
X45165Y-38753D02*
X45163Y-38753D01*
X45163Y-38753D02*
X44999Y-38589D01*
X44999Y-38589D02*
X44836Y-38754D01*
X44836Y-38754D02*
X44618Y-38844D01*
X44618Y-38844D02*
X44382Y-38844D01*
X44382Y-38844D02*
X44163Y-38753D01*
X44163Y-38753D02*
X44000Y-38589D01*
X44000Y-38589D02*
X43836Y-38754D01*
X43836Y-38754D02*
X43618Y-38844D01*
X43618Y-38844D02*
X43382Y-38844D01*
X43382Y-38844D02*
X43163Y-38753D01*
X43163Y-38753D02*
X42996Y-38586D01*
X42996Y-38586D02*
X42906Y-38368D01*
X42906Y-38368D02*
X42906Y-38132D01*
X42906Y-38132D02*
X42997Y-37913D01*
X42997Y-37913D02*
X43164Y-37746D01*
X43164Y-37746D02*
X43382Y-37656D01*
X43382Y-37656D02*
X43618Y-37656D01*
X43618Y-37656D02*
X43837Y-37747D01*
X43837Y-37747D02*
X43999Y-37910D01*
X43999Y-37910D02*
X44164Y-37746D01*
X44164Y-37746D02*
X44382Y-37656D01*
X44382Y-37656D02*
X44618Y-37656D01*
X44618Y-37656D02*
X44837Y-37747D01*
X44837Y-37747D02*
X45000Y-37910D01*
X45000Y-37910D02*
X45164Y-37746D01*
X45164Y-37746D02*
X45382Y-37656D01*
X45382Y-37656D02*
X45510Y-37656D01*
X45510Y-37656D02*
X45510Y-36800D01*
X45510Y-36800D02*
X45125Y-36640D01*
X45125Y-36640D02*
X44830Y-36344D01*
X44830Y-36344D02*
X44670Y-35958D01*
X44670Y-35958D02*
X44670Y-35540D01*
X44670Y-35540D02*
X44830Y-35155D01*
X44830Y-35155D02*
X45126Y-34860D01*
X45126Y-34860D02*
X45510Y-34700D01*
X45510Y-34700D02*
X45510Y-17115D01*
X45510Y-17115D02*
X45125Y-16955D01*
X45125Y-16955D02*
X44830Y-16659D01*
X44830Y-16659D02*
X44670Y-16273D01*
X44670Y-16273D02*
X44670Y-15855D01*
X44670Y-15855D02*
X44830Y-15470D01*
X44830Y-15470D02*
X45126Y-15175D01*
X45126Y-15175D02*
X45512Y-15015D01*
X45512Y-15015D02*
X45930Y-15015D01*
X45930Y-15015D02*
X46315Y-15175D01*
X46315Y-15175D02*
X46610Y-15471D01*
X46610Y-15471D02*
X46770Y-15857D01*
X46770Y-15857D02*
X46770Y-16275D01*
X46770Y-16275D02*
X46610Y-16660D01*
X46610Y-16660D02*
X46314Y-16955D01*
X46314Y-16955D02*
X45928Y-17115D01*
X45928Y-17115D02*
X45510Y-17115D01*
X45510Y-17115D02*
X45510Y-34700D01*
X45510Y-34700D02*
X45930Y-34700D01*
X45930Y-34700D02*
X46315Y-34860D01*
X46315Y-34860D02*
X46610Y-35156D01*
X46610Y-35156D02*
X46770Y-35542D01*
X46770Y-35542D02*
X46770Y-35960D01*
X46770Y-35960D02*
X46610Y-36345D01*
X46610Y-36345D02*
X46314Y-36640D01*
X46314Y-36640D02*
X45928Y-36800D01*
X45928Y-36800D02*
X45510Y-36800D01*
X45510Y-36800D02*
X45510Y-37656D01*
X45510Y-37656D02*
X45618Y-37656D01*
X45618Y-37656D02*
X45837Y-37747D01*
X45837Y-37747D02*
X45999Y-37909D01*
X45999Y-37909D02*
X46164Y-37746D01*
X46164Y-37746D02*
X46382Y-37656D01*
X46382Y-37656D02*
X46618Y-37656D01*
X46618Y-37656D02*
X46837Y-37747D01*
X46837Y-37747D02*
X46999Y-37910D01*
X46999Y-37910D02*
X47164Y-37746D01*
X47164Y-37746D02*
X47382Y-37656D01*
X47382Y-37656D02*
X47618Y-37656D01*
X47618Y-37656D02*
X47837Y-37747D01*
X47837Y-37747D02*
X47999Y-37910D01*
X47999Y-37910D02*
X48165Y-37745D01*
X48165Y-37745D02*
X48165Y-37250D01*
X48165Y-37250D02*
X48191Y-37122D01*
X48191Y-37122D02*
X48263Y-37013D01*
X48263Y-37013D02*
X51862Y-33413D01*
X51862Y-33413D02*
X51972Y-33341D01*
X51972Y-33341D02*
X52100Y-33315D01*
X52100Y-33315D02*
X73070Y-33315D01*
X73070Y-33315D02*
X73070Y-17115D01*
X73070Y-17115D02*
X72685Y-16955D01*
X72685Y-16955D02*
X72390Y-16659D01*
X72390Y-16659D02*
X72230Y-16273D01*
X72230Y-16273D02*
X72230Y-15855D01*
X72230Y-15855D02*
X72390Y-15470D01*
X72390Y-15470D02*
X72686Y-15175D01*
X72686Y-15175D02*
X73072Y-15015D01*
X73072Y-15015D02*
X73490Y-15015D01*
X73490Y-15015D02*
X73875Y-15175D01*
X73875Y-15175D02*
X74170Y-15471D01*
X74170Y-15471D02*
X74330Y-15857D01*
X74330Y-15857D02*
X74330Y-16275D01*
X74330Y-16275D02*
X74170Y-16660D01*
X74170Y-16660D02*
X73874Y-16955D01*
X73874Y-16955D02*
X73488Y-17115D01*
X73488Y-17115D02*
X73070Y-17115D01*
X73070Y-17115D02*
X73070Y-33315D01*
X73070Y-33315D02*
X74700Y-33315D01*
X74700Y-33315D02*
X74828Y-33341D01*
X74828Y-33341D02*
X74937Y-33413D01*
X74937Y-33413D02*
X75373Y-33850D01*
X75373Y-33850D02*
X75439Y-33785D01*
X75439Y-33785D02*
X75455Y-33778D01*
X75455Y-33778D02*
X75455Y-33538D01*
X75455Y-33538D02*
X75384Y-33510D01*
X75384Y-33510D02*
X75368Y-33489D01*
X75368Y-33489D02*
X75306Y-33325D01*
X75306Y-33325D02*
X75312Y-33150D01*
X75312Y-33150D02*
X75384Y-32990D01*
X75384Y-32990D02*
X75455Y-32962D01*
X75455Y-32962D02*
X75743Y-33250D01*
X75743Y-33250D02*
X75455Y-33538D01*
X75455Y-33538D02*
X75455Y-33778D01*
X75455Y-33778D02*
X75641Y-33701D01*
X75641Y-33701D02*
X75825Y-33701D01*
X75825Y-33701D02*
X75825Y-33694D01*
X75825Y-33694D02*
X75650Y-33688D01*
X75650Y-33688D02*
X75490Y-33616D01*
X75490Y-33616D02*
X75462Y-33545D01*
X75462Y-33545D02*
X75750Y-33257D01*
X75750Y-33257D02*
X75750Y-33243D01*
X75750Y-33243D02*
X75462Y-32955D01*
X75462Y-32955D02*
X75490Y-32884D01*
X75490Y-32884D02*
X75511Y-32868D01*
X75511Y-32868D02*
X75675Y-32806D01*
X75675Y-32806D02*
X75850Y-32812D01*
X75850Y-32812D02*
X76010Y-32884D01*
X76010Y-32884D02*
X76038Y-32955D01*
X76038Y-32955D02*
X75750Y-33243D01*
X75750Y-33243D02*
X75750Y-33257D01*
X75750Y-33257D02*
X76038Y-33545D01*
X76038Y-33545D02*
X76010Y-33616D01*
X76010Y-33616D02*
X75989Y-33632D01*
X75989Y-33632D02*
X75825Y-33694D01*
X75825Y-33694D02*
X75825Y-33701D01*
X75825Y-33701D02*
X75859Y-33701D01*
X75859Y-33701D02*
X76045Y-33778D01*
X76045Y-33778D02*
X76045Y-33538D01*
X76045Y-33538D02*
X75757Y-33250D01*
X75757Y-33250D02*
X76045Y-32962D01*
X76045Y-32962D02*
X76116Y-32990D01*
X76116Y-32990D02*
X76132Y-33011D01*
X76132Y-33011D02*
X76194Y-33175D01*
X76194Y-33175D02*
X76188Y-33350D01*
X76188Y-33350D02*
X76116Y-33510D01*
X76116Y-33510D02*
X76045Y-33538D01*
X76045Y-33538D02*
X76045Y-33778D01*
X76045Y-33778D02*
X76061Y-33785D01*
X76061Y-33785D02*
X76215Y-33939D01*
X76215Y-33939D02*
X76225Y-33963D01*
X76225Y-33963D02*
X76225Y-32755D01*
X76225Y-32755D02*
X76211Y-32741D01*
X76211Y-32741D02*
X76191Y-32761D01*
X76191Y-32761D02*
X76099Y-32799D01*
X76099Y-32799D02*
X75400Y-32799D01*
X75400Y-32799D02*
X75309Y-32761D01*
X75309Y-32761D02*
X75239Y-32691D01*
X75239Y-32691D02*
X75201Y-32599D01*
X75201Y-32599D02*
X75201Y-31900D01*
X75201Y-31900D02*
X75239Y-31809D01*
X75239Y-31809D02*
X75309Y-31739D01*
X75309Y-31739D02*
X75401Y-31701D01*
X75401Y-31701D02*
X76100Y-31701D01*
X76100Y-31701D02*
X76191Y-31739D01*
X76191Y-31739D02*
X76261Y-31809D01*
X76261Y-31809D02*
X76291Y-31883D01*
X76291Y-31883D02*
X76394Y-31904D01*
X76394Y-31904D02*
X76515Y-31985D01*
X76515Y-31985D02*
X76725Y-32195D01*
X76725Y-32195D02*
X76725Y-14047D01*
X76725Y-14047D02*
X76509Y-14263D01*
X76509Y-14263D02*
X76178Y-14400D01*
X76178Y-14400D02*
X75820Y-14400D01*
X75820Y-14400D02*
X75489Y-14262D01*
X75489Y-14262D02*
X75237Y-14009D01*
X75237Y-14009D02*
X75100Y-13678D01*
X75100Y-13678D02*
X75100Y-13320D01*
X75100Y-13320D02*
X75238Y-12989D01*
X75238Y-12989D02*
X75452Y-12775D01*
X75452Y-12775D02*
X43547Y-12775D01*
X43547Y-12775D02*
X43763Y-12991D01*
X43763Y-12991D02*
X43900Y-13322D01*
X43900Y-13322D02*
X43900Y-13680D01*
X43900Y-13680D02*
X43762Y-14011D01*
X43762Y-14011D02*
X43509Y-14263D01*
X43509Y-14263D02*
X43178Y-14400D01*
X43178Y-14400D02*
X42820Y-14400D01*
X42820Y-14400D02*
X42489Y-14262D01*
X42489Y-14262D02*
X42275Y-14047D01*
X42275Y-14047D02*
X42275Y-49702D01*
X42275Y-49702D02*
X42491Y-49487D01*
X42491Y-49487D02*
X42822Y-49350D01*
X42822Y-49350D02*
X43180Y-49350D01*
X43180Y-49350D02*
X43511Y-49488D01*
X43511Y-49488D02*
X43763Y-49741D01*
X43763Y-49741D02*
X43900Y-50072D01*
X43900Y-50072D02*
X43900Y-50430D01*
X43900Y-50430D02*
X43762Y-50761D01*
X43762Y-50761D02*
X43547Y-50975D01*
X43547Y-50975D02*
X50395Y-50975D01*
X50395Y-50975D02*
X50395Y-50275D01*
X50395Y-50275D02*
X50202Y-50195D01*
X50202Y-50195D02*
X50055Y-50047D01*
X50055Y-50047D02*
X49975Y-49854D01*
X49975Y-49854D02*
X49975Y-49645D01*
X49975Y-49645D02*
X50055Y-49452D01*
X50055Y-49452D02*
X50203Y-49305D01*
X50203Y-49305D02*
X50223Y-49296D01*
X50223Y-49296D02*
X50223Y-47020D01*
X50223Y-47020D02*
X50154Y-46995D01*
X50154Y-46995D02*
X50141Y-46976D01*
X50141Y-46976D02*
X50082Y-46821D01*
X50082Y-46821D02*
X50086Y-46656D01*
X50086Y-46656D02*
X50154Y-46505D01*
X50154Y-46505D02*
X50223Y-46480D01*
X50223Y-46480D02*
X50493Y-46750D01*
X50493Y-46750D02*
X50223Y-47020D01*
X50223Y-47020D02*
X50223Y-49296D01*
X50223Y-49296D02*
X50396Y-49225D01*
X50396Y-49225D02*
X50571Y-49225D01*
X50571Y-49225D02*
X50571Y-47168D01*
X50571Y-47168D02*
X50406Y-47164D01*
X50406Y-47164D02*
X50255Y-47096D01*
X50255Y-47096D02*
X50230Y-47027D01*
X50230Y-47027D02*
X50500Y-46757D01*
X50500Y-46757D02*
X50500Y-46743D01*
X50500Y-46743D02*
X50230Y-46473D01*
X50230Y-46473D02*
X50255Y-46404D01*
X50255Y-46404D02*
X50274Y-46391D01*
X50274Y-46391D02*
X50429Y-46332D01*
X50429Y-46332D02*
X50594Y-46336D01*
X50594Y-46336D02*
X50745Y-46404D01*
X50745Y-46404D02*
X50770Y-46473D01*
X50770Y-46473D02*
X50500Y-46743D01*
X50500Y-46743D02*
X50500Y-46757D01*
X50500Y-46757D02*
X50770Y-47027D01*
X50770Y-47027D02*
X50745Y-47096D01*
X50745Y-47096D02*
X50726Y-47109D01*
X50726Y-47109D02*
X50571Y-47168D01*
X50571Y-47168D02*
X50571Y-49225D01*
X50571Y-49225D02*
X50605Y-49225D01*
X50605Y-49225D02*
X50777Y-49296D01*
X50777Y-49296D02*
X50777Y-47020D01*
X50777Y-47020D02*
X50507Y-46750D01*
X50507Y-46750D02*
X50777Y-46480D01*
X50777Y-46480D02*
X50846Y-46505D01*
X50846Y-46505D02*
X50859Y-46524D01*
X50859Y-46524D02*
X50918Y-46679D01*
X50918Y-46679D02*
X50914Y-46844D01*
X50914Y-46844D02*
X50846Y-46995D01*
X50846Y-46995D02*
X50777Y-47020D01*
X50777Y-47020D02*
X50777Y-49296D01*
X50777Y-49296D02*
X50798Y-49305D01*
X50798Y-49305D02*
X50945Y-49453D01*
X50945Y-49453D02*
X51025Y-49646D01*
X51025Y-49646D02*
X51025Y-49855D01*
X51025Y-49855D02*
X50945Y-50048D01*
X50945Y-50048D02*
X50797Y-50195D01*
X50797Y-50195D02*
X50604Y-50275D01*
X50604Y-50275D02*
X50395Y-50275D01*
X50395Y-50275D02*
X50395Y-50975D01*
X50395Y-50975D02*
X62867Y-50975D01*
X62867Y-50975D02*
X62867Y-49356D01*
X62867Y-49356D02*
X62783Y-49313D01*
X62783Y-49313D02*
X62763Y-49283D01*
X62763Y-49283D02*
X62684Y-49074D01*
X62684Y-49074D02*
X62691Y-48851D01*
X62691Y-48851D02*
X62783Y-48647D01*
X62783Y-48647D02*
X62867Y-48604D01*
X62867Y-48604D02*
X63115Y-48852D01*
X63115Y-48852D02*
X63243Y-48980D01*
X63243Y-48980D02*
X63115Y-49108D01*
X63115Y-49108D02*
X62867Y-49356D01*
X62867Y-49356D02*
X62867Y-50975D01*
X62867Y-50975D02*
X63115Y-50975D01*
X63115Y-50975D02*
X63344Y-50975D01*
X63344Y-50975D02*
X63344Y-49546D01*
X63344Y-49546D02*
X63121Y-49539D01*
X63121Y-49539D02*
X63115Y-49536D01*
X63115Y-49536D02*
X62917Y-49447D01*
X62917Y-49447D02*
X62874Y-49363D01*
X62874Y-49363D02*
X63115Y-49122D01*
X63115Y-49122D02*
X63250Y-48987D01*
X63250Y-48987D02*
X63250Y-48973D01*
X63250Y-48973D02*
X63115Y-48838D01*
X63115Y-48838D02*
X62874Y-48597D01*
X62874Y-48597D02*
X62917Y-48513D01*
X62917Y-48513D02*
X62947Y-48493D01*
X62947Y-48493D02*
X63115Y-48429D01*
X63115Y-48429D02*
X63115Y-48175D01*
X63115Y-48175D02*
X62867Y-48072D01*
X62867Y-48072D02*
X62678Y-47882D01*
X62678Y-47882D02*
X62575Y-47634D01*
X62575Y-47634D02*
X62575Y-47365D01*
X62575Y-47365D02*
X62678Y-47117D01*
X62678Y-47117D02*
X62868Y-46928D01*
X62868Y-46928D02*
X63116Y-46825D01*
X63116Y-46825D02*
X63385Y-46825D01*
X63385Y-46825D02*
X63633Y-46928D01*
X63633Y-46928D02*
X63822Y-47118D01*
X63822Y-47118D02*
X63925Y-47366D01*
X63925Y-47366D02*
X63925Y-47635D01*
X63925Y-47635D02*
X63822Y-47883D01*
X63822Y-47883D02*
X63632Y-48072D01*
X63632Y-48072D02*
X63384Y-48175D01*
X63384Y-48175D02*
X63115Y-48175D01*
X63115Y-48175D02*
X63115Y-48429D01*
X63115Y-48429D02*
X63156Y-48414D01*
X63156Y-48414D02*
X63379Y-48421D01*
X63379Y-48421D02*
X63583Y-48513D01*
X63583Y-48513D02*
X63626Y-48597D01*
X63626Y-48597D02*
X63250Y-48973D01*
X63250Y-48973D02*
X63250Y-48987D01*
X63250Y-48987D02*
X63626Y-49363D01*
X63626Y-49363D02*
X63583Y-49447D01*
X63583Y-49447D02*
X63553Y-49467D01*
X63553Y-49467D02*
X63344Y-49546D01*
X63344Y-49546D02*
X63344Y-50975D01*
X63344Y-50975D02*
X63633Y-50975D01*
X63633Y-50975D02*
X63633Y-49356D01*
X63633Y-49356D02*
X63257Y-48980D01*
X63257Y-48980D02*
X63633Y-48604D01*
X63633Y-48604D02*
X63717Y-48647D01*
X63717Y-48647D02*
X63737Y-48677D01*
X63737Y-48677D02*
X63816Y-48886D01*
X63816Y-48886D02*
X63809Y-49109D01*
X63809Y-49109D02*
X63717Y-49313D01*
X63717Y-49313D02*
X63633Y-49356D01*
X63633Y-49356D02*
X63633Y-50975D01*
X63633Y-50975D02*
X66980Y-50975D01*
X66980Y-50975D02*
X66980Y-50720D01*
X66980Y-50720D02*
X66595Y-50560D01*
X66595Y-50560D02*
X66300Y-50264D01*
X66300Y-50264D02*
X66140Y-49878D01*
X66140Y-49878D02*
X66140Y-49460D01*
X66140Y-49460D02*
X66300Y-49075D01*
X66300Y-49075D02*
X66500Y-48875D01*
X66500Y-48875D02*
X66500Y-47375D01*
X66500Y-47375D02*
X66356Y-47346D01*
X66356Y-47346D02*
X66234Y-47264D01*
X66234Y-47264D02*
X63595Y-44625D01*
X63595Y-44625D02*
X57965Y-44625D01*
X57965Y-44625D02*
X57836Y-44754D01*
X57836Y-44754D02*
X57618Y-44844D01*
X57618Y-44844D02*
X57382Y-44844D01*
X57382Y-44844D02*
X57163Y-44753D01*
X57163Y-44753D02*
X56996Y-44586D01*
X56996Y-44586D02*
X56940Y-44451D01*
X56940Y-44451D02*
X56902Y-44536D01*
X56902Y-44536D02*
X56827Y-44570D01*
X56827Y-44570D02*
X56507Y-44250D01*
X56507Y-44250D02*
X56827Y-43930D01*
X56827Y-43930D02*
X56902Y-43964D01*
X56902Y-43964D02*
X56919Y-43988D01*
X56919Y-43988D02*
X56941Y-44047D01*
X56941Y-44047D02*
X56997Y-43913D01*
X56997Y-43913D02*
X57164Y-43746D01*
X57164Y-43746D02*
X57382Y-43656D01*
X57382Y-43656D02*
X57618Y-43656D01*
X57618Y-43656D02*
X57837Y-43747D01*
X57837Y-43747D02*
X57964Y-43874D01*
X57964Y-43874D02*
X63750Y-43875D01*
X63750Y-43875D02*
X63894Y-43904D01*
X63894Y-43904D02*
X64015Y-43985D01*
X64015Y-43985D02*
X66655Y-46625D01*
X66655Y-46625D02*
X66980Y-46625D01*
X66980Y-46625D02*
X66980Y-46380D01*
X66980Y-46380D02*
X66595Y-46220D01*
X66595Y-46220D02*
X66300Y-45924D01*
X66300Y-45924D02*
X66140Y-45538D01*
X66140Y-45538D02*
X66140Y-45120D01*
X66140Y-45120D02*
X66300Y-44735D01*
X66300Y-44735D02*
X66596Y-44440D01*
X66596Y-44440D02*
X66982Y-44280D01*
X66982Y-44280D02*
X67400Y-44280D01*
X67400Y-44280D02*
X67785Y-44440D01*
X67785Y-44440D02*
X68080Y-44736D01*
X68080Y-44736D02*
X68240Y-45122D01*
X68240Y-45122D02*
X68240Y-45540D01*
X68240Y-45540D02*
X68080Y-45925D01*
X68080Y-45925D02*
X67784Y-46220D01*
X67784Y-46220D02*
X67398Y-46380D01*
X67398Y-46380D02*
X66980Y-46380D01*
X66980Y-46380D02*
X66980Y-46625D01*
X66980Y-46625D02*
X68344Y-46625D01*
X68344Y-46625D02*
X69484Y-45485D01*
X69484Y-45485D02*
X69606Y-45404D01*
X69606Y-45404D02*
X69750Y-45375D01*
X69750Y-45375D02*
X71302Y-45375D01*
X71302Y-45375D02*
X71441Y-45041D01*
X71441Y-45041D02*
X71793Y-44690D01*
X71793Y-44690D02*
X72253Y-44500D01*
X72253Y-44500D02*
X72750Y-44501D01*
X72750Y-44501D02*
X73209Y-44691D01*
X73209Y-44691D02*
X73560Y-45043D01*
X73560Y-45043D02*
X73750Y-45503D01*
X73750Y-45503D02*
X73749Y-46000D01*
X73749Y-46000D02*
X73559Y-46459D01*
X73559Y-46459D02*
X73207Y-46810D01*
X73207Y-46810D02*
X72747Y-47000D01*
X72747Y-47000D02*
X72250Y-46999D01*
X72250Y-46999D02*
X71791Y-46809D01*
X71791Y-46809D02*
X71440Y-46457D01*
X71440Y-46457D02*
X71302Y-46125D01*
X71302Y-46125D02*
X69905Y-46125D01*
X69905Y-46125D02*
X68765Y-47265D01*
X68765Y-47265D02*
X68644Y-47346D01*
X68644Y-47346D02*
X68500Y-47375D01*
X68500Y-47375D02*
X66500Y-47375D01*
X66500Y-47375D02*
X66500Y-48875D01*
X66500Y-48875D02*
X66596Y-48780D01*
X66596Y-48780D02*
X66982Y-48620D01*
X66982Y-48620D02*
X67400Y-48620D01*
X67400Y-48620D02*
X67785Y-48780D01*
X67785Y-48780D02*
X68080Y-49076D01*
X68080Y-49076D02*
X68240Y-49462D01*
X68240Y-49462D02*
X68240Y-49880D01*
X68240Y-49880D02*
X68080Y-50265D01*
X68080Y-50265D02*
X67784Y-50560D01*
X67784Y-50560D02*
X67398Y-50720D01*
X67398Y-50720D02*
X66980Y-50720D01*
X66980Y-50720D02*
X66980Y-50975D01*
X66980Y-50975D02*
X71777Y-50975D01*
X71777Y-50975D02*
X71777Y-48828D01*
X71777Y-48828D02*
X71644Y-48727D01*
X71644Y-48727D02*
X71604Y-48667D01*
X71604Y-48667D02*
X71460Y-48282D01*
X71460Y-48282D02*
X71474Y-47871D01*
X71474Y-47871D02*
X71644Y-47497D01*
X71644Y-47497D02*
X71777Y-47396D01*
X71777Y-47396D02*
X72493Y-48112D01*
X72493Y-48112D02*
X71777Y-48828D01*
X71777Y-48828D02*
X71777Y-50975D01*
X71777Y-50975D02*
X72670Y-50975D01*
X72670Y-50975D02*
X72670Y-49152D01*
X72670Y-49152D02*
X72259Y-49138D01*
X72259Y-49138D02*
X71885Y-48968D01*
X71885Y-48968D02*
X71784Y-48835D01*
X71784Y-48835D02*
X72500Y-48119D01*
X72500Y-48119D02*
X72500Y-48105D01*
X72500Y-48105D02*
X71784Y-47389D01*
X71784Y-47389D02*
X71885Y-47256D01*
X71885Y-47256D02*
X71945Y-47216D01*
X71945Y-47216D02*
X72330Y-47072D01*
X72330Y-47072D02*
X72741Y-47086D01*
X72741Y-47086D02*
X73115Y-47256D01*
X73115Y-47256D02*
X73216Y-47389D01*
X73216Y-47389D02*
X72500Y-48105D01*
X72500Y-48105D02*
X72500Y-48119D01*
X72500Y-48119D02*
X73216Y-48835D01*
X73216Y-48835D02*
X73115Y-48968D01*
X73115Y-48968D02*
X73055Y-49008D01*
X73055Y-49008D02*
X72670Y-49152D01*
X72670Y-49152D02*
X72670Y-50975D01*
X72670Y-50975D02*
X73223Y-50975D01*
X73223Y-50975D02*
X73223Y-48828D01*
X73223Y-48828D02*
X72507Y-48112D01*
X72507Y-48112D02*
X73223Y-47396D01*
X73223Y-47396D02*
X73356Y-47497D01*
X73356Y-47497D02*
X73396Y-47557D01*
X73396Y-47557D02*
X73540Y-47942D01*
X73540Y-47942D02*
X73526Y-48353D01*
X73526Y-48353D02*
X73356Y-48727D01*
X73356Y-48727D02*
X73223Y-48828D01*
X73223Y-48828D02*
X73223Y-50975D01*
X73223Y-50975D02*
X75452Y-50975D01*
X54010Y-49415D02*
X54913Y-48513D01*
X54913Y-48513D02*
X55022Y-48441D01*
X55022Y-48441D02*
X55150Y-48415D01*
X55150Y-48415D02*
X56059Y-48415D01*
X56059Y-48415D02*
X56189Y-48285D01*
X56189Y-48285D02*
X56273Y-48250D01*
X56273Y-48250D02*
X56189Y-48215D01*
X56189Y-48215D02*
X56035Y-48061D01*
X56035Y-48061D02*
X55951Y-47859D01*
X55951Y-47859D02*
X55951Y-47641D01*
X55951Y-47641D02*
X56035Y-47439D01*
X56035Y-47439D02*
X56189Y-47285D01*
X56189Y-47285D02*
X56273Y-47250D01*
X56273Y-47250D02*
X56189Y-47215D01*
X56189Y-47215D02*
X56059Y-47085D01*
X56059Y-47085D02*
X55749Y-47085D01*
X55749Y-47085D02*
X55622Y-47059D01*
X55622Y-47059D02*
X55513Y-46987D01*
X55513Y-46987D02*
X54263Y-45737D01*
X54263Y-45737D02*
X54191Y-45628D01*
X54191Y-45628D02*
X54165Y-45500D01*
X54165Y-45500D02*
X54165Y-44753D01*
X54165Y-44753D02*
X54163Y-44753D01*
X54163Y-44753D02*
X54000Y-44589D01*
X54000Y-44589D02*
X53836Y-44754D01*
X53836Y-44754D02*
X53618Y-44844D01*
X53618Y-44844D02*
X53382Y-44844D01*
X53382Y-44844D02*
X53163Y-44753D01*
X53163Y-44753D02*
X53000Y-44590D01*
X53000Y-44590D02*
X52836Y-44754D01*
X52836Y-44754D02*
X52618Y-44844D01*
X52618Y-44844D02*
X52382Y-44844D01*
X52382Y-44844D02*
X52163Y-44753D01*
X52163Y-44753D02*
X51999Y-44589D01*
X51999Y-44589D02*
X51836Y-44754D01*
X51836Y-44754D02*
X51618Y-44844D01*
X51618Y-44844D02*
X51382Y-44844D01*
X51382Y-44844D02*
X51163Y-44753D01*
X51163Y-44753D02*
X50999Y-44589D01*
X50999Y-44589D02*
X50836Y-44754D01*
X50836Y-44754D02*
X50618Y-44844D01*
X50618Y-44844D02*
X50382Y-44844D01*
X50382Y-44844D02*
X50163Y-44753D01*
X50163Y-44753D02*
X49999Y-44589D01*
X49999Y-44589D02*
X49836Y-44754D01*
X49836Y-44754D02*
X49618Y-44844D01*
X49618Y-44844D02*
X49382Y-44844D01*
X49382Y-44844D02*
X49163Y-44753D01*
X49163Y-44753D02*
X48999Y-44589D01*
X48999Y-44589D02*
X48836Y-44754D01*
X48836Y-44754D02*
X48618Y-44844D01*
X48618Y-44844D02*
X48382Y-44844D01*
X48382Y-44844D02*
X48163Y-44753D01*
X48163Y-44753D02*
X48000Y-44590D01*
X48000Y-44590D02*
X47836Y-44754D01*
X47836Y-44754D02*
X47618Y-44844D01*
X47618Y-44844D02*
X47382Y-44844D01*
X47382Y-44844D02*
X47163Y-44753D01*
X47163Y-44753D02*
X46999Y-44589D01*
X46999Y-44589D02*
X46835Y-44754D01*
X46835Y-44754D02*
X46835Y-44861D01*
X46835Y-44861D02*
X47338Y-45365D01*
X47338Y-45365D02*
X50550Y-45365D01*
X50550Y-45365D02*
X50678Y-45391D01*
X50678Y-45391D02*
X50787Y-45463D01*
X50787Y-45463D02*
X51587Y-46263D01*
X51587Y-46263D02*
X51659Y-46372D01*
X51659Y-46372D02*
X51685Y-46500D01*
X51685Y-46500D02*
X51685Y-47261D01*
X51685Y-47261D02*
X52723Y-48299D01*
X52723Y-48299D02*
X52723Y-47020D01*
X52723Y-47020D02*
X52654Y-46995D01*
X52654Y-46995D02*
X52641Y-46976D01*
X52641Y-46976D02*
X52582Y-46821D01*
X52582Y-46821D02*
X52586Y-46656D01*
X52586Y-46656D02*
X52654Y-46505D01*
X52654Y-46505D02*
X52723Y-46480D01*
X52723Y-46480D02*
X52993Y-46750D01*
X52993Y-46750D02*
X52723Y-47020D01*
X52723Y-47020D02*
X52723Y-48299D01*
X52723Y-48299D02*
X53071Y-48647D01*
X53071Y-48647D02*
X53071Y-47168D01*
X53071Y-47168D02*
X52906Y-47164D01*
X52906Y-47164D02*
X52755Y-47096D01*
X52755Y-47096D02*
X52730Y-47027D01*
X52730Y-47027D02*
X53000Y-46757D01*
X53000Y-46757D02*
X53000Y-46743D01*
X53000Y-46743D02*
X52730Y-46473D01*
X52730Y-46473D02*
X52755Y-46404D01*
X52755Y-46404D02*
X52774Y-46391D01*
X52774Y-46391D02*
X52929Y-46332D01*
X52929Y-46332D02*
X53094Y-46336D01*
X53094Y-46336D02*
X53245Y-46404D01*
X53245Y-46404D02*
X53270Y-46473D01*
X53270Y-46473D02*
X53000Y-46743D01*
X53000Y-46743D02*
X53000Y-46757D01*
X53000Y-46757D02*
X53270Y-47027D01*
X53270Y-47027D02*
X53245Y-47096D01*
X53245Y-47096D02*
X53226Y-47109D01*
X53226Y-47109D02*
X53071Y-47168D01*
X53071Y-47168D02*
X53071Y-48647D01*
X53071Y-48647D02*
X53237Y-48813D01*
X53237Y-48813D02*
X53277Y-48873D01*
X53277Y-48873D02*
X53277Y-47020D01*
X53277Y-47020D02*
X53007Y-46750D01*
X53007Y-46750D02*
X53277Y-46480D01*
X53277Y-46480D02*
X53346Y-46505D01*
X53346Y-46505D02*
X53359Y-46524D01*
X53359Y-46524D02*
X53418Y-46679D01*
X53418Y-46679D02*
X53414Y-46844D01*
X53414Y-46844D02*
X53346Y-46995D01*
X53346Y-46995D02*
X53277Y-47020D01*
X53277Y-47020D02*
X53277Y-48873D01*
X53277Y-48873D02*
X53309Y-48922D01*
X53309Y-48922D02*
X53335Y-49050D01*
X53335Y-49050D02*
X53335Y-49342D01*
X53335Y-49342D02*
X53407Y-49415D01*
X53407Y-49415D02*
X54010Y-49415D01*
M02*
