M48
;DRILL file {PCBnew (20090216-final)} date Fri 04 Feb 2011 06:14:53 PM PST
;FORMAT={2:4/ absolute / inch / suppress trailing zeros}
R,T
VER,1
FMAT,2
INCH,LZ
TCST,OFF
ICI,OFF
ATC,ON
T1C0.032
T2C0.039
T3C0.040
T4C0.120
%
M47
G05
M72
T1
X044Y-038
X045Y-025
X045Y-026
X045Y-038
X0475Y-037
X0475Y-04
X05Y-037
X05Y-04
X0525Y-0255
X0525Y-037
X0525Y-04
X0565Y-0255
T2
X043Y-0285
X043Y-0345
X044Y-0285
X044Y-0345
X045Y-0285
X045Y-0345
X046Y-0285
X046Y-0345
X047Y-0285
X047Y-0345
X048Y-0285
X048Y-0345
X049Y-0285
X049Y-0345
X05Y-0285
X05Y-0345
X051Y-0285
X051Y-0345
X052Y-0285
X052Y-0345
X053Y-0285
X053Y-0345
X054Y-0285
X054Y-0345
X055Y-0285
X055Y-0345
X056Y-0285
X056Y-0345
X057Y-0285
X057Y-0345
T3
X049Y-025
X049Y-026
X05Y-025
X05Y-026
X056Y-037
X056Y-038
X056Y-039
X056Y-04
T4
X0425Y-0225
X0425Y-0405
X0585Y-0225
X0585Y-0405
T0
M30
