G04 (created by PCBnew (20090216-final)) date Fri 04 Feb 2011 06:14:45 PM PST*
G01*
G70*
G90*
%MOIN*%
G04 Gerber Fmt 3.4, Leading zero omitted, Abs format*
%FSLAX34Y34*%
G04 APERTURE LIST*
%ADD10C,0.015000*%
%ADD11R,0.060000X0.069000*%
%ADD12C,0.069000*%
%ADD13C,0.055000*%
%ADD14C,0.066000*%
%ADD15R,0.060000X0.060000*%
%ADD16C,0.060000*%
%ADD17C,0.130000*%
%ADD18C,0.017000*%
%ADD19C,0.010000*%
%ADD20C,0.005000*%
%ADD21C,0.015000*%
%ADD22C,0.012000*%
%ADD23C,0.006000*%
%ADD24C,0.008000*%
%ADD25C,0.003500*%
%ADD26R,0.080000X0.089000*%
%ADD27C,0.089000*%
%ADD28C,0.075000*%
%ADD29R,0.080000X0.080000*%
%ADD30C,0.080000*%
%ADD31C,0.150000*%
%ADD32C,0.086000*%
G04 APERTURE END LIST*
G54D10*
X41500Y-41500D02*
X59500Y-41500D01*
X41500Y-21500D02*
X59500Y-21500D01*
X59500Y-21500D02*
X59500Y-41500D01*
X41500Y-21500D02*
X41500Y-41500D01*
G54D11*
X57000Y-28500D03*
G54D12*
X56000Y-28500D03*
X55000Y-28500D03*
X54000Y-28500D03*
X53000Y-28500D03*
X52000Y-28500D03*
X51000Y-28500D03*
X50000Y-28500D03*
X49000Y-28500D03*
X48000Y-28500D03*
X47000Y-28500D03*
X46000Y-28500D03*
X45000Y-28500D03*
X44000Y-28500D03*
X43000Y-28500D03*
X43000Y-34500D03*
X44000Y-34500D03*
X45000Y-34500D03*
X46000Y-34500D03*
X47000Y-34500D03*
X48000Y-34500D03*
X49000Y-34500D03*
X50000Y-34500D03*
X51000Y-34500D03*
X52000Y-34500D03*
X53000Y-34500D03*
X54000Y-34500D03*
X55000Y-34500D03*
X56000Y-34500D03*
X57000Y-34500D03*
G54D13*
X45000Y-25000D03*
X45000Y-26000D03*
G54D14*
X44000Y-38000D03*
X45000Y-38000D03*
G54D15*
X49000Y-26000D03*
G54D16*
X49000Y-25000D03*
X50000Y-26000D03*
X50000Y-25000D03*
G54D15*
X56000Y-40000D03*
G54D16*
X56000Y-39000D03*
X56000Y-38000D03*
X56000Y-37000D03*
G54D13*
X50000Y-40000D03*
X50000Y-37000D03*
X52500Y-40000D03*
X52500Y-37000D03*
X47500Y-40000D03*
X47500Y-37000D03*
G54D16*
X52500Y-25500D03*
X56500Y-25500D03*
G54D17*
X58500Y-22500D03*
X42500Y-22500D03*
X42500Y-40500D03*
X58500Y-40500D03*
G54D18*
X49000Y-26000D02*
X49000Y-26150D01*
X55000Y-27925D02*
X55000Y-28500D01*
X54275Y-27200D02*
X55000Y-27925D01*
X50050Y-27200D02*
X54275Y-27200D01*
X49000Y-26150D02*
X50050Y-27200D01*
X46000Y-34500D02*
X46000Y-33900D01*
X53000Y-30100D02*
X53000Y-28500D01*
X51600Y-31500D02*
X53000Y-30100D01*
X48400Y-31500D02*
X51600Y-31500D01*
X46000Y-33900D02*
X48400Y-31500D01*
X52500Y-40000D02*
X52500Y-39300D01*
X46000Y-35250D02*
X46000Y-34500D01*
X46700Y-35950D02*
X46000Y-35250D01*
X50050Y-35950D02*
X46700Y-35950D01*
X50850Y-36750D02*
X50050Y-35950D01*
X50850Y-37650D02*
X50850Y-36750D01*
X52500Y-39300D02*
X50850Y-37650D01*
X52500Y-40000D02*
X53650Y-40000D01*
X54650Y-39000D02*
X56000Y-39000D01*
X53650Y-40000D02*
X54650Y-39000D01*
X44000Y-38000D02*
X44000Y-36950D01*
X45000Y-30750D02*
X45000Y-28500D01*
X42300Y-33450D02*
X45000Y-30750D01*
X42300Y-35250D02*
X42300Y-33450D01*
X44000Y-36950D02*
X42300Y-35250D01*
X56500Y-25500D02*
X56600Y-25500D01*
X54000Y-33550D02*
X54000Y-34500D01*
X58200Y-29350D02*
X54000Y-33550D01*
X58200Y-27100D02*
X58200Y-29350D01*
X56600Y-25500D02*
X58200Y-27100D01*
X56000Y-37000D02*
X56700Y-37000D01*
X56800Y-40000D02*
X56000Y-40000D01*
X57100Y-39700D02*
X56800Y-40000D01*
X57100Y-37400D02*
X57100Y-39700D01*
X56700Y-37000D02*
X57100Y-37400D01*
X54000Y-34500D02*
X54000Y-35750D01*
X55250Y-37000D02*
X56000Y-37000D01*
X54000Y-35750D02*
X55250Y-37000D01*
X49000Y-25000D02*
X45000Y-25000D01*
X52500Y-25500D02*
X52500Y-24800D01*
X49000Y-24700D02*
X49000Y-25000D01*
X49800Y-23900D02*
X49000Y-24700D01*
X51600Y-23900D02*
X49800Y-23900D01*
X52500Y-24800D02*
X51600Y-23900D01*
X47500Y-40000D02*
X47000Y-40000D01*
X47000Y-40000D02*
X45000Y-38000D01*
G54D19*
X52882Y-39639D02*
X53537Y-39639D01*
X52835Y-39559D02*
X53617Y-39559D01*
X52835Y-39479D02*
X53697Y-39479D01*
X52835Y-39399D02*
X53777Y-39399D01*
X52835Y-39319D02*
X53857Y-39319D01*
X52823Y-39239D02*
X53937Y-39239D01*
X52801Y-39159D02*
X54017Y-39159D01*
X52748Y-39079D02*
X54097Y-39079D01*
X52674Y-38999D02*
X54177Y-38999D01*
X52594Y-38919D02*
X54257Y-38919D01*
X52514Y-38839D02*
X54337Y-38839D01*
X52434Y-38759D02*
X54419Y-38759D01*
X52354Y-38679D02*
X54582Y-38679D01*
X52274Y-38599D02*
X55625Y-38599D01*
X52194Y-38519D02*
X55728Y-38519D01*
X52113Y-38439D02*
X55663Y-38439D01*
X52033Y-38359D02*
X55583Y-38359D01*
X51953Y-38279D02*
X55521Y-38279D01*
X51873Y-38199D02*
X55488Y-38199D01*
X51793Y-38119D02*
X55455Y-38119D01*
X51713Y-38039D02*
X55451Y-38039D01*
X51633Y-37959D02*
X55451Y-37959D01*
X51553Y-37879D02*
X55456Y-37879D01*
X51473Y-37799D02*
X55490Y-37799D01*
X51393Y-37719D02*
X55523Y-37719D01*
X51313Y-37639D02*
X55585Y-37639D01*
X51233Y-37559D02*
X55665Y-37559D01*
X52700Y-37479D02*
X55722Y-37479D01*
X51185Y-37479D02*
X52310Y-37479D01*
X52780Y-37399D02*
X55623Y-37399D01*
X51185Y-37399D02*
X52219Y-37399D01*
X52748Y-37319D02*
X55170Y-37319D01*
X51185Y-37319D02*
X52252Y-37319D01*
X52961Y-37239D02*
X55016Y-37239D01*
X52668Y-37239D02*
X52810Y-37239D01*
X52190Y-37239D02*
X52332Y-37239D01*
X51185Y-37239D02*
X52036Y-37239D01*
X52989Y-37159D02*
X54935Y-37159D01*
X52588Y-37159D02*
X52730Y-37159D01*
X52270Y-37159D02*
X52412Y-37159D01*
X51185Y-37159D02*
X52003Y-37159D01*
X53017Y-37079D02*
X54855Y-37079D01*
X52508Y-37079D02*
X52650Y-37079D01*
X52350Y-37079D02*
X52492Y-37079D01*
X51185Y-37079D02*
X51989Y-37079D01*
X53015Y-36999D02*
X54775Y-36999D01*
X52428Y-36999D02*
X52572Y-36999D01*
X51185Y-36999D02*
X51984Y-36999D01*
X53011Y-36919D02*
X54695Y-36919D01*
X52510Y-36919D02*
X52652Y-36919D01*
X52348Y-36919D02*
X52490Y-36919D01*
X51185Y-36919D02*
X51984Y-36919D01*
X52996Y-36839D02*
X54615Y-36839D01*
X52590Y-36839D02*
X52732Y-36839D01*
X52268Y-36839D02*
X52410Y-36839D01*
X51185Y-36839D02*
X52012Y-36839D01*
X52963Y-36759D02*
X54535Y-36759D01*
X52670Y-36759D02*
X52812Y-36759D01*
X52188Y-36759D02*
X52330Y-36759D01*
X51185Y-36759D02*
X52039Y-36759D01*
X52750Y-36679D02*
X54455Y-36679D01*
X51171Y-36679D02*
X52250Y-36679D01*
X52780Y-36599D02*
X54375Y-36599D01*
X51144Y-36599D02*
X52221Y-36599D01*
X52684Y-36519D02*
X54295Y-36519D01*
X51091Y-36519D02*
X52304Y-36519D01*
X51013Y-36439D02*
X54215Y-36439D01*
X50933Y-36359D02*
X54135Y-36359D01*
X50853Y-36279D02*
X54055Y-36279D01*
X50773Y-36199D02*
X53975Y-36199D01*
X50693Y-36119D02*
X53895Y-36119D01*
X50613Y-36039D02*
X53815Y-36039D01*
X50533Y-35959D02*
X53744Y-35959D01*
X50453Y-35879D02*
X53691Y-35879D01*
X50373Y-35799D02*
X53674Y-35799D01*
X50293Y-35719D02*
X53665Y-35719D01*
X50169Y-35639D02*
X53665Y-35639D01*
X46783Y-35559D02*
X53665Y-35559D01*
X46703Y-35479D02*
X53665Y-35479D01*
X46623Y-35399D02*
X53665Y-35399D01*
X46543Y-35319D02*
X53665Y-35319D01*
X46463Y-35239D02*
X53665Y-35239D01*
X46383Y-35159D02*
X53665Y-35159D01*
X53154Y-35079D02*
X53665Y-35079D01*
X52154Y-35079D02*
X52845Y-35079D01*
X51154Y-35079D02*
X51845Y-35079D01*
X50154Y-35079D02*
X50845Y-35079D01*
X49154Y-35079D02*
X49845Y-35079D01*
X48154Y-35079D02*
X48845Y-35079D01*
X47154Y-35079D02*
X47845Y-35079D01*
X46335Y-35079D02*
X46845Y-35079D01*
X53340Y-34999D02*
X53659Y-34999D01*
X52340Y-34999D02*
X52658Y-34999D01*
X51340Y-34999D02*
X51659Y-34999D01*
X50341Y-34999D02*
X50659Y-34999D01*
X49340Y-34999D02*
X49658Y-34999D01*
X48340Y-34999D02*
X48659Y-34999D01*
X47340Y-34999D02*
X47658Y-34999D01*
X46339Y-34999D02*
X46659Y-34999D01*
X53420Y-34919D02*
X53579Y-34919D01*
X52420Y-34919D02*
X52578Y-34919D01*
X51420Y-34919D02*
X51579Y-34919D01*
X50421Y-34919D02*
X50579Y-34919D01*
X49420Y-34919D02*
X49578Y-34919D01*
X48420Y-34919D02*
X48579Y-34919D01*
X47420Y-34919D02*
X47578Y-34919D01*
X46419Y-34919D02*
X46579Y-34919D01*
X53500Y-34839D02*
X53500Y-34839D01*
X51500Y-34839D02*
X51500Y-34839D01*
X48500Y-34839D02*
X48500Y-34839D01*
X46499Y-34839D02*
X46499Y-34839D01*
X43058Y-41214D02*
X57941Y-41214D01*
X43138Y-41134D02*
X57861Y-41134D01*
X43218Y-41054D02*
X57781Y-41054D01*
X43277Y-40974D02*
X57722Y-40974D01*
X43310Y-40894D02*
X57689Y-40894D01*
X43344Y-40814D02*
X57656Y-40814D01*
X43377Y-40734D02*
X57623Y-40734D01*
X43400Y-40654D02*
X57600Y-40654D01*
X43400Y-40574D02*
X57600Y-40574D01*
X56458Y-40494D02*
X57600Y-40494D01*
X52678Y-40494D02*
X55542Y-40494D01*
X50178Y-40494D02*
X52320Y-40494D01*
X47678Y-40494D02*
X49820Y-40494D01*
X43400Y-40494D02*
X47320Y-40494D01*
X56522Y-40414D02*
X57600Y-40414D01*
X52828Y-40414D02*
X55477Y-40414D01*
X50328Y-40414D02*
X52171Y-40414D01*
X47828Y-40414D02*
X49671Y-40414D01*
X43400Y-40414D02*
X47171Y-40414D01*
X56804Y-40334D02*
X57600Y-40334D01*
X53654Y-40334D02*
X55451Y-40334D01*
X50408Y-40334D02*
X52091Y-40334D01*
X47908Y-40334D02*
X49591Y-40334D01*
X43400Y-40334D02*
X46995Y-40334D01*
X57011Y-40254D02*
X57628Y-40254D01*
X53861Y-40254D02*
X55451Y-40254D01*
X50463Y-40254D02*
X52037Y-40254D01*
X47963Y-40254D02*
X49537Y-40254D01*
X43372Y-40254D02*
X46788Y-40254D01*
X57100Y-40174D02*
X57661Y-40174D01*
X53949Y-40174D02*
X55451Y-40174D01*
X50496Y-40174D02*
X52004Y-40174D01*
X47996Y-40174D02*
X49504Y-40174D01*
X43339Y-40174D02*
X46700Y-40174D01*
X57180Y-40094D02*
X57695Y-40094D01*
X54029Y-40094D02*
X55451Y-40094D01*
X50525Y-40094D02*
X51975Y-40094D01*
X48025Y-40094D02*
X49475Y-40094D01*
X43306Y-40094D02*
X46620Y-40094D01*
X57260Y-40014D02*
X57728Y-40014D01*
X54109Y-40014D02*
X55451Y-40014D01*
X50525Y-40014D02*
X51975Y-40014D01*
X48025Y-40014D02*
X49475Y-40014D01*
X43273Y-40014D02*
X46540Y-40014D01*
X59207Y-39934D02*
X59225Y-39934D01*
X57338Y-39934D02*
X57794Y-39934D01*
X54189Y-39934D02*
X55451Y-39934D01*
X50525Y-39934D02*
X51975Y-39934D01*
X48025Y-39934D02*
X49475Y-39934D01*
X43207Y-39934D02*
X46460Y-39934D01*
X41775Y-39934D02*
X41794Y-39934D01*
X59127Y-39854D02*
X59225Y-39854D01*
X57391Y-39854D02*
X57874Y-39854D01*
X54269Y-39854D02*
X55451Y-39854D01*
X50508Y-39854D02*
X51992Y-39854D01*
X48008Y-39854D02*
X49492Y-39854D01*
X43127Y-39854D02*
X46380Y-39854D01*
X41775Y-39854D02*
X41874Y-39854D01*
X59047Y-39774D02*
X59225Y-39774D01*
X57419Y-39774D02*
X57954Y-39774D01*
X54349Y-39774D02*
X55451Y-39774D01*
X50475Y-39774D02*
X52026Y-39774D01*
X47975Y-39774D02*
X49526Y-39774D01*
X43047Y-39774D02*
X46300Y-39774D01*
X41775Y-39774D02*
X41954Y-39774D01*
X58906Y-39694D02*
X59225Y-39694D01*
X57435Y-39694D02*
X58095Y-39694D01*
X54429Y-39694D02*
X55451Y-39694D01*
X50437Y-39694D02*
X52063Y-39694D01*
X47937Y-39694D02*
X49563Y-39694D01*
X42906Y-39694D02*
X46220Y-39694D01*
X41775Y-39694D02*
X42095Y-39694D01*
X58714Y-39614D02*
X59225Y-39614D01*
X57435Y-39614D02*
X58289Y-39614D01*
X54509Y-39614D02*
X55467Y-39614D01*
X50357Y-39614D02*
X52143Y-39614D01*
X47857Y-39614D02*
X49644Y-39614D01*
X47088Y-39614D02*
X47143Y-39614D01*
X42714Y-39614D02*
X46140Y-39614D01*
X41775Y-39614D02*
X42289Y-39614D01*
X57435Y-39534D02*
X59225Y-39534D01*
X54589Y-39534D02*
X55514Y-39534D01*
X50248Y-39534D02*
X52165Y-39534D01*
X47748Y-39534D02*
X49754Y-39534D01*
X47008Y-39534D02*
X47254Y-39534D01*
X41775Y-39534D02*
X46060Y-39534D01*
X57435Y-39454D02*
X59225Y-39454D01*
X54669Y-39454D02*
X55644Y-39454D01*
X46928Y-39454D02*
X52165Y-39454D01*
X41775Y-39454D02*
X45980Y-39454D01*
X57435Y-39374D02*
X59225Y-39374D01*
X54749Y-39374D02*
X55598Y-39374D01*
X46848Y-39374D02*
X52100Y-39374D01*
X41775Y-39374D02*
X45900Y-39374D01*
X57435Y-39294D02*
X59225Y-39294D01*
X46768Y-39294D02*
X52020Y-39294D01*
X41775Y-39294D02*
X45820Y-39294D01*
X57435Y-39214D02*
X59225Y-39214D01*
X46688Y-39214D02*
X51940Y-39214D01*
X41775Y-39214D02*
X45740Y-39214D01*
X57435Y-39134D02*
X59225Y-39134D01*
X46608Y-39134D02*
X51860Y-39134D01*
X41775Y-39134D02*
X45660Y-39134D01*
X57435Y-39054D02*
X59225Y-39054D01*
X46528Y-39054D02*
X51780Y-39054D01*
X41775Y-39054D02*
X45580Y-39054D01*
X57435Y-38974D02*
X59225Y-38974D01*
X46448Y-38974D02*
X51700Y-38974D01*
X41775Y-38974D02*
X45500Y-38974D01*
X57435Y-38894D02*
X59225Y-38894D01*
X46368Y-38894D02*
X51620Y-38894D01*
X41775Y-38894D02*
X45420Y-38894D01*
X57435Y-38814D02*
X59225Y-38814D01*
X46288Y-38814D02*
X51540Y-38814D01*
X41775Y-38814D02*
X45340Y-38814D01*
X57435Y-38734D02*
X59225Y-38734D01*
X46208Y-38734D02*
X51460Y-38734D01*
X41775Y-38734D02*
X45260Y-38734D01*
X57435Y-38654D02*
X59225Y-38654D01*
X46128Y-38654D02*
X51380Y-38654D01*
X41775Y-38654D02*
X45180Y-38654D01*
X57435Y-38574D02*
X59225Y-38574D01*
X46048Y-38574D02*
X51300Y-38574D01*
X44129Y-38574D02*
X44869Y-38574D01*
X41775Y-38574D02*
X43869Y-38574D01*
X57435Y-38494D02*
X59225Y-38494D01*
X45968Y-38494D02*
X51220Y-38494D01*
X44323Y-38494D02*
X44678Y-38494D01*
X41775Y-38494D02*
X43678Y-38494D01*
X57435Y-38414D02*
X59225Y-38414D01*
X45888Y-38414D02*
X51140Y-38414D01*
X44406Y-38414D02*
X44594Y-38414D01*
X41775Y-38414D02*
X43594Y-38414D01*
X57435Y-38334D02*
X59225Y-38334D01*
X45808Y-38334D02*
X51060Y-38334D01*
X44486Y-38334D02*
X44514Y-38334D01*
X41775Y-38334D02*
X43514Y-38334D01*
X57435Y-38254D02*
X59225Y-38254D01*
X45728Y-38254D02*
X50980Y-38254D01*
X41775Y-38254D02*
X43477Y-38254D01*
X57435Y-38174D02*
X59225Y-38174D01*
X45648Y-38174D02*
X50900Y-38174D01*
X41775Y-38174D02*
X43444Y-38174D01*
X57435Y-38094D02*
X59225Y-38094D01*
X45580Y-38094D02*
X50820Y-38094D01*
X41775Y-38094D02*
X43420Y-38094D01*
X57435Y-38014D02*
X59225Y-38014D01*
X45580Y-38014D02*
X50740Y-38014D01*
X41775Y-38014D02*
X43420Y-38014D01*
X57435Y-37934D02*
X59225Y-37934D01*
X45580Y-37934D02*
X50660Y-37934D01*
X41775Y-37934D02*
X43420Y-37934D01*
X57435Y-37854D02*
X59225Y-37854D01*
X45568Y-37854D02*
X50591Y-37854D01*
X41775Y-37854D02*
X43433Y-37854D01*
X57435Y-37774D02*
X59225Y-37774D01*
X45535Y-37774D02*
X50540Y-37774D01*
X41775Y-37774D02*
X43466Y-37774D01*
X57435Y-37694D02*
X59225Y-37694D01*
X45502Y-37694D02*
X50523Y-37694D01*
X41775Y-37694D02*
X43500Y-37694D01*
X57435Y-37614D02*
X59225Y-37614D01*
X45434Y-37614D02*
X50515Y-37614D01*
X44434Y-37614D02*
X44566Y-37614D01*
X41775Y-37614D02*
X43566Y-37614D01*
X57435Y-37534D02*
X59225Y-37534D01*
X45354Y-37534D02*
X50515Y-37534D01*
X44354Y-37534D02*
X44646Y-37534D01*
X41775Y-37534D02*
X43646Y-37534D01*
X57435Y-37454D02*
X59225Y-37454D01*
X50262Y-37454D02*
X50515Y-37454D01*
X47762Y-37454D02*
X49738Y-37454D01*
X45198Y-37454D02*
X47238Y-37454D01*
X44335Y-37454D02*
X44803Y-37454D01*
X41775Y-37454D02*
X43665Y-37454D01*
X57430Y-37374D02*
X59225Y-37374D01*
X50286Y-37374D02*
X50515Y-37374D01*
X47786Y-37374D02*
X49713Y-37374D01*
X44335Y-37374D02*
X47213Y-37374D01*
X41775Y-37374D02*
X43665Y-37374D01*
X57414Y-37294D02*
X59225Y-37294D01*
X50223Y-37294D02*
X50515Y-37294D01*
X47723Y-37294D02*
X49777Y-37294D01*
X44335Y-37294D02*
X47277Y-37294D01*
X41775Y-37294D02*
X43665Y-37294D01*
X57371Y-37214D02*
X59225Y-37214D01*
X50470Y-37214D02*
X50515Y-37214D01*
X50143Y-37214D02*
X50285Y-37214D01*
X49715Y-37214D02*
X49857Y-37214D01*
X47970Y-37214D02*
X49526Y-37214D01*
X47643Y-37214D02*
X47785Y-37214D01*
X47215Y-37214D02*
X47357Y-37214D01*
X44335Y-37214D02*
X47026Y-37214D01*
X41775Y-37214D02*
X43665Y-37214D01*
X57308Y-37134D02*
X59225Y-37134D01*
X50498Y-37134D02*
X50515Y-37134D01*
X50063Y-37134D02*
X50205Y-37134D01*
X49795Y-37134D02*
X49937Y-37134D01*
X47998Y-37134D02*
X49493Y-37134D01*
X47563Y-37134D02*
X47705Y-37134D01*
X47295Y-37134D02*
X47437Y-37134D01*
X44335Y-37134D02*
X46993Y-37134D01*
X41775Y-37134D02*
X43665Y-37134D01*
X57228Y-37054D02*
X59225Y-37054D01*
X49875Y-37054D02*
X50125Y-37054D01*
X48018Y-37054D02*
X49487Y-37054D01*
X47375Y-37054D02*
X47625Y-37054D01*
X44335Y-37054D02*
X46987Y-37054D01*
X41775Y-37054D02*
X43630Y-37054D01*
X57148Y-36974D02*
X59225Y-36974D01*
X49903Y-36974D02*
X50045Y-36974D01*
X48014Y-36974D02*
X49483Y-36974D01*
X47403Y-36974D02*
X47597Y-36974D01*
X44335Y-36974D02*
X46983Y-36974D01*
X41775Y-36974D02*
X43550Y-36974D01*
X57068Y-36894D02*
X59225Y-36894D01*
X49823Y-36894D02*
X49965Y-36894D01*
X48010Y-36894D02*
X49493Y-36894D01*
X47535Y-36894D02*
X47677Y-36894D01*
X47323Y-36894D02*
X47465Y-36894D01*
X44324Y-36894D02*
X46993Y-36894D01*
X41775Y-36894D02*
X43470Y-36894D01*
X56988Y-36814D02*
X59225Y-36814D01*
X49743Y-36814D02*
X49885Y-36814D01*
X47986Y-36814D02*
X49520Y-36814D01*
X47615Y-36814D02*
X47757Y-36814D01*
X47243Y-36814D02*
X47385Y-36814D01*
X44304Y-36814D02*
X47020Y-36814D01*
X41775Y-36814D02*
X43390Y-36814D01*
X56894Y-36734D02*
X59225Y-36734D01*
X49663Y-36734D02*
X49805Y-36734D01*
X47953Y-36734D02*
X49548Y-36734D01*
X47695Y-36734D02*
X47837Y-36734D01*
X47163Y-36734D02*
X47305Y-36734D01*
X44251Y-36734D02*
X47048Y-36734D01*
X41775Y-36734D02*
X43310Y-36734D01*
X56430Y-36654D02*
X59225Y-36654D01*
X55378Y-36654D02*
X55570Y-36654D01*
X47775Y-36654D02*
X49725Y-36654D01*
X44178Y-36654D02*
X47225Y-36654D01*
X41775Y-36654D02*
X43230Y-36654D01*
X56350Y-36574D02*
X59225Y-36574D01*
X55298Y-36574D02*
X55650Y-36574D01*
X47774Y-36574D02*
X49727Y-36574D01*
X44098Y-36574D02*
X47227Y-36574D01*
X41775Y-36574D02*
X43150Y-36574D01*
X56213Y-36494D02*
X59225Y-36494D01*
X55218Y-36494D02*
X55788Y-36494D01*
X50113Y-36494D02*
X50120Y-36494D01*
X47612Y-36494D02*
X49866Y-36494D01*
X44018Y-36494D02*
X47366Y-36494D01*
X41775Y-36494D02*
X43070Y-36494D01*
X55138Y-36414D02*
X59225Y-36414D01*
X43938Y-36414D02*
X50040Y-36414D01*
X41775Y-36414D02*
X42990Y-36414D01*
X55058Y-36334D02*
X59225Y-36334D01*
X43858Y-36334D02*
X49960Y-36334D01*
X41775Y-36334D02*
X42910Y-36334D01*
X54978Y-36254D02*
X59225Y-36254D01*
X43778Y-36254D02*
X46564Y-36254D01*
X41775Y-36254D02*
X42830Y-36254D01*
X54898Y-36174D02*
X59225Y-36174D01*
X43698Y-36174D02*
X46450Y-36174D01*
X41775Y-36174D02*
X42750Y-36174D01*
X54818Y-36094D02*
X59225Y-36094D01*
X43618Y-36094D02*
X46370Y-36094D01*
X41775Y-36094D02*
X42670Y-36094D01*
X54738Y-36014D02*
X59225Y-36014D01*
X43538Y-36014D02*
X46290Y-36014D01*
X41775Y-36014D02*
X42590Y-36014D01*
X54658Y-35934D02*
X59225Y-35934D01*
X43458Y-35934D02*
X46210Y-35934D01*
X41775Y-35934D02*
X42510Y-35934D01*
X54578Y-35854D02*
X59225Y-35854D01*
X43378Y-35854D02*
X46130Y-35854D01*
X41775Y-35854D02*
X42430Y-35854D01*
X54498Y-35774D02*
X59225Y-35774D01*
X43298Y-35774D02*
X46050Y-35774D01*
X41775Y-35774D02*
X42350Y-35774D01*
X54418Y-35694D02*
X59225Y-35694D01*
X43218Y-35694D02*
X45970Y-35694D01*
X41775Y-35694D02*
X42270Y-35694D01*
X54338Y-35614D02*
X59225Y-35614D01*
X43138Y-35614D02*
X45890Y-35614D01*
X41775Y-35614D02*
X42190Y-35614D01*
X54335Y-35534D02*
X59225Y-35534D01*
X43058Y-35534D02*
X45810Y-35534D01*
X41775Y-35534D02*
X42110Y-35534D01*
X54335Y-35454D02*
X59225Y-35454D01*
X42978Y-35454D02*
X45741Y-35454D01*
X41775Y-35454D02*
X42041Y-35454D01*
X54335Y-35374D02*
X59225Y-35374D01*
X42898Y-35374D02*
X45690Y-35374D01*
X41775Y-35374D02*
X41990Y-35374D01*
X54335Y-35294D02*
X59225Y-35294D01*
X42818Y-35294D02*
X45673Y-35294D01*
X41775Y-35294D02*
X41973Y-35294D01*
X54335Y-35214D02*
X59225Y-35214D01*
X42738Y-35214D02*
X45665Y-35214D01*
X41775Y-35214D02*
X41965Y-35214D01*
X54335Y-35134D02*
X59225Y-35134D01*
X42658Y-35134D02*
X45665Y-35134D01*
X41775Y-35134D02*
X41965Y-35134D01*
X57214Y-35054D02*
X59225Y-35054D01*
X56198Y-35054D02*
X56785Y-35054D01*
X55214Y-35054D02*
X55817Y-35054D01*
X54335Y-35054D02*
X54785Y-35054D01*
X45214Y-35054D02*
X45665Y-35054D01*
X44214Y-35054D02*
X44785Y-35054D01*
X43214Y-35054D02*
X43785Y-35054D01*
X42635Y-35054D02*
X42785Y-35054D01*
X41775Y-35054D02*
X41965Y-35054D01*
X57366Y-34974D02*
X59225Y-34974D01*
X56318Y-34974D02*
X56634Y-34974D01*
X55366Y-34974D02*
X55681Y-34974D01*
X54364Y-34974D02*
X54634Y-34974D01*
X45366Y-34974D02*
X45634Y-34974D01*
X44365Y-34974D02*
X44633Y-34974D01*
X43365Y-34974D02*
X43633Y-34974D01*
X41775Y-34974D02*
X41965Y-34974D01*
X57446Y-34894D02*
X59225Y-34894D01*
X56323Y-34894D02*
X56554Y-34894D01*
X55446Y-34894D02*
X55677Y-34894D01*
X54444Y-34894D02*
X54554Y-34894D01*
X45446Y-34894D02*
X45554Y-34894D01*
X44445Y-34894D02*
X44553Y-34894D01*
X43445Y-34894D02*
X43553Y-34894D01*
X41775Y-34894D02*
X41965Y-34894D01*
X57512Y-34814D02*
X59225Y-34814D01*
X56487Y-34814D02*
X56487Y-34814D01*
X56243Y-34814D02*
X56385Y-34814D01*
X55615Y-34814D02*
X55757Y-34814D01*
X55512Y-34814D02*
X55512Y-34814D01*
X41775Y-34814D02*
X41965Y-34814D01*
X57545Y-34734D02*
X59225Y-34734D01*
X56163Y-34734D02*
X56305Y-34734D01*
X55695Y-34734D02*
X55837Y-34734D01*
X41775Y-34734D02*
X41965Y-34734D01*
X57579Y-34654D02*
X59225Y-34654D01*
X56083Y-34654D02*
X56225Y-34654D01*
X55775Y-34654D02*
X55917Y-34654D01*
X41775Y-34654D02*
X41965Y-34654D01*
X57594Y-34574D02*
X59225Y-34574D01*
X56003Y-34574D02*
X56145Y-34574D01*
X55855Y-34574D02*
X55997Y-34574D01*
X41775Y-34574D02*
X41965Y-34574D01*
X57594Y-34494D02*
X59225Y-34494D01*
X55923Y-34494D02*
X56077Y-34494D01*
X41775Y-34494D02*
X41965Y-34494D01*
X57594Y-34414D02*
X59225Y-34414D01*
X56015Y-34414D02*
X56157Y-34414D01*
X55843Y-34414D02*
X55985Y-34414D01*
X41775Y-34414D02*
X41965Y-34414D01*
X57575Y-34334D02*
X59225Y-34334D01*
X56095Y-34334D02*
X56237Y-34334D01*
X55763Y-34334D02*
X55905Y-34334D01*
X41775Y-34334D02*
X41965Y-34334D01*
X57542Y-34254D02*
X59225Y-34254D01*
X56175Y-34254D02*
X56317Y-34254D01*
X55683Y-34254D02*
X55825Y-34254D01*
X41775Y-34254D02*
X41965Y-34254D01*
X57509Y-34174D02*
X59225Y-34174D01*
X56452Y-34174D02*
X56492Y-34174D01*
X56255Y-34174D02*
X56397Y-34174D01*
X55603Y-34174D02*
X55745Y-34174D01*
X55508Y-34174D02*
X55548Y-34174D01*
X41775Y-34174D02*
X41965Y-34174D01*
X57434Y-34094D02*
X59225Y-34094D01*
X56335Y-34094D02*
X56566Y-34094D01*
X55434Y-34094D02*
X55665Y-34094D01*
X54434Y-34094D02*
X54566Y-34094D01*
X53434Y-34094D02*
X53566Y-34094D01*
X52434Y-34094D02*
X52566Y-34094D01*
X51434Y-34094D02*
X51566Y-34094D01*
X50434Y-34094D02*
X50565Y-34094D01*
X49434Y-34094D02*
X49566Y-34094D01*
X48434Y-34094D02*
X48566Y-34094D01*
X47434Y-34094D02*
X47566Y-34094D01*
X46434Y-34094D02*
X46566Y-34094D01*
X41775Y-34094D02*
X41965Y-34094D01*
X57354Y-34014D02*
X59225Y-34014D01*
X56315Y-34014D02*
X56646Y-34014D01*
X55354Y-34014D02*
X55686Y-34014D01*
X54354Y-34014D02*
X54646Y-34014D01*
X53354Y-34014D02*
X53646Y-34014D01*
X52354Y-34014D02*
X52646Y-34014D01*
X51354Y-34014D02*
X51646Y-34014D01*
X50354Y-34014D02*
X50646Y-34014D01*
X49354Y-34014D02*
X49646Y-34014D01*
X48354Y-34014D02*
X48646Y-34014D01*
X47354Y-34014D02*
X47646Y-34014D01*
X46360Y-34014D02*
X46646Y-34014D01*
X41775Y-34014D02*
X41965Y-34014D01*
X57186Y-33934D02*
X59225Y-33934D01*
X56150Y-33934D02*
X56815Y-33934D01*
X55186Y-33934D02*
X55830Y-33934D01*
X54335Y-33934D02*
X54815Y-33934D01*
X53186Y-33934D02*
X53665Y-33934D01*
X52186Y-33934D02*
X52815Y-33934D01*
X51186Y-33934D02*
X51815Y-33934D01*
X50186Y-33934D02*
X50815Y-33934D01*
X49186Y-33934D02*
X49815Y-33934D01*
X48186Y-33934D02*
X48815Y-33934D01*
X47186Y-33934D02*
X47815Y-33934D01*
X46440Y-33934D02*
X46815Y-33934D01*
X41775Y-33934D02*
X41965Y-33934D01*
X54335Y-33854D02*
X59225Y-33854D01*
X46520Y-33854D02*
X53665Y-33854D01*
X41775Y-33854D02*
X41965Y-33854D01*
X54335Y-33774D02*
X59225Y-33774D01*
X46600Y-33774D02*
X53665Y-33774D01*
X41775Y-33774D02*
X41965Y-33774D01*
X54335Y-33694D02*
X59225Y-33694D01*
X46680Y-33694D02*
X53665Y-33694D01*
X41775Y-33694D02*
X41965Y-33694D01*
X54408Y-33614D02*
X59225Y-33614D01*
X46760Y-33614D02*
X53665Y-33614D01*
X41775Y-33614D02*
X41965Y-33614D01*
X54488Y-33534D02*
X59225Y-33534D01*
X46840Y-33534D02*
X53669Y-33534D01*
X41775Y-33534D02*
X41965Y-33534D01*
X54568Y-33454D02*
X59225Y-33454D01*
X46920Y-33454D02*
X53685Y-33454D01*
X41775Y-33454D02*
X41965Y-33454D01*
X54648Y-33374D02*
X59225Y-33374D01*
X47000Y-33374D02*
X53723Y-33374D01*
X41775Y-33374D02*
X41981Y-33374D01*
X54728Y-33294D02*
X59225Y-33294D01*
X47080Y-33294D02*
X53782Y-33294D01*
X41775Y-33294D02*
X42010Y-33294D01*
X54808Y-33214D02*
X59225Y-33214D01*
X47160Y-33214D02*
X53862Y-33214D01*
X41775Y-33214D02*
X42063Y-33214D01*
X54888Y-33134D02*
X59225Y-33134D01*
X47240Y-33134D02*
X53942Y-33134D01*
X41775Y-33134D02*
X42142Y-33134D01*
X54968Y-33054D02*
X59225Y-33054D01*
X47320Y-33054D02*
X54022Y-33054D01*
X41775Y-33054D02*
X42222Y-33054D01*
X55048Y-32974D02*
X59225Y-32974D01*
X47400Y-32974D02*
X54102Y-32974D01*
X41775Y-32974D02*
X42302Y-32974D01*
X55128Y-32894D02*
X59225Y-32894D01*
X47480Y-32894D02*
X54182Y-32894D01*
X41775Y-32894D02*
X42382Y-32894D01*
X55208Y-32814D02*
X59225Y-32814D01*
X47560Y-32814D02*
X54262Y-32814D01*
X41775Y-32814D02*
X42462Y-32814D01*
X55288Y-32734D02*
X59225Y-32734D01*
X47640Y-32734D02*
X54342Y-32734D01*
X41775Y-32734D02*
X42542Y-32734D01*
X55368Y-32654D02*
X59225Y-32654D01*
X47720Y-32654D02*
X54422Y-32654D01*
X41775Y-32654D02*
X42622Y-32654D01*
X55448Y-32574D02*
X59225Y-32574D01*
X47800Y-32574D02*
X54502Y-32574D01*
X41775Y-32574D02*
X42702Y-32574D01*
X55528Y-32494D02*
X59225Y-32494D01*
X47880Y-32494D02*
X54582Y-32494D01*
X41775Y-32494D02*
X42782Y-32494D01*
X55608Y-32414D02*
X59225Y-32414D01*
X47960Y-32414D02*
X54662Y-32414D01*
X41775Y-32414D02*
X42862Y-32414D01*
X55688Y-32334D02*
X59225Y-32334D01*
X48040Y-32334D02*
X54742Y-32334D01*
X41775Y-32334D02*
X42942Y-32334D01*
X55768Y-32254D02*
X59225Y-32254D01*
X48120Y-32254D02*
X54822Y-32254D01*
X41775Y-32254D02*
X43022Y-32254D01*
X55848Y-32174D02*
X59225Y-32174D01*
X48200Y-32174D02*
X54902Y-32174D01*
X41775Y-32174D02*
X43102Y-32174D01*
X55928Y-32094D02*
X59225Y-32094D01*
X48280Y-32094D02*
X54982Y-32094D01*
X41775Y-32094D02*
X43182Y-32094D01*
X56008Y-32014D02*
X59225Y-32014D01*
X48360Y-32014D02*
X55062Y-32014D01*
X41775Y-32014D02*
X43262Y-32014D01*
X56088Y-31934D02*
X59225Y-31934D01*
X48440Y-31934D02*
X55142Y-31934D01*
X41775Y-31934D02*
X43342Y-31934D01*
X56168Y-31854D02*
X59225Y-31854D01*
X48520Y-31854D02*
X55222Y-31854D01*
X41775Y-31854D02*
X43422Y-31854D01*
X56248Y-31774D02*
X59225Y-31774D01*
X51780Y-31774D02*
X55302Y-31774D01*
X41775Y-31774D02*
X43502Y-31774D01*
X56328Y-31694D02*
X59225Y-31694D01*
X51880Y-31694D02*
X55382Y-31694D01*
X41775Y-31694D02*
X43582Y-31694D01*
X56408Y-31614D02*
X59225Y-31614D01*
X51960Y-31614D02*
X55462Y-31614D01*
X41775Y-31614D02*
X43662Y-31614D01*
X56488Y-31534D02*
X59225Y-31534D01*
X52040Y-31534D02*
X55542Y-31534D01*
X41775Y-31534D02*
X43742Y-31534D01*
X56568Y-31454D02*
X59225Y-31454D01*
X52120Y-31454D02*
X55622Y-31454D01*
X41775Y-31454D02*
X43822Y-31454D01*
X56648Y-31374D02*
X59225Y-31374D01*
X52200Y-31374D02*
X55702Y-31374D01*
X41775Y-31374D02*
X43902Y-31374D01*
X56728Y-31294D02*
X59225Y-31294D01*
X52280Y-31294D02*
X55782Y-31294D01*
X41775Y-31294D02*
X43982Y-31294D01*
X56808Y-31214D02*
X59225Y-31214D01*
X52360Y-31214D02*
X55862Y-31214D01*
X41775Y-31214D02*
X44062Y-31214D01*
X56888Y-31134D02*
X59225Y-31134D01*
X52440Y-31134D02*
X55942Y-31134D01*
X41775Y-31134D02*
X44142Y-31134D01*
X56968Y-31054D02*
X59225Y-31054D01*
X52520Y-31054D02*
X56022Y-31054D01*
X41775Y-31054D02*
X44222Y-31054D01*
X57048Y-30974D02*
X59225Y-30974D01*
X52600Y-30974D02*
X56102Y-30974D01*
X41775Y-30974D02*
X44302Y-30974D01*
X57128Y-30894D02*
X59225Y-30894D01*
X52680Y-30894D02*
X56182Y-30894D01*
X41775Y-30894D02*
X44382Y-30894D01*
X57208Y-30814D02*
X59225Y-30814D01*
X52760Y-30814D02*
X56262Y-30814D01*
X41775Y-30814D02*
X44462Y-30814D01*
X57288Y-30734D02*
X59225Y-30734D01*
X52840Y-30734D02*
X56342Y-30734D01*
X41775Y-30734D02*
X44542Y-30734D01*
X57368Y-30654D02*
X59225Y-30654D01*
X52920Y-30654D02*
X56422Y-30654D01*
X41775Y-30654D02*
X44622Y-30654D01*
X57448Y-30574D02*
X59225Y-30574D01*
X53000Y-30574D02*
X56502Y-30574D01*
X41775Y-30574D02*
X44665Y-30574D01*
X57528Y-30494D02*
X59225Y-30494D01*
X53080Y-30494D02*
X56582Y-30494D01*
X41775Y-30494D02*
X44665Y-30494D01*
X57608Y-30414D02*
X59225Y-30414D01*
X53160Y-30414D02*
X56662Y-30414D01*
X41775Y-30414D02*
X44665Y-30414D01*
X57688Y-30334D02*
X59225Y-30334D01*
X53238Y-30334D02*
X56742Y-30334D01*
X41775Y-30334D02*
X44665Y-30334D01*
X57768Y-30254D02*
X59225Y-30254D01*
X53291Y-30254D02*
X56822Y-30254D01*
X41775Y-30254D02*
X44665Y-30254D01*
X57848Y-30174D02*
X59225Y-30174D01*
X53319Y-30174D02*
X56902Y-30174D01*
X41775Y-30174D02*
X44665Y-30174D01*
X57928Y-30094D02*
X59225Y-30094D01*
X53334Y-30094D02*
X56982Y-30094D01*
X41775Y-30094D02*
X44665Y-30094D01*
X58008Y-30014D02*
X59225Y-30014D01*
X53334Y-30014D02*
X57062Y-30014D01*
X41775Y-30014D02*
X44665Y-30014D01*
X58088Y-29934D02*
X59225Y-29934D01*
X53334Y-29934D02*
X57142Y-29934D01*
X41775Y-29934D02*
X44665Y-29934D01*
X58168Y-29854D02*
X59225Y-29854D01*
X53334Y-29854D02*
X57222Y-29854D01*
X41775Y-29854D02*
X44665Y-29854D01*
X58248Y-29774D02*
X59225Y-29774D01*
X53334Y-29774D02*
X57302Y-29774D01*
X41775Y-29774D02*
X44665Y-29774D01*
X58328Y-29694D02*
X59225Y-29694D01*
X53334Y-29694D02*
X57382Y-29694D01*
X41775Y-29694D02*
X44665Y-29694D01*
X58408Y-29614D02*
X59225Y-29614D01*
X53334Y-29614D02*
X57462Y-29614D01*
X41775Y-29614D02*
X44665Y-29614D01*
X58472Y-29534D02*
X59225Y-29534D01*
X53334Y-29534D02*
X57542Y-29534D01*
X41775Y-29534D02*
X44665Y-29534D01*
X58513Y-29454D02*
X59225Y-29454D01*
X53334Y-29454D02*
X57622Y-29454D01*
X41775Y-29454D02*
X44665Y-29454D01*
X58530Y-29374D02*
X59225Y-29374D01*
X53334Y-29374D02*
X57702Y-29374D01*
X41775Y-29374D02*
X44665Y-29374D01*
X58535Y-29294D02*
X59225Y-29294D01*
X53334Y-29294D02*
X57782Y-29294D01*
X41775Y-29294D02*
X44665Y-29294D01*
X58535Y-29214D02*
X59225Y-29214D01*
X53334Y-29214D02*
X57862Y-29214D01*
X41775Y-29214D02*
X44665Y-29214D01*
X58535Y-29134D02*
X59225Y-29134D01*
X53334Y-29134D02*
X57865Y-29134D01*
X41775Y-29134D02*
X44665Y-29134D01*
X58535Y-29054D02*
X59225Y-29054D01*
X57443Y-29054D02*
X57865Y-29054D01*
X56214Y-29054D02*
X56557Y-29054D01*
X55214Y-29054D02*
X55785Y-29054D01*
X54198Y-29054D02*
X54785Y-29054D01*
X53334Y-29054D02*
X53817Y-29054D01*
X44214Y-29054D02*
X44665Y-29054D01*
X43214Y-29054D02*
X43785Y-29054D01*
X41775Y-29054D02*
X42785Y-29054D01*
X58535Y-28974D02*
X59225Y-28974D01*
X57516Y-28974D02*
X57865Y-28974D01*
X56366Y-28974D02*
X56484Y-28974D01*
X55365Y-28974D02*
X55634Y-28974D01*
X54318Y-28974D02*
X54634Y-28974D01*
X53365Y-28974D02*
X53681Y-28974D01*
X44365Y-28974D02*
X44633Y-28974D01*
X43365Y-28974D02*
X43633Y-28974D01*
X41775Y-28974D02*
X42634Y-28974D01*
X58535Y-28894D02*
X59225Y-28894D01*
X57549Y-28894D02*
X57865Y-28894D01*
X56446Y-28894D02*
X56451Y-28894D01*
X55445Y-28894D02*
X55554Y-28894D01*
X54323Y-28894D02*
X54554Y-28894D01*
X53445Y-28894D02*
X53677Y-28894D01*
X44445Y-28894D02*
X44553Y-28894D01*
X43445Y-28894D02*
X43553Y-28894D01*
X41775Y-28894D02*
X42554Y-28894D01*
X58535Y-28814D02*
X59225Y-28814D01*
X57549Y-28814D02*
X57865Y-28814D01*
X54487Y-28814D02*
X54487Y-28814D01*
X54243Y-28814D02*
X54385Y-28814D01*
X53615Y-28814D02*
X53757Y-28814D01*
X53512Y-28814D02*
X53512Y-28814D01*
X41775Y-28814D02*
X42486Y-28814D01*
X58535Y-28734D02*
X59225Y-28734D01*
X57549Y-28734D02*
X57865Y-28734D01*
X54163Y-28734D02*
X54305Y-28734D01*
X53695Y-28734D02*
X53837Y-28734D01*
X41775Y-28734D02*
X42453Y-28734D01*
X58535Y-28654D02*
X59225Y-28654D01*
X57549Y-28654D02*
X57865Y-28654D01*
X54083Y-28654D02*
X54225Y-28654D01*
X53775Y-28654D02*
X53917Y-28654D01*
X41775Y-28654D02*
X42420Y-28654D01*
X58535Y-28574D02*
X59225Y-28574D01*
X57549Y-28574D02*
X57865Y-28574D01*
X54003Y-28574D02*
X54145Y-28574D01*
X53855Y-28574D02*
X53997Y-28574D01*
X41775Y-28574D02*
X42406Y-28574D01*
X58535Y-28494D02*
X59225Y-28494D01*
X57549Y-28494D02*
X57865Y-28494D01*
X53923Y-28494D02*
X54077Y-28494D01*
X41775Y-28494D02*
X42406Y-28494D01*
X58535Y-28414D02*
X59225Y-28414D01*
X57549Y-28414D02*
X57865Y-28414D01*
X54015Y-28414D02*
X54157Y-28414D01*
X53843Y-28414D02*
X53985Y-28414D01*
X41775Y-28414D02*
X42406Y-28414D01*
X58535Y-28334D02*
X59225Y-28334D01*
X57549Y-28334D02*
X57865Y-28334D01*
X54095Y-28334D02*
X54237Y-28334D01*
X53763Y-28334D02*
X53905Y-28334D01*
X41775Y-28334D02*
X42426Y-28334D01*
X58535Y-28254D02*
X59225Y-28254D01*
X57549Y-28254D02*
X57865Y-28254D01*
X54175Y-28254D02*
X54317Y-28254D01*
X53683Y-28254D02*
X53825Y-28254D01*
X41775Y-28254D02*
X42460Y-28254D01*
X58535Y-28174D02*
X59225Y-28174D01*
X57549Y-28174D02*
X57865Y-28174D01*
X54452Y-28174D02*
X54492Y-28174D01*
X54255Y-28174D02*
X54397Y-28174D01*
X53603Y-28174D02*
X53745Y-28174D01*
X53508Y-28174D02*
X53548Y-28174D01*
X41775Y-28174D02*
X42493Y-28174D01*
X58535Y-28094D02*
X59225Y-28094D01*
X57545Y-28094D02*
X57865Y-28094D01*
X56434Y-28094D02*
X56456Y-28094D01*
X55434Y-28094D02*
X55566Y-28094D01*
X54335Y-28094D02*
X54566Y-28094D01*
X53434Y-28094D02*
X53665Y-28094D01*
X52435Y-28094D02*
X52566Y-28094D01*
X51434Y-28094D02*
X51566Y-28094D01*
X50434Y-28094D02*
X50565Y-28094D01*
X49434Y-28094D02*
X49566Y-28094D01*
X48434Y-28094D02*
X48566Y-28094D01*
X47435Y-28094D02*
X47566Y-28094D01*
X46434Y-28094D02*
X46565Y-28094D01*
X45435Y-28094D02*
X45566Y-28094D01*
X44434Y-28094D02*
X44565Y-28094D01*
X43435Y-28094D02*
X43566Y-28094D01*
X41775Y-28094D02*
X42566Y-28094D01*
X58535Y-28014D02*
X59225Y-28014D01*
X57511Y-28014D02*
X57865Y-28014D01*
X56354Y-28014D02*
X56489Y-28014D01*
X55354Y-28014D02*
X55646Y-28014D01*
X54315Y-28014D02*
X54615Y-28014D01*
X53354Y-28014D02*
X53686Y-28014D01*
X52355Y-28014D02*
X52646Y-28014D01*
X51354Y-28014D02*
X51646Y-28014D01*
X50354Y-28014D02*
X50646Y-28014D01*
X49354Y-28014D02*
X49646Y-28014D01*
X48354Y-28014D02*
X48646Y-28014D01*
X47355Y-28014D02*
X47646Y-28014D01*
X46354Y-28014D02*
X46646Y-28014D01*
X45355Y-28014D02*
X45646Y-28014D01*
X44354Y-28014D02*
X44646Y-28014D01*
X43355Y-28014D02*
X43646Y-28014D01*
X41775Y-28014D02*
X42646Y-28014D01*
X58535Y-27934D02*
X59225Y-27934D01*
X57418Y-27934D02*
X57865Y-27934D01*
X56186Y-27934D02*
X56584Y-27934D01*
X55335Y-27934D02*
X55815Y-27934D01*
X54150Y-27934D02*
X54535Y-27934D01*
X53186Y-27934D02*
X53830Y-27934D01*
X52186Y-27934D02*
X52815Y-27934D01*
X51186Y-27934D02*
X51815Y-27934D01*
X50186Y-27934D02*
X50815Y-27934D01*
X49186Y-27934D02*
X49815Y-27934D01*
X48186Y-27934D02*
X48815Y-27934D01*
X47186Y-27934D02*
X47815Y-27934D01*
X46186Y-27934D02*
X46815Y-27934D01*
X45186Y-27934D02*
X45815Y-27934D01*
X44186Y-27934D02*
X44815Y-27934D01*
X43186Y-27934D02*
X43815Y-27934D01*
X41775Y-27934D02*
X42815Y-27934D01*
X58535Y-27854D02*
X59225Y-27854D01*
X55321Y-27854D02*
X57865Y-27854D01*
X41775Y-27854D02*
X54455Y-27854D01*
X58535Y-27774D02*
X59225Y-27774D01*
X55294Y-27774D02*
X57865Y-27774D01*
X41775Y-27774D02*
X54375Y-27774D01*
X58535Y-27694D02*
X59225Y-27694D01*
X55241Y-27694D02*
X57865Y-27694D01*
X41775Y-27694D02*
X54295Y-27694D01*
X58535Y-27614D02*
X59225Y-27614D01*
X55163Y-27614D02*
X57865Y-27614D01*
X41775Y-27614D02*
X54215Y-27614D01*
X58535Y-27534D02*
X59225Y-27534D01*
X55083Y-27534D02*
X57865Y-27534D01*
X41775Y-27534D02*
X50044Y-27534D01*
X58535Y-27454D02*
X59225Y-27454D01*
X55003Y-27454D02*
X57865Y-27454D01*
X41775Y-27454D02*
X49839Y-27454D01*
X58535Y-27374D02*
X59225Y-27374D01*
X54923Y-27374D02*
X57865Y-27374D01*
X41775Y-27374D02*
X49749Y-27374D01*
X58535Y-27294D02*
X59225Y-27294D01*
X54843Y-27294D02*
X57865Y-27294D01*
X41775Y-27294D02*
X49669Y-27294D01*
X58535Y-27214D02*
X59225Y-27214D01*
X54763Y-27214D02*
X57840Y-27214D01*
X41775Y-27214D02*
X49589Y-27214D01*
X58535Y-27134D02*
X59225Y-27134D01*
X54683Y-27134D02*
X57760Y-27134D01*
X41775Y-27134D02*
X49509Y-27134D01*
X58526Y-27054D02*
X59225Y-27054D01*
X54603Y-27054D02*
X57680Y-27054D01*
X41775Y-27054D02*
X49429Y-27054D01*
X58510Y-26974D02*
X59225Y-26974D01*
X54523Y-26974D02*
X57600Y-26974D01*
X41775Y-26974D02*
X49349Y-26974D01*
X58458Y-26894D02*
X59225Y-26894D01*
X54408Y-26894D02*
X57520Y-26894D01*
X41775Y-26894D02*
X49269Y-26894D01*
X58388Y-26814D02*
X59225Y-26814D01*
X50138Y-26814D02*
X57440Y-26814D01*
X41775Y-26814D02*
X49189Y-26814D01*
X58308Y-26734D02*
X59225Y-26734D01*
X50058Y-26734D02*
X57360Y-26734D01*
X41775Y-26734D02*
X49109Y-26734D01*
X58228Y-26654D02*
X59225Y-26654D01*
X49978Y-26654D02*
X57280Y-26654D01*
X41775Y-26654D02*
X49029Y-26654D01*
X58148Y-26574D02*
X59225Y-26574D01*
X49898Y-26574D02*
X57200Y-26574D01*
X41775Y-26574D02*
X48949Y-26574D01*
X58068Y-26494D02*
X59225Y-26494D01*
X50241Y-26494D02*
X57120Y-26494D01*
X45164Y-26494D02*
X48542Y-26494D01*
X41775Y-26494D02*
X44853Y-26494D01*
X57988Y-26414D02*
X59225Y-26414D01*
X50362Y-26414D02*
X57040Y-26414D01*
X45276Y-26414D02*
X48477Y-26414D01*
X41775Y-26414D02*
X44723Y-26414D01*
X57908Y-26334D02*
X59225Y-26334D01*
X50442Y-26334D02*
X56960Y-26334D01*
X45263Y-26334D02*
X48451Y-26334D01*
X41775Y-26334D02*
X44737Y-26334D01*
X57828Y-26254D02*
X59225Y-26254D01*
X50488Y-26254D02*
X56880Y-26254D01*
X45456Y-26254D02*
X48451Y-26254D01*
X45183Y-26254D02*
X45325Y-26254D01*
X44675Y-26254D02*
X44817Y-26254D01*
X41775Y-26254D02*
X44542Y-26254D01*
X57748Y-26174D02*
X59225Y-26174D01*
X50521Y-26174D02*
X56800Y-26174D01*
X45484Y-26174D02*
X48451Y-26174D01*
X45103Y-26174D02*
X45245Y-26174D01*
X44755Y-26174D02*
X44897Y-26174D01*
X41775Y-26174D02*
X44509Y-26174D01*
X57668Y-26094D02*
X59225Y-26094D01*
X50549Y-26094D02*
X56720Y-26094D01*
X45512Y-26094D02*
X48451Y-26094D01*
X45023Y-26094D02*
X45165Y-26094D01*
X44835Y-26094D02*
X44977Y-26094D01*
X41775Y-26094D02*
X44490Y-26094D01*
X57588Y-26014D02*
X59225Y-26014D01*
X52693Y-26014D02*
X56306Y-26014D01*
X50549Y-26014D02*
X52306Y-26014D01*
X45516Y-26014D02*
X48451Y-26014D01*
X44915Y-26014D02*
X45085Y-26014D01*
X41775Y-26014D02*
X44485Y-26014D01*
X57508Y-25934D02*
X59225Y-25934D01*
X52842Y-25934D02*
X56158Y-25934D01*
X50549Y-25934D02*
X52158Y-25934D01*
X45512Y-25934D02*
X48451Y-25934D01*
X44863Y-25934D02*
X45137Y-25934D01*
X41775Y-25934D02*
X44481Y-25934D01*
X57428Y-25854D02*
X59225Y-25854D01*
X52922Y-25854D02*
X56078Y-25854D01*
X50534Y-25854D02*
X52078Y-25854D01*
X45502Y-25854D02*
X48451Y-25854D01*
X45075Y-25854D02*
X45217Y-25854D01*
X44783Y-25854D02*
X44925Y-25854D01*
X41775Y-25854D02*
X44506Y-25854D01*
X57348Y-25774D02*
X59225Y-25774D01*
X52980Y-25774D02*
X56019Y-25774D01*
X50501Y-25774D02*
X52019Y-25774D01*
X45469Y-25774D02*
X48451Y-25774D01*
X45155Y-25774D02*
X45297Y-25774D01*
X44703Y-25774D02*
X44845Y-25774D01*
X41775Y-25774D02*
X44534Y-25774D01*
X57268Y-25694D02*
X59225Y-25694D01*
X53013Y-25694D02*
X55986Y-25694D01*
X50468Y-25694D02*
X51986Y-25694D01*
X45235Y-25694D02*
X48451Y-25694D01*
X41775Y-25694D02*
X44765Y-25694D01*
X57188Y-25614D02*
X59225Y-25614D01*
X53046Y-25614D02*
X55953Y-25614D01*
X50390Y-25614D02*
X51953Y-25614D01*
X45284Y-25614D02*
X48467Y-25614D01*
X41775Y-25614D02*
X44717Y-25614D01*
X57108Y-25534D02*
X59225Y-25534D01*
X53049Y-25534D02*
X55951Y-25534D01*
X50309Y-25534D02*
X51951Y-25534D01*
X45228Y-25534D02*
X48514Y-25534D01*
X41775Y-25534D02*
X44767Y-25534D01*
X57049Y-25454D02*
X59225Y-25454D01*
X53049Y-25454D02*
X55951Y-25454D01*
X50322Y-25454D02*
X51951Y-25454D01*
X45275Y-25454D02*
X48644Y-25454D01*
X41775Y-25454D02*
X44723Y-25454D01*
X57042Y-25374D02*
X59225Y-25374D01*
X53042Y-25374D02*
X55959Y-25374D01*
X50402Y-25374D02*
X51959Y-25374D01*
X45368Y-25374D02*
X48597Y-25374D01*
X41775Y-25374D02*
X44631Y-25374D01*
X57009Y-25294D02*
X59225Y-25294D01*
X53009Y-25294D02*
X55992Y-25294D01*
X50472Y-25294D02*
X51992Y-25294D01*
X41775Y-25294D02*
X44553Y-25294D01*
X56976Y-25214D02*
X59225Y-25214D01*
X52976Y-25214D02*
X56025Y-25214D01*
X50505Y-25214D02*
X52025Y-25214D01*
X41775Y-25214D02*
X44520Y-25214D01*
X56910Y-25134D02*
X59225Y-25134D01*
X52910Y-25134D02*
X56090Y-25134D01*
X50538Y-25134D02*
X52090Y-25134D01*
X41775Y-25134D02*
X44487Y-25134D01*
X56830Y-25054D02*
X59225Y-25054D01*
X52835Y-25054D02*
X56170Y-25054D01*
X50549Y-25054D02*
X52165Y-25054D01*
X41775Y-25054D02*
X44475Y-25054D01*
X56665Y-24974D02*
X59225Y-24974D01*
X52835Y-24974D02*
X56336Y-24974D01*
X50549Y-24974D02*
X52165Y-24974D01*
X41775Y-24974D02*
X44475Y-24974D01*
X52835Y-24894D02*
X59225Y-24894D01*
X50549Y-24894D02*
X52120Y-24894D01*
X41775Y-24894D02*
X44476Y-24894D01*
X52835Y-24814D02*
X59225Y-24814D01*
X50517Y-24814D02*
X52040Y-24814D01*
X41775Y-24814D02*
X44509Y-24814D01*
X52822Y-24734D02*
X59225Y-24734D01*
X50484Y-24734D02*
X51960Y-24734D01*
X49484Y-24734D02*
X49517Y-24734D01*
X41775Y-24734D02*
X44542Y-24734D01*
X52798Y-24654D02*
X59225Y-24654D01*
X50430Y-24654D02*
X51880Y-24654D01*
X49519Y-24654D02*
X49570Y-24654D01*
X45397Y-24654D02*
X48570Y-24654D01*
X41775Y-24654D02*
X44604Y-24654D01*
X52745Y-24574D02*
X59225Y-24574D01*
X50350Y-24574D02*
X51800Y-24574D01*
X49599Y-24574D02*
X49650Y-24574D01*
X45317Y-24574D02*
X48650Y-24574D01*
X41775Y-24574D02*
X44684Y-24574D01*
X52668Y-24494D02*
X59225Y-24494D01*
X50213Y-24494D02*
X51720Y-24494D01*
X49679Y-24494D02*
X49788Y-24494D01*
X45151Y-24494D02*
X48742Y-24494D01*
X41775Y-24494D02*
X44851Y-24494D01*
X52588Y-24414D02*
X59225Y-24414D01*
X49759Y-24414D02*
X51640Y-24414D01*
X41775Y-24414D02*
X48812Y-24414D01*
X52508Y-24334D02*
X59225Y-24334D01*
X49839Y-24334D02*
X51560Y-24334D01*
X41775Y-24334D02*
X48892Y-24334D01*
X52428Y-24254D02*
X59225Y-24254D01*
X49919Y-24254D02*
X51480Y-24254D01*
X41775Y-24254D02*
X48972Y-24254D01*
X52348Y-24174D02*
X59225Y-24174D01*
X41775Y-24174D02*
X49052Y-24174D01*
X52268Y-24094D02*
X59225Y-24094D01*
X41775Y-24094D02*
X49132Y-24094D01*
X52188Y-24014D02*
X59225Y-24014D01*
X41775Y-24014D02*
X49212Y-24014D01*
X52108Y-23934D02*
X59225Y-23934D01*
X41775Y-23934D02*
X49292Y-23934D01*
X52028Y-23854D02*
X59225Y-23854D01*
X41775Y-23854D02*
X49372Y-23854D01*
X51948Y-23774D02*
X59225Y-23774D01*
X41775Y-23774D02*
X49452Y-23774D01*
X51868Y-23694D02*
X59225Y-23694D01*
X41775Y-23694D02*
X49532Y-23694D01*
X51763Y-23614D02*
X59225Y-23614D01*
X41775Y-23614D02*
X49637Y-23614D01*
X41775Y-23534D02*
X59225Y-23534D01*
X41775Y-23454D02*
X59225Y-23454D01*
X58740Y-23374D02*
X59225Y-23374D01*
X42740Y-23374D02*
X58257Y-23374D01*
X41775Y-23374D02*
X42257Y-23374D01*
X58934Y-23294D02*
X59225Y-23294D01*
X42934Y-23294D02*
X58065Y-23294D01*
X41775Y-23294D02*
X42065Y-23294D01*
X59058Y-23214D02*
X59225Y-23214D01*
X43058Y-23214D02*
X57941Y-23214D01*
X41775Y-23214D02*
X41941Y-23214D01*
X59138Y-23134D02*
X59225Y-23134D01*
X43138Y-23134D02*
X57861Y-23134D01*
X41775Y-23134D02*
X41861Y-23134D01*
X59218Y-23054D02*
X59225Y-23054D01*
X43218Y-23054D02*
X57781Y-23054D01*
X41775Y-23054D02*
X41781Y-23054D01*
X43277Y-22974D02*
X57722Y-22974D01*
X43310Y-22894D02*
X57689Y-22894D01*
X43344Y-22814D02*
X57656Y-22814D01*
X43377Y-22734D02*
X57623Y-22734D01*
X43400Y-22654D02*
X57600Y-22654D01*
X43400Y-22574D02*
X57600Y-22574D01*
X43400Y-22494D02*
X57600Y-22494D01*
X43400Y-22414D02*
X57600Y-22414D01*
X43400Y-22334D02*
X57600Y-22334D01*
X43372Y-22254D02*
X57628Y-22254D01*
X43339Y-22174D02*
X57661Y-22174D01*
X43306Y-22094D02*
X57695Y-22094D01*
X43273Y-22014D02*
X57728Y-22014D01*
X43206Y-21934D02*
X57793Y-21934D01*
X43126Y-21854D02*
X57873Y-21854D01*
X57952Y-21774D02*
X57952Y-21774D01*
X57952Y-41225D02*
X57737Y-41009D01*
X57737Y-41009D02*
X57600Y-40678D01*
X57600Y-40678D02*
X57600Y-40320D01*
X57600Y-40320D02*
X57738Y-39989D01*
X57738Y-39989D02*
X57991Y-39737D01*
X57991Y-39737D02*
X58322Y-39600D01*
X58322Y-39600D02*
X58680Y-39600D01*
X58680Y-39600D02*
X59011Y-39738D01*
X59011Y-39738D02*
X59225Y-39952D01*
X59225Y-39952D02*
X59225Y-23047D01*
X59225Y-23047D02*
X59009Y-23263D01*
X59009Y-23263D02*
X58678Y-23400D01*
X58678Y-23400D02*
X58320Y-23400D01*
X58320Y-23400D02*
X57989Y-23262D01*
X57989Y-23262D02*
X57737Y-23009D01*
X57737Y-23009D02*
X57600Y-22678D01*
X57600Y-22678D02*
X57600Y-22320D01*
X57600Y-22320D02*
X57738Y-21989D01*
X57738Y-21989D02*
X57952Y-21774D01*
X57952Y-21774D02*
X43047Y-21775D01*
X43047Y-21775D02*
X43263Y-21991D01*
X43263Y-21991D02*
X43400Y-22322D01*
X43400Y-22322D02*
X43400Y-22680D01*
X43400Y-22680D02*
X43262Y-23011D01*
X43262Y-23011D02*
X43009Y-23263D01*
X43009Y-23263D02*
X42678Y-23400D01*
X42678Y-23400D02*
X42320Y-23400D01*
X42320Y-23400D02*
X41989Y-23262D01*
X41989Y-23262D02*
X41775Y-23047D01*
X41775Y-23047D02*
X41775Y-39952D01*
X41775Y-39952D02*
X41991Y-39737D01*
X41991Y-39737D02*
X42322Y-39600D01*
X42322Y-39600D02*
X42680Y-39600D01*
X42680Y-39600D02*
X43011Y-39738D01*
X43011Y-39738D02*
X43263Y-39991D01*
X43263Y-39991D02*
X43400Y-40322D01*
X43400Y-40322D02*
X43400Y-40680D01*
X43400Y-40680D02*
X43262Y-41011D01*
X43262Y-41011D02*
X43047Y-41225D01*
X43047Y-41225D02*
X49895Y-41225D01*
X49895Y-41225D02*
X49895Y-40525D01*
X49895Y-40525D02*
X49702Y-40445D01*
X49702Y-40445D02*
X49555Y-40297D01*
X49555Y-40297D02*
X49475Y-40104D01*
X49475Y-40104D02*
X49475Y-39895D01*
X49475Y-39895D02*
X49555Y-39702D01*
X49555Y-39702D02*
X49639Y-39618D01*
X49639Y-39618D02*
X49639Y-37290D01*
X49639Y-37290D02*
X49548Y-37267D01*
X49548Y-37267D02*
X49492Y-37130D01*
X49492Y-37130D02*
X49481Y-36926D01*
X49481Y-36926D02*
X49548Y-36733D01*
X49548Y-36733D02*
X49639Y-36710D01*
X49639Y-36710D02*
X49929Y-37000D01*
X49929Y-37000D02*
X49639Y-37290D01*
X49639Y-37290D02*
X49639Y-39618D01*
X49639Y-39618D02*
X49703Y-39555D01*
X49703Y-39555D02*
X49896Y-39475D01*
X49896Y-39475D02*
X49926Y-39475D01*
X49926Y-39475D02*
X49926Y-37519D01*
X49926Y-37519D02*
X49733Y-37452D01*
X49733Y-37452D02*
X49710Y-37361D01*
X49710Y-37361D02*
X50000Y-37071D01*
X50000Y-37071D02*
X50290Y-37361D01*
X50290Y-37361D02*
X50267Y-37452D01*
X50267Y-37452D02*
X50130Y-37508D01*
X50130Y-37508D02*
X49926Y-37519D01*
X49926Y-37519D02*
X49926Y-39475D01*
X49926Y-39475D02*
X50105Y-39475D01*
X50105Y-39475D02*
X50298Y-39555D01*
X50298Y-39555D02*
X50445Y-39703D01*
X50445Y-39703D02*
X50525Y-39896D01*
X50525Y-39896D02*
X50525Y-40105D01*
X50525Y-40105D02*
X50445Y-40298D01*
X50445Y-40298D02*
X50297Y-40445D01*
X50297Y-40445D02*
X50104Y-40525D01*
X50104Y-40525D02*
X49895Y-40525D01*
X49895Y-40525D02*
X49895Y-41225D01*
X49895Y-41225D02*
X55650Y-41225D01*
X55650Y-41225D02*
X55650Y-40549D01*
X55650Y-40549D02*
X55559Y-40511D01*
X55559Y-40511D02*
X55489Y-40441D01*
X55489Y-40441D02*
X55451Y-40349D01*
X55451Y-40349D02*
X55451Y-39650D01*
X55451Y-39650D02*
X55489Y-39559D01*
X55489Y-39559D02*
X55559Y-39489D01*
X55559Y-39489D02*
X55651Y-39451D01*
X55651Y-39451D02*
X55675Y-39451D01*
X55675Y-39451D02*
X55559Y-39335D01*
X55559Y-39335D02*
X54788Y-39335D01*
X54788Y-39335D02*
X53887Y-40237D01*
X53887Y-40237D02*
X53778Y-40309D01*
X53778Y-40309D02*
X53650Y-40335D01*
X53650Y-40335D02*
X52907Y-40335D01*
X52907Y-40335D02*
X52797Y-40445D01*
X52797Y-40445D02*
X52604Y-40525D01*
X52604Y-40525D02*
X52395Y-40525D01*
X52395Y-40525D02*
X52202Y-40445D01*
X52202Y-40445D02*
X52055Y-40297D01*
X52055Y-40297D02*
X51975Y-40104D01*
X51975Y-40104D02*
X51975Y-39895D01*
X51975Y-39895D02*
X52055Y-39702D01*
X52055Y-39702D02*
X52165Y-39592D01*
X52165Y-39592D02*
X52165Y-39439D01*
X52165Y-39439D02*
X50613Y-37887D01*
X50613Y-37887D02*
X50541Y-37778D01*
X50541Y-37778D02*
X50515Y-37650D01*
X50515Y-37650D02*
X50515Y-37085D01*
X50515Y-37085D02*
X50452Y-37267D01*
X50452Y-37267D02*
X50361Y-37290D01*
X50361Y-37290D02*
X50071Y-37000D01*
X50071Y-37000D02*
X50000Y-36929D01*
X50000Y-36929D02*
X49710Y-36639D01*
X49710Y-36639D02*
X49733Y-36548D01*
X49733Y-36548D02*
X49870Y-36492D01*
X49870Y-36492D02*
X50074Y-36481D01*
X50074Y-36481D02*
X50124Y-36498D01*
X50124Y-36498D02*
X49911Y-36285D01*
X49911Y-36285D02*
X46700Y-36285D01*
X46700Y-36285D02*
X46572Y-36259D01*
X46572Y-36259D02*
X46462Y-36186D01*
X46462Y-36186D02*
X45763Y-35487D01*
X45763Y-35487D02*
X45691Y-35378D01*
X45691Y-35378D02*
X45665Y-35250D01*
X45665Y-35250D02*
X45665Y-35003D01*
X45665Y-35003D02*
X45663Y-35003D01*
X45663Y-35003D02*
X45500Y-34840D01*
X45500Y-34840D02*
X45336Y-35004D01*
X45336Y-35004D02*
X45118Y-35094D01*
X45118Y-35094D02*
X44882Y-35094D01*
X44882Y-35094D02*
X44663Y-35003D01*
X44663Y-35003D02*
X44499Y-34840D01*
X44499Y-34840D02*
X44336Y-35004D01*
X44336Y-35004D02*
X44118Y-35094D01*
X44118Y-35094D02*
X43882Y-35094D01*
X43882Y-35094D02*
X43663Y-35003D01*
X43663Y-35003D02*
X43499Y-34840D01*
X43499Y-34840D02*
X43336Y-35004D01*
X43336Y-35004D02*
X43118Y-35094D01*
X43118Y-35094D02*
X42882Y-35094D01*
X42882Y-35094D02*
X42663Y-35003D01*
X42663Y-35003D02*
X42635Y-34975D01*
X42635Y-34975D02*
X42635Y-35111D01*
X42635Y-35111D02*
X44237Y-36713D01*
X44237Y-36713D02*
X44309Y-36822D01*
X44309Y-36822D02*
X44335Y-36950D01*
X44335Y-36950D02*
X44335Y-37515D01*
X44335Y-37515D02*
X44492Y-37672D01*
X44492Y-37672D02*
X44500Y-37691D01*
X44500Y-37691D02*
X44509Y-37671D01*
X44509Y-37671D02*
X44672Y-37508D01*
X44672Y-37508D02*
X44885Y-37420D01*
X44885Y-37420D02*
X45116Y-37420D01*
X45116Y-37420D02*
X45329Y-37509D01*
X45329Y-37509D02*
X45492Y-37672D01*
X45492Y-37672D02*
X45580Y-37885D01*
X45580Y-37885D02*
X45580Y-38106D01*
X45580Y-38106D02*
X47115Y-39641D01*
X47115Y-39641D02*
X47139Y-39617D01*
X47139Y-39617D02*
X47139Y-37290D01*
X47139Y-37290D02*
X47048Y-37267D01*
X47048Y-37267D02*
X46992Y-37130D01*
X46992Y-37130D02*
X46981Y-36926D01*
X46981Y-36926D02*
X47048Y-36733D01*
X47048Y-36733D02*
X47139Y-36710D01*
X47139Y-36710D02*
X47429Y-37000D01*
X47429Y-37000D02*
X47139Y-37290D01*
X47139Y-37290D02*
X47139Y-39617D01*
X47139Y-39617D02*
X47203Y-39555D01*
X47203Y-39555D02*
X47396Y-39475D01*
X47396Y-39475D02*
X47426Y-39475D01*
X47426Y-39475D02*
X47426Y-37519D01*
X47426Y-37519D02*
X47233Y-37452D01*
X47233Y-37452D02*
X47210Y-37361D01*
X47210Y-37361D02*
X47500Y-37071D01*
X47500Y-37071D02*
X47500Y-36929D01*
X47500Y-36929D02*
X47210Y-36639D01*
X47210Y-36639D02*
X47233Y-36548D01*
X47233Y-36548D02*
X47370Y-36492D01*
X47370Y-36492D02*
X47574Y-36481D01*
X47574Y-36481D02*
X47767Y-36548D01*
X47767Y-36548D02*
X47790Y-36639D01*
X47790Y-36639D02*
X47500Y-36929D01*
X47500Y-36929D02*
X47500Y-37071D01*
X47500Y-37071D02*
X47790Y-37361D01*
X47790Y-37361D02*
X47767Y-37452D01*
X47767Y-37452D02*
X47630Y-37508D01*
X47630Y-37508D02*
X47426Y-37519D01*
X47426Y-37519D02*
X47426Y-39475D01*
X47426Y-39475D02*
X47605Y-39475D01*
X47605Y-39475D02*
X47798Y-39555D01*
X47798Y-39555D02*
X47861Y-39618D01*
X47861Y-39618D02*
X47861Y-37290D01*
X47861Y-37290D02*
X47571Y-37000D01*
X47571Y-37000D02*
X47861Y-36710D01*
X47861Y-36710D02*
X47952Y-36733D01*
X47952Y-36733D02*
X48008Y-36870D01*
X48008Y-36870D02*
X48019Y-37074D01*
X48019Y-37074D02*
X47952Y-37267D01*
X47952Y-37267D02*
X47861Y-37290D01*
X47861Y-37290D02*
X47861Y-39618D01*
X47861Y-39618D02*
X47945Y-39703D01*
X47945Y-39703D02*
X48025Y-39896D01*
X48025Y-39896D02*
X48025Y-40105D01*
X48025Y-40105D02*
X47945Y-40298D01*
X47945Y-40298D02*
X47797Y-40445D01*
X47797Y-40445D02*
X47604Y-40525D01*
X47604Y-40525D02*
X47395Y-40525D01*
X47395Y-40525D02*
X47202Y-40445D01*
X47202Y-40445D02*
X47092Y-40335D01*
X47092Y-40335D02*
X47000Y-40335D01*
X47000Y-40335D02*
X46872Y-40309D01*
X46872Y-40309D02*
X46763Y-40237D01*
X46763Y-40237D02*
X45105Y-38579D01*
X45105Y-38579D02*
X44884Y-38580D01*
X44884Y-38580D02*
X44671Y-38491D01*
X44671Y-38491D02*
X44508Y-38328D01*
X44508Y-38328D02*
X44499Y-38308D01*
X44499Y-38308D02*
X44491Y-38329D01*
X44491Y-38329D02*
X44328Y-38492D01*
X44328Y-38492D02*
X44115Y-38580D01*
X44115Y-38580D02*
X43884Y-38580D01*
X43884Y-38580D02*
X43671Y-38491D01*
X43671Y-38491D02*
X43508Y-38328D01*
X43508Y-38328D02*
X43420Y-38115D01*
X43420Y-38115D02*
X43420Y-37884D01*
X43420Y-37884D02*
X43509Y-37671D01*
X43509Y-37671D02*
X43665Y-37515D01*
X43665Y-37515D02*
X43665Y-37089D01*
X43665Y-37089D02*
X42063Y-35487D01*
X42063Y-35487D02*
X41991Y-35378D01*
X41991Y-35378D02*
X41965Y-35250D01*
X41965Y-35250D02*
X41965Y-33450D01*
X41965Y-33450D02*
X41991Y-33322D01*
X41991Y-33322D02*
X42063Y-33213D01*
X42063Y-33213D02*
X44665Y-30611D01*
X44665Y-30611D02*
X44665Y-29003D01*
X44665Y-29003D02*
X44663Y-29003D01*
X44663Y-29003D02*
X44499Y-28840D01*
X44499Y-28840D02*
X44336Y-29004D01*
X44336Y-29004D02*
X44118Y-29094D01*
X44118Y-29094D02*
X43882Y-29094D01*
X43882Y-29094D02*
X43663Y-29003D01*
X43663Y-29003D02*
X43499Y-28840D01*
X43499Y-28840D02*
X43336Y-29004D01*
X43336Y-29004D02*
X43118Y-29094D01*
X43118Y-29094D02*
X42882Y-29094D01*
X42882Y-29094D02*
X42663Y-29003D01*
X42663Y-29003D02*
X42496Y-28836D01*
X42496Y-28836D02*
X42406Y-28618D01*
X42406Y-28618D02*
X42406Y-28382D01*
X42406Y-28382D02*
X42497Y-28163D01*
X42497Y-28163D02*
X42664Y-27996D01*
X42664Y-27996D02*
X42882Y-27906D01*
X42882Y-27906D02*
X43118Y-27906D01*
X43118Y-27906D02*
X43337Y-27997D01*
X43337Y-27997D02*
X43500Y-28159D01*
X43500Y-28159D02*
X43664Y-27996D01*
X43664Y-27996D02*
X43882Y-27906D01*
X43882Y-27906D02*
X44118Y-27906D01*
X44118Y-27906D02*
X44337Y-27997D01*
X44337Y-27997D02*
X44499Y-28160D01*
X44499Y-28160D02*
X44639Y-28020D01*
X44639Y-28020D02*
X44639Y-26290D01*
X44639Y-26290D02*
X44548Y-26267D01*
X44548Y-26267D02*
X44492Y-26130D01*
X44492Y-26130D02*
X44481Y-25926D01*
X44481Y-25926D02*
X44548Y-25733D01*
X44548Y-25733D02*
X44639Y-25710D01*
X44639Y-25710D02*
X44929Y-26000D01*
X44929Y-26000D02*
X44639Y-26290D01*
X44639Y-26290D02*
X44639Y-28020D01*
X44639Y-28020D02*
X44664Y-27996D01*
X44664Y-27996D02*
X44882Y-27906D01*
X44882Y-27906D02*
X44926Y-27906D01*
X44926Y-27906D02*
X44926Y-26519D01*
X44926Y-26519D02*
X44733Y-26452D01*
X44733Y-26452D02*
X44710Y-26361D01*
X44710Y-26361D02*
X45000Y-26071D01*
X45000Y-26071D02*
X45290Y-26361D01*
X45290Y-26361D02*
X45267Y-26452D01*
X45267Y-26452D02*
X45130Y-26508D01*
X45130Y-26508D02*
X44926Y-26519D01*
X44926Y-26519D02*
X44926Y-27906D01*
X44926Y-27906D02*
X45118Y-27906D01*
X45118Y-27906D02*
X45337Y-27997D01*
X45337Y-27997D02*
X45361Y-28020D01*
X45361Y-28020D02*
X45361Y-26290D01*
X45361Y-26290D02*
X45071Y-26000D01*
X45071Y-26000D02*
X45361Y-25710D01*
X45361Y-25710D02*
X45452Y-25733D01*
X45452Y-25733D02*
X45508Y-25870D01*
X45508Y-25870D02*
X45519Y-26074D01*
X45519Y-26074D02*
X45452Y-26267D01*
X45452Y-26267D02*
X45361Y-26290D01*
X45361Y-26290D02*
X45361Y-28020D01*
X45361Y-28020D02*
X45500Y-28159D01*
X45500Y-28159D02*
X45664Y-27996D01*
X45664Y-27996D02*
X45882Y-27906D01*
X45882Y-27906D02*
X46118Y-27906D01*
X46118Y-27906D02*
X46337Y-27997D01*
X46337Y-27997D02*
X46499Y-28159D01*
X46499Y-28159D02*
X46664Y-27996D01*
X46664Y-27996D02*
X46882Y-27906D01*
X46882Y-27906D02*
X47118Y-27906D01*
X47118Y-27906D02*
X47337Y-27997D01*
X47337Y-27997D02*
X47500Y-28159D01*
X47500Y-28159D02*
X47664Y-27996D01*
X47664Y-27996D02*
X47882Y-27906D01*
X47882Y-27906D02*
X48118Y-27906D01*
X48118Y-27906D02*
X48337Y-27997D01*
X48337Y-27997D02*
X48499Y-28160D01*
X48499Y-28160D02*
X48664Y-27996D01*
X48664Y-27996D02*
X48882Y-27906D01*
X48882Y-27906D02*
X49118Y-27906D01*
X49118Y-27906D02*
X49337Y-27997D01*
X49337Y-27997D02*
X49499Y-28160D01*
X49499Y-28160D02*
X49664Y-27996D01*
X49664Y-27996D02*
X49882Y-27906D01*
X49882Y-27906D02*
X50118Y-27906D01*
X50118Y-27906D02*
X50337Y-27997D01*
X50337Y-27997D02*
X50499Y-28159D01*
X50499Y-28159D02*
X50664Y-27996D01*
X50664Y-27996D02*
X50882Y-27906D01*
X50882Y-27906D02*
X51118Y-27906D01*
X51118Y-27906D02*
X51337Y-27997D01*
X51337Y-27997D02*
X51500Y-28160D01*
X51500Y-28160D02*
X51664Y-27996D01*
X51664Y-27996D02*
X51882Y-27906D01*
X51882Y-27906D02*
X52118Y-27906D01*
X52118Y-27906D02*
X52337Y-27997D01*
X52337Y-27997D02*
X52500Y-28159D01*
X52500Y-28159D02*
X52664Y-27996D01*
X52664Y-27996D02*
X52882Y-27906D01*
X52882Y-27906D02*
X53118Y-27906D01*
X53118Y-27906D02*
X53337Y-27997D01*
X53337Y-27997D02*
X53504Y-28164D01*
X53504Y-28164D02*
X53512Y-28185D01*
X53512Y-28185D02*
X53590Y-28161D01*
X53590Y-28161D02*
X53929Y-28500D01*
X53929Y-28500D02*
X53590Y-28839D01*
X53590Y-28839D02*
X53512Y-28814D01*
X53512Y-28814D02*
X53503Y-28837D01*
X53503Y-28837D02*
X53335Y-29004D01*
X53335Y-29004D02*
X53334Y-30100D01*
X53334Y-30100D02*
X53309Y-30228D01*
X53309Y-30228D02*
X53236Y-30338D01*
X53236Y-30338D02*
X51837Y-31737D01*
X51837Y-31737D02*
X51728Y-31809D01*
X51728Y-31809D02*
X51600Y-31835D01*
X51600Y-31835D02*
X48539Y-31835D01*
X48539Y-31835D02*
X46357Y-34017D01*
X46357Y-34017D02*
X46499Y-34160D01*
X46499Y-34160D02*
X46664Y-33996D01*
X46664Y-33996D02*
X46882Y-33906D01*
X46882Y-33906D02*
X47118Y-33906D01*
X47118Y-33906D02*
X47337Y-33997D01*
X47337Y-33997D02*
X47499Y-34160D01*
X47499Y-34160D02*
X47664Y-33996D01*
X47664Y-33996D02*
X47882Y-33906D01*
X47882Y-33906D02*
X48118Y-33906D01*
X48118Y-33906D02*
X48337Y-33997D01*
X48337Y-33997D02*
X48499Y-34160D01*
X48499Y-34160D02*
X48664Y-33996D01*
X48664Y-33996D02*
X48882Y-33906D01*
X48882Y-33906D02*
X49118Y-33906D01*
X49118Y-33906D02*
X49337Y-33997D01*
X49337Y-33997D02*
X49500Y-34160D01*
X49500Y-34160D02*
X49664Y-33996D01*
X49664Y-33996D02*
X49882Y-33906D01*
X49882Y-33906D02*
X50118Y-33906D01*
X50118Y-33906D02*
X50337Y-33997D01*
X50337Y-33997D02*
X50499Y-34159D01*
X50499Y-34159D02*
X50664Y-33996D01*
X50664Y-33996D02*
X50882Y-33906D01*
X50882Y-33906D02*
X51118Y-33906D01*
X51118Y-33906D02*
X51337Y-33997D01*
X51337Y-33997D02*
X51499Y-34160D01*
X51499Y-34160D02*
X51664Y-33996D01*
X51664Y-33996D02*
X51882Y-33906D01*
X51882Y-33906D02*
X52118Y-33906D01*
X52118Y-33906D02*
X52337Y-33997D01*
X52337Y-33997D02*
X52499Y-34160D01*
X52499Y-34160D02*
X52664Y-33996D01*
X52664Y-33996D02*
X52882Y-33906D01*
X52882Y-33906D02*
X53118Y-33906D01*
X53118Y-33906D02*
X53337Y-33997D01*
X53337Y-33997D02*
X53499Y-34160D01*
X53499Y-34160D02*
X53665Y-33995D01*
X53665Y-33995D02*
X53665Y-33550D01*
X53665Y-33550D02*
X53691Y-33422D01*
X53691Y-33422D02*
X53763Y-33313D01*
X53763Y-33313D02*
X53910Y-33166D01*
X53910Y-33166D02*
X53910Y-29088D01*
X53910Y-29088D02*
X53692Y-29008D01*
X53692Y-29008D02*
X53661Y-28910D01*
X53661Y-28910D02*
X54000Y-28571D01*
X54000Y-28571D02*
X54000Y-28429D01*
X54000Y-28429D02*
X53661Y-28090D01*
X53661Y-28090D02*
X53692Y-27992D01*
X53692Y-27992D02*
X53858Y-27922D01*
X53858Y-27922D02*
X54090Y-27912D01*
X54090Y-27912D02*
X54308Y-27992D01*
X54308Y-27992D02*
X54339Y-28090D01*
X54339Y-28090D02*
X54000Y-28429D01*
X54000Y-28429D02*
X54000Y-28571D01*
X54000Y-28571D02*
X54339Y-28910D01*
X54339Y-28910D02*
X54308Y-29008D01*
X54308Y-29008D02*
X54142Y-29078D01*
X54142Y-29078D02*
X53910Y-29088D01*
X53910Y-29088D02*
X53910Y-33166D01*
X53910Y-33166D02*
X56650Y-30426D01*
X56650Y-30426D02*
X56650Y-29094D01*
X56650Y-29094D02*
X56559Y-29056D01*
X56559Y-29056D02*
X56489Y-28986D01*
X56489Y-28986D02*
X56451Y-28894D01*
X56451Y-28894D02*
X56451Y-28889D01*
X56451Y-28889D02*
X56336Y-29004D01*
X56336Y-29004D02*
X56118Y-29094D01*
X56118Y-29094D02*
X55882Y-29094D01*
X55882Y-29094D02*
X55663Y-29003D01*
X55663Y-29003D02*
X55500Y-28839D01*
X55500Y-28839D02*
X55336Y-29004D01*
X55336Y-29004D02*
X55118Y-29094D01*
X55118Y-29094D02*
X54882Y-29094D01*
X54882Y-29094D02*
X54663Y-29003D01*
X54663Y-29003D02*
X54496Y-28836D01*
X54496Y-28836D02*
X54487Y-28814D01*
X54487Y-28814D02*
X54410Y-28839D01*
X54410Y-28839D02*
X54071Y-28500D01*
X54071Y-28500D02*
X54410Y-28161D01*
X54410Y-28161D02*
X54487Y-28185D01*
X54487Y-28185D02*
X54497Y-28163D01*
X54497Y-28163D02*
X54630Y-28029D01*
X54630Y-28029D02*
X54136Y-27535D01*
X54136Y-27535D02*
X50049Y-27535D01*
X50049Y-27535D02*
X49922Y-27509D01*
X49922Y-27509D02*
X49812Y-27436D01*
X49812Y-27436D02*
X48924Y-26549D01*
X48924Y-26549D02*
X48650Y-26549D01*
X48650Y-26549D02*
X48559Y-26511D01*
X48559Y-26511D02*
X48489Y-26441D01*
X48489Y-26441D02*
X48451Y-26349D01*
X48451Y-26349D02*
X48451Y-25650D01*
X48451Y-25650D02*
X48489Y-25559D01*
X48489Y-25559D02*
X48559Y-25489D01*
X48559Y-25489D02*
X48651Y-25451D01*
X48651Y-25451D02*
X48675Y-25451D01*
X48675Y-25451D02*
X48558Y-25335D01*
X48558Y-25335D02*
X45407Y-25335D01*
X45407Y-25335D02*
X45297Y-25445D01*
X45297Y-25445D02*
X45148Y-25506D01*
X45148Y-25506D02*
X45267Y-25548D01*
X45267Y-25548D02*
X45290Y-25639D01*
X45290Y-25639D02*
X45000Y-25929D01*
X45000Y-25929D02*
X44710Y-25639D01*
X44710Y-25639D02*
X44733Y-25548D01*
X44733Y-25548D02*
X44842Y-25503D01*
X44842Y-25503D02*
X44702Y-25445D01*
X44702Y-25445D02*
X44555Y-25297D01*
X44555Y-25297D02*
X44475Y-25104D01*
X44475Y-25104D02*
X44475Y-24895D01*
X44475Y-24895D02*
X44555Y-24702D01*
X44555Y-24702D02*
X44703Y-24555D01*
X44703Y-24555D02*
X44896Y-24475D01*
X44896Y-24475D02*
X45105Y-24475D01*
X45105Y-24475D02*
X45298Y-24555D01*
X45298Y-24555D02*
X45407Y-24665D01*
X45407Y-24665D02*
X48558Y-24665D01*
X48558Y-24665D02*
X48689Y-24535D01*
X48689Y-24535D02*
X48725Y-24519D01*
X48725Y-24519D02*
X48763Y-24463D01*
X48763Y-24463D02*
X49562Y-23663D01*
X49562Y-23663D02*
X49672Y-23591D01*
X49672Y-23591D02*
X49800Y-23565D01*
X49800Y-23565D02*
X51600Y-23565D01*
X51600Y-23565D02*
X51728Y-23591D01*
X51728Y-23591D02*
X51837Y-23663D01*
X51837Y-23663D02*
X52737Y-24563D01*
X52737Y-24563D02*
X52809Y-24672D01*
X52809Y-24672D02*
X52835Y-24800D01*
X52835Y-24800D02*
X52835Y-25059D01*
X52835Y-25059D02*
X52965Y-25189D01*
X52965Y-25189D02*
X53049Y-25391D01*
X53049Y-25391D02*
X53049Y-25609D01*
X53049Y-25609D02*
X52965Y-25811D01*
X52965Y-25811D02*
X52811Y-25965D01*
X52811Y-25965D02*
X52609Y-26049D01*
X52609Y-26049D02*
X52391Y-26049D01*
X52391Y-26049D02*
X52189Y-25965D01*
X52189Y-25965D02*
X52035Y-25811D01*
X52035Y-25811D02*
X51951Y-25609D01*
X51951Y-25609D02*
X51951Y-25391D01*
X51951Y-25391D02*
X52035Y-25189D01*
X52035Y-25189D02*
X52165Y-25059D01*
X52165Y-25059D02*
X52165Y-24938D01*
X52165Y-24938D02*
X51461Y-24235D01*
X51461Y-24235D02*
X49939Y-24234D01*
X49939Y-24234D02*
X49470Y-24703D01*
X49470Y-24703D02*
X49500Y-24773D01*
X49500Y-24773D02*
X49535Y-24689D01*
X49535Y-24689D02*
X49689Y-24535D01*
X49689Y-24535D02*
X49891Y-24451D01*
X49891Y-24451D02*
X50109Y-24451D01*
X50109Y-24451D02*
X50311Y-24535D01*
X50311Y-24535D02*
X50465Y-24689D01*
X50465Y-24689D02*
X50549Y-24891D01*
X50549Y-24891D02*
X50549Y-25109D01*
X50549Y-25109D02*
X50465Y-25311D01*
X50465Y-25311D02*
X50311Y-25465D01*
X50311Y-25465D02*
X50226Y-25500D01*
X50226Y-25500D02*
X50311Y-25535D01*
X50311Y-25535D02*
X50465Y-25689D01*
X50465Y-25689D02*
X50549Y-25891D01*
X50549Y-25891D02*
X50549Y-26109D01*
X50549Y-26109D02*
X50465Y-26311D01*
X50465Y-26311D02*
X50311Y-26465D01*
X50311Y-26465D02*
X50109Y-26549D01*
X50109Y-26549D02*
X49891Y-26549D01*
X49891Y-26549D02*
X49860Y-26536D01*
X49860Y-26536D02*
X50189Y-26865D01*
X50189Y-26865D02*
X54275Y-26865D01*
X54275Y-26865D02*
X54403Y-26891D01*
X54403Y-26891D02*
X54512Y-26963D01*
X54512Y-26963D02*
X55237Y-27688D01*
X55237Y-27688D02*
X55309Y-27797D01*
X55309Y-27797D02*
X55335Y-27925D01*
X55335Y-27925D02*
X55335Y-27996D01*
X55335Y-27996D02*
X55500Y-28160D01*
X55500Y-28160D02*
X55664Y-27996D01*
X55664Y-27996D02*
X55882Y-27906D01*
X55882Y-27906D02*
X56118Y-27906D01*
X56118Y-27906D02*
X56337Y-27997D01*
X56337Y-27997D02*
X56451Y-28111D01*
X56451Y-28111D02*
X56451Y-28105D01*
X56451Y-28105D02*
X56489Y-28014D01*
X56489Y-28014D02*
X56559Y-27944D01*
X56559Y-27944D02*
X56651Y-27906D01*
X56651Y-27906D02*
X57350Y-27906D01*
X57350Y-27906D02*
X57441Y-27944D01*
X57441Y-27944D02*
X57511Y-28014D01*
X57511Y-28014D02*
X57549Y-28106D01*
X57549Y-28106D02*
X57549Y-28895D01*
X57549Y-28895D02*
X57511Y-28986D01*
X57511Y-28986D02*
X57441Y-29056D01*
X57441Y-29056D02*
X57349Y-29094D01*
X57349Y-29094D02*
X56650Y-29094D01*
X56650Y-29094D02*
X56650Y-30426D01*
X56650Y-30426D02*
X57865Y-29211D01*
X57865Y-29211D02*
X57865Y-27238D01*
X57865Y-27238D02*
X56655Y-26029D01*
X56655Y-26029D02*
X56609Y-26049D01*
X56609Y-26049D02*
X56391Y-26049D01*
X56391Y-26049D02*
X56189Y-25965D01*
X56189Y-25965D02*
X56035Y-25811D01*
X56035Y-25811D02*
X55951Y-25609D01*
X55951Y-25609D02*
X55951Y-25391D01*
X55951Y-25391D02*
X56035Y-25189D01*
X56035Y-25189D02*
X56189Y-25035D01*
X56189Y-25035D02*
X56391Y-24951D01*
X56391Y-24951D02*
X56609Y-24951D01*
X56609Y-24951D02*
X56811Y-25035D01*
X56811Y-25035D02*
X56965Y-25189D01*
X56965Y-25189D02*
X57049Y-25391D01*
X57049Y-25391D02*
X57049Y-25475D01*
X57049Y-25475D02*
X58437Y-26863D01*
X58437Y-26863D02*
X58509Y-26972D01*
X58509Y-26972D02*
X58535Y-27100D01*
X58535Y-27100D02*
X58535Y-29350D01*
X58535Y-29350D02*
X58509Y-29478D01*
X58509Y-29478D02*
X58437Y-29587D01*
X58437Y-29587D02*
X58434Y-29588D01*
X58434Y-29588D02*
X54335Y-33688D01*
X54335Y-33688D02*
X54335Y-33996D01*
X54335Y-33996D02*
X54500Y-34160D01*
X54500Y-34160D02*
X54664Y-33996D01*
X54664Y-33996D02*
X54882Y-33906D01*
X54882Y-33906D02*
X55118Y-33906D01*
X55118Y-33906D02*
X55337Y-33997D01*
X55337Y-33997D02*
X55504Y-34164D01*
X55504Y-34164D02*
X55512Y-34185D01*
X55512Y-34185D02*
X55590Y-34161D01*
X55590Y-34161D02*
X55929Y-34500D01*
X55929Y-34500D02*
X55590Y-34839D01*
X55590Y-34839D02*
X55512Y-34814D01*
X55512Y-34814D02*
X55503Y-34837D01*
X55503Y-34837D02*
X55336Y-35004D01*
X55336Y-35004D02*
X55118Y-35094D01*
X55118Y-35094D02*
X54882Y-35094D01*
X54882Y-35094D02*
X54663Y-35003D01*
X54663Y-35003D02*
X54499Y-34839D01*
X54499Y-34839D02*
X54335Y-35004D01*
X54335Y-35004D02*
X54335Y-35611D01*
X54335Y-35611D02*
X55388Y-36665D01*
X55388Y-36665D02*
X55559Y-36665D01*
X55559Y-36665D02*
X55689Y-36535D01*
X55689Y-36535D02*
X55891Y-36451D01*
X55891Y-36451D02*
X55910Y-36451D01*
X55910Y-36451D02*
X55910Y-35088D01*
X55910Y-35088D02*
X55692Y-35008D01*
X55692Y-35008D02*
X55661Y-34910D01*
X55661Y-34910D02*
X56000Y-34571D01*
X56000Y-34571D02*
X56000Y-34429D01*
X56000Y-34429D02*
X55661Y-34090D01*
X55661Y-34090D02*
X55692Y-33992D01*
X55692Y-33992D02*
X55858Y-33922D01*
X55858Y-33922D02*
X56090Y-33912D01*
X56090Y-33912D02*
X56308Y-33992D01*
X56308Y-33992D02*
X56339Y-34090D01*
X56339Y-34090D02*
X56000Y-34429D01*
X56000Y-34429D02*
X56000Y-34571D01*
X56000Y-34571D02*
X56339Y-34910D01*
X56339Y-34910D02*
X56308Y-35008D01*
X56308Y-35008D02*
X56142Y-35078D01*
X56142Y-35078D02*
X55910Y-35088D01*
X55910Y-35088D02*
X55910Y-36451D01*
X55910Y-36451D02*
X56109Y-36451D01*
X56109Y-36451D02*
X56311Y-36535D01*
X56311Y-36535D02*
X56440Y-36665D01*
X56440Y-36665D02*
X56700Y-36665D01*
X56700Y-36665D02*
X56828Y-36691D01*
X56828Y-36691D02*
X56882Y-36726D01*
X56882Y-36726D02*
X56882Y-35094D01*
X56882Y-35094D02*
X56663Y-35003D01*
X56663Y-35003D02*
X56496Y-34836D01*
X56496Y-34836D02*
X56487Y-34814D01*
X56487Y-34814D02*
X56410Y-34839D01*
X56410Y-34839D02*
X56071Y-34500D01*
X56071Y-34500D02*
X56410Y-34161D01*
X56410Y-34161D02*
X56487Y-34185D01*
X56487Y-34185D02*
X56497Y-34163D01*
X56497Y-34163D02*
X56664Y-33996D01*
X56664Y-33996D02*
X56882Y-33906D01*
X56882Y-33906D02*
X57118Y-33906D01*
X57118Y-33906D02*
X57337Y-33997D01*
X57337Y-33997D02*
X57504Y-34164D01*
X57504Y-34164D02*
X57594Y-34382D01*
X57594Y-34382D02*
X57594Y-34618D01*
X57594Y-34618D02*
X57503Y-34837D01*
X57503Y-34837D02*
X57336Y-35004D01*
X57336Y-35004D02*
X57118Y-35094D01*
X57118Y-35094D02*
X56882Y-35094D01*
X56882Y-35094D02*
X56882Y-36726D01*
X56882Y-36726D02*
X56937Y-36763D01*
X56937Y-36763D02*
X57337Y-37163D01*
X57337Y-37163D02*
X57409Y-37272D01*
X57409Y-37272D02*
X57435Y-37400D01*
X57435Y-37400D02*
X57435Y-39700D01*
X57435Y-39700D02*
X57409Y-39828D01*
X57409Y-39828D02*
X57337Y-39937D01*
X57337Y-39937D02*
X57037Y-40237D01*
X57037Y-40237D02*
X56928Y-40309D01*
X56928Y-40309D02*
X56800Y-40335D01*
X56800Y-40335D02*
X56549Y-40335D01*
X56549Y-40335D02*
X56549Y-40350D01*
X56549Y-40350D02*
X56511Y-40441D01*
X56511Y-40441D02*
X56441Y-40511D01*
X56441Y-40511D02*
X56349Y-40549D01*
X56349Y-40549D02*
X55650Y-40549D01*
X55650Y-40549D02*
X55650Y-41225D01*
X55650Y-41225D02*
X57952Y-41225D01*
X53511Y-39665D02*
X54412Y-38763D01*
X54412Y-38763D02*
X54522Y-38691D01*
X54522Y-38691D02*
X54650Y-38665D01*
X54650Y-38665D02*
X55559Y-38664D01*
X55559Y-38664D02*
X55689Y-38535D01*
X55689Y-38535D02*
X55773Y-38500D01*
X55773Y-38500D02*
X55689Y-38465D01*
X55689Y-38465D02*
X55535Y-38311D01*
X55535Y-38311D02*
X55451Y-38109D01*
X55451Y-38109D02*
X55451Y-37891D01*
X55451Y-37891D02*
X55535Y-37689D01*
X55535Y-37689D02*
X55689Y-37535D01*
X55689Y-37535D02*
X55773Y-37500D01*
X55773Y-37500D02*
X55689Y-37465D01*
X55689Y-37465D02*
X55559Y-37335D01*
X55559Y-37335D02*
X55249Y-37335D01*
X55249Y-37335D02*
X55122Y-37309D01*
X55122Y-37309D02*
X55013Y-37237D01*
X55013Y-37237D02*
X53763Y-35987D01*
X53763Y-35987D02*
X53691Y-35878D01*
X53691Y-35878D02*
X53665Y-35750D01*
X53665Y-35750D02*
X53665Y-35003D01*
X53665Y-35003D02*
X53663Y-35003D01*
X53663Y-35003D02*
X53500Y-34839D01*
X53500Y-34839D02*
X53336Y-35004D01*
X53336Y-35004D02*
X53118Y-35094D01*
X53118Y-35094D02*
X52882Y-35094D01*
X52882Y-35094D02*
X52663Y-35003D01*
X52663Y-35003D02*
X52499Y-34840D01*
X52499Y-34840D02*
X52336Y-35004D01*
X52336Y-35004D02*
X52118Y-35094D01*
X52118Y-35094D02*
X51882Y-35094D01*
X51882Y-35094D02*
X51663Y-35003D01*
X51663Y-35003D02*
X51500Y-34839D01*
X51500Y-34839D02*
X51336Y-35004D01*
X51336Y-35004D02*
X51118Y-35094D01*
X51118Y-35094D02*
X50882Y-35094D01*
X50882Y-35094D02*
X50663Y-35003D01*
X50663Y-35003D02*
X50500Y-34840D01*
X50500Y-34840D02*
X50336Y-35004D01*
X50336Y-35004D02*
X50118Y-35094D01*
X50118Y-35094D02*
X49882Y-35094D01*
X49882Y-35094D02*
X49663Y-35003D01*
X49663Y-35003D02*
X49499Y-34840D01*
X49499Y-34840D02*
X49336Y-35004D01*
X49336Y-35004D02*
X49118Y-35094D01*
X49118Y-35094D02*
X48882Y-35094D01*
X48882Y-35094D02*
X48663Y-35003D01*
X48663Y-35003D02*
X48500Y-34839D01*
X48500Y-34839D02*
X48336Y-35004D01*
X48336Y-35004D02*
X48118Y-35094D01*
X48118Y-35094D02*
X47882Y-35094D01*
X47882Y-35094D02*
X47663Y-35003D01*
X47663Y-35003D02*
X47499Y-34840D01*
X47499Y-34840D02*
X47336Y-35004D01*
X47336Y-35004D02*
X47118Y-35094D01*
X47118Y-35094D02*
X46882Y-35094D01*
X46882Y-35094D02*
X46663Y-35003D01*
X46663Y-35003D02*
X46499Y-34839D01*
X46499Y-34839D02*
X46335Y-35004D01*
X46335Y-35004D02*
X46335Y-35111D01*
X46335Y-35111D02*
X46839Y-35615D01*
X46839Y-35615D02*
X50050Y-35615D01*
X50050Y-35615D02*
X50178Y-35641D01*
X50178Y-35641D02*
X50287Y-35713D01*
X50287Y-35713D02*
X51087Y-36513D01*
X51087Y-36513D02*
X51159Y-36622D01*
X51159Y-36622D02*
X51185Y-36750D01*
X51185Y-36750D02*
X51185Y-37511D01*
X51185Y-37511D02*
X52139Y-38465D01*
X52139Y-38465D02*
X52139Y-37290D01*
X52139Y-37290D02*
X52048Y-37267D01*
X52048Y-37267D02*
X51992Y-37130D01*
X51992Y-37130D02*
X51981Y-36926D01*
X51981Y-36926D02*
X52048Y-36733D01*
X52048Y-36733D02*
X52139Y-36710D01*
X52139Y-36710D02*
X52429Y-37000D01*
X52429Y-37000D02*
X52139Y-37290D01*
X52139Y-37290D02*
X52139Y-38465D01*
X52139Y-38465D02*
X52426Y-38751D01*
X52426Y-38751D02*
X52426Y-37519D01*
X52426Y-37519D02*
X52233Y-37452D01*
X52233Y-37452D02*
X52210Y-37361D01*
X52210Y-37361D02*
X52500Y-37071D01*
X52500Y-37071D02*
X52500Y-36929D01*
X52500Y-36929D02*
X52210Y-36639D01*
X52210Y-36639D02*
X52233Y-36548D01*
X52233Y-36548D02*
X52370Y-36492D01*
X52370Y-36492D02*
X52574Y-36481D01*
X52574Y-36481D02*
X52767Y-36548D01*
X52767Y-36548D02*
X52790Y-36639D01*
X52790Y-36639D02*
X52500Y-36929D01*
X52500Y-36929D02*
X52500Y-37071D01*
X52500Y-37071D02*
X52790Y-37361D01*
X52790Y-37361D02*
X52767Y-37452D01*
X52767Y-37452D02*
X52630Y-37508D01*
X52630Y-37508D02*
X52426Y-37519D01*
X52426Y-37519D02*
X52426Y-38751D01*
X52426Y-38751D02*
X52737Y-39063D01*
X52737Y-39063D02*
X52809Y-39172D01*
X52809Y-39172D02*
X52835Y-39300D01*
X52835Y-39300D02*
X52835Y-39592D01*
X52835Y-39592D02*
X52861Y-39618D01*
X52861Y-39618D02*
X52861Y-37290D01*
X52861Y-37290D02*
X52571Y-37000D01*
X52571Y-37000D02*
X52861Y-36710D01*
X52861Y-36710D02*
X52952Y-36733D01*
X52952Y-36733D02*
X53008Y-36870D01*
X53008Y-36870D02*
X53019Y-37074D01*
X53019Y-37074D02*
X52952Y-37267D01*
X52952Y-37267D02*
X52861Y-37290D01*
X52861Y-37290D02*
X52861Y-39618D01*
X52861Y-39618D02*
X52907Y-39665D01*
X52907Y-39665D02*
X53511Y-39665D01*
M02*
