G04 (created by PCBnew (20090216-final)) date Fri 04 Feb 2011 06:14:45 PM PST*
G01*
G70*
G90*
%MOIN*%
G04 Gerber Fmt 3.4, Leading zero omitted, Abs format*
%FSLAX34Y34*%
G04 APERTURE LIST*
%ADD10C,0.010000*%
%ADD11R,0.060000X0.069000*%
%ADD12C,0.069000*%
%ADD13C,0.055000*%
%ADD14C,0.066000*%
%ADD15R,0.060000X0.060000*%
%ADD16C,0.060000*%
%ADD17C,0.130000*%
%ADD18C,0.017000*%
%ADD19C,0.010000*%
%ADD20C,0.005000*%
%ADD21C,0.015000*%
%ADD22C,0.012000*%
%ADD23C,0.006000*%
%ADD24C,0.008000*%
%ADD25C,0.003500*%
%ADD26R,0.080000X0.089000*%
%ADD27C,0.089000*%
%ADD28C,0.075000*%
%ADD29R,0.080000X0.080000*%
%ADD30C,0.080000*%
%ADD31C,0.150000*%
%ADD32C,0.086000*%
G04 APERTURE END LIST*
G54D10*
X46852Y-23450D02*
X47030Y-23450D01*
X46941Y-23450D02*
X46941Y-22850D01*
X46852Y-22850D02*
X47030Y-22850D01*
X47396Y-23450D02*
X47352Y-23384D01*
X47352Y-23384D02*
X47352Y-22917D01*
X47352Y-22917D02*
X47396Y-22850D01*
X47396Y-22850D02*
X47619Y-22850D01*
X47619Y-22850D02*
X47663Y-22917D01*
X47663Y-22917D02*
X47663Y-23384D01*
X47663Y-23384D02*
X47619Y-23450D01*
X47619Y-23450D02*
X47396Y-23450D01*
X48440Y-23450D02*
X48440Y-22850D01*
X48440Y-22850D02*
X48707Y-22850D01*
X48707Y-22850D02*
X48751Y-22917D01*
X48751Y-22917D02*
X48751Y-23117D01*
X48751Y-23117D02*
X48707Y-23184D01*
X48707Y-23184D02*
X48440Y-23184D01*
X48573Y-23184D02*
X48751Y-23450D01*
X49028Y-23450D02*
X48984Y-23384D01*
X48984Y-23384D02*
X48984Y-23117D01*
X48984Y-23117D02*
X49028Y-23050D01*
X49028Y-23050D02*
X49251Y-23050D01*
X49251Y-23050D02*
X49295Y-23117D01*
X49295Y-23117D02*
X49295Y-23384D01*
X49295Y-23384D02*
X49251Y-23450D01*
X49251Y-23450D02*
X49028Y-23450D01*
X49839Y-22850D02*
X49839Y-23450D01*
X49839Y-23450D02*
X49572Y-23450D01*
X49572Y-23450D02*
X49528Y-23384D01*
X49528Y-23384D02*
X49528Y-23117D01*
X49528Y-23117D02*
X49572Y-23050D01*
X49572Y-23050D02*
X49839Y-23050D01*
X50072Y-23250D02*
X50383Y-23250D01*
X50383Y-23250D02*
X50383Y-23117D01*
X50383Y-23117D02*
X50339Y-23050D01*
X50339Y-23050D02*
X50116Y-23050D01*
X50116Y-23050D02*
X50072Y-23117D01*
X50072Y-23117D02*
X50072Y-23384D01*
X50072Y-23384D02*
X50116Y-23450D01*
X50116Y-23450D02*
X50339Y-23450D01*
X50339Y-23450D02*
X50383Y-23384D01*
X50660Y-23450D02*
X50616Y-23384D01*
X50616Y-23384D02*
X50616Y-23117D01*
X50616Y-23117D02*
X50660Y-23050D01*
X50660Y-23050D02*
X50883Y-23050D01*
X50883Y-23050D02*
X50927Y-23117D01*
X50927Y-23117D02*
X50927Y-23384D01*
X50927Y-23384D02*
X50883Y-23450D01*
X50883Y-23450D02*
X50660Y-23450D01*
X51748Y-23450D02*
X51926Y-23450D01*
X51837Y-23450D02*
X51837Y-22850D01*
X51748Y-22850D02*
X51926Y-22850D01*
X52248Y-23450D02*
X52248Y-23050D01*
X52248Y-23117D02*
X52292Y-23050D01*
X52292Y-23050D02*
X52470Y-23050D01*
X52470Y-23050D02*
X52515Y-23117D01*
X52515Y-23117D02*
X52515Y-23450D01*
X53103Y-23384D02*
X53059Y-23450D01*
X53059Y-23450D02*
X52836Y-23450D01*
X52836Y-23450D02*
X52792Y-23384D01*
X52792Y-23384D02*
X52792Y-23117D01*
X52792Y-23117D02*
X52836Y-23050D01*
X52836Y-23050D02*
X53059Y-23050D01*
X53059Y-23050D02*
X53103Y-23117D01*
X53469Y-23450D02*
X53469Y-23384D01*
X45526Y-22400D02*
X45526Y-21800D01*
X45526Y-21800D02*
X45837Y-22400D01*
X45837Y-22400D02*
X45837Y-21800D01*
X46070Y-22000D02*
X46337Y-22000D01*
X46337Y-22000D02*
X46381Y-22067D01*
X46381Y-22067D02*
X46381Y-22400D01*
X46381Y-22400D02*
X46114Y-22400D01*
X46114Y-22400D02*
X46070Y-22334D01*
X46070Y-22334D02*
X46070Y-22267D01*
X46070Y-22267D02*
X46114Y-22200D01*
X46114Y-22200D02*
X46381Y-22200D01*
X46614Y-22400D02*
X46614Y-22000D01*
X46614Y-22067D02*
X46658Y-22000D01*
X46658Y-22000D02*
X46836Y-22000D01*
X46836Y-22000D02*
X46881Y-22067D01*
X46881Y-22067D02*
X46881Y-22400D01*
X47202Y-22400D02*
X47158Y-22334D01*
X47158Y-22334D02*
X47158Y-22067D01*
X47158Y-22067D02*
X47202Y-22000D01*
X47202Y-22000D02*
X47425Y-22000D01*
X47425Y-22000D02*
X47469Y-22067D01*
X47469Y-22067D02*
X47469Y-22334D01*
X47469Y-22334D02*
X47425Y-22400D01*
X47425Y-22400D02*
X47202Y-22400D01*
X48246Y-22400D02*
X48246Y-21800D01*
X48246Y-21800D02*
X48513Y-21800D01*
X48513Y-21800D02*
X48557Y-21867D01*
X48557Y-21867D02*
X48557Y-22067D01*
X48557Y-22067D02*
X48513Y-22134D01*
X48513Y-22134D02*
X48246Y-22134D01*
X48790Y-22400D02*
X48790Y-21800D01*
X48790Y-22067D02*
X48834Y-22000D01*
X48834Y-22000D02*
X49057Y-22000D01*
X49057Y-22000D02*
X49101Y-22067D01*
X49101Y-22067D02*
X49101Y-22400D01*
X49378Y-22400D02*
X49334Y-22334D01*
X49334Y-22334D02*
X49334Y-22067D01*
X49334Y-22067D02*
X49378Y-22000D01*
X49378Y-22000D02*
X49601Y-22000D01*
X49601Y-22000D02*
X49645Y-22067D01*
X49645Y-22067D02*
X49645Y-22334D01*
X49645Y-22334D02*
X49601Y-22400D01*
X49601Y-22400D02*
X49378Y-22400D01*
X50145Y-22334D02*
X50100Y-22400D01*
X50100Y-22400D02*
X49967Y-22400D01*
X49967Y-22400D02*
X49922Y-22334D01*
X49922Y-22334D02*
X49922Y-21800D01*
X49922Y-22000D02*
X50056Y-22000D01*
X50466Y-22400D02*
X50422Y-22334D01*
X50422Y-22334D02*
X50422Y-22067D01*
X50422Y-22067D02*
X50466Y-22000D01*
X50466Y-22000D02*
X50689Y-22000D01*
X50689Y-22000D02*
X50733Y-22067D01*
X50733Y-22067D02*
X50733Y-22334D01*
X50733Y-22334D02*
X50689Y-22400D01*
X50689Y-22400D02*
X50466Y-22400D01*
X50966Y-22533D02*
X51010Y-22600D01*
X51010Y-22600D02*
X51233Y-22600D01*
X51233Y-22600D02*
X51277Y-22533D01*
X51277Y-22533D02*
X51277Y-22067D01*
X51277Y-22067D02*
X51233Y-22000D01*
X51233Y-22000D02*
X51010Y-22000D01*
X51010Y-22000D02*
X50966Y-22067D01*
X50966Y-22067D02*
X50966Y-22334D01*
X50966Y-22334D02*
X51010Y-22400D01*
X51010Y-22400D02*
X51233Y-22400D01*
X51233Y-22400D02*
X51277Y-22334D01*
X51510Y-22000D02*
X51777Y-22000D01*
X51777Y-22000D02*
X51821Y-22067D01*
X51821Y-22067D02*
X51821Y-22400D01*
X51821Y-22400D02*
X51554Y-22400D01*
X51554Y-22400D02*
X51510Y-22334D01*
X51510Y-22334D02*
X51510Y-22267D01*
X51510Y-22267D02*
X51554Y-22200D01*
X51554Y-22200D02*
X51821Y-22200D01*
X52321Y-22334D02*
X52276Y-22400D01*
X52276Y-22400D02*
X52143Y-22400D01*
X52143Y-22400D02*
X52098Y-22334D01*
X52098Y-22334D02*
X52098Y-21800D01*
X52098Y-22000D02*
X52232Y-22000D01*
X52598Y-22200D02*
X52909Y-22200D01*
X52909Y-22200D02*
X52909Y-22067D01*
X52909Y-22067D02*
X52865Y-22000D01*
X52865Y-22000D02*
X52642Y-22000D01*
X52642Y-22000D02*
X52598Y-22067D01*
X52598Y-22067D02*
X52598Y-22334D01*
X52598Y-22334D02*
X52642Y-22400D01*
X52642Y-22400D02*
X52865Y-22400D01*
X52865Y-22400D02*
X52909Y-22334D01*
X53686Y-21800D02*
X53864Y-22400D01*
X53864Y-22400D02*
X54042Y-21800D01*
X54319Y-22400D02*
X54497Y-22400D01*
X54408Y-22400D02*
X54408Y-21800D01*
X54408Y-21867D02*
X54319Y-22000D01*
X54907Y-22400D02*
X54907Y-22334D01*
X55318Y-22400D02*
X55629Y-21800D01*
X55318Y-22334D02*
X55318Y-21867D01*
X55318Y-21867D02*
X55362Y-21800D01*
X55362Y-21800D02*
X55585Y-21800D01*
X55585Y-21800D02*
X55629Y-21867D01*
X55629Y-21867D02*
X55629Y-22334D01*
X55629Y-22334D02*
X55585Y-22400D01*
X55585Y-22400D02*
X55362Y-22400D01*
X55362Y-22400D02*
X55318Y-22334D01*
G54D21*
X41500Y-41500D02*
X59500Y-41500D01*
X41500Y-21500D02*
X59500Y-21500D01*
X59500Y-21500D02*
X59500Y-41500D01*
X41500Y-21500D02*
X41500Y-41500D01*
X57500Y-31000D02*
X57396Y-31011D01*
X57396Y-31011D02*
X57297Y-31043D01*
X57297Y-31043D02*
X57206Y-31095D01*
X57206Y-31095D02*
X57128Y-31165D01*
X57128Y-31165D02*
X57067Y-31250D01*
X57067Y-31250D02*
X57024Y-31345D01*
X57024Y-31345D02*
X57003Y-31448D01*
X57003Y-31448D02*
X57000Y-31500D01*
X57000Y-31500D02*
X57011Y-31604D01*
X57011Y-31604D02*
X57043Y-31703D01*
X57043Y-31703D02*
X57095Y-31794D01*
X57095Y-31794D02*
X57165Y-31872D01*
X57165Y-31872D02*
X57250Y-31933D01*
X57250Y-31933D02*
X57345Y-31976D01*
X57345Y-31976D02*
X57448Y-31997D01*
X57448Y-31997D02*
X57500Y-32000D01*
X57500Y-34000D02*
X57500Y-32000D01*
X57500Y-29000D02*
X57500Y-31000D01*
X57500Y-29000D02*
X42500Y-29000D01*
X42500Y-29000D02*
X42500Y-34000D01*
X42500Y-34000D02*
X57500Y-34000D01*
G54D22*
X45500Y-24520D02*
X45500Y-26500D01*
X45500Y-26500D02*
X44500Y-26500D01*
X44500Y-26500D02*
X44500Y-24500D01*
X44500Y-24500D02*
X45500Y-24500D01*
X45250Y-24500D02*
X45500Y-24750D01*
G54D10*
X45220Y-38500D02*
X45220Y-37500D01*
G54D23*
X44139Y-37616D02*
X44069Y-37720D01*
X44069Y-37720D02*
X44023Y-37837D01*
X44023Y-37837D02*
X44001Y-37960D01*
X44001Y-37960D02*
X44006Y-38086D01*
X44006Y-38086D02*
X44037Y-38207D01*
X44037Y-38207D02*
X44092Y-38320D01*
X44092Y-38320D02*
X44170Y-38418D01*
X44170Y-38418D02*
X44266Y-38499D01*
X44266Y-38499D02*
X44377Y-38557D01*
X44377Y-38557D02*
X44498Y-38591D01*
X44498Y-38591D02*
X44623Y-38600D01*
X44623Y-38600D02*
X44747Y-38582D01*
X44747Y-38582D02*
X44865Y-38538D01*
X44865Y-38538D02*
X44971Y-38472D01*
X44971Y-38472D02*
X45061Y-38384D01*
X45061Y-38384D02*
X45131Y-38280D01*
X45131Y-38280D02*
X45177Y-38163D01*
X45177Y-38163D02*
X45199Y-38040D01*
X45199Y-38040D02*
X45194Y-37914D01*
X45194Y-37914D02*
X45163Y-37793D01*
X45163Y-37793D02*
X45108Y-37680D01*
X45108Y-37680D02*
X45030Y-37582D01*
X45030Y-37582D02*
X44934Y-37501D01*
X44934Y-37501D02*
X44823Y-37443D01*
X44823Y-37443D02*
X44702Y-37409D01*
X44702Y-37409D02*
X44577Y-37400D01*
X44577Y-37400D02*
X44453Y-37418D01*
X44453Y-37418D02*
X44335Y-37462D01*
X44335Y-37462D02*
X44229Y-37528D01*
X44229Y-37528D02*
X44139Y-37616D01*
X44139Y-37616D02*
X44069Y-37720D01*
X44069Y-37720D02*
X44023Y-37837D01*
X44023Y-37837D02*
X44001Y-37960D01*
X44001Y-37960D02*
X44000Y-38000D01*
X44001Y-38000D02*
X44014Y-38125D01*
X44014Y-38125D02*
X44053Y-38244D01*
X44053Y-38244D02*
X44115Y-38352D01*
X44115Y-38352D02*
X44199Y-38445D01*
X44199Y-38445D02*
X44300Y-38519D01*
X44300Y-38519D02*
X44415Y-38570D01*
X44415Y-38570D02*
X44537Y-38596D01*
X44537Y-38596D02*
X44663Y-38596D01*
X44663Y-38596D02*
X44785Y-38570D01*
X44785Y-38570D02*
X44900Y-38519D01*
X44900Y-38519D02*
X45001Y-38445D01*
X45001Y-38445D02*
X45085Y-38352D01*
X45085Y-38352D02*
X45147Y-38244D01*
X45147Y-38244D02*
X45186Y-38125D01*
X45186Y-38125D02*
X45199Y-38000D01*
X45199Y-38000D02*
X45186Y-37875D01*
X45186Y-37875D02*
X45147Y-37756D01*
X45147Y-37756D02*
X45085Y-37648D01*
X45085Y-37648D02*
X45001Y-37555D01*
X45001Y-37555D02*
X44900Y-37481D01*
X44900Y-37481D02*
X44785Y-37430D01*
X44785Y-37430D02*
X44663Y-37404D01*
X44663Y-37404D02*
X44537Y-37404D01*
X44537Y-37404D02*
X44415Y-37430D01*
X44415Y-37430D02*
X44300Y-37481D01*
X44300Y-37481D02*
X44199Y-37555D01*
X44199Y-37555D02*
X44115Y-37648D01*
X44115Y-37648D02*
X44053Y-37756D01*
X44053Y-37756D02*
X44014Y-37875D01*
X44014Y-37875D02*
X44001Y-38000D01*
X44001Y-38000D02*
X44014Y-38125D01*
X44014Y-38125D02*
X44053Y-38244D01*
X44053Y-38244D02*
X44115Y-38352D01*
X44115Y-38352D02*
X44152Y-38398D01*
X45199Y-38000D02*
X45186Y-37875D01*
X45186Y-37875D02*
X45147Y-37756D01*
X45147Y-37756D02*
X45085Y-37648D01*
X45085Y-37648D02*
X45001Y-37555D01*
X45001Y-37555D02*
X44900Y-37481D01*
X44900Y-37481D02*
X44785Y-37430D01*
X44785Y-37430D02*
X44663Y-37404D01*
X44663Y-37404D02*
X44537Y-37404D01*
X44537Y-37404D02*
X44415Y-37430D01*
X44415Y-37430D02*
X44300Y-37481D01*
X44300Y-37481D02*
X44199Y-37555D01*
X44199Y-37555D02*
X44115Y-37648D01*
X44115Y-37648D02*
X44053Y-37756D01*
X44053Y-37756D02*
X44014Y-37875D01*
X44014Y-37875D02*
X44001Y-38000D01*
X44001Y-38000D02*
X44014Y-38125D01*
X44014Y-38125D02*
X44053Y-38244D01*
X44053Y-38244D02*
X44115Y-38352D01*
X44115Y-38352D02*
X44199Y-38445D01*
X44199Y-38445D02*
X44300Y-38519D01*
X44300Y-38519D02*
X44415Y-38570D01*
X44415Y-38570D02*
X44537Y-38596D01*
X44537Y-38596D02*
X44663Y-38596D01*
X44663Y-38596D02*
X44785Y-38570D01*
X44785Y-38570D02*
X44900Y-38519D01*
X44900Y-38519D02*
X45001Y-38445D01*
X45001Y-38445D02*
X45085Y-38352D01*
X45085Y-38352D02*
X45147Y-38244D01*
X45147Y-38244D02*
X45186Y-38125D01*
X45186Y-38125D02*
X45199Y-38000D01*
X45199Y-38000D02*
X45186Y-37875D01*
X45186Y-37875D02*
X45147Y-37756D01*
X45147Y-37756D02*
X45085Y-37648D01*
X45085Y-37648D02*
X45055Y-37610D01*
X45061Y-38384D02*
X45131Y-38280D01*
X45131Y-38280D02*
X45177Y-38163D01*
X45177Y-38163D02*
X45199Y-38040D01*
X45199Y-38040D02*
X45194Y-37914D01*
X45194Y-37914D02*
X45163Y-37793D01*
X45163Y-37793D02*
X45108Y-37680D01*
X45108Y-37680D02*
X45030Y-37582D01*
X45030Y-37582D02*
X44934Y-37501D01*
X44934Y-37501D02*
X44823Y-37443D01*
X44823Y-37443D02*
X44702Y-37409D01*
X44702Y-37409D02*
X44577Y-37400D01*
X44577Y-37400D02*
X44453Y-37418D01*
X44453Y-37418D02*
X44335Y-37462D01*
X44335Y-37462D02*
X44229Y-37528D01*
X44229Y-37528D02*
X44139Y-37616D01*
X44139Y-37616D02*
X44069Y-37720D01*
X44069Y-37720D02*
X44023Y-37837D01*
X44023Y-37837D02*
X44001Y-37960D01*
X44001Y-37960D02*
X44006Y-38086D01*
X44006Y-38086D02*
X44037Y-38207D01*
X44037Y-38207D02*
X44092Y-38320D01*
X44092Y-38320D02*
X44170Y-38418D01*
X44170Y-38418D02*
X44266Y-38499D01*
X44266Y-38499D02*
X44377Y-38557D01*
X44377Y-38557D02*
X44498Y-38591D01*
X44498Y-38591D02*
X44623Y-38600D01*
X44623Y-38600D02*
X44747Y-38582D01*
X44747Y-38582D02*
X44865Y-38538D01*
X44865Y-38538D02*
X44971Y-38472D01*
X44971Y-38472D02*
X45061Y-38384D01*
X45061Y-38384D02*
X45131Y-38280D01*
X45131Y-38280D02*
X45177Y-38163D01*
X45177Y-38163D02*
X45199Y-38040D01*
X45199Y-38040D02*
X45200Y-38000D01*
X45088Y-37651D02*
X45005Y-37557D01*
X45005Y-37557D02*
X44904Y-37482D01*
X44904Y-37482D02*
X44789Y-37431D01*
X44789Y-37431D02*
X44667Y-37404D01*
X44667Y-37404D02*
X44541Y-37403D01*
X44541Y-37403D02*
X44419Y-37428D01*
X44419Y-37428D02*
X44304Y-37478D01*
X44304Y-37478D02*
X44202Y-37551D01*
X44202Y-37551D02*
X44117Y-37644D01*
X44117Y-37644D02*
X44054Y-37752D01*
X44054Y-37752D02*
X44014Y-37871D01*
X44014Y-37871D02*
X44000Y-37996D01*
X44000Y-37996D02*
X44012Y-38121D01*
X44012Y-38121D02*
X44050Y-38240D01*
X44050Y-38240D02*
X44112Y-38349D01*
X44112Y-38349D02*
X44195Y-38443D01*
X44195Y-38443D02*
X44296Y-38518D01*
X44296Y-38518D02*
X44411Y-38569D01*
X44411Y-38569D02*
X44533Y-38596D01*
X44533Y-38596D02*
X44659Y-38597D01*
X44659Y-38597D02*
X44781Y-38572D01*
X44781Y-38572D02*
X44896Y-38522D01*
X44896Y-38522D02*
X44998Y-38449D01*
X44998Y-38449D02*
X45083Y-38356D01*
X45083Y-38356D02*
X45146Y-38248D01*
X45146Y-38248D02*
X45186Y-38129D01*
X45186Y-38129D02*
X45200Y-38004D01*
X45200Y-38004D02*
X45188Y-37879D01*
X45188Y-37879D02*
X45150Y-37760D01*
X45150Y-37760D02*
X45088Y-37651D01*
X45088Y-37651D02*
X45005Y-37557D01*
X45005Y-37557D02*
X44904Y-37482D01*
X44904Y-37482D02*
X44789Y-37431D01*
X44789Y-37431D02*
X44667Y-37404D01*
X44667Y-37404D02*
X44600Y-37400D01*
X44600Y-37400D02*
X44475Y-37413D01*
X44475Y-37413D02*
X44356Y-37452D01*
X44356Y-37452D02*
X44247Y-37515D01*
X44247Y-37515D02*
X44154Y-37599D01*
X44154Y-37599D02*
X44080Y-37700D01*
X44080Y-37700D02*
X44029Y-37815D01*
X44029Y-37815D02*
X44003Y-37937D01*
X44003Y-37937D02*
X44003Y-38063D01*
X44003Y-38063D02*
X44029Y-38185D01*
X44029Y-38185D02*
X44080Y-38300D01*
X44080Y-38300D02*
X44154Y-38401D01*
X44154Y-38401D02*
X44247Y-38485D01*
X44247Y-38485D02*
X44356Y-38548D01*
X44356Y-38548D02*
X44475Y-38587D01*
X44475Y-38587D02*
X44600Y-38600D01*
X44600Y-38600D02*
X44725Y-38587D01*
X44725Y-38587D02*
X44844Y-38548D01*
X44844Y-38548D02*
X44953Y-38485D01*
X44953Y-38485D02*
X45046Y-38401D01*
X45046Y-38401D02*
X45120Y-38300D01*
X45120Y-38300D02*
X45171Y-38185D01*
X45171Y-38185D02*
X45197Y-38063D01*
X45197Y-38063D02*
X45197Y-37937D01*
X45197Y-37937D02*
X45171Y-37815D01*
X45171Y-37815D02*
X45120Y-37700D01*
X45120Y-37700D02*
X45046Y-37599D01*
X45046Y-37599D02*
X44953Y-37515D01*
X44953Y-37515D02*
X44844Y-37452D01*
X44844Y-37452D02*
X44725Y-37413D01*
X44725Y-37413D02*
X44600Y-37400D01*
X44600Y-37400D02*
X44475Y-37413D01*
X44475Y-37413D02*
X44356Y-37452D01*
X44356Y-37452D02*
X44247Y-37515D01*
X44247Y-37515D02*
X44154Y-37599D01*
X44154Y-37599D02*
X44120Y-37640D01*
X44600Y-38599D02*
X44725Y-38586D01*
X44725Y-38586D02*
X44844Y-38547D01*
X44844Y-38547D02*
X44952Y-38485D01*
X44952Y-38485D02*
X45045Y-38401D01*
X45045Y-38401D02*
X45119Y-38300D01*
X45119Y-38300D02*
X45170Y-38185D01*
X45170Y-38185D02*
X45196Y-38063D01*
X45196Y-38063D02*
X45196Y-37937D01*
X45196Y-37937D02*
X45170Y-37815D01*
X45170Y-37815D02*
X45119Y-37700D01*
X45119Y-37700D02*
X45045Y-37599D01*
X45045Y-37599D02*
X44952Y-37515D01*
X44952Y-37515D02*
X44844Y-37453D01*
X44844Y-37453D02*
X44725Y-37414D01*
X44725Y-37414D02*
X44600Y-37401D01*
X44600Y-37401D02*
X44475Y-37414D01*
X44475Y-37414D02*
X44356Y-37453D01*
X44356Y-37453D02*
X44248Y-37515D01*
X44248Y-37515D02*
X44155Y-37599D01*
X44155Y-37599D02*
X44081Y-37700D01*
X44081Y-37700D02*
X44030Y-37815D01*
X44030Y-37815D02*
X44004Y-37937D01*
X44004Y-37937D02*
X44004Y-38063D01*
X44004Y-38063D02*
X44030Y-38185D01*
X44030Y-38185D02*
X44081Y-38300D01*
X44081Y-38300D02*
X44155Y-38401D01*
X44155Y-38401D02*
X44248Y-38485D01*
X44248Y-38485D02*
X44356Y-38547D01*
X44356Y-38547D02*
X44475Y-38586D01*
X44475Y-38586D02*
X44600Y-38599D01*
X44600Y-38599D02*
X44725Y-38586D01*
X44725Y-38586D02*
X44844Y-38547D01*
X44844Y-38547D02*
X44952Y-38485D01*
X44952Y-38485D02*
X45045Y-38401D01*
X45045Y-38401D02*
X45073Y-38368D01*
X44127Y-38369D02*
X44214Y-38459D01*
X44214Y-38459D02*
X44317Y-38529D01*
X44317Y-38529D02*
X44434Y-38576D01*
X44434Y-38576D02*
X44557Y-38598D01*
X44557Y-38598D02*
X44682Y-38594D01*
X44682Y-38594D02*
X44804Y-38564D01*
X44804Y-38564D02*
X44917Y-38509D01*
X44917Y-38509D02*
X45016Y-38432D01*
X45016Y-38432D02*
X45097Y-38336D01*
X45097Y-38336D02*
X45156Y-38226D01*
X45156Y-38226D02*
X45191Y-38105D01*
X45191Y-38105D02*
X45200Y-37980D01*
X45200Y-37980D02*
X45182Y-37856D01*
X45182Y-37856D02*
X45140Y-37738D01*
X45140Y-37738D02*
X45073Y-37631D01*
X45073Y-37631D02*
X44986Y-37541D01*
X44986Y-37541D02*
X44883Y-37471D01*
X44883Y-37471D02*
X44766Y-37424D01*
X44766Y-37424D02*
X44643Y-37402D01*
X44643Y-37402D02*
X44518Y-37406D01*
X44518Y-37406D02*
X44396Y-37436D01*
X44396Y-37436D02*
X44283Y-37491D01*
X44283Y-37491D02*
X44184Y-37568D01*
X44184Y-37568D02*
X44103Y-37664D01*
X44103Y-37664D02*
X44044Y-37774D01*
X44044Y-37774D02*
X44009Y-37895D01*
X44009Y-37895D02*
X44000Y-38020D01*
X44000Y-38020D02*
X44018Y-38144D01*
X44018Y-38144D02*
X44060Y-38262D01*
X44060Y-38262D02*
X44127Y-38369D01*
X44127Y-38369D02*
X44214Y-38459D01*
X44214Y-38459D02*
X44317Y-38529D01*
X44317Y-38529D02*
X44434Y-38576D01*
X44434Y-38576D02*
X44557Y-38598D01*
X44557Y-38598D02*
X44600Y-38600D01*
X44600Y-37750D02*
X44548Y-37755D01*
X44548Y-37755D02*
X44498Y-37772D01*
X44498Y-37772D02*
X44453Y-37798D01*
X44453Y-37798D02*
X44414Y-37833D01*
X44414Y-37833D02*
X44383Y-37875D01*
X44383Y-37875D02*
X44362Y-37923D01*
X44362Y-37923D02*
X44351Y-37974D01*
X44351Y-37974D02*
X44351Y-38026D01*
X44351Y-38026D02*
X44362Y-38077D01*
X44362Y-38077D02*
X44383Y-38125D01*
X44383Y-38125D02*
X44414Y-38167D01*
X44414Y-38167D02*
X44453Y-38202D01*
X44453Y-38202D02*
X44498Y-38228D01*
X44498Y-38228D02*
X44548Y-38245D01*
X44548Y-38245D02*
X44600Y-38250D01*
X44600Y-38250D02*
X44652Y-38245D01*
X44652Y-38245D02*
X44702Y-38228D01*
X44702Y-38228D02*
X44747Y-38202D01*
X44747Y-38202D02*
X44786Y-38167D01*
X44786Y-38167D02*
X44817Y-38125D01*
X44817Y-38125D02*
X44838Y-38077D01*
X44838Y-38077D02*
X44849Y-38026D01*
X44849Y-38026D02*
X44849Y-37974D01*
X44849Y-37974D02*
X44838Y-37923D01*
X44838Y-37923D02*
X44817Y-37875D01*
X44817Y-37875D02*
X44786Y-37833D01*
X44786Y-37833D02*
X44747Y-37798D01*
X44747Y-37798D02*
X44702Y-37772D01*
X44702Y-37772D02*
X44652Y-37755D01*
X44652Y-37755D02*
X44600Y-37750D01*
X44600Y-37750D02*
X44548Y-37755D01*
X44548Y-37755D02*
X44498Y-37772D01*
X44498Y-37772D02*
X44453Y-37798D01*
X44453Y-37798D02*
X44414Y-37833D01*
X44414Y-37833D02*
X44383Y-37875D01*
X44383Y-37875D02*
X44362Y-37923D01*
X44362Y-37923D02*
X44351Y-37974D01*
X44351Y-37974D02*
X44350Y-38000D01*
X44600Y-37600D02*
X44517Y-37609D01*
X44517Y-37609D02*
X44437Y-37635D01*
X44437Y-37635D02*
X44365Y-37676D01*
X44365Y-37676D02*
X44303Y-37732D01*
X44303Y-37732D02*
X44254Y-37800D01*
X44254Y-37800D02*
X44220Y-37876D01*
X44220Y-37876D02*
X44202Y-37958D01*
X44202Y-37958D02*
X44202Y-38042D01*
X44202Y-38042D02*
X44220Y-38124D01*
X44220Y-38124D02*
X44254Y-38200D01*
X44254Y-38200D02*
X44303Y-38268D01*
X44303Y-38268D02*
X44365Y-38324D01*
X44365Y-38324D02*
X44437Y-38365D01*
X44437Y-38365D02*
X44517Y-38391D01*
X44517Y-38391D02*
X44600Y-38400D01*
X44600Y-38400D02*
X44683Y-38391D01*
X44683Y-38391D02*
X44763Y-38365D01*
X44763Y-38365D02*
X44835Y-38324D01*
X44835Y-38324D02*
X44897Y-38268D01*
X44897Y-38268D02*
X44946Y-38200D01*
X44946Y-38200D02*
X44980Y-38124D01*
X44980Y-38124D02*
X44998Y-38042D01*
X44998Y-38042D02*
X44998Y-37958D01*
X44998Y-37958D02*
X44980Y-37876D01*
X44980Y-37876D02*
X44946Y-37800D01*
X44946Y-37800D02*
X44897Y-37732D01*
X44897Y-37732D02*
X44835Y-37676D01*
X44835Y-37676D02*
X44763Y-37635D01*
X44763Y-37635D02*
X44683Y-37609D01*
X44683Y-37609D02*
X44600Y-37600D01*
X44600Y-37600D02*
X44517Y-37609D01*
X44517Y-37609D02*
X44437Y-37635D01*
X44437Y-37635D02*
X44365Y-37676D01*
X44365Y-37676D02*
X44303Y-37732D01*
X44303Y-37732D02*
X44254Y-37800D01*
X44254Y-37800D02*
X44220Y-37876D01*
X44220Y-37876D02*
X44202Y-37958D01*
X44202Y-37958D02*
X44200Y-38000D01*
X44600Y-38250D02*
X44652Y-38245D01*
X44652Y-38245D02*
X44702Y-38228D01*
X44702Y-38228D02*
X44747Y-38202D01*
X44747Y-38202D02*
X44786Y-38167D01*
X44786Y-38167D02*
X44817Y-38125D01*
X44817Y-38125D02*
X44838Y-38077D01*
X44838Y-38077D02*
X44849Y-38026D01*
X44849Y-38026D02*
X44849Y-37974D01*
X44849Y-37974D02*
X44838Y-37923D01*
X44838Y-37923D02*
X44817Y-37875D01*
X44817Y-37875D02*
X44786Y-37833D01*
X44786Y-37833D02*
X44747Y-37798D01*
X44747Y-37798D02*
X44702Y-37772D01*
X44702Y-37772D02*
X44652Y-37755D01*
X44652Y-37755D02*
X44600Y-37750D01*
X44600Y-37750D02*
X44548Y-37755D01*
X44548Y-37755D02*
X44498Y-37772D01*
X44498Y-37772D02*
X44453Y-37798D01*
X44453Y-37798D02*
X44414Y-37833D01*
X44414Y-37833D02*
X44383Y-37875D01*
X44383Y-37875D02*
X44362Y-37923D01*
X44362Y-37923D02*
X44351Y-37974D01*
X44351Y-37974D02*
X44351Y-38026D01*
X44351Y-38026D02*
X44362Y-38077D01*
X44362Y-38077D02*
X44383Y-38125D01*
X44383Y-38125D02*
X44414Y-38167D01*
X44414Y-38167D02*
X44453Y-38202D01*
X44453Y-38202D02*
X44498Y-38228D01*
X44498Y-38228D02*
X44548Y-38245D01*
X44548Y-38245D02*
X44600Y-38250D01*
X44600Y-38250D02*
X44652Y-38245D01*
X44652Y-38245D02*
X44702Y-38228D01*
X44702Y-38228D02*
X44747Y-38202D01*
X44747Y-38202D02*
X44786Y-38167D01*
X44786Y-38167D02*
X44817Y-38125D01*
X44817Y-38125D02*
X44838Y-38077D01*
X44838Y-38077D02*
X44849Y-38026D01*
X44849Y-38026D02*
X44850Y-38000D01*
X44600Y-38400D02*
X44683Y-38391D01*
X44683Y-38391D02*
X44763Y-38365D01*
X44763Y-38365D02*
X44835Y-38324D01*
X44835Y-38324D02*
X44897Y-38268D01*
X44897Y-38268D02*
X44946Y-38200D01*
X44946Y-38200D02*
X44980Y-38124D01*
X44980Y-38124D02*
X44998Y-38042D01*
X44998Y-38042D02*
X44998Y-37958D01*
X44998Y-37958D02*
X44980Y-37876D01*
X44980Y-37876D02*
X44946Y-37800D01*
X44946Y-37800D02*
X44897Y-37732D01*
X44897Y-37732D02*
X44835Y-37676D01*
X44835Y-37676D02*
X44763Y-37635D01*
X44763Y-37635D02*
X44683Y-37609D01*
X44683Y-37609D02*
X44600Y-37600D01*
X44600Y-37600D02*
X44517Y-37609D01*
X44517Y-37609D02*
X44437Y-37635D01*
X44437Y-37635D02*
X44365Y-37676D01*
X44365Y-37676D02*
X44303Y-37732D01*
X44303Y-37732D02*
X44254Y-37800D01*
X44254Y-37800D02*
X44220Y-37876D01*
X44220Y-37876D02*
X44202Y-37958D01*
X44202Y-37958D02*
X44202Y-38042D01*
X44202Y-38042D02*
X44220Y-38124D01*
X44220Y-38124D02*
X44254Y-38200D01*
X44254Y-38200D02*
X44303Y-38268D01*
X44303Y-38268D02*
X44365Y-38324D01*
X44365Y-38324D02*
X44437Y-38365D01*
X44437Y-38365D02*
X44517Y-38391D01*
X44517Y-38391D02*
X44600Y-38400D01*
X44600Y-38400D02*
X44683Y-38391D01*
X44683Y-38391D02*
X44763Y-38365D01*
X44763Y-38365D02*
X44835Y-38324D01*
X44835Y-38324D02*
X44897Y-38268D01*
X44897Y-38268D02*
X44946Y-38200D01*
X44946Y-38200D02*
X44980Y-38124D01*
X44980Y-38124D02*
X44998Y-38042D01*
X44998Y-38042D02*
X45000Y-38000D01*
G54D10*
X45214Y-37487D02*
X45094Y-37370D01*
X45094Y-37370D02*
X44952Y-37282D01*
X44952Y-37282D02*
X44795Y-37224D01*
X44795Y-37224D02*
X44629Y-37201D01*
X44629Y-37201D02*
X44462Y-37212D01*
X44462Y-37212D02*
X44302Y-37258D01*
X44302Y-37258D02*
X44154Y-37336D01*
X44154Y-37336D02*
X44025Y-37443D01*
X44025Y-37443D02*
X43922Y-37575D01*
X43922Y-37575D02*
X43849Y-37725D01*
X43849Y-37725D02*
X43808Y-37887D01*
X43808Y-37887D02*
X43802Y-38054D01*
X43802Y-38054D02*
X43831Y-38219D01*
X43831Y-38219D02*
X43893Y-38374D01*
X43893Y-38374D02*
X43986Y-38513D01*
X43986Y-38513D02*
X44106Y-38630D01*
X44106Y-38630D02*
X44248Y-38718D01*
X44248Y-38718D02*
X44405Y-38776D01*
X44405Y-38776D02*
X44571Y-38799D01*
X44571Y-38799D02*
X44738Y-38788D01*
X44738Y-38788D02*
X44898Y-38742D01*
X44898Y-38742D02*
X45046Y-38664D01*
X45046Y-38664D02*
X45175Y-38557D01*
X45175Y-38557D02*
X45278Y-38425D01*
X45278Y-38425D02*
X45351Y-38275D01*
X45351Y-38275D02*
X45392Y-38113D01*
X45392Y-38113D02*
X45398Y-37946D01*
X45398Y-37946D02*
X45369Y-37781D01*
X45369Y-37781D02*
X45307Y-37626D01*
X45307Y-37626D02*
X45214Y-37487D01*
X45214Y-37487D02*
X45094Y-37370D01*
X45094Y-37370D02*
X44952Y-37282D01*
X44952Y-37282D02*
X44795Y-37224D01*
X44795Y-37224D02*
X44629Y-37201D01*
X44629Y-37201D02*
X44600Y-37200D01*
X44600Y-37201D02*
X44434Y-37218D01*
X44434Y-37218D02*
X44275Y-37270D01*
X44275Y-37270D02*
X44130Y-37354D01*
X44130Y-37354D02*
X44006Y-37465D01*
X44006Y-37465D02*
X43908Y-37600D01*
X43908Y-37600D02*
X43840Y-37753D01*
X43840Y-37753D02*
X43805Y-37916D01*
X43805Y-37916D02*
X43805Y-38084D01*
X43805Y-38084D02*
X43840Y-38247D01*
X43840Y-38247D02*
X43908Y-38400D01*
X43908Y-38400D02*
X44006Y-38535D01*
X44006Y-38535D02*
X44130Y-38646D01*
X44130Y-38646D02*
X44275Y-38730D01*
X44275Y-38730D02*
X44434Y-38782D01*
X44434Y-38782D02*
X44600Y-38799D01*
X44600Y-38799D02*
X44766Y-38782D01*
X44766Y-38782D02*
X44925Y-38730D01*
X44925Y-38730D02*
X45070Y-38646D01*
X45070Y-38646D02*
X45194Y-38535D01*
X45194Y-38535D02*
X45292Y-38400D01*
X45292Y-38400D02*
X45360Y-38247D01*
X45360Y-38247D02*
X45395Y-38084D01*
X45395Y-38084D02*
X45395Y-37916D01*
X45395Y-37916D02*
X45360Y-37753D01*
X45360Y-37753D02*
X45292Y-37600D01*
X45292Y-37600D02*
X45194Y-37465D01*
X45194Y-37465D02*
X45070Y-37354D01*
X45070Y-37354D02*
X44925Y-37270D01*
X44925Y-37270D02*
X44766Y-37218D01*
X44766Y-37218D02*
X44600Y-37201D01*
X44600Y-37201D02*
X44434Y-37218D01*
X44434Y-37218D02*
X44275Y-37270D01*
X44275Y-37270D02*
X44130Y-37354D01*
X44130Y-37354D02*
X44006Y-37465D01*
X44006Y-37465D02*
X43908Y-37600D01*
X43908Y-37600D02*
X43895Y-37624D01*
X44601Y-38798D02*
X44767Y-38780D01*
X44767Y-38780D02*
X44926Y-38728D01*
X44926Y-38728D02*
X45070Y-38645D01*
X45070Y-38645D02*
X45194Y-38533D01*
X45194Y-38533D02*
X45292Y-38398D01*
X45292Y-38398D02*
X45359Y-38245D01*
X45359Y-38245D02*
X45394Y-38082D01*
X45394Y-38082D02*
X45393Y-37915D01*
X45393Y-37915D02*
X45359Y-37752D01*
X45359Y-37752D02*
X45290Y-37600D01*
X45290Y-37600D02*
X45192Y-37465D01*
X45192Y-37465D02*
X45068Y-37354D01*
X45068Y-37354D02*
X44923Y-37270D01*
X44923Y-37270D02*
X44765Y-37219D01*
X44765Y-37219D02*
X44599Y-37202D01*
X44599Y-37202D02*
X44433Y-37220D01*
X44433Y-37220D02*
X44274Y-37272D01*
X44274Y-37272D02*
X44130Y-37355D01*
X44130Y-37355D02*
X44006Y-37467D01*
X44006Y-37467D02*
X43908Y-37602D01*
X43908Y-37602D02*
X43841Y-37755D01*
X43841Y-37755D02*
X43806Y-37918D01*
X43806Y-37918D02*
X43807Y-38085D01*
X43807Y-38085D02*
X43841Y-38248D01*
X43841Y-38248D02*
X43910Y-38400D01*
X43910Y-38400D02*
X44008Y-38535D01*
X44008Y-38535D02*
X44132Y-38646D01*
X44132Y-38646D02*
X44277Y-38730D01*
X44277Y-38730D02*
X44435Y-38781D01*
X44435Y-38781D02*
X44601Y-38798D01*
X44601Y-38798D02*
X44767Y-38780D01*
X44767Y-38780D02*
X44926Y-38728D01*
X44926Y-38728D02*
X45070Y-38645D01*
X45070Y-38645D02*
X45194Y-38533D01*
X45194Y-38533D02*
X45210Y-38515D01*
X43906Y-38398D02*
X44004Y-38533D01*
X44004Y-38533D02*
X44128Y-38646D01*
X44128Y-38646D02*
X44272Y-38730D01*
X44272Y-38730D02*
X44431Y-38782D01*
X44431Y-38782D02*
X44597Y-38800D01*
X44597Y-38800D02*
X44764Y-38783D01*
X44764Y-38783D02*
X44923Y-38732D01*
X44923Y-38732D02*
X45068Y-38649D01*
X45068Y-38649D02*
X45193Y-38537D01*
X45193Y-38537D02*
X45291Y-38402D01*
X45291Y-38402D02*
X45360Y-38250D01*
X45360Y-38250D02*
X45395Y-38086D01*
X45395Y-38086D02*
X45396Y-37919D01*
X45396Y-37919D02*
X45362Y-37755D01*
X45362Y-37755D02*
X45294Y-37602D01*
X45294Y-37602D02*
X45196Y-37467D01*
X45196Y-37467D02*
X45072Y-37354D01*
X45072Y-37354D02*
X44928Y-37270D01*
X44928Y-37270D02*
X44769Y-37218D01*
X44769Y-37218D02*
X44603Y-37200D01*
X44603Y-37200D02*
X44436Y-37217D01*
X44436Y-37217D02*
X44277Y-37268D01*
X44277Y-37268D02*
X44132Y-37351D01*
X44132Y-37351D02*
X44007Y-37463D01*
X44007Y-37463D02*
X43909Y-37598D01*
X43909Y-37598D02*
X43840Y-37750D01*
X43840Y-37750D02*
X43805Y-37914D01*
X43805Y-37914D02*
X43804Y-38081D01*
X43804Y-38081D02*
X43838Y-38245D01*
X43838Y-38245D02*
X43906Y-38398D01*
X43906Y-38398D02*
X44004Y-38533D01*
X44004Y-38533D02*
X44128Y-38646D01*
X44128Y-38646D02*
X44272Y-38730D01*
X44272Y-38730D02*
X44431Y-38782D01*
X44431Y-38782D02*
X44597Y-38800D01*
X44597Y-38800D02*
X44600Y-38800D01*
X43896Y-37621D02*
X43832Y-37775D01*
X43832Y-37775D02*
X43802Y-37940D01*
X43802Y-37940D02*
X43807Y-38107D01*
X43807Y-38107D02*
X43847Y-38270D01*
X43847Y-38270D02*
X43919Y-38420D01*
X43919Y-38420D02*
X44022Y-38553D01*
X44022Y-38553D02*
X44149Y-38661D01*
X44149Y-38661D02*
X44296Y-38740D01*
X44296Y-38740D02*
X44457Y-38787D01*
X44457Y-38787D02*
X44624Y-38800D01*
X44624Y-38800D02*
X44789Y-38777D01*
X44789Y-38777D02*
X44947Y-38721D01*
X44947Y-38721D02*
X45089Y-38633D01*
X45089Y-38633D02*
X45210Y-38517D01*
X45210Y-38517D02*
X45304Y-38379D01*
X45304Y-38379D02*
X45368Y-38225D01*
X45368Y-38225D02*
X45398Y-38060D01*
X45398Y-38060D02*
X45393Y-37893D01*
X45393Y-37893D02*
X45353Y-37730D01*
X45353Y-37730D02*
X45281Y-37580D01*
X45281Y-37580D02*
X45178Y-37447D01*
X45178Y-37447D02*
X45051Y-37339D01*
X45051Y-37339D02*
X44904Y-37260D01*
X44904Y-37260D02*
X44743Y-37213D01*
X44743Y-37213D02*
X44576Y-37200D01*
X44576Y-37200D02*
X44411Y-37223D01*
X44411Y-37223D02*
X44253Y-37279D01*
X44253Y-37279D02*
X44111Y-37367D01*
X44111Y-37367D02*
X43990Y-37483D01*
X43990Y-37483D02*
X43896Y-37621D01*
X43896Y-37621D02*
X43832Y-37775D01*
X43832Y-37775D02*
X43802Y-37940D01*
X43802Y-37940D02*
X43800Y-38000D01*
X43801Y-38000D02*
X43818Y-38166D01*
X43818Y-38166D02*
X43870Y-38325D01*
X43870Y-38325D02*
X43954Y-38470D01*
X43954Y-38470D02*
X44065Y-38594D01*
X44065Y-38594D02*
X44200Y-38692D01*
X44200Y-38692D02*
X44353Y-38760D01*
X44353Y-38760D02*
X44516Y-38795D01*
X44516Y-38795D02*
X44684Y-38795D01*
X44684Y-38795D02*
X44847Y-38760D01*
X44847Y-38760D02*
X45000Y-38692D01*
X45000Y-38692D02*
X45135Y-38594D01*
X45135Y-38594D02*
X45246Y-38470D01*
X45246Y-38470D02*
X45330Y-38325D01*
X45330Y-38325D02*
X45382Y-38166D01*
X45382Y-38166D02*
X45399Y-38000D01*
X45399Y-38000D02*
X45382Y-37834D01*
X45382Y-37834D02*
X45330Y-37675D01*
X45330Y-37675D02*
X45246Y-37530D01*
X45246Y-37530D02*
X45135Y-37406D01*
X45135Y-37406D02*
X45000Y-37308D01*
X45000Y-37308D02*
X44847Y-37240D01*
X44847Y-37240D02*
X44684Y-37205D01*
X44684Y-37205D02*
X44516Y-37205D01*
X44516Y-37205D02*
X44353Y-37240D01*
X44353Y-37240D02*
X44200Y-37308D01*
X44200Y-37308D02*
X44065Y-37406D01*
X44065Y-37406D02*
X43954Y-37530D01*
X43954Y-37530D02*
X43870Y-37675D01*
X43870Y-37675D02*
X43818Y-37834D01*
X43818Y-37834D02*
X43801Y-38000D01*
X43801Y-38000D02*
X43818Y-38166D01*
X43818Y-38166D02*
X43870Y-38325D01*
X43870Y-38325D02*
X43919Y-38419D01*
G54D22*
X48500Y-24500D02*
X50500Y-24500D01*
X50500Y-24500D02*
X50500Y-26500D01*
X50500Y-26500D02*
X48500Y-26500D01*
X48500Y-26500D02*
X48500Y-24500D01*
G54D21*
X55500Y-40500D02*
X56500Y-40500D01*
X56500Y-40500D02*
X56500Y-36500D01*
X56500Y-36500D02*
X55500Y-36500D01*
X55500Y-36500D02*
X55500Y-40500D01*
G54D22*
X50000Y-40000D02*
X50000Y-39800D01*
X50000Y-37000D02*
X50000Y-37200D01*
X50000Y-37200D02*
X49600Y-37200D01*
X49600Y-37200D02*
X49600Y-39800D01*
X49600Y-39800D02*
X50400Y-39800D01*
X50400Y-39800D02*
X50400Y-37200D01*
X50400Y-37200D02*
X50000Y-37200D01*
X49800Y-39800D02*
X49600Y-39600D01*
X52500Y-40000D02*
X52500Y-39800D01*
X52500Y-37000D02*
X52500Y-37200D01*
X52500Y-37200D02*
X52100Y-37200D01*
X52100Y-37200D02*
X52100Y-39800D01*
X52100Y-39800D02*
X52900Y-39800D01*
X52900Y-39800D02*
X52900Y-37200D01*
X52900Y-37200D02*
X52500Y-37200D01*
X52300Y-39800D02*
X52100Y-39600D01*
X47500Y-40000D02*
X47500Y-39800D01*
X47500Y-37000D02*
X47500Y-37200D01*
X47500Y-37200D02*
X47100Y-37200D01*
X47100Y-37200D02*
X47100Y-39800D01*
X47100Y-39800D02*
X47900Y-39800D01*
X47900Y-39800D02*
X47900Y-37200D01*
X47900Y-37200D02*
X47500Y-37200D01*
X47300Y-39800D02*
X47100Y-39600D01*
X52500Y-25500D02*
X52900Y-25500D01*
X52900Y-25500D02*
X52900Y-25100D01*
X52900Y-25100D02*
X56100Y-25100D01*
X56100Y-25100D02*
X56100Y-25900D01*
X56100Y-25900D02*
X52900Y-25900D01*
X52900Y-25900D02*
X52900Y-25500D01*
X52900Y-25300D02*
X53100Y-25100D01*
X56500Y-25500D02*
X56100Y-25500D01*
G54D20*
X56700Y-28155D02*
X57300Y-28155D01*
X57300Y-28155D02*
X57300Y-28845D01*
X57300Y-28845D02*
X56700Y-28845D01*
X56700Y-28845D02*
X56700Y-28155D01*
X56345Y-28500D02*
X56338Y-28567D01*
X56338Y-28567D02*
X56318Y-28631D01*
X56318Y-28631D02*
X56287Y-28690D01*
X56287Y-28690D02*
X56244Y-28743D01*
X56244Y-28743D02*
X56192Y-28786D01*
X56192Y-28786D02*
X56133Y-28818D01*
X56133Y-28818D02*
X56069Y-28837D01*
X56069Y-28837D02*
X56002Y-28844D01*
X56002Y-28844D02*
X55936Y-28838D01*
X55936Y-28838D02*
X55871Y-28819D01*
X55871Y-28819D02*
X55812Y-28788D01*
X55812Y-28788D02*
X55759Y-28746D01*
X55759Y-28746D02*
X55716Y-28694D01*
X55716Y-28694D02*
X55683Y-28635D01*
X55683Y-28635D02*
X55663Y-28571D01*
X55663Y-28571D02*
X55656Y-28504D01*
X55656Y-28504D02*
X55661Y-28438D01*
X55661Y-28438D02*
X55680Y-28373D01*
X55680Y-28373D02*
X55711Y-28314D01*
X55711Y-28314D02*
X55752Y-28261D01*
X55752Y-28261D02*
X55804Y-28217D01*
X55804Y-28217D02*
X55862Y-28184D01*
X55862Y-28184D02*
X55926Y-28164D01*
X55926Y-28164D02*
X55993Y-28156D01*
X55993Y-28156D02*
X56059Y-28161D01*
X56059Y-28161D02*
X56124Y-28179D01*
X56124Y-28179D02*
X56184Y-28209D01*
X56184Y-28209D02*
X56237Y-28251D01*
X56237Y-28251D02*
X56281Y-28302D01*
X56281Y-28302D02*
X56315Y-28360D01*
X56315Y-28360D02*
X56336Y-28424D01*
X56336Y-28424D02*
X56344Y-28491D01*
X56344Y-28491D02*
X56345Y-28500D01*
X55345Y-28500D02*
X55338Y-28567D01*
X55338Y-28567D02*
X55318Y-28631D01*
X55318Y-28631D02*
X55287Y-28690D01*
X55287Y-28690D02*
X55244Y-28743D01*
X55244Y-28743D02*
X55192Y-28786D01*
X55192Y-28786D02*
X55133Y-28818D01*
X55133Y-28818D02*
X55069Y-28837D01*
X55069Y-28837D02*
X55002Y-28844D01*
X55002Y-28844D02*
X54936Y-28838D01*
X54936Y-28838D02*
X54871Y-28819D01*
X54871Y-28819D02*
X54812Y-28788D01*
X54812Y-28788D02*
X54759Y-28746D01*
X54759Y-28746D02*
X54716Y-28694D01*
X54716Y-28694D02*
X54683Y-28635D01*
X54683Y-28635D02*
X54663Y-28571D01*
X54663Y-28571D02*
X54656Y-28504D01*
X54656Y-28504D02*
X54661Y-28438D01*
X54661Y-28438D02*
X54680Y-28373D01*
X54680Y-28373D02*
X54711Y-28314D01*
X54711Y-28314D02*
X54752Y-28261D01*
X54752Y-28261D02*
X54804Y-28217D01*
X54804Y-28217D02*
X54862Y-28184D01*
X54862Y-28184D02*
X54926Y-28164D01*
X54926Y-28164D02*
X54993Y-28156D01*
X54993Y-28156D02*
X55059Y-28161D01*
X55059Y-28161D02*
X55124Y-28179D01*
X55124Y-28179D02*
X55184Y-28209D01*
X55184Y-28209D02*
X55237Y-28251D01*
X55237Y-28251D02*
X55281Y-28302D01*
X55281Y-28302D02*
X55315Y-28360D01*
X55315Y-28360D02*
X55336Y-28424D01*
X55336Y-28424D02*
X55344Y-28491D01*
X55344Y-28491D02*
X55345Y-28500D01*
X54345Y-28500D02*
X54338Y-28567D01*
X54338Y-28567D02*
X54318Y-28631D01*
X54318Y-28631D02*
X54287Y-28690D01*
X54287Y-28690D02*
X54244Y-28743D01*
X54244Y-28743D02*
X54192Y-28786D01*
X54192Y-28786D02*
X54133Y-28818D01*
X54133Y-28818D02*
X54069Y-28837D01*
X54069Y-28837D02*
X54002Y-28844D01*
X54002Y-28844D02*
X53936Y-28838D01*
X53936Y-28838D02*
X53871Y-28819D01*
X53871Y-28819D02*
X53812Y-28788D01*
X53812Y-28788D02*
X53759Y-28746D01*
X53759Y-28746D02*
X53716Y-28694D01*
X53716Y-28694D02*
X53683Y-28635D01*
X53683Y-28635D02*
X53663Y-28571D01*
X53663Y-28571D02*
X53656Y-28504D01*
X53656Y-28504D02*
X53661Y-28438D01*
X53661Y-28438D02*
X53680Y-28373D01*
X53680Y-28373D02*
X53711Y-28314D01*
X53711Y-28314D02*
X53752Y-28261D01*
X53752Y-28261D02*
X53804Y-28217D01*
X53804Y-28217D02*
X53862Y-28184D01*
X53862Y-28184D02*
X53926Y-28164D01*
X53926Y-28164D02*
X53993Y-28156D01*
X53993Y-28156D02*
X54059Y-28161D01*
X54059Y-28161D02*
X54124Y-28179D01*
X54124Y-28179D02*
X54184Y-28209D01*
X54184Y-28209D02*
X54237Y-28251D01*
X54237Y-28251D02*
X54281Y-28302D01*
X54281Y-28302D02*
X54315Y-28360D01*
X54315Y-28360D02*
X54336Y-28424D01*
X54336Y-28424D02*
X54344Y-28491D01*
X54344Y-28491D02*
X54345Y-28500D01*
X53345Y-28500D02*
X53338Y-28567D01*
X53338Y-28567D02*
X53318Y-28631D01*
X53318Y-28631D02*
X53287Y-28690D01*
X53287Y-28690D02*
X53244Y-28743D01*
X53244Y-28743D02*
X53192Y-28786D01*
X53192Y-28786D02*
X53133Y-28818D01*
X53133Y-28818D02*
X53069Y-28837D01*
X53069Y-28837D02*
X53002Y-28844D01*
X53002Y-28844D02*
X52936Y-28838D01*
X52936Y-28838D02*
X52871Y-28819D01*
X52871Y-28819D02*
X52812Y-28788D01*
X52812Y-28788D02*
X52759Y-28746D01*
X52759Y-28746D02*
X52716Y-28694D01*
X52716Y-28694D02*
X52683Y-28635D01*
X52683Y-28635D02*
X52663Y-28571D01*
X52663Y-28571D02*
X52656Y-28504D01*
X52656Y-28504D02*
X52661Y-28438D01*
X52661Y-28438D02*
X52680Y-28373D01*
X52680Y-28373D02*
X52711Y-28314D01*
X52711Y-28314D02*
X52752Y-28261D01*
X52752Y-28261D02*
X52804Y-28217D01*
X52804Y-28217D02*
X52862Y-28184D01*
X52862Y-28184D02*
X52926Y-28164D01*
X52926Y-28164D02*
X52993Y-28156D01*
X52993Y-28156D02*
X53059Y-28161D01*
X53059Y-28161D02*
X53124Y-28179D01*
X53124Y-28179D02*
X53184Y-28209D01*
X53184Y-28209D02*
X53237Y-28251D01*
X53237Y-28251D02*
X53281Y-28302D01*
X53281Y-28302D02*
X53315Y-28360D01*
X53315Y-28360D02*
X53336Y-28424D01*
X53336Y-28424D02*
X53344Y-28491D01*
X53344Y-28491D02*
X53345Y-28500D01*
X52345Y-28500D02*
X52338Y-28567D01*
X52338Y-28567D02*
X52318Y-28631D01*
X52318Y-28631D02*
X52287Y-28690D01*
X52287Y-28690D02*
X52244Y-28743D01*
X52244Y-28743D02*
X52192Y-28786D01*
X52192Y-28786D02*
X52133Y-28818D01*
X52133Y-28818D02*
X52069Y-28837D01*
X52069Y-28837D02*
X52002Y-28844D01*
X52002Y-28844D02*
X51936Y-28838D01*
X51936Y-28838D02*
X51871Y-28819D01*
X51871Y-28819D02*
X51812Y-28788D01*
X51812Y-28788D02*
X51759Y-28746D01*
X51759Y-28746D02*
X51716Y-28694D01*
X51716Y-28694D02*
X51683Y-28635D01*
X51683Y-28635D02*
X51663Y-28571D01*
X51663Y-28571D02*
X51656Y-28504D01*
X51656Y-28504D02*
X51661Y-28438D01*
X51661Y-28438D02*
X51680Y-28373D01*
X51680Y-28373D02*
X51711Y-28314D01*
X51711Y-28314D02*
X51752Y-28261D01*
X51752Y-28261D02*
X51804Y-28217D01*
X51804Y-28217D02*
X51862Y-28184D01*
X51862Y-28184D02*
X51926Y-28164D01*
X51926Y-28164D02*
X51993Y-28156D01*
X51993Y-28156D02*
X52059Y-28161D01*
X52059Y-28161D02*
X52124Y-28179D01*
X52124Y-28179D02*
X52184Y-28209D01*
X52184Y-28209D02*
X52237Y-28251D01*
X52237Y-28251D02*
X52281Y-28302D01*
X52281Y-28302D02*
X52315Y-28360D01*
X52315Y-28360D02*
X52336Y-28424D01*
X52336Y-28424D02*
X52344Y-28491D01*
X52344Y-28491D02*
X52345Y-28500D01*
X51345Y-28500D02*
X51338Y-28567D01*
X51338Y-28567D02*
X51318Y-28631D01*
X51318Y-28631D02*
X51287Y-28690D01*
X51287Y-28690D02*
X51244Y-28743D01*
X51244Y-28743D02*
X51192Y-28786D01*
X51192Y-28786D02*
X51133Y-28818D01*
X51133Y-28818D02*
X51069Y-28837D01*
X51069Y-28837D02*
X51002Y-28844D01*
X51002Y-28844D02*
X50936Y-28838D01*
X50936Y-28838D02*
X50871Y-28819D01*
X50871Y-28819D02*
X50812Y-28788D01*
X50812Y-28788D02*
X50759Y-28746D01*
X50759Y-28746D02*
X50716Y-28694D01*
X50716Y-28694D02*
X50683Y-28635D01*
X50683Y-28635D02*
X50663Y-28571D01*
X50663Y-28571D02*
X50656Y-28504D01*
X50656Y-28504D02*
X50661Y-28438D01*
X50661Y-28438D02*
X50680Y-28373D01*
X50680Y-28373D02*
X50711Y-28314D01*
X50711Y-28314D02*
X50752Y-28261D01*
X50752Y-28261D02*
X50804Y-28217D01*
X50804Y-28217D02*
X50862Y-28184D01*
X50862Y-28184D02*
X50926Y-28164D01*
X50926Y-28164D02*
X50993Y-28156D01*
X50993Y-28156D02*
X51059Y-28161D01*
X51059Y-28161D02*
X51124Y-28179D01*
X51124Y-28179D02*
X51184Y-28209D01*
X51184Y-28209D02*
X51237Y-28251D01*
X51237Y-28251D02*
X51281Y-28302D01*
X51281Y-28302D02*
X51315Y-28360D01*
X51315Y-28360D02*
X51336Y-28424D01*
X51336Y-28424D02*
X51344Y-28491D01*
X51344Y-28491D02*
X51345Y-28500D01*
X50345Y-28500D02*
X50338Y-28567D01*
X50338Y-28567D02*
X50318Y-28631D01*
X50318Y-28631D02*
X50287Y-28690D01*
X50287Y-28690D02*
X50244Y-28743D01*
X50244Y-28743D02*
X50192Y-28786D01*
X50192Y-28786D02*
X50133Y-28818D01*
X50133Y-28818D02*
X50069Y-28837D01*
X50069Y-28837D02*
X50002Y-28844D01*
X50002Y-28844D02*
X49936Y-28838D01*
X49936Y-28838D02*
X49871Y-28819D01*
X49871Y-28819D02*
X49812Y-28788D01*
X49812Y-28788D02*
X49759Y-28746D01*
X49759Y-28746D02*
X49716Y-28694D01*
X49716Y-28694D02*
X49683Y-28635D01*
X49683Y-28635D02*
X49663Y-28571D01*
X49663Y-28571D02*
X49656Y-28504D01*
X49656Y-28504D02*
X49661Y-28438D01*
X49661Y-28438D02*
X49680Y-28373D01*
X49680Y-28373D02*
X49711Y-28314D01*
X49711Y-28314D02*
X49752Y-28261D01*
X49752Y-28261D02*
X49804Y-28217D01*
X49804Y-28217D02*
X49862Y-28184D01*
X49862Y-28184D02*
X49926Y-28164D01*
X49926Y-28164D02*
X49993Y-28156D01*
X49993Y-28156D02*
X50059Y-28161D01*
X50059Y-28161D02*
X50124Y-28179D01*
X50124Y-28179D02*
X50184Y-28209D01*
X50184Y-28209D02*
X50237Y-28251D01*
X50237Y-28251D02*
X50281Y-28302D01*
X50281Y-28302D02*
X50315Y-28360D01*
X50315Y-28360D02*
X50336Y-28424D01*
X50336Y-28424D02*
X50344Y-28491D01*
X50344Y-28491D02*
X50345Y-28500D01*
X49345Y-28500D02*
X49338Y-28567D01*
X49338Y-28567D02*
X49318Y-28631D01*
X49318Y-28631D02*
X49287Y-28690D01*
X49287Y-28690D02*
X49244Y-28743D01*
X49244Y-28743D02*
X49192Y-28786D01*
X49192Y-28786D02*
X49133Y-28818D01*
X49133Y-28818D02*
X49069Y-28837D01*
X49069Y-28837D02*
X49002Y-28844D01*
X49002Y-28844D02*
X48936Y-28838D01*
X48936Y-28838D02*
X48871Y-28819D01*
X48871Y-28819D02*
X48812Y-28788D01*
X48812Y-28788D02*
X48759Y-28746D01*
X48759Y-28746D02*
X48716Y-28694D01*
X48716Y-28694D02*
X48683Y-28635D01*
X48683Y-28635D02*
X48663Y-28571D01*
X48663Y-28571D02*
X48656Y-28504D01*
X48656Y-28504D02*
X48661Y-28438D01*
X48661Y-28438D02*
X48680Y-28373D01*
X48680Y-28373D02*
X48711Y-28314D01*
X48711Y-28314D02*
X48752Y-28261D01*
X48752Y-28261D02*
X48804Y-28217D01*
X48804Y-28217D02*
X48862Y-28184D01*
X48862Y-28184D02*
X48926Y-28164D01*
X48926Y-28164D02*
X48993Y-28156D01*
X48993Y-28156D02*
X49059Y-28161D01*
X49059Y-28161D02*
X49124Y-28179D01*
X49124Y-28179D02*
X49184Y-28209D01*
X49184Y-28209D02*
X49237Y-28251D01*
X49237Y-28251D02*
X49281Y-28302D01*
X49281Y-28302D02*
X49315Y-28360D01*
X49315Y-28360D02*
X49336Y-28424D01*
X49336Y-28424D02*
X49344Y-28491D01*
X49344Y-28491D02*
X49345Y-28500D01*
X48345Y-28500D02*
X48338Y-28567D01*
X48338Y-28567D02*
X48318Y-28631D01*
X48318Y-28631D02*
X48287Y-28690D01*
X48287Y-28690D02*
X48244Y-28743D01*
X48244Y-28743D02*
X48192Y-28786D01*
X48192Y-28786D02*
X48133Y-28818D01*
X48133Y-28818D02*
X48069Y-28837D01*
X48069Y-28837D02*
X48002Y-28844D01*
X48002Y-28844D02*
X47936Y-28838D01*
X47936Y-28838D02*
X47871Y-28819D01*
X47871Y-28819D02*
X47812Y-28788D01*
X47812Y-28788D02*
X47759Y-28746D01*
X47759Y-28746D02*
X47716Y-28694D01*
X47716Y-28694D02*
X47683Y-28635D01*
X47683Y-28635D02*
X47663Y-28571D01*
X47663Y-28571D02*
X47656Y-28504D01*
X47656Y-28504D02*
X47661Y-28438D01*
X47661Y-28438D02*
X47680Y-28373D01*
X47680Y-28373D02*
X47711Y-28314D01*
X47711Y-28314D02*
X47752Y-28261D01*
X47752Y-28261D02*
X47804Y-28217D01*
X47804Y-28217D02*
X47862Y-28184D01*
X47862Y-28184D02*
X47926Y-28164D01*
X47926Y-28164D02*
X47993Y-28156D01*
X47993Y-28156D02*
X48059Y-28161D01*
X48059Y-28161D02*
X48124Y-28179D01*
X48124Y-28179D02*
X48184Y-28209D01*
X48184Y-28209D02*
X48237Y-28251D01*
X48237Y-28251D02*
X48281Y-28302D01*
X48281Y-28302D02*
X48315Y-28360D01*
X48315Y-28360D02*
X48336Y-28424D01*
X48336Y-28424D02*
X48344Y-28491D01*
X48344Y-28491D02*
X48345Y-28500D01*
X47345Y-28500D02*
X47338Y-28567D01*
X47338Y-28567D02*
X47318Y-28631D01*
X47318Y-28631D02*
X47287Y-28690D01*
X47287Y-28690D02*
X47244Y-28743D01*
X47244Y-28743D02*
X47192Y-28786D01*
X47192Y-28786D02*
X47133Y-28818D01*
X47133Y-28818D02*
X47069Y-28837D01*
X47069Y-28837D02*
X47002Y-28844D01*
X47002Y-28844D02*
X46936Y-28838D01*
X46936Y-28838D02*
X46871Y-28819D01*
X46871Y-28819D02*
X46812Y-28788D01*
X46812Y-28788D02*
X46759Y-28746D01*
X46759Y-28746D02*
X46716Y-28694D01*
X46716Y-28694D02*
X46683Y-28635D01*
X46683Y-28635D02*
X46663Y-28571D01*
X46663Y-28571D02*
X46656Y-28504D01*
X46656Y-28504D02*
X46661Y-28438D01*
X46661Y-28438D02*
X46680Y-28373D01*
X46680Y-28373D02*
X46711Y-28314D01*
X46711Y-28314D02*
X46752Y-28261D01*
X46752Y-28261D02*
X46804Y-28217D01*
X46804Y-28217D02*
X46862Y-28184D01*
X46862Y-28184D02*
X46926Y-28164D01*
X46926Y-28164D02*
X46993Y-28156D01*
X46993Y-28156D02*
X47059Y-28161D01*
X47059Y-28161D02*
X47124Y-28179D01*
X47124Y-28179D02*
X47184Y-28209D01*
X47184Y-28209D02*
X47237Y-28251D01*
X47237Y-28251D02*
X47281Y-28302D01*
X47281Y-28302D02*
X47315Y-28360D01*
X47315Y-28360D02*
X47336Y-28424D01*
X47336Y-28424D02*
X47344Y-28491D01*
X47344Y-28491D02*
X47345Y-28500D01*
X46345Y-28500D02*
X46338Y-28567D01*
X46338Y-28567D02*
X46318Y-28631D01*
X46318Y-28631D02*
X46287Y-28690D01*
X46287Y-28690D02*
X46244Y-28743D01*
X46244Y-28743D02*
X46192Y-28786D01*
X46192Y-28786D02*
X46133Y-28818D01*
X46133Y-28818D02*
X46069Y-28837D01*
X46069Y-28837D02*
X46002Y-28844D01*
X46002Y-28844D02*
X45936Y-28838D01*
X45936Y-28838D02*
X45871Y-28819D01*
X45871Y-28819D02*
X45812Y-28788D01*
X45812Y-28788D02*
X45759Y-28746D01*
X45759Y-28746D02*
X45716Y-28694D01*
X45716Y-28694D02*
X45683Y-28635D01*
X45683Y-28635D02*
X45663Y-28571D01*
X45663Y-28571D02*
X45656Y-28504D01*
X45656Y-28504D02*
X45661Y-28438D01*
X45661Y-28438D02*
X45680Y-28373D01*
X45680Y-28373D02*
X45711Y-28314D01*
X45711Y-28314D02*
X45752Y-28261D01*
X45752Y-28261D02*
X45804Y-28217D01*
X45804Y-28217D02*
X45862Y-28184D01*
X45862Y-28184D02*
X45926Y-28164D01*
X45926Y-28164D02*
X45993Y-28156D01*
X45993Y-28156D02*
X46059Y-28161D01*
X46059Y-28161D02*
X46124Y-28179D01*
X46124Y-28179D02*
X46184Y-28209D01*
X46184Y-28209D02*
X46237Y-28251D01*
X46237Y-28251D02*
X46281Y-28302D01*
X46281Y-28302D02*
X46315Y-28360D01*
X46315Y-28360D02*
X46336Y-28424D01*
X46336Y-28424D02*
X46344Y-28491D01*
X46344Y-28491D02*
X46345Y-28500D01*
X45345Y-28500D02*
X45338Y-28567D01*
X45338Y-28567D02*
X45318Y-28631D01*
X45318Y-28631D02*
X45287Y-28690D01*
X45287Y-28690D02*
X45244Y-28743D01*
X45244Y-28743D02*
X45192Y-28786D01*
X45192Y-28786D02*
X45133Y-28818D01*
X45133Y-28818D02*
X45069Y-28837D01*
X45069Y-28837D02*
X45002Y-28844D01*
X45002Y-28844D02*
X44936Y-28838D01*
X44936Y-28838D02*
X44871Y-28819D01*
X44871Y-28819D02*
X44812Y-28788D01*
X44812Y-28788D02*
X44759Y-28746D01*
X44759Y-28746D02*
X44716Y-28694D01*
X44716Y-28694D02*
X44683Y-28635D01*
X44683Y-28635D02*
X44663Y-28571D01*
X44663Y-28571D02*
X44656Y-28504D01*
X44656Y-28504D02*
X44661Y-28438D01*
X44661Y-28438D02*
X44680Y-28373D01*
X44680Y-28373D02*
X44711Y-28314D01*
X44711Y-28314D02*
X44752Y-28261D01*
X44752Y-28261D02*
X44804Y-28217D01*
X44804Y-28217D02*
X44862Y-28184D01*
X44862Y-28184D02*
X44926Y-28164D01*
X44926Y-28164D02*
X44993Y-28156D01*
X44993Y-28156D02*
X45059Y-28161D01*
X45059Y-28161D02*
X45124Y-28179D01*
X45124Y-28179D02*
X45184Y-28209D01*
X45184Y-28209D02*
X45237Y-28251D01*
X45237Y-28251D02*
X45281Y-28302D01*
X45281Y-28302D02*
X45315Y-28360D01*
X45315Y-28360D02*
X45336Y-28424D01*
X45336Y-28424D02*
X45344Y-28491D01*
X45344Y-28491D02*
X45345Y-28500D01*
X44345Y-28500D02*
X44338Y-28567D01*
X44338Y-28567D02*
X44318Y-28631D01*
X44318Y-28631D02*
X44287Y-28690D01*
X44287Y-28690D02*
X44244Y-28743D01*
X44244Y-28743D02*
X44192Y-28786D01*
X44192Y-28786D02*
X44133Y-28818D01*
X44133Y-28818D02*
X44069Y-28837D01*
X44069Y-28837D02*
X44002Y-28844D01*
X44002Y-28844D02*
X43936Y-28838D01*
X43936Y-28838D02*
X43871Y-28819D01*
X43871Y-28819D02*
X43812Y-28788D01*
X43812Y-28788D02*
X43759Y-28746D01*
X43759Y-28746D02*
X43716Y-28694D01*
X43716Y-28694D02*
X43683Y-28635D01*
X43683Y-28635D02*
X43663Y-28571D01*
X43663Y-28571D02*
X43656Y-28504D01*
X43656Y-28504D02*
X43661Y-28438D01*
X43661Y-28438D02*
X43680Y-28373D01*
X43680Y-28373D02*
X43711Y-28314D01*
X43711Y-28314D02*
X43752Y-28261D01*
X43752Y-28261D02*
X43804Y-28217D01*
X43804Y-28217D02*
X43862Y-28184D01*
X43862Y-28184D02*
X43926Y-28164D01*
X43926Y-28164D02*
X43993Y-28156D01*
X43993Y-28156D02*
X44059Y-28161D01*
X44059Y-28161D02*
X44124Y-28179D01*
X44124Y-28179D02*
X44184Y-28209D01*
X44184Y-28209D02*
X44237Y-28251D01*
X44237Y-28251D02*
X44281Y-28302D01*
X44281Y-28302D02*
X44315Y-28360D01*
X44315Y-28360D02*
X44336Y-28424D01*
X44336Y-28424D02*
X44344Y-28491D01*
X44344Y-28491D02*
X44345Y-28500D01*
X43345Y-28500D02*
X43338Y-28567D01*
X43338Y-28567D02*
X43318Y-28631D01*
X43318Y-28631D02*
X43287Y-28690D01*
X43287Y-28690D02*
X43244Y-28743D01*
X43244Y-28743D02*
X43192Y-28786D01*
X43192Y-28786D02*
X43133Y-28818D01*
X43133Y-28818D02*
X43069Y-28837D01*
X43069Y-28837D02*
X43002Y-28844D01*
X43002Y-28844D02*
X42936Y-28838D01*
X42936Y-28838D02*
X42871Y-28819D01*
X42871Y-28819D02*
X42812Y-28788D01*
X42812Y-28788D02*
X42759Y-28746D01*
X42759Y-28746D02*
X42716Y-28694D01*
X42716Y-28694D02*
X42683Y-28635D01*
X42683Y-28635D02*
X42663Y-28571D01*
X42663Y-28571D02*
X42656Y-28504D01*
X42656Y-28504D02*
X42661Y-28438D01*
X42661Y-28438D02*
X42680Y-28373D01*
X42680Y-28373D02*
X42711Y-28314D01*
X42711Y-28314D02*
X42752Y-28261D01*
X42752Y-28261D02*
X42804Y-28217D01*
X42804Y-28217D02*
X42862Y-28184D01*
X42862Y-28184D02*
X42926Y-28164D01*
X42926Y-28164D02*
X42993Y-28156D01*
X42993Y-28156D02*
X43059Y-28161D01*
X43059Y-28161D02*
X43124Y-28179D01*
X43124Y-28179D02*
X43184Y-28209D01*
X43184Y-28209D02*
X43237Y-28251D01*
X43237Y-28251D02*
X43281Y-28302D01*
X43281Y-28302D02*
X43315Y-28360D01*
X43315Y-28360D02*
X43336Y-28424D01*
X43336Y-28424D02*
X43344Y-28491D01*
X43344Y-28491D02*
X43345Y-28500D01*
X43345Y-34500D02*
X43338Y-34567D01*
X43338Y-34567D02*
X43318Y-34631D01*
X43318Y-34631D02*
X43287Y-34690D01*
X43287Y-34690D02*
X43244Y-34743D01*
X43244Y-34743D02*
X43192Y-34786D01*
X43192Y-34786D02*
X43133Y-34818D01*
X43133Y-34818D02*
X43069Y-34837D01*
X43069Y-34837D02*
X43002Y-34844D01*
X43002Y-34844D02*
X42936Y-34838D01*
X42936Y-34838D02*
X42871Y-34819D01*
X42871Y-34819D02*
X42812Y-34788D01*
X42812Y-34788D02*
X42759Y-34746D01*
X42759Y-34746D02*
X42716Y-34694D01*
X42716Y-34694D02*
X42683Y-34635D01*
X42683Y-34635D02*
X42663Y-34571D01*
X42663Y-34571D02*
X42656Y-34504D01*
X42656Y-34504D02*
X42661Y-34438D01*
X42661Y-34438D02*
X42680Y-34373D01*
X42680Y-34373D02*
X42711Y-34314D01*
X42711Y-34314D02*
X42752Y-34261D01*
X42752Y-34261D02*
X42804Y-34217D01*
X42804Y-34217D02*
X42862Y-34184D01*
X42862Y-34184D02*
X42926Y-34164D01*
X42926Y-34164D02*
X42993Y-34156D01*
X42993Y-34156D02*
X43059Y-34161D01*
X43059Y-34161D02*
X43124Y-34179D01*
X43124Y-34179D02*
X43184Y-34209D01*
X43184Y-34209D02*
X43237Y-34251D01*
X43237Y-34251D02*
X43281Y-34302D01*
X43281Y-34302D02*
X43315Y-34360D01*
X43315Y-34360D02*
X43336Y-34424D01*
X43336Y-34424D02*
X43344Y-34491D01*
X43344Y-34491D02*
X43345Y-34500D01*
X44345Y-34500D02*
X44338Y-34567D01*
X44338Y-34567D02*
X44318Y-34631D01*
X44318Y-34631D02*
X44287Y-34690D01*
X44287Y-34690D02*
X44244Y-34743D01*
X44244Y-34743D02*
X44192Y-34786D01*
X44192Y-34786D02*
X44133Y-34818D01*
X44133Y-34818D02*
X44069Y-34837D01*
X44069Y-34837D02*
X44002Y-34844D01*
X44002Y-34844D02*
X43936Y-34838D01*
X43936Y-34838D02*
X43871Y-34819D01*
X43871Y-34819D02*
X43812Y-34788D01*
X43812Y-34788D02*
X43759Y-34746D01*
X43759Y-34746D02*
X43716Y-34694D01*
X43716Y-34694D02*
X43683Y-34635D01*
X43683Y-34635D02*
X43663Y-34571D01*
X43663Y-34571D02*
X43656Y-34504D01*
X43656Y-34504D02*
X43661Y-34438D01*
X43661Y-34438D02*
X43680Y-34373D01*
X43680Y-34373D02*
X43711Y-34314D01*
X43711Y-34314D02*
X43752Y-34261D01*
X43752Y-34261D02*
X43804Y-34217D01*
X43804Y-34217D02*
X43862Y-34184D01*
X43862Y-34184D02*
X43926Y-34164D01*
X43926Y-34164D02*
X43993Y-34156D01*
X43993Y-34156D02*
X44059Y-34161D01*
X44059Y-34161D02*
X44124Y-34179D01*
X44124Y-34179D02*
X44184Y-34209D01*
X44184Y-34209D02*
X44237Y-34251D01*
X44237Y-34251D02*
X44281Y-34302D01*
X44281Y-34302D02*
X44315Y-34360D01*
X44315Y-34360D02*
X44336Y-34424D01*
X44336Y-34424D02*
X44344Y-34491D01*
X44344Y-34491D02*
X44345Y-34500D01*
X45345Y-34500D02*
X45338Y-34567D01*
X45338Y-34567D02*
X45318Y-34631D01*
X45318Y-34631D02*
X45287Y-34690D01*
X45287Y-34690D02*
X45244Y-34743D01*
X45244Y-34743D02*
X45192Y-34786D01*
X45192Y-34786D02*
X45133Y-34818D01*
X45133Y-34818D02*
X45069Y-34837D01*
X45069Y-34837D02*
X45002Y-34844D01*
X45002Y-34844D02*
X44936Y-34838D01*
X44936Y-34838D02*
X44871Y-34819D01*
X44871Y-34819D02*
X44812Y-34788D01*
X44812Y-34788D02*
X44759Y-34746D01*
X44759Y-34746D02*
X44716Y-34694D01*
X44716Y-34694D02*
X44683Y-34635D01*
X44683Y-34635D02*
X44663Y-34571D01*
X44663Y-34571D02*
X44656Y-34504D01*
X44656Y-34504D02*
X44661Y-34438D01*
X44661Y-34438D02*
X44680Y-34373D01*
X44680Y-34373D02*
X44711Y-34314D01*
X44711Y-34314D02*
X44752Y-34261D01*
X44752Y-34261D02*
X44804Y-34217D01*
X44804Y-34217D02*
X44862Y-34184D01*
X44862Y-34184D02*
X44926Y-34164D01*
X44926Y-34164D02*
X44993Y-34156D01*
X44993Y-34156D02*
X45059Y-34161D01*
X45059Y-34161D02*
X45124Y-34179D01*
X45124Y-34179D02*
X45184Y-34209D01*
X45184Y-34209D02*
X45237Y-34251D01*
X45237Y-34251D02*
X45281Y-34302D01*
X45281Y-34302D02*
X45315Y-34360D01*
X45315Y-34360D02*
X45336Y-34424D01*
X45336Y-34424D02*
X45344Y-34491D01*
X45344Y-34491D02*
X45345Y-34500D01*
X46345Y-34500D02*
X46338Y-34567D01*
X46338Y-34567D02*
X46318Y-34631D01*
X46318Y-34631D02*
X46287Y-34690D01*
X46287Y-34690D02*
X46244Y-34743D01*
X46244Y-34743D02*
X46192Y-34786D01*
X46192Y-34786D02*
X46133Y-34818D01*
X46133Y-34818D02*
X46069Y-34837D01*
X46069Y-34837D02*
X46002Y-34844D01*
X46002Y-34844D02*
X45936Y-34838D01*
X45936Y-34838D02*
X45871Y-34819D01*
X45871Y-34819D02*
X45812Y-34788D01*
X45812Y-34788D02*
X45759Y-34746D01*
X45759Y-34746D02*
X45716Y-34694D01*
X45716Y-34694D02*
X45683Y-34635D01*
X45683Y-34635D02*
X45663Y-34571D01*
X45663Y-34571D02*
X45656Y-34504D01*
X45656Y-34504D02*
X45661Y-34438D01*
X45661Y-34438D02*
X45680Y-34373D01*
X45680Y-34373D02*
X45711Y-34314D01*
X45711Y-34314D02*
X45752Y-34261D01*
X45752Y-34261D02*
X45804Y-34217D01*
X45804Y-34217D02*
X45862Y-34184D01*
X45862Y-34184D02*
X45926Y-34164D01*
X45926Y-34164D02*
X45993Y-34156D01*
X45993Y-34156D02*
X46059Y-34161D01*
X46059Y-34161D02*
X46124Y-34179D01*
X46124Y-34179D02*
X46184Y-34209D01*
X46184Y-34209D02*
X46237Y-34251D01*
X46237Y-34251D02*
X46281Y-34302D01*
X46281Y-34302D02*
X46315Y-34360D01*
X46315Y-34360D02*
X46336Y-34424D01*
X46336Y-34424D02*
X46344Y-34491D01*
X46344Y-34491D02*
X46345Y-34500D01*
X47345Y-34500D02*
X47338Y-34567D01*
X47338Y-34567D02*
X47318Y-34631D01*
X47318Y-34631D02*
X47287Y-34690D01*
X47287Y-34690D02*
X47244Y-34743D01*
X47244Y-34743D02*
X47192Y-34786D01*
X47192Y-34786D02*
X47133Y-34818D01*
X47133Y-34818D02*
X47069Y-34837D01*
X47069Y-34837D02*
X47002Y-34844D01*
X47002Y-34844D02*
X46936Y-34838D01*
X46936Y-34838D02*
X46871Y-34819D01*
X46871Y-34819D02*
X46812Y-34788D01*
X46812Y-34788D02*
X46759Y-34746D01*
X46759Y-34746D02*
X46716Y-34694D01*
X46716Y-34694D02*
X46683Y-34635D01*
X46683Y-34635D02*
X46663Y-34571D01*
X46663Y-34571D02*
X46656Y-34504D01*
X46656Y-34504D02*
X46661Y-34438D01*
X46661Y-34438D02*
X46680Y-34373D01*
X46680Y-34373D02*
X46711Y-34314D01*
X46711Y-34314D02*
X46752Y-34261D01*
X46752Y-34261D02*
X46804Y-34217D01*
X46804Y-34217D02*
X46862Y-34184D01*
X46862Y-34184D02*
X46926Y-34164D01*
X46926Y-34164D02*
X46993Y-34156D01*
X46993Y-34156D02*
X47059Y-34161D01*
X47059Y-34161D02*
X47124Y-34179D01*
X47124Y-34179D02*
X47184Y-34209D01*
X47184Y-34209D02*
X47237Y-34251D01*
X47237Y-34251D02*
X47281Y-34302D01*
X47281Y-34302D02*
X47315Y-34360D01*
X47315Y-34360D02*
X47336Y-34424D01*
X47336Y-34424D02*
X47344Y-34491D01*
X47344Y-34491D02*
X47345Y-34500D01*
X48345Y-34500D02*
X48338Y-34567D01*
X48338Y-34567D02*
X48318Y-34631D01*
X48318Y-34631D02*
X48287Y-34690D01*
X48287Y-34690D02*
X48244Y-34743D01*
X48244Y-34743D02*
X48192Y-34786D01*
X48192Y-34786D02*
X48133Y-34818D01*
X48133Y-34818D02*
X48069Y-34837D01*
X48069Y-34837D02*
X48002Y-34844D01*
X48002Y-34844D02*
X47936Y-34838D01*
X47936Y-34838D02*
X47871Y-34819D01*
X47871Y-34819D02*
X47812Y-34788D01*
X47812Y-34788D02*
X47759Y-34746D01*
X47759Y-34746D02*
X47716Y-34694D01*
X47716Y-34694D02*
X47683Y-34635D01*
X47683Y-34635D02*
X47663Y-34571D01*
X47663Y-34571D02*
X47656Y-34504D01*
X47656Y-34504D02*
X47661Y-34438D01*
X47661Y-34438D02*
X47680Y-34373D01*
X47680Y-34373D02*
X47711Y-34314D01*
X47711Y-34314D02*
X47752Y-34261D01*
X47752Y-34261D02*
X47804Y-34217D01*
X47804Y-34217D02*
X47862Y-34184D01*
X47862Y-34184D02*
X47926Y-34164D01*
X47926Y-34164D02*
X47993Y-34156D01*
X47993Y-34156D02*
X48059Y-34161D01*
X48059Y-34161D02*
X48124Y-34179D01*
X48124Y-34179D02*
X48184Y-34209D01*
X48184Y-34209D02*
X48237Y-34251D01*
X48237Y-34251D02*
X48281Y-34302D01*
X48281Y-34302D02*
X48315Y-34360D01*
X48315Y-34360D02*
X48336Y-34424D01*
X48336Y-34424D02*
X48344Y-34491D01*
X48344Y-34491D02*
X48345Y-34500D01*
X49345Y-34500D02*
X49338Y-34567D01*
X49338Y-34567D02*
X49318Y-34631D01*
X49318Y-34631D02*
X49287Y-34690D01*
X49287Y-34690D02*
X49244Y-34743D01*
X49244Y-34743D02*
X49192Y-34786D01*
X49192Y-34786D02*
X49133Y-34818D01*
X49133Y-34818D02*
X49069Y-34837D01*
X49069Y-34837D02*
X49002Y-34844D01*
X49002Y-34844D02*
X48936Y-34838D01*
X48936Y-34838D02*
X48871Y-34819D01*
X48871Y-34819D02*
X48812Y-34788D01*
X48812Y-34788D02*
X48759Y-34746D01*
X48759Y-34746D02*
X48716Y-34694D01*
X48716Y-34694D02*
X48683Y-34635D01*
X48683Y-34635D02*
X48663Y-34571D01*
X48663Y-34571D02*
X48656Y-34504D01*
X48656Y-34504D02*
X48661Y-34438D01*
X48661Y-34438D02*
X48680Y-34373D01*
X48680Y-34373D02*
X48711Y-34314D01*
X48711Y-34314D02*
X48752Y-34261D01*
X48752Y-34261D02*
X48804Y-34217D01*
X48804Y-34217D02*
X48862Y-34184D01*
X48862Y-34184D02*
X48926Y-34164D01*
X48926Y-34164D02*
X48993Y-34156D01*
X48993Y-34156D02*
X49059Y-34161D01*
X49059Y-34161D02*
X49124Y-34179D01*
X49124Y-34179D02*
X49184Y-34209D01*
X49184Y-34209D02*
X49237Y-34251D01*
X49237Y-34251D02*
X49281Y-34302D01*
X49281Y-34302D02*
X49315Y-34360D01*
X49315Y-34360D02*
X49336Y-34424D01*
X49336Y-34424D02*
X49344Y-34491D01*
X49344Y-34491D02*
X49345Y-34500D01*
X50345Y-34500D02*
X50338Y-34567D01*
X50338Y-34567D02*
X50318Y-34631D01*
X50318Y-34631D02*
X50287Y-34690D01*
X50287Y-34690D02*
X50244Y-34743D01*
X50244Y-34743D02*
X50192Y-34786D01*
X50192Y-34786D02*
X50133Y-34818D01*
X50133Y-34818D02*
X50069Y-34837D01*
X50069Y-34837D02*
X50002Y-34844D01*
X50002Y-34844D02*
X49936Y-34838D01*
X49936Y-34838D02*
X49871Y-34819D01*
X49871Y-34819D02*
X49812Y-34788D01*
X49812Y-34788D02*
X49759Y-34746D01*
X49759Y-34746D02*
X49716Y-34694D01*
X49716Y-34694D02*
X49683Y-34635D01*
X49683Y-34635D02*
X49663Y-34571D01*
X49663Y-34571D02*
X49656Y-34504D01*
X49656Y-34504D02*
X49661Y-34438D01*
X49661Y-34438D02*
X49680Y-34373D01*
X49680Y-34373D02*
X49711Y-34314D01*
X49711Y-34314D02*
X49752Y-34261D01*
X49752Y-34261D02*
X49804Y-34217D01*
X49804Y-34217D02*
X49862Y-34184D01*
X49862Y-34184D02*
X49926Y-34164D01*
X49926Y-34164D02*
X49993Y-34156D01*
X49993Y-34156D02*
X50059Y-34161D01*
X50059Y-34161D02*
X50124Y-34179D01*
X50124Y-34179D02*
X50184Y-34209D01*
X50184Y-34209D02*
X50237Y-34251D01*
X50237Y-34251D02*
X50281Y-34302D01*
X50281Y-34302D02*
X50315Y-34360D01*
X50315Y-34360D02*
X50336Y-34424D01*
X50336Y-34424D02*
X50344Y-34491D01*
X50344Y-34491D02*
X50345Y-34500D01*
X51345Y-34500D02*
X51338Y-34567D01*
X51338Y-34567D02*
X51318Y-34631D01*
X51318Y-34631D02*
X51287Y-34690D01*
X51287Y-34690D02*
X51244Y-34743D01*
X51244Y-34743D02*
X51192Y-34786D01*
X51192Y-34786D02*
X51133Y-34818D01*
X51133Y-34818D02*
X51069Y-34837D01*
X51069Y-34837D02*
X51002Y-34844D01*
X51002Y-34844D02*
X50936Y-34838D01*
X50936Y-34838D02*
X50871Y-34819D01*
X50871Y-34819D02*
X50812Y-34788D01*
X50812Y-34788D02*
X50759Y-34746D01*
X50759Y-34746D02*
X50716Y-34694D01*
X50716Y-34694D02*
X50683Y-34635D01*
X50683Y-34635D02*
X50663Y-34571D01*
X50663Y-34571D02*
X50656Y-34504D01*
X50656Y-34504D02*
X50661Y-34438D01*
X50661Y-34438D02*
X50680Y-34373D01*
X50680Y-34373D02*
X50711Y-34314D01*
X50711Y-34314D02*
X50752Y-34261D01*
X50752Y-34261D02*
X50804Y-34217D01*
X50804Y-34217D02*
X50862Y-34184D01*
X50862Y-34184D02*
X50926Y-34164D01*
X50926Y-34164D02*
X50993Y-34156D01*
X50993Y-34156D02*
X51059Y-34161D01*
X51059Y-34161D02*
X51124Y-34179D01*
X51124Y-34179D02*
X51184Y-34209D01*
X51184Y-34209D02*
X51237Y-34251D01*
X51237Y-34251D02*
X51281Y-34302D01*
X51281Y-34302D02*
X51315Y-34360D01*
X51315Y-34360D02*
X51336Y-34424D01*
X51336Y-34424D02*
X51344Y-34491D01*
X51344Y-34491D02*
X51345Y-34500D01*
X52345Y-34500D02*
X52338Y-34567D01*
X52338Y-34567D02*
X52318Y-34631D01*
X52318Y-34631D02*
X52287Y-34690D01*
X52287Y-34690D02*
X52244Y-34743D01*
X52244Y-34743D02*
X52192Y-34786D01*
X52192Y-34786D02*
X52133Y-34818D01*
X52133Y-34818D02*
X52069Y-34837D01*
X52069Y-34837D02*
X52002Y-34844D01*
X52002Y-34844D02*
X51936Y-34838D01*
X51936Y-34838D02*
X51871Y-34819D01*
X51871Y-34819D02*
X51812Y-34788D01*
X51812Y-34788D02*
X51759Y-34746D01*
X51759Y-34746D02*
X51716Y-34694D01*
X51716Y-34694D02*
X51683Y-34635D01*
X51683Y-34635D02*
X51663Y-34571D01*
X51663Y-34571D02*
X51656Y-34504D01*
X51656Y-34504D02*
X51661Y-34438D01*
X51661Y-34438D02*
X51680Y-34373D01*
X51680Y-34373D02*
X51711Y-34314D01*
X51711Y-34314D02*
X51752Y-34261D01*
X51752Y-34261D02*
X51804Y-34217D01*
X51804Y-34217D02*
X51862Y-34184D01*
X51862Y-34184D02*
X51926Y-34164D01*
X51926Y-34164D02*
X51993Y-34156D01*
X51993Y-34156D02*
X52059Y-34161D01*
X52059Y-34161D02*
X52124Y-34179D01*
X52124Y-34179D02*
X52184Y-34209D01*
X52184Y-34209D02*
X52237Y-34251D01*
X52237Y-34251D02*
X52281Y-34302D01*
X52281Y-34302D02*
X52315Y-34360D01*
X52315Y-34360D02*
X52336Y-34424D01*
X52336Y-34424D02*
X52344Y-34491D01*
X52344Y-34491D02*
X52345Y-34500D01*
X53345Y-34500D02*
X53338Y-34567D01*
X53338Y-34567D02*
X53318Y-34631D01*
X53318Y-34631D02*
X53287Y-34690D01*
X53287Y-34690D02*
X53244Y-34743D01*
X53244Y-34743D02*
X53192Y-34786D01*
X53192Y-34786D02*
X53133Y-34818D01*
X53133Y-34818D02*
X53069Y-34837D01*
X53069Y-34837D02*
X53002Y-34844D01*
X53002Y-34844D02*
X52936Y-34838D01*
X52936Y-34838D02*
X52871Y-34819D01*
X52871Y-34819D02*
X52812Y-34788D01*
X52812Y-34788D02*
X52759Y-34746D01*
X52759Y-34746D02*
X52716Y-34694D01*
X52716Y-34694D02*
X52683Y-34635D01*
X52683Y-34635D02*
X52663Y-34571D01*
X52663Y-34571D02*
X52656Y-34504D01*
X52656Y-34504D02*
X52661Y-34438D01*
X52661Y-34438D02*
X52680Y-34373D01*
X52680Y-34373D02*
X52711Y-34314D01*
X52711Y-34314D02*
X52752Y-34261D01*
X52752Y-34261D02*
X52804Y-34217D01*
X52804Y-34217D02*
X52862Y-34184D01*
X52862Y-34184D02*
X52926Y-34164D01*
X52926Y-34164D02*
X52993Y-34156D01*
X52993Y-34156D02*
X53059Y-34161D01*
X53059Y-34161D02*
X53124Y-34179D01*
X53124Y-34179D02*
X53184Y-34209D01*
X53184Y-34209D02*
X53237Y-34251D01*
X53237Y-34251D02*
X53281Y-34302D01*
X53281Y-34302D02*
X53315Y-34360D01*
X53315Y-34360D02*
X53336Y-34424D01*
X53336Y-34424D02*
X53344Y-34491D01*
X53344Y-34491D02*
X53345Y-34500D01*
X54345Y-34500D02*
X54338Y-34567D01*
X54338Y-34567D02*
X54318Y-34631D01*
X54318Y-34631D02*
X54287Y-34690D01*
X54287Y-34690D02*
X54244Y-34743D01*
X54244Y-34743D02*
X54192Y-34786D01*
X54192Y-34786D02*
X54133Y-34818D01*
X54133Y-34818D02*
X54069Y-34837D01*
X54069Y-34837D02*
X54002Y-34844D01*
X54002Y-34844D02*
X53936Y-34838D01*
X53936Y-34838D02*
X53871Y-34819D01*
X53871Y-34819D02*
X53812Y-34788D01*
X53812Y-34788D02*
X53759Y-34746D01*
X53759Y-34746D02*
X53716Y-34694D01*
X53716Y-34694D02*
X53683Y-34635D01*
X53683Y-34635D02*
X53663Y-34571D01*
X53663Y-34571D02*
X53656Y-34504D01*
X53656Y-34504D02*
X53661Y-34438D01*
X53661Y-34438D02*
X53680Y-34373D01*
X53680Y-34373D02*
X53711Y-34314D01*
X53711Y-34314D02*
X53752Y-34261D01*
X53752Y-34261D02*
X53804Y-34217D01*
X53804Y-34217D02*
X53862Y-34184D01*
X53862Y-34184D02*
X53926Y-34164D01*
X53926Y-34164D02*
X53993Y-34156D01*
X53993Y-34156D02*
X54059Y-34161D01*
X54059Y-34161D02*
X54124Y-34179D01*
X54124Y-34179D02*
X54184Y-34209D01*
X54184Y-34209D02*
X54237Y-34251D01*
X54237Y-34251D02*
X54281Y-34302D01*
X54281Y-34302D02*
X54315Y-34360D01*
X54315Y-34360D02*
X54336Y-34424D01*
X54336Y-34424D02*
X54344Y-34491D01*
X54344Y-34491D02*
X54345Y-34500D01*
X55345Y-34500D02*
X55338Y-34567D01*
X55338Y-34567D02*
X55318Y-34631D01*
X55318Y-34631D02*
X55287Y-34690D01*
X55287Y-34690D02*
X55244Y-34743D01*
X55244Y-34743D02*
X55192Y-34786D01*
X55192Y-34786D02*
X55133Y-34818D01*
X55133Y-34818D02*
X55069Y-34837D01*
X55069Y-34837D02*
X55002Y-34844D01*
X55002Y-34844D02*
X54936Y-34838D01*
X54936Y-34838D02*
X54871Y-34819D01*
X54871Y-34819D02*
X54812Y-34788D01*
X54812Y-34788D02*
X54759Y-34746D01*
X54759Y-34746D02*
X54716Y-34694D01*
X54716Y-34694D02*
X54683Y-34635D01*
X54683Y-34635D02*
X54663Y-34571D01*
X54663Y-34571D02*
X54656Y-34504D01*
X54656Y-34504D02*
X54661Y-34438D01*
X54661Y-34438D02*
X54680Y-34373D01*
X54680Y-34373D02*
X54711Y-34314D01*
X54711Y-34314D02*
X54752Y-34261D01*
X54752Y-34261D02*
X54804Y-34217D01*
X54804Y-34217D02*
X54862Y-34184D01*
X54862Y-34184D02*
X54926Y-34164D01*
X54926Y-34164D02*
X54993Y-34156D01*
X54993Y-34156D02*
X55059Y-34161D01*
X55059Y-34161D02*
X55124Y-34179D01*
X55124Y-34179D02*
X55184Y-34209D01*
X55184Y-34209D02*
X55237Y-34251D01*
X55237Y-34251D02*
X55281Y-34302D01*
X55281Y-34302D02*
X55315Y-34360D01*
X55315Y-34360D02*
X55336Y-34424D01*
X55336Y-34424D02*
X55344Y-34491D01*
X55344Y-34491D02*
X55345Y-34500D01*
X56345Y-34500D02*
X56338Y-34567D01*
X56338Y-34567D02*
X56318Y-34631D01*
X56318Y-34631D02*
X56287Y-34690D01*
X56287Y-34690D02*
X56244Y-34743D01*
X56244Y-34743D02*
X56192Y-34786D01*
X56192Y-34786D02*
X56133Y-34818D01*
X56133Y-34818D02*
X56069Y-34837D01*
X56069Y-34837D02*
X56002Y-34844D01*
X56002Y-34844D02*
X55936Y-34838D01*
X55936Y-34838D02*
X55871Y-34819D01*
X55871Y-34819D02*
X55812Y-34788D01*
X55812Y-34788D02*
X55759Y-34746D01*
X55759Y-34746D02*
X55716Y-34694D01*
X55716Y-34694D02*
X55683Y-34635D01*
X55683Y-34635D02*
X55663Y-34571D01*
X55663Y-34571D02*
X55656Y-34504D01*
X55656Y-34504D02*
X55661Y-34438D01*
X55661Y-34438D02*
X55680Y-34373D01*
X55680Y-34373D02*
X55711Y-34314D01*
X55711Y-34314D02*
X55752Y-34261D01*
X55752Y-34261D02*
X55804Y-34217D01*
X55804Y-34217D02*
X55862Y-34184D01*
X55862Y-34184D02*
X55926Y-34164D01*
X55926Y-34164D02*
X55993Y-34156D01*
X55993Y-34156D02*
X56059Y-34161D01*
X56059Y-34161D02*
X56124Y-34179D01*
X56124Y-34179D02*
X56184Y-34209D01*
X56184Y-34209D02*
X56237Y-34251D01*
X56237Y-34251D02*
X56281Y-34302D01*
X56281Y-34302D02*
X56315Y-34360D01*
X56315Y-34360D02*
X56336Y-34424D01*
X56336Y-34424D02*
X56344Y-34491D01*
X56344Y-34491D02*
X56345Y-34500D01*
X57345Y-34500D02*
X57338Y-34567D01*
X57338Y-34567D02*
X57318Y-34631D01*
X57318Y-34631D02*
X57287Y-34690D01*
X57287Y-34690D02*
X57244Y-34743D01*
X57244Y-34743D02*
X57192Y-34786D01*
X57192Y-34786D02*
X57133Y-34818D01*
X57133Y-34818D02*
X57069Y-34837D01*
X57069Y-34837D02*
X57002Y-34844D01*
X57002Y-34844D02*
X56936Y-34838D01*
X56936Y-34838D02*
X56871Y-34819D01*
X56871Y-34819D02*
X56812Y-34788D01*
X56812Y-34788D02*
X56759Y-34746D01*
X56759Y-34746D02*
X56716Y-34694D01*
X56716Y-34694D02*
X56683Y-34635D01*
X56683Y-34635D02*
X56663Y-34571D01*
X56663Y-34571D02*
X56656Y-34504D01*
X56656Y-34504D02*
X56661Y-34438D01*
X56661Y-34438D02*
X56680Y-34373D01*
X56680Y-34373D02*
X56711Y-34314D01*
X56711Y-34314D02*
X56752Y-34261D01*
X56752Y-34261D02*
X56804Y-34217D01*
X56804Y-34217D02*
X56862Y-34184D01*
X56862Y-34184D02*
X56926Y-34164D01*
X56926Y-34164D02*
X56993Y-34156D01*
X56993Y-34156D02*
X57059Y-34161D01*
X57059Y-34161D02*
X57124Y-34179D01*
X57124Y-34179D02*
X57184Y-34209D01*
X57184Y-34209D02*
X57237Y-34251D01*
X57237Y-34251D02*
X57281Y-34302D01*
X57281Y-34302D02*
X57315Y-34360D01*
X57315Y-34360D02*
X57336Y-34424D01*
X57336Y-34424D02*
X57344Y-34491D01*
X57344Y-34491D02*
X57345Y-34500D01*
X45275Y-25000D02*
X45269Y-25053D01*
X45269Y-25053D02*
X45254Y-25104D01*
X45254Y-25104D02*
X45229Y-25152D01*
X45229Y-25152D02*
X45195Y-25193D01*
X45195Y-25193D02*
X45153Y-25227D01*
X45153Y-25227D02*
X45106Y-25253D01*
X45106Y-25253D02*
X45055Y-25269D01*
X45055Y-25269D02*
X45001Y-25274D01*
X45001Y-25274D02*
X44949Y-25270D01*
X44949Y-25270D02*
X44897Y-25254D01*
X44897Y-25254D02*
X44850Y-25230D01*
X44850Y-25230D02*
X44808Y-25196D01*
X44808Y-25196D02*
X44774Y-25155D01*
X44774Y-25155D02*
X44748Y-25108D01*
X44748Y-25108D02*
X44732Y-25057D01*
X44732Y-25057D02*
X44726Y-25003D01*
X44726Y-25003D02*
X44730Y-24951D01*
X44730Y-24951D02*
X44745Y-24899D01*
X44745Y-24899D02*
X44769Y-24852D01*
X44769Y-24852D02*
X44803Y-24809D01*
X44803Y-24809D02*
X44844Y-24775D01*
X44844Y-24775D02*
X44890Y-24749D01*
X44890Y-24749D02*
X44941Y-24732D01*
X44941Y-24732D02*
X44995Y-24726D01*
X44995Y-24726D02*
X45047Y-24730D01*
X45047Y-24730D02*
X45099Y-24744D01*
X45099Y-24744D02*
X45147Y-24768D01*
X45147Y-24768D02*
X45189Y-24801D01*
X45189Y-24801D02*
X45224Y-24842D01*
X45224Y-24842D02*
X45251Y-24889D01*
X45251Y-24889D02*
X45268Y-24940D01*
X45268Y-24940D02*
X45274Y-24993D01*
X45274Y-24993D02*
X45275Y-25000D01*
X45275Y-26000D02*
X45269Y-26053D01*
X45269Y-26053D02*
X45254Y-26104D01*
X45254Y-26104D02*
X45229Y-26152D01*
X45229Y-26152D02*
X45195Y-26193D01*
X45195Y-26193D02*
X45153Y-26227D01*
X45153Y-26227D02*
X45106Y-26253D01*
X45106Y-26253D02*
X45055Y-26269D01*
X45055Y-26269D02*
X45001Y-26274D01*
X45001Y-26274D02*
X44949Y-26270D01*
X44949Y-26270D02*
X44897Y-26254D01*
X44897Y-26254D02*
X44850Y-26230D01*
X44850Y-26230D02*
X44808Y-26196D01*
X44808Y-26196D02*
X44774Y-26155D01*
X44774Y-26155D02*
X44748Y-26108D01*
X44748Y-26108D02*
X44732Y-26057D01*
X44732Y-26057D02*
X44726Y-26003D01*
X44726Y-26003D02*
X44730Y-25951D01*
X44730Y-25951D02*
X44745Y-25899D01*
X44745Y-25899D02*
X44769Y-25852D01*
X44769Y-25852D02*
X44803Y-25809D01*
X44803Y-25809D02*
X44844Y-25775D01*
X44844Y-25775D02*
X44890Y-25749D01*
X44890Y-25749D02*
X44941Y-25732D01*
X44941Y-25732D02*
X44995Y-25726D01*
X44995Y-25726D02*
X45047Y-25730D01*
X45047Y-25730D02*
X45099Y-25744D01*
X45099Y-25744D02*
X45147Y-25768D01*
X45147Y-25768D02*
X45189Y-25801D01*
X45189Y-25801D02*
X45224Y-25842D01*
X45224Y-25842D02*
X45251Y-25889D01*
X45251Y-25889D02*
X45268Y-25940D01*
X45268Y-25940D02*
X45274Y-25993D01*
X45274Y-25993D02*
X45275Y-26000D01*
X44330Y-38000D02*
X44323Y-38064D01*
X44323Y-38064D02*
X44305Y-38125D01*
X44305Y-38125D02*
X44274Y-38182D01*
X44274Y-38182D02*
X44234Y-38232D01*
X44234Y-38232D02*
X44184Y-38273D01*
X44184Y-38273D02*
X44127Y-38304D01*
X44127Y-38304D02*
X44066Y-38323D01*
X44066Y-38323D02*
X44002Y-38329D01*
X44002Y-38329D02*
X43939Y-38324D01*
X43939Y-38324D02*
X43877Y-38305D01*
X43877Y-38305D02*
X43820Y-38276D01*
X43820Y-38276D02*
X43770Y-38235D01*
X43770Y-38235D02*
X43728Y-38186D01*
X43728Y-38186D02*
X43697Y-38130D01*
X43697Y-38130D02*
X43678Y-38068D01*
X43678Y-38068D02*
X43671Y-38004D01*
X43671Y-38004D02*
X43676Y-37941D01*
X43676Y-37941D02*
X43694Y-37879D01*
X43694Y-37879D02*
X43723Y-37822D01*
X43723Y-37822D02*
X43763Y-37771D01*
X43763Y-37771D02*
X43812Y-37730D01*
X43812Y-37730D02*
X43868Y-37698D01*
X43868Y-37698D02*
X43930Y-37678D01*
X43930Y-37678D02*
X43994Y-37671D01*
X43994Y-37671D02*
X44057Y-37676D01*
X44057Y-37676D02*
X44119Y-37693D01*
X44119Y-37693D02*
X44176Y-37722D01*
X44176Y-37722D02*
X44227Y-37762D01*
X44227Y-37762D02*
X44269Y-37810D01*
X44269Y-37810D02*
X44301Y-37866D01*
X44301Y-37866D02*
X44321Y-37927D01*
X44321Y-37927D02*
X44329Y-37991D01*
X44329Y-37991D02*
X44330Y-38000D01*
X45330Y-38000D02*
X45323Y-38064D01*
X45323Y-38064D02*
X45305Y-38125D01*
X45305Y-38125D02*
X45274Y-38182D01*
X45274Y-38182D02*
X45234Y-38232D01*
X45234Y-38232D02*
X45184Y-38273D01*
X45184Y-38273D02*
X45127Y-38304D01*
X45127Y-38304D02*
X45066Y-38323D01*
X45066Y-38323D02*
X45002Y-38329D01*
X45002Y-38329D02*
X44939Y-38324D01*
X44939Y-38324D02*
X44877Y-38305D01*
X44877Y-38305D02*
X44820Y-38276D01*
X44820Y-38276D02*
X44770Y-38235D01*
X44770Y-38235D02*
X44728Y-38186D01*
X44728Y-38186D02*
X44697Y-38130D01*
X44697Y-38130D02*
X44678Y-38068D01*
X44678Y-38068D02*
X44671Y-38004D01*
X44671Y-38004D02*
X44676Y-37941D01*
X44676Y-37941D02*
X44694Y-37879D01*
X44694Y-37879D02*
X44723Y-37822D01*
X44723Y-37822D02*
X44763Y-37771D01*
X44763Y-37771D02*
X44812Y-37730D01*
X44812Y-37730D02*
X44868Y-37698D01*
X44868Y-37698D02*
X44930Y-37678D01*
X44930Y-37678D02*
X44994Y-37671D01*
X44994Y-37671D02*
X45057Y-37676D01*
X45057Y-37676D02*
X45119Y-37693D01*
X45119Y-37693D02*
X45176Y-37722D01*
X45176Y-37722D02*
X45227Y-37762D01*
X45227Y-37762D02*
X45269Y-37810D01*
X45269Y-37810D02*
X45301Y-37866D01*
X45301Y-37866D02*
X45321Y-37927D01*
X45321Y-37927D02*
X45329Y-37991D01*
X45329Y-37991D02*
X45330Y-38000D01*
X48700Y-26300D02*
X48700Y-25700D01*
X48700Y-25700D02*
X49300Y-25700D01*
X49300Y-25700D02*
X49300Y-26300D01*
X49300Y-26300D02*
X48700Y-26300D01*
X49300Y-25000D02*
X49294Y-25058D01*
X49294Y-25058D02*
X49277Y-25114D01*
X49277Y-25114D02*
X49249Y-25166D01*
X49249Y-25166D02*
X49212Y-25211D01*
X49212Y-25211D02*
X49167Y-25248D01*
X49167Y-25248D02*
X49116Y-25276D01*
X49116Y-25276D02*
X49060Y-25293D01*
X49060Y-25293D02*
X49002Y-25299D01*
X49002Y-25299D02*
X48944Y-25294D01*
X48944Y-25294D02*
X48888Y-25278D01*
X48888Y-25278D02*
X48836Y-25251D01*
X48836Y-25251D02*
X48791Y-25214D01*
X48791Y-25214D02*
X48753Y-25169D01*
X48753Y-25169D02*
X48725Y-25118D01*
X48725Y-25118D02*
X48707Y-25062D01*
X48707Y-25062D02*
X48701Y-25004D01*
X48701Y-25004D02*
X48705Y-24946D01*
X48705Y-24946D02*
X48722Y-24890D01*
X48722Y-24890D02*
X48748Y-24838D01*
X48748Y-24838D02*
X48785Y-24792D01*
X48785Y-24792D02*
X48829Y-24754D01*
X48829Y-24754D02*
X48880Y-24726D01*
X48880Y-24726D02*
X48936Y-24707D01*
X48936Y-24707D02*
X48994Y-24701D01*
X48994Y-24701D02*
X49052Y-24705D01*
X49052Y-24705D02*
X49108Y-24721D01*
X49108Y-24721D02*
X49160Y-24747D01*
X49160Y-24747D02*
X49206Y-24783D01*
X49206Y-24783D02*
X49245Y-24828D01*
X49245Y-24828D02*
X49274Y-24878D01*
X49274Y-24878D02*
X49292Y-24934D01*
X49292Y-24934D02*
X49299Y-24992D01*
X49299Y-24992D02*
X49300Y-25000D01*
X50300Y-26000D02*
X50294Y-26058D01*
X50294Y-26058D02*
X50277Y-26114D01*
X50277Y-26114D02*
X50249Y-26166D01*
X50249Y-26166D02*
X50212Y-26211D01*
X50212Y-26211D02*
X50167Y-26248D01*
X50167Y-26248D02*
X50116Y-26276D01*
X50116Y-26276D02*
X50060Y-26293D01*
X50060Y-26293D02*
X50002Y-26299D01*
X50002Y-26299D02*
X49944Y-26294D01*
X49944Y-26294D02*
X49888Y-26278D01*
X49888Y-26278D02*
X49836Y-26251D01*
X49836Y-26251D02*
X49791Y-26214D01*
X49791Y-26214D02*
X49753Y-26169D01*
X49753Y-26169D02*
X49725Y-26118D01*
X49725Y-26118D02*
X49707Y-26062D01*
X49707Y-26062D02*
X49701Y-26004D01*
X49701Y-26004D02*
X49705Y-25946D01*
X49705Y-25946D02*
X49722Y-25890D01*
X49722Y-25890D02*
X49748Y-25838D01*
X49748Y-25838D02*
X49785Y-25792D01*
X49785Y-25792D02*
X49829Y-25754D01*
X49829Y-25754D02*
X49880Y-25726D01*
X49880Y-25726D02*
X49936Y-25707D01*
X49936Y-25707D02*
X49994Y-25701D01*
X49994Y-25701D02*
X50052Y-25705D01*
X50052Y-25705D02*
X50108Y-25721D01*
X50108Y-25721D02*
X50160Y-25747D01*
X50160Y-25747D02*
X50206Y-25783D01*
X50206Y-25783D02*
X50245Y-25828D01*
X50245Y-25828D02*
X50274Y-25878D01*
X50274Y-25878D02*
X50292Y-25934D01*
X50292Y-25934D02*
X50299Y-25992D01*
X50299Y-25992D02*
X50300Y-26000D01*
X50300Y-25000D02*
X50294Y-25058D01*
X50294Y-25058D02*
X50277Y-25114D01*
X50277Y-25114D02*
X50249Y-25166D01*
X50249Y-25166D02*
X50212Y-25211D01*
X50212Y-25211D02*
X50167Y-25248D01*
X50167Y-25248D02*
X50116Y-25276D01*
X50116Y-25276D02*
X50060Y-25293D01*
X50060Y-25293D02*
X50002Y-25299D01*
X50002Y-25299D02*
X49944Y-25294D01*
X49944Y-25294D02*
X49888Y-25278D01*
X49888Y-25278D02*
X49836Y-25251D01*
X49836Y-25251D02*
X49791Y-25214D01*
X49791Y-25214D02*
X49753Y-25169D01*
X49753Y-25169D02*
X49725Y-25118D01*
X49725Y-25118D02*
X49707Y-25062D01*
X49707Y-25062D02*
X49701Y-25004D01*
X49701Y-25004D02*
X49705Y-24946D01*
X49705Y-24946D02*
X49722Y-24890D01*
X49722Y-24890D02*
X49748Y-24838D01*
X49748Y-24838D02*
X49785Y-24792D01*
X49785Y-24792D02*
X49829Y-24754D01*
X49829Y-24754D02*
X49880Y-24726D01*
X49880Y-24726D02*
X49936Y-24707D01*
X49936Y-24707D02*
X49994Y-24701D01*
X49994Y-24701D02*
X50052Y-24705D01*
X50052Y-24705D02*
X50108Y-24721D01*
X50108Y-24721D02*
X50160Y-24747D01*
X50160Y-24747D02*
X50206Y-24783D01*
X50206Y-24783D02*
X50245Y-24828D01*
X50245Y-24828D02*
X50274Y-24878D01*
X50274Y-24878D02*
X50292Y-24934D01*
X50292Y-24934D02*
X50299Y-24992D01*
X50299Y-24992D02*
X50300Y-25000D01*
X50275Y-40000D02*
X50269Y-40053D01*
X50269Y-40053D02*
X50254Y-40104D01*
X50254Y-40104D02*
X50229Y-40152D01*
X50229Y-40152D02*
X50195Y-40193D01*
X50195Y-40193D02*
X50153Y-40227D01*
X50153Y-40227D02*
X50106Y-40253D01*
X50106Y-40253D02*
X50055Y-40269D01*
X50055Y-40269D02*
X50001Y-40274D01*
X50001Y-40274D02*
X49949Y-40270D01*
X49949Y-40270D02*
X49897Y-40254D01*
X49897Y-40254D02*
X49850Y-40230D01*
X49850Y-40230D02*
X49808Y-40196D01*
X49808Y-40196D02*
X49774Y-40155D01*
X49774Y-40155D02*
X49748Y-40108D01*
X49748Y-40108D02*
X49732Y-40057D01*
X49732Y-40057D02*
X49726Y-40003D01*
X49726Y-40003D02*
X49730Y-39951D01*
X49730Y-39951D02*
X49745Y-39899D01*
X49745Y-39899D02*
X49769Y-39852D01*
X49769Y-39852D02*
X49803Y-39809D01*
X49803Y-39809D02*
X49844Y-39775D01*
X49844Y-39775D02*
X49890Y-39749D01*
X49890Y-39749D02*
X49941Y-39732D01*
X49941Y-39732D02*
X49995Y-39726D01*
X49995Y-39726D02*
X50047Y-39730D01*
X50047Y-39730D02*
X50099Y-39744D01*
X50099Y-39744D02*
X50147Y-39768D01*
X50147Y-39768D02*
X50189Y-39801D01*
X50189Y-39801D02*
X50224Y-39842D01*
X50224Y-39842D02*
X50251Y-39889D01*
X50251Y-39889D02*
X50268Y-39940D01*
X50268Y-39940D02*
X50274Y-39993D01*
X50274Y-39993D02*
X50275Y-40000D01*
X50275Y-37000D02*
X50269Y-37053D01*
X50269Y-37053D02*
X50254Y-37104D01*
X50254Y-37104D02*
X50229Y-37152D01*
X50229Y-37152D02*
X50195Y-37193D01*
X50195Y-37193D02*
X50153Y-37227D01*
X50153Y-37227D02*
X50106Y-37253D01*
X50106Y-37253D02*
X50055Y-37269D01*
X50055Y-37269D02*
X50001Y-37274D01*
X50001Y-37274D02*
X49949Y-37270D01*
X49949Y-37270D02*
X49897Y-37254D01*
X49897Y-37254D02*
X49850Y-37230D01*
X49850Y-37230D02*
X49808Y-37196D01*
X49808Y-37196D02*
X49774Y-37155D01*
X49774Y-37155D02*
X49748Y-37108D01*
X49748Y-37108D02*
X49732Y-37057D01*
X49732Y-37057D02*
X49726Y-37003D01*
X49726Y-37003D02*
X49730Y-36951D01*
X49730Y-36951D02*
X49745Y-36899D01*
X49745Y-36899D02*
X49769Y-36852D01*
X49769Y-36852D02*
X49803Y-36809D01*
X49803Y-36809D02*
X49844Y-36775D01*
X49844Y-36775D02*
X49890Y-36749D01*
X49890Y-36749D02*
X49941Y-36732D01*
X49941Y-36732D02*
X49995Y-36726D01*
X49995Y-36726D02*
X50047Y-36730D01*
X50047Y-36730D02*
X50099Y-36744D01*
X50099Y-36744D02*
X50147Y-36768D01*
X50147Y-36768D02*
X50189Y-36801D01*
X50189Y-36801D02*
X50224Y-36842D01*
X50224Y-36842D02*
X50251Y-36889D01*
X50251Y-36889D02*
X50268Y-36940D01*
X50268Y-36940D02*
X50274Y-36993D01*
X50274Y-36993D02*
X50275Y-37000D01*
X52775Y-40000D02*
X52769Y-40053D01*
X52769Y-40053D02*
X52754Y-40104D01*
X52754Y-40104D02*
X52729Y-40152D01*
X52729Y-40152D02*
X52695Y-40193D01*
X52695Y-40193D02*
X52653Y-40227D01*
X52653Y-40227D02*
X52606Y-40253D01*
X52606Y-40253D02*
X52555Y-40269D01*
X52555Y-40269D02*
X52501Y-40274D01*
X52501Y-40274D02*
X52449Y-40270D01*
X52449Y-40270D02*
X52397Y-40254D01*
X52397Y-40254D02*
X52350Y-40230D01*
X52350Y-40230D02*
X52308Y-40196D01*
X52308Y-40196D02*
X52274Y-40155D01*
X52274Y-40155D02*
X52248Y-40108D01*
X52248Y-40108D02*
X52232Y-40057D01*
X52232Y-40057D02*
X52226Y-40003D01*
X52226Y-40003D02*
X52230Y-39951D01*
X52230Y-39951D02*
X52245Y-39899D01*
X52245Y-39899D02*
X52269Y-39852D01*
X52269Y-39852D02*
X52303Y-39809D01*
X52303Y-39809D02*
X52344Y-39775D01*
X52344Y-39775D02*
X52390Y-39749D01*
X52390Y-39749D02*
X52441Y-39732D01*
X52441Y-39732D02*
X52495Y-39726D01*
X52495Y-39726D02*
X52547Y-39730D01*
X52547Y-39730D02*
X52599Y-39744D01*
X52599Y-39744D02*
X52647Y-39768D01*
X52647Y-39768D02*
X52689Y-39801D01*
X52689Y-39801D02*
X52724Y-39842D01*
X52724Y-39842D02*
X52751Y-39889D01*
X52751Y-39889D02*
X52768Y-39940D01*
X52768Y-39940D02*
X52774Y-39993D01*
X52774Y-39993D02*
X52775Y-40000D01*
X52775Y-37000D02*
X52769Y-37053D01*
X52769Y-37053D02*
X52754Y-37104D01*
X52754Y-37104D02*
X52729Y-37152D01*
X52729Y-37152D02*
X52695Y-37193D01*
X52695Y-37193D02*
X52653Y-37227D01*
X52653Y-37227D02*
X52606Y-37253D01*
X52606Y-37253D02*
X52555Y-37269D01*
X52555Y-37269D02*
X52501Y-37274D01*
X52501Y-37274D02*
X52449Y-37270D01*
X52449Y-37270D02*
X52397Y-37254D01*
X52397Y-37254D02*
X52350Y-37230D01*
X52350Y-37230D02*
X52308Y-37196D01*
X52308Y-37196D02*
X52274Y-37155D01*
X52274Y-37155D02*
X52248Y-37108D01*
X52248Y-37108D02*
X52232Y-37057D01*
X52232Y-37057D02*
X52226Y-37003D01*
X52226Y-37003D02*
X52230Y-36951D01*
X52230Y-36951D02*
X52245Y-36899D01*
X52245Y-36899D02*
X52269Y-36852D01*
X52269Y-36852D02*
X52303Y-36809D01*
X52303Y-36809D02*
X52344Y-36775D01*
X52344Y-36775D02*
X52390Y-36749D01*
X52390Y-36749D02*
X52441Y-36732D01*
X52441Y-36732D02*
X52495Y-36726D01*
X52495Y-36726D02*
X52547Y-36730D01*
X52547Y-36730D02*
X52599Y-36744D01*
X52599Y-36744D02*
X52647Y-36768D01*
X52647Y-36768D02*
X52689Y-36801D01*
X52689Y-36801D02*
X52724Y-36842D01*
X52724Y-36842D02*
X52751Y-36889D01*
X52751Y-36889D02*
X52768Y-36940D01*
X52768Y-36940D02*
X52774Y-36993D01*
X52774Y-36993D02*
X52775Y-37000D01*
X47775Y-40000D02*
X47769Y-40053D01*
X47769Y-40053D02*
X47754Y-40104D01*
X47754Y-40104D02*
X47729Y-40152D01*
X47729Y-40152D02*
X47695Y-40193D01*
X47695Y-40193D02*
X47653Y-40227D01*
X47653Y-40227D02*
X47606Y-40253D01*
X47606Y-40253D02*
X47555Y-40269D01*
X47555Y-40269D02*
X47501Y-40274D01*
X47501Y-40274D02*
X47449Y-40270D01*
X47449Y-40270D02*
X47397Y-40254D01*
X47397Y-40254D02*
X47350Y-40230D01*
X47350Y-40230D02*
X47308Y-40196D01*
X47308Y-40196D02*
X47274Y-40155D01*
X47274Y-40155D02*
X47248Y-40108D01*
X47248Y-40108D02*
X47232Y-40057D01*
X47232Y-40057D02*
X47226Y-40003D01*
X47226Y-40003D02*
X47230Y-39951D01*
X47230Y-39951D02*
X47245Y-39899D01*
X47245Y-39899D02*
X47269Y-39852D01*
X47269Y-39852D02*
X47303Y-39809D01*
X47303Y-39809D02*
X47344Y-39775D01*
X47344Y-39775D02*
X47390Y-39749D01*
X47390Y-39749D02*
X47441Y-39732D01*
X47441Y-39732D02*
X47495Y-39726D01*
X47495Y-39726D02*
X47547Y-39730D01*
X47547Y-39730D02*
X47599Y-39744D01*
X47599Y-39744D02*
X47647Y-39768D01*
X47647Y-39768D02*
X47689Y-39801D01*
X47689Y-39801D02*
X47724Y-39842D01*
X47724Y-39842D02*
X47751Y-39889D01*
X47751Y-39889D02*
X47768Y-39940D01*
X47768Y-39940D02*
X47774Y-39993D01*
X47774Y-39993D02*
X47775Y-40000D01*
X47775Y-37000D02*
X47769Y-37053D01*
X47769Y-37053D02*
X47754Y-37104D01*
X47754Y-37104D02*
X47729Y-37152D01*
X47729Y-37152D02*
X47695Y-37193D01*
X47695Y-37193D02*
X47653Y-37227D01*
X47653Y-37227D02*
X47606Y-37253D01*
X47606Y-37253D02*
X47555Y-37269D01*
X47555Y-37269D02*
X47501Y-37274D01*
X47501Y-37274D02*
X47449Y-37270D01*
X47449Y-37270D02*
X47397Y-37254D01*
X47397Y-37254D02*
X47350Y-37230D01*
X47350Y-37230D02*
X47308Y-37196D01*
X47308Y-37196D02*
X47274Y-37155D01*
X47274Y-37155D02*
X47248Y-37108D01*
X47248Y-37108D02*
X47232Y-37057D01*
X47232Y-37057D02*
X47226Y-37003D01*
X47226Y-37003D02*
X47230Y-36951D01*
X47230Y-36951D02*
X47245Y-36899D01*
X47245Y-36899D02*
X47269Y-36852D01*
X47269Y-36852D02*
X47303Y-36809D01*
X47303Y-36809D02*
X47344Y-36775D01*
X47344Y-36775D02*
X47390Y-36749D01*
X47390Y-36749D02*
X47441Y-36732D01*
X47441Y-36732D02*
X47495Y-36726D01*
X47495Y-36726D02*
X47547Y-36730D01*
X47547Y-36730D02*
X47599Y-36744D01*
X47599Y-36744D02*
X47647Y-36768D01*
X47647Y-36768D02*
X47689Y-36801D01*
X47689Y-36801D02*
X47724Y-36842D01*
X47724Y-36842D02*
X47751Y-36889D01*
X47751Y-36889D02*
X47768Y-36940D01*
X47768Y-36940D02*
X47774Y-36993D01*
X47774Y-36993D02*
X47775Y-37000D01*
X52800Y-25500D02*
X52794Y-25558D01*
X52794Y-25558D02*
X52777Y-25614D01*
X52777Y-25614D02*
X52749Y-25666D01*
X52749Y-25666D02*
X52712Y-25711D01*
X52712Y-25711D02*
X52667Y-25748D01*
X52667Y-25748D02*
X52616Y-25776D01*
X52616Y-25776D02*
X52560Y-25793D01*
X52560Y-25793D02*
X52502Y-25799D01*
X52502Y-25799D02*
X52444Y-25794D01*
X52444Y-25794D02*
X52388Y-25778D01*
X52388Y-25778D02*
X52336Y-25751D01*
X52336Y-25751D02*
X52291Y-25714D01*
X52291Y-25714D02*
X52253Y-25669D01*
X52253Y-25669D02*
X52225Y-25618D01*
X52225Y-25618D02*
X52207Y-25562D01*
X52207Y-25562D02*
X52201Y-25504D01*
X52201Y-25504D02*
X52205Y-25446D01*
X52205Y-25446D02*
X52222Y-25390D01*
X52222Y-25390D02*
X52248Y-25338D01*
X52248Y-25338D02*
X52285Y-25292D01*
X52285Y-25292D02*
X52329Y-25254D01*
X52329Y-25254D02*
X52380Y-25226D01*
X52380Y-25226D02*
X52436Y-25207D01*
X52436Y-25207D02*
X52494Y-25201D01*
X52494Y-25201D02*
X52552Y-25205D01*
X52552Y-25205D02*
X52608Y-25221D01*
X52608Y-25221D02*
X52660Y-25247D01*
X52660Y-25247D02*
X52706Y-25283D01*
X52706Y-25283D02*
X52745Y-25328D01*
X52745Y-25328D02*
X52774Y-25378D01*
X52774Y-25378D02*
X52792Y-25434D01*
X52792Y-25434D02*
X52799Y-25492D01*
X52799Y-25492D02*
X52800Y-25500D01*
X56800Y-25500D02*
X56794Y-25558D01*
X56794Y-25558D02*
X56777Y-25614D01*
X56777Y-25614D02*
X56749Y-25666D01*
X56749Y-25666D02*
X56712Y-25711D01*
X56712Y-25711D02*
X56667Y-25748D01*
X56667Y-25748D02*
X56616Y-25776D01*
X56616Y-25776D02*
X56560Y-25793D01*
X56560Y-25793D02*
X56502Y-25799D01*
X56502Y-25799D02*
X56444Y-25794D01*
X56444Y-25794D02*
X56388Y-25778D01*
X56388Y-25778D02*
X56336Y-25751D01*
X56336Y-25751D02*
X56291Y-25714D01*
X56291Y-25714D02*
X56253Y-25669D01*
X56253Y-25669D02*
X56225Y-25618D01*
X56225Y-25618D02*
X56207Y-25562D01*
X56207Y-25562D02*
X56201Y-25504D01*
X56201Y-25504D02*
X56205Y-25446D01*
X56205Y-25446D02*
X56222Y-25390D01*
X56222Y-25390D02*
X56248Y-25338D01*
X56248Y-25338D02*
X56285Y-25292D01*
X56285Y-25292D02*
X56329Y-25254D01*
X56329Y-25254D02*
X56380Y-25226D01*
X56380Y-25226D02*
X56436Y-25207D01*
X56436Y-25207D02*
X56494Y-25201D01*
X56494Y-25201D02*
X56552Y-25205D01*
X56552Y-25205D02*
X56608Y-25221D01*
X56608Y-25221D02*
X56660Y-25247D01*
X56660Y-25247D02*
X56706Y-25283D01*
X56706Y-25283D02*
X56745Y-25328D01*
X56745Y-25328D02*
X56774Y-25378D01*
X56774Y-25378D02*
X56792Y-25434D01*
X56792Y-25434D02*
X56799Y-25492D01*
X56799Y-25492D02*
X56800Y-25500D01*
X59150Y-22500D02*
X59137Y-22626D01*
X59137Y-22626D02*
X59100Y-22747D01*
X59100Y-22747D02*
X59041Y-22859D01*
X59041Y-22859D02*
X58961Y-22958D01*
X58961Y-22958D02*
X58863Y-23038D01*
X58863Y-23038D02*
X58751Y-23099D01*
X58751Y-23099D02*
X58630Y-23136D01*
X58630Y-23136D02*
X58504Y-23149D01*
X58504Y-23149D02*
X58379Y-23138D01*
X58379Y-23138D02*
X58257Y-23102D01*
X58257Y-23102D02*
X58145Y-23043D01*
X58145Y-23043D02*
X58046Y-22964D01*
X58046Y-22964D02*
X57964Y-22867D01*
X57964Y-22867D02*
X57903Y-22756D01*
X57903Y-22756D02*
X57865Y-22635D01*
X57865Y-22635D02*
X57851Y-22509D01*
X57851Y-22509D02*
X57861Y-22383D01*
X57861Y-22383D02*
X57896Y-22261D01*
X57896Y-22261D02*
X57954Y-22148D01*
X57954Y-22148D02*
X58033Y-22049D01*
X58033Y-22049D02*
X58130Y-21967D01*
X58130Y-21967D02*
X58240Y-21905D01*
X58240Y-21905D02*
X58361Y-21866D01*
X58361Y-21866D02*
X58487Y-21851D01*
X58487Y-21851D02*
X58612Y-21860D01*
X58612Y-21860D02*
X58735Y-21894D01*
X58735Y-21894D02*
X58848Y-21952D01*
X58848Y-21952D02*
X58948Y-22030D01*
X58948Y-22030D02*
X59031Y-22126D01*
X59031Y-22126D02*
X59093Y-22236D01*
X59093Y-22236D02*
X59133Y-22356D01*
X59133Y-22356D02*
X59149Y-22482D01*
X59149Y-22482D02*
X59150Y-22500D01*
X43150Y-22500D02*
X43137Y-22626D01*
X43137Y-22626D02*
X43100Y-22747D01*
X43100Y-22747D02*
X43041Y-22859D01*
X43041Y-22859D02*
X42961Y-22958D01*
X42961Y-22958D02*
X42863Y-23038D01*
X42863Y-23038D02*
X42751Y-23099D01*
X42751Y-23099D02*
X42630Y-23136D01*
X42630Y-23136D02*
X42504Y-23149D01*
X42504Y-23149D02*
X42379Y-23138D01*
X42379Y-23138D02*
X42257Y-23102D01*
X42257Y-23102D02*
X42145Y-23043D01*
X42145Y-23043D02*
X42046Y-22964D01*
X42046Y-22964D02*
X41964Y-22867D01*
X41964Y-22867D02*
X41903Y-22756D01*
X41903Y-22756D02*
X41865Y-22635D01*
X41865Y-22635D02*
X41851Y-22509D01*
X41851Y-22509D02*
X41861Y-22383D01*
X41861Y-22383D02*
X41896Y-22261D01*
X41896Y-22261D02*
X41954Y-22148D01*
X41954Y-22148D02*
X42033Y-22049D01*
X42033Y-22049D02*
X42130Y-21967D01*
X42130Y-21967D02*
X42240Y-21905D01*
X42240Y-21905D02*
X42361Y-21866D01*
X42361Y-21866D02*
X42487Y-21851D01*
X42487Y-21851D02*
X42612Y-21860D01*
X42612Y-21860D02*
X42735Y-21894D01*
X42735Y-21894D02*
X42848Y-21952D01*
X42848Y-21952D02*
X42948Y-22030D01*
X42948Y-22030D02*
X43031Y-22126D01*
X43031Y-22126D02*
X43093Y-22236D01*
X43093Y-22236D02*
X43133Y-22356D01*
X43133Y-22356D02*
X43149Y-22482D01*
X43149Y-22482D02*
X43150Y-22500D01*
X43150Y-40500D02*
X43137Y-40626D01*
X43137Y-40626D02*
X43100Y-40747D01*
X43100Y-40747D02*
X43041Y-40859D01*
X43041Y-40859D02*
X42961Y-40958D01*
X42961Y-40958D02*
X42863Y-41038D01*
X42863Y-41038D02*
X42751Y-41099D01*
X42751Y-41099D02*
X42630Y-41136D01*
X42630Y-41136D02*
X42504Y-41149D01*
X42504Y-41149D02*
X42379Y-41138D01*
X42379Y-41138D02*
X42257Y-41102D01*
X42257Y-41102D02*
X42145Y-41043D01*
X42145Y-41043D02*
X42046Y-40964D01*
X42046Y-40964D02*
X41964Y-40867D01*
X41964Y-40867D02*
X41903Y-40756D01*
X41903Y-40756D02*
X41865Y-40635D01*
X41865Y-40635D02*
X41851Y-40509D01*
X41851Y-40509D02*
X41861Y-40383D01*
X41861Y-40383D02*
X41896Y-40261D01*
X41896Y-40261D02*
X41954Y-40148D01*
X41954Y-40148D02*
X42033Y-40049D01*
X42033Y-40049D02*
X42130Y-39967D01*
X42130Y-39967D02*
X42240Y-39905D01*
X42240Y-39905D02*
X42361Y-39866D01*
X42361Y-39866D02*
X42487Y-39851D01*
X42487Y-39851D02*
X42612Y-39860D01*
X42612Y-39860D02*
X42735Y-39894D01*
X42735Y-39894D02*
X42848Y-39952D01*
X42848Y-39952D02*
X42948Y-40030D01*
X42948Y-40030D02*
X43031Y-40126D01*
X43031Y-40126D02*
X43093Y-40236D01*
X43093Y-40236D02*
X43133Y-40356D01*
X43133Y-40356D02*
X43149Y-40482D01*
X43149Y-40482D02*
X43150Y-40500D01*
X59150Y-40500D02*
X59137Y-40626D01*
X59137Y-40626D02*
X59100Y-40747D01*
X59100Y-40747D02*
X59041Y-40859D01*
X59041Y-40859D02*
X58961Y-40958D01*
X58961Y-40958D02*
X58863Y-41038D01*
X58863Y-41038D02*
X58751Y-41099D01*
X58751Y-41099D02*
X58630Y-41136D01*
X58630Y-41136D02*
X58504Y-41149D01*
X58504Y-41149D02*
X58379Y-41138D01*
X58379Y-41138D02*
X58257Y-41102D01*
X58257Y-41102D02*
X58145Y-41043D01*
X58145Y-41043D02*
X58046Y-40964D01*
X58046Y-40964D02*
X57964Y-40867D01*
X57964Y-40867D02*
X57903Y-40756D01*
X57903Y-40756D02*
X57865Y-40635D01*
X57865Y-40635D02*
X57851Y-40509D01*
X57851Y-40509D02*
X57861Y-40383D01*
X57861Y-40383D02*
X57896Y-40261D01*
X57896Y-40261D02*
X57954Y-40148D01*
X57954Y-40148D02*
X58033Y-40049D01*
X58033Y-40049D02*
X58130Y-39967D01*
X58130Y-39967D02*
X58240Y-39905D01*
X58240Y-39905D02*
X58361Y-39866D01*
X58361Y-39866D02*
X58487Y-39851D01*
X58487Y-39851D02*
X58612Y-39860D01*
X58612Y-39860D02*
X58735Y-39894D01*
X58735Y-39894D02*
X58848Y-39952D01*
X58848Y-39952D02*
X58948Y-40030D01*
X58948Y-40030D02*
X59031Y-40126D01*
X59031Y-40126D02*
X59093Y-40236D01*
X59093Y-40236D02*
X59133Y-40356D01*
X59133Y-40356D02*
X59149Y-40482D01*
X59149Y-40482D02*
X59150Y-40500D01*
G54D22*
X57780Y-31200D02*
X57780Y-31734D01*
X57780Y-31734D02*
X57847Y-31800D01*
X57847Y-31800D02*
X58180Y-31800D01*
X58180Y-31800D02*
X58247Y-31734D01*
X58247Y-31734D02*
X58247Y-31200D01*
X58700Y-31800D02*
X58966Y-31800D01*
X58833Y-31800D02*
X58833Y-31200D01*
X58833Y-31267D02*
X58700Y-31400D01*
X45600Y-32800D02*
X45600Y-32334D01*
X45600Y-32334D02*
X45734Y-32200D01*
X45734Y-32200D02*
X45934Y-32200D01*
X45934Y-32200D02*
X46067Y-32334D01*
X46067Y-32334D02*
X46067Y-32800D01*
X45600Y-32467D02*
X46067Y-32467D01*
X46386Y-32800D02*
X46386Y-32200D01*
X46386Y-32200D02*
X46786Y-32200D01*
X46786Y-32200D02*
X46853Y-32267D01*
X46853Y-32267D02*
X46853Y-32467D01*
X46853Y-32467D02*
X46786Y-32534D01*
X46786Y-32534D02*
X46386Y-32534D01*
X46586Y-32534D02*
X46853Y-32800D01*
X47239Y-32800D02*
X47239Y-32200D01*
X47172Y-32200D02*
X47572Y-32200D01*
X47572Y-32200D02*
X47639Y-32267D01*
X47639Y-32267D02*
X47639Y-32734D01*
X47639Y-32734D02*
X47572Y-32800D01*
X47572Y-32800D02*
X47172Y-32800D01*
X47958Y-32200D02*
X47958Y-32734D01*
X47958Y-32734D02*
X48025Y-32800D01*
X48025Y-32800D02*
X48358Y-32800D01*
X48358Y-32800D02*
X48425Y-32734D01*
X48425Y-32734D02*
X48425Y-32200D01*
X48811Y-32800D02*
X49078Y-32800D01*
X48944Y-32800D02*
X48944Y-32200D01*
X48811Y-32200D02*
X49078Y-32200D01*
X49530Y-32800D02*
X49530Y-32200D01*
X49530Y-32200D02*
X49997Y-32800D01*
X49997Y-32800D02*
X49997Y-32200D01*
X50383Y-32800D02*
X50316Y-32734D01*
X50316Y-32734D02*
X50316Y-32267D01*
X50316Y-32267D02*
X50383Y-32200D01*
X50383Y-32200D02*
X50716Y-32200D01*
X50716Y-32200D02*
X50783Y-32267D01*
X50783Y-32267D02*
X50783Y-32734D01*
X50783Y-32734D02*
X50716Y-32800D01*
X50716Y-32800D02*
X50383Y-32800D01*
X51102Y-32800D02*
X51569Y-32800D01*
X51888Y-32800D02*
X51888Y-32200D01*
X51888Y-32200D02*
X52355Y-32800D01*
X52355Y-32800D02*
X52355Y-32200D01*
X52674Y-32800D02*
X52674Y-32334D01*
X52674Y-32334D02*
X52808Y-32200D01*
X52808Y-32200D02*
X53008Y-32200D01*
X53008Y-32200D02*
X53141Y-32334D01*
X53141Y-32334D02*
X53141Y-32800D01*
X52674Y-32467D02*
X53141Y-32467D01*
X53460Y-32800D02*
X53460Y-32200D01*
X53460Y-32200D02*
X53927Y-32800D01*
X53927Y-32800D02*
X53927Y-32200D01*
X54313Y-32800D02*
X54246Y-32734D01*
X54246Y-32734D02*
X54246Y-32267D01*
X54246Y-32267D02*
X54313Y-32200D01*
X54313Y-32200D02*
X54646Y-32200D01*
X54646Y-32200D02*
X54713Y-32267D01*
X54713Y-32267D02*
X54713Y-32734D01*
X54713Y-32734D02*
X54646Y-32800D01*
X54646Y-32800D02*
X54313Y-32800D01*
G54D24*
X46059Y-25714D02*
X46003Y-25775D01*
X46003Y-25775D02*
X45726Y-25775D01*
X45726Y-25775D02*
X45670Y-25714D01*
X45670Y-25714D02*
X45670Y-25287D01*
X45670Y-25287D02*
X45726Y-25225D01*
X45726Y-25225D02*
X46003Y-25225D01*
X46003Y-25225D02*
X46059Y-25287D01*
X46416Y-25775D02*
X46638Y-25775D01*
X46527Y-25775D02*
X46527Y-25225D01*
X46527Y-25287D02*
X46416Y-25409D01*
X44226Y-39525D02*
X44226Y-38975D01*
X44170Y-38975D02*
X44503Y-38975D01*
X44503Y-38975D02*
X44559Y-39037D01*
X44559Y-39037D02*
X44559Y-39464D01*
X44559Y-39464D02*
X44503Y-39525D01*
X44503Y-39525D02*
X44170Y-39525D01*
X44916Y-39525D02*
X45138Y-39525D01*
X45027Y-39525D02*
X45027Y-38975D01*
X45027Y-39037D02*
X44916Y-39159D01*
X50670Y-25775D02*
X50670Y-25225D01*
X50670Y-25225D02*
X51003Y-25225D01*
X51003Y-25225D02*
X51059Y-25287D01*
X51059Y-25287D02*
X51059Y-25470D01*
X51059Y-25470D02*
X51003Y-25531D01*
X51003Y-25531D02*
X50670Y-25531D01*
X51416Y-25775D02*
X51638Y-25775D01*
X51527Y-25775D02*
X51527Y-25225D01*
X51527Y-25287D02*
X51416Y-25409D01*
G54D22*
X57300Y-38720D02*
X56700Y-38720D01*
X56700Y-38720D02*
X56700Y-38320D01*
X56700Y-38320D02*
X56767Y-38253D01*
X56767Y-38253D02*
X56967Y-38253D01*
X56967Y-38253D02*
X57034Y-38320D01*
X57034Y-38320D02*
X57034Y-38720D01*
X57300Y-37467D02*
X57300Y-37934D01*
X57300Y-37934D02*
X57100Y-37934D01*
X57100Y-37934D02*
X57034Y-37867D01*
X57034Y-37867D02*
X57034Y-37534D01*
X57034Y-37534D02*
X56967Y-37467D01*
X56967Y-37467D02*
X56767Y-37467D01*
X56767Y-37467D02*
X56700Y-37534D01*
X56700Y-37534D02*
X56700Y-37867D01*
X56700Y-37867D02*
X56767Y-37934D01*
G54D24*
X51025Y-38830D02*
X50475Y-38830D01*
X50475Y-38830D02*
X50475Y-38497D01*
X50475Y-38497D02*
X50537Y-38441D01*
X50537Y-38441D02*
X50720Y-38441D01*
X50720Y-38441D02*
X50781Y-38497D01*
X50781Y-38497D02*
X50781Y-38830D01*
X50781Y-38663D02*
X51025Y-38441D01*
X51025Y-37917D02*
X50475Y-37917D01*
X50475Y-37917D02*
X50903Y-38195D01*
X50903Y-38195D02*
X50903Y-37806D01*
X53525Y-38830D02*
X52975Y-38830D01*
X52975Y-38830D02*
X52975Y-38497D01*
X52975Y-38497D02*
X53037Y-38441D01*
X53037Y-38441D02*
X53220Y-38441D01*
X53220Y-38441D02*
X53281Y-38497D01*
X53281Y-38497D02*
X53281Y-38830D01*
X53281Y-38663D02*
X53525Y-38441D01*
X52975Y-38195D02*
X52975Y-37806D01*
X52975Y-37806D02*
X53037Y-37806D01*
X53037Y-37806D02*
X53220Y-38028D01*
X53220Y-38028D02*
X53220Y-37862D01*
X53220Y-37862D02*
X53281Y-37806D01*
X53281Y-37806D02*
X53464Y-37806D01*
X53464Y-37806D02*
X53525Y-37862D01*
X53525Y-37862D02*
X53525Y-38139D01*
X53525Y-38139D02*
X53464Y-38195D01*
X48525Y-38830D02*
X47975Y-38830D01*
X47975Y-38830D02*
X47975Y-38497D01*
X47975Y-38497D02*
X48037Y-38441D01*
X48037Y-38441D02*
X48220Y-38441D01*
X48220Y-38441D02*
X48281Y-38497D01*
X48281Y-38497D02*
X48281Y-38830D01*
X48281Y-38663D02*
X48525Y-38441D01*
X48525Y-38084D02*
X48525Y-37862D01*
X48525Y-37973D02*
X47975Y-37973D01*
X48037Y-37973D02*
X48159Y-38084D01*
X53920Y-25025D02*
X53920Y-24475D01*
X53920Y-24475D02*
X54253Y-24475D01*
X54253Y-24475D02*
X54309Y-24537D01*
X54309Y-24537D02*
X54309Y-24720D01*
X54309Y-24720D02*
X54253Y-24781D01*
X54253Y-24781D02*
X53920Y-24781D01*
X54087Y-24781D02*
X54309Y-25025D01*
X54944Y-25025D02*
X54555Y-25025D01*
X54555Y-25025D02*
X54555Y-24842D01*
X54555Y-24842D02*
X54611Y-24781D01*
X54611Y-24781D02*
X54888Y-24781D01*
X54888Y-24781D02*
X54944Y-24720D01*
X54944Y-24720D02*
X54944Y-24537D01*
X54944Y-24537D02*
X54888Y-24475D01*
X54888Y-24475D02*
X54611Y-24475D01*
X54611Y-24475D02*
X54555Y-24537D01*
M02*
